M48
; DRILL file {KiCad (5.1.5)-3} date 20/12/2020 12:51:15
; FORMAT={-:-/ absolute / metric / decimal}
; #@! TF.CreationDate,2020-12-20T12:51:15+00:00
; #@! TF.GenerationSoftware,Kicad,Pcbnew,(5.1.5)-3
; #@! TF.FileFunction,Plated,1,2,PTH
FMAT,2
METRIC
T1C0.200
T2C0.400
T3C0.700
T4C1.000
T5C1.400
T6C1.520
T7C3.000
%
G90
G05
T1
X103.09Y-110.93
X103.5Y-115.8
X105.1Y-115.8
X106.19Y-110.56
X107.37Y-116.39
X107.74Y-103.97
X107.78Y-108.96
X107.88Y-111.47
X107.88Y-113.3
X107.97Y-115.29
X109.22Y-113.56
X109.45Y-101.87
X111.57Y-108.74
X123.825Y-118.425
X124.25Y-120.8
X124.95Y-122.925
X126.4Y-122.475
X130.575Y-121.425
X132.475Y-121.325
X134.45Y-122.875
X136.875Y-113.075
X137.249Y-115.357
X137.75Y-109.5
X138.0Y-108.75
X141.75Y-108.0
X145.0Y-104.0
X145.034Y-119.761
X145.542Y-114.173
X147.0Y-106.75
X147.5Y-104.0
X148.0Y-105.0
X148.15Y-106.65
X148.55Y-111.675
X148.55Y-114.5
X148.575Y-117.35
X148.71Y-96.16
X153.67Y-114.173
X154.25Y-98.25
X156.25Y-119.0
X157.353Y-114.173
X157.79Y-96.15
X158.5Y-117.0
X161.7Y-93.8
X163.1Y-92.4
X163.449Y-121.285
X163.957Y-123.571
X164.06Y-102.35
X167.27Y-106.53
X167.894Y-115.316
T2
X107.69Y-100.94
X109.77Y-100.6
X109.855Y-102.743
X119.25Y-98.25
X126.873Y-114.427
X129.921Y-100.457
X133.985Y-119.253
X135.382Y-116.459
X153.67Y-112.395
X154.25Y-105.25
X157.734Y-112.395
X162.179Y-91.313
X162.814Y-102.87
X170.053Y-105.537
X175.75Y-109.5
T3
X113.424Y-121.638
X114.224Y-119.888
X115.024Y-121.638
X115.824Y-119.888
X116.624Y-121.638
T4
X172.84Y-94.1
X172.84Y-123.8
X175.38Y-94.1
X175.38Y-123.8
X177.92Y-94.1
X177.92Y-123.8
X180.46Y-94.1
X180.46Y-123.8
X183.0Y-94.1
T5
X194.6Y-100.56
X194.6Y-105.64
X194.6Y-110.72
X194.6Y-115.8
T6
X136.32Y-88.6
X141.4Y-88.6
X146.48Y-88.6
X151.56Y-88.6
X156.64Y-88.6
X161.72Y-88.6
T7
X187.96Y-88.9
X118.11Y-88.9
X118.11Y-128.27
X187.96Y-128.27
T3
G00X111.374Y-120.113
M15
G01X111.374Y-121.413
M16
G05
G00X118.674Y-120.113
M15
G01X118.674Y-121.413
M16
G05
T0
M30
