G04 #@! TF.GenerationSoftware,KiCad,Pcbnew,(5.1.5)-3*
G04 #@! TF.CreationDate,2020-12-20T13:32:55+00:00*
G04 #@! TF.ProjectId,sensor_node_PCB,73656e73-6f72-45f6-9e6f-64655f504342,rev?*
G04 #@! TF.SameCoordinates,Original*
G04 #@! TF.FileFunction,Soldermask,Top*
G04 #@! TF.FilePolarity,Negative*
%FSLAX46Y46*%
G04 Gerber Fmt 4.6, Leading zero omitted, Abs format (unit mm)*
G04 Created by KiCad (PCBNEW (5.1.5)-3) date 2020-12-20 13:32:55*
%MOMM*%
%LPD*%
G04 APERTURE LIST*
%ADD10C,0.100000*%
G04 APERTURE END LIST*
D10*
G36*
X188849943Y-125336248D02*
G01*
X189405189Y-125566238D01*
X189405190Y-125566239D01*
X189904899Y-125900134D01*
X190329866Y-126325101D01*
X190329867Y-126325103D01*
X190663762Y-126824811D01*
X190893752Y-127380057D01*
X191011000Y-127969501D01*
X191011000Y-128570499D01*
X190893752Y-129159943D01*
X190663762Y-129715189D01*
X190663761Y-129715190D01*
X190329866Y-130214899D01*
X189904899Y-130639866D01*
X189653347Y-130807948D01*
X189405189Y-130973762D01*
X188849943Y-131203752D01*
X188260499Y-131321000D01*
X187659501Y-131321000D01*
X187070057Y-131203752D01*
X186514811Y-130973762D01*
X186266653Y-130807948D01*
X186015101Y-130639866D01*
X185590134Y-130214899D01*
X185256239Y-129715190D01*
X185256238Y-129715189D01*
X185026248Y-129159943D01*
X184909000Y-128570499D01*
X184909000Y-127969501D01*
X185026248Y-127380057D01*
X185256238Y-126824811D01*
X185590133Y-126325103D01*
X185590134Y-126325101D01*
X186015101Y-125900134D01*
X186514810Y-125566239D01*
X186514811Y-125566238D01*
X187070057Y-125336248D01*
X187659501Y-125219000D01*
X188260499Y-125219000D01*
X188849943Y-125336248D01*
G37*
G36*
X118999943Y-125336248D02*
G01*
X119555189Y-125566238D01*
X119555190Y-125566239D01*
X120054899Y-125900134D01*
X120479866Y-126325101D01*
X120479867Y-126325103D01*
X120813762Y-126824811D01*
X121043752Y-127380057D01*
X121161000Y-127969501D01*
X121161000Y-128570499D01*
X121043752Y-129159943D01*
X120813762Y-129715189D01*
X120813761Y-129715190D01*
X120479866Y-130214899D01*
X120054899Y-130639866D01*
X119803347Y-130807948D01*
X119555189Y-130973762D01*
X118999943Y-131203752D01*
X118410499Y-131321000D01*
X117809501Y-131321000D01*
X117220057Y-131203752D01*
X116664811Y-130973762D01*
X116416653Y-130807948D01*
X116165101Y-130639866D01*
X115740134Y-130214899D01*
X115406239Y-129715190D01*
X115406238Y-129715189D01*
X115176248Y-129159943D01*
X115059000Y-128570499D01*
X115059000Y-127969501D01*
X115176248Y-127380057D01*
X115406238Y-126824811D01*
X115740133Y-126325103D01*
X115740134Y-126325101D01*
X116165101Y-125900134D01*
X116664810Y-125566239D01*
X116664811Y-125566238D01*
X117220057Y-125336248D01*
X117809501Y-125219000D01*
X118410499Y-125219000D01*
X118999943Y-125336248D01*
G37*
G36*
X180573512Y-122903927D02*
G01*
X180722812Y-122933624D01*
X180886784Y-123001544D01*
X181034354Y-123100147D01*
X181159853Y-123225646D01*
X181258456Y-123373216D01*
X181326376Y-123537188D01*
X181361000Y-123711259D01*
X181361000Y-123888741D01*
X181326376Y-124062812D01*
X181258456Y-124226784D01*
X181159853Y-124374354D01*
X181034354Y-124499853D01*
X180886784Y-124598456D01*
X180722812Y-124666376D01*
X180573512Y-124696073D01*
X180548742Y-124701000D01*
X180371258Y-124701000D01*
X180346488Y-124696073D01*
X180197188Y-124666376D01*
X180033216Y-124598456D01*
X179885646Y-124499853D01*
X179760147Y-124374354D01*
X179661544Y-124226784D01*
X179593624Y-124062812D01*
X179559000Y-123888741D01*
X179559000Y-123711259D01*
X179593624Y-123537188D01*
X179661544Y-123373216D01*
X179760147Y-123225646D01*
X179885646Y-123100147D01*
X180033216Y-123001544D01*
X180197188Y-122933624D01*
X180346488Y-122903927D01*
X180371258Y-122899000D01*
X180548742Y-122899000D01*
X180573512Y-122903927D01*
G37*
G36*
X172953512Y-122903927D02*
G01*
X173102812Y-122933624D01*
X173266784Y-123001544D01*
X173414354Y-123100147D01*
X173539853Y-123225646D01*
X173638456Y-123373216D01*
X173706376Y-123537188D01*
X173741000Y-123711259D01*
X173741000Y-123888741D01*
X173706376Y-124062812D01*
X173638456Y-124226784D01*
X173539853Y-124374354D01*
X173414354Y-124499853D01*
X173266784Y-124598456D01*
X173102812Y-124666376D01*
X172953512Y-124696073D01*
X172928742Y-124701000D01*
X172751258Y-124701000D01*
X172726488Y-124696073D01*
X172577188Y-124666376D01*
X172413216Y-124598456D01*
X172265646Y-124499853D01*
X172140147Y-124374354D01*
X172041544Y-124226784D01*
X171973624Y-124062812D01*
X171939000Y-123888741D01*
X171939000Y-123711259D01*
X171973624Y-123537188D01*
X172041544Y-123373216D01*
X172140147Y-123225646D01*
X172265646Y-123100147D01*
X172413216Y-123001544D01*
X172577188Y-122933624D01*
X172726488Y-122903927D01*
X172751258Y-122899000D01*
X172928742Y-122899000D01*
X172953512Y-122903927D01*
G37*
G36*
X178033512Y-122903927D02*
G01*
X178182812Y-122933624D01*
X178346784Y-123001544D01*
X178494354Y-123100147D01*
X178619853Y-123225646D01*
X178718456Y-123373216D01*
X178786376Y-123537188D01*
X178821000Y-123711259D01*
X178821000Y-123888741D01*
X178786376Y-124062812D01*
X178718456Y-124226784D01*
X178619853Y-124374354D01*
X178494354Y-124499853D01*
X178346784Y-124598456D01*
X178182812Y-124666376D01*
X178033512Y-124696073D01*
X178008742Y-124701000D01*
X177831258Y-124701000D01*
X177806488Y-124696073D01*
X177657188Y-124666376D01*
X177493216Y-124598456D01*
X177345646Y-124499853D01*
X177220147Y-124374354D01*
X177121544Y-124226784D01*
X177053624Y-124062812D01*
X177019000Y-123888741D01*
X177019000Y-123711259D01*
X177053624Y-123537188D01*
X177121544Y-123373216D01*
X177220147Y-123225646D01*
X177345646Y-123100147D01*
X177493216Y-123001544D01*
X177657188Y-122933624D01*
X177806488Y-122903927D01*
X177831258Y-122899000D01*
X178008742Y-122899000D01*
X178033512Y-122903927D01*
G37*
G36*
X175493512Y-122903927D02*
G01*
X175642812Y-122933624D01*
X175806784Y-123001544D01*
X175954354Y-123100147D01*
X176079853Y-123225646D01*
X176178456Y-123373216D01*
X176246376Y-123537188D01*
X176281000Y-123711259D01*
X176281000Y-123888741D01*
X176246376Y-124062812D01*
X176178456Y-124226784D01*
X176079853Y-124374354D01*
X175954354Y-124499853D01*
X175806784Y-124598456D01*
X175642812Y-124666376D01*
X175493512Y-124696073D01*
X175468742Y-124701000D01*
X175291258Y-124701000D01*
X175266488Y-124696073D01*
X175117188Y-124666376D01*
X174953216Y-124598456D01*
X174805646Y-124499853D01*
X174680147Y-124374354D01*
X174581544Y-124226784D01*
X174513624Y-124062812D01*
X174479000Y-123888741D01*
X174479000Y-123711259D01*
X174513624Y-123537188D01*
X174581544Y-123373216D01*
X174680147Y-123225646D01*
X174805646Y-123100147D01*
X174953216Y-123001544D01*
X175117188Y-122933624D01*
X175266488Y-122903927D01*
X175291258Y-122899000D01*
X175468742Y-122899000D01*
X175493512Y-122903927D01*
G37*
G36*
X155379591Y-122403085D02*
G01*
X155413569Y-122413393D01*
X155444890Y-122430134D01*
X155472339Y-122452661D01*
X155494866Y-122480110D01*
X155511607Y-122511431D01*
X155521915Y-122545409D01*
X155526000Y-122586890D01*
X155526000Y-123188110D01*
X155521915Y-123229591D01*
X155511607Y-123263569D01*
X155494866Y-123294890D01*
X155472339Y-123322339D01*
X155444890Y-123344866D01*
X155413569Y-123361607D01*
X155379591Y-123371915D01*
X155338110Y-123376000D01*
X154661890Y-123376000D01*
X154620409Y-123371915D01*
X154586431Y-123361607D01*
X154555110Y-123344866D01*
X154527661Y-123322339D01*
X154505134Y-123294890D01*
X154488393Y-123263569D01*
X154478085Y-123229591D01*
X154474000Y-123188110D01*
X154474000Y-122586890D01*
X154478085Y-122545409D01*
X154488393Y-122511431D01*
X154505134Y-122480110D01*
X154527661Y-122452661D01*
X154555110Y-122430134D01*
X154586431Y-122413393D01*
X154620409Y-122403085D01*
X154661890Y-122399000D01*
X155338110Y-122399000D01*
X155379591Y-122403085D01*
G37*
G36*
X144351000Y-123301000D02*
G01*
X143449000Y-123301000D01*
X143449000Y-122299000D01*
X144351000Y-122299000D01*
X144351000Y-123301000D01*
G37*
G36*
X146251000Y-123301000D02*
G01*
X145349000Y-123301000D01*
X145349000Y-122299000D01*
X146251000Y-122299000D01*
X146251000Y-123301000D01*
G37*
G36*
X150001000Y-123201000D02*
G01*
X149099000Y-123201000D01*
X149099000Y-122199000D01*
X150001000Y-122199000D01*
X150001000Y-123201000D01*
G37*
G36*
X151901000Y-123201000D02*
G01*
X150999000Y-123201000D01*
X150999000Y-122199000D01*
X151901000Y-122199000D01*
X151901000Y-123201000D01*
G37*
G36*
X140679591Y-121990585D02*
G01*
X140713569Y-122000893D01*
X140744890Y-122017634D01*
X140772339Y-122040161D01*
X140794866Y-122067610D01*
X140811607Y-122098931D01*
X140821915Y-122132909D01*
X140826000Y-122174390D01*
X140826000Y-122775610D01*
X140821915Y-122817091D01*
X140811607Y-122851069D01*
X140794866Y-122882390D01*
X140772339Y-122909839D01*
X140744890Y-122932366D01*
X140713569Y-122949107D01*
X140679591Y-122959415D01*
X140638110Y-122963500D01*
X139961890Y-122963500D01*
X139920409Y-122959415D01*
X139886431Y-122949107D01*
X139855110Y-122932366D01*
X139827661Y-122909839D01*
X139805134Y-122882390D01*
X139788393Y-122851069D01*
X139778085Y-122817091D01*
X139774000Y-122775610D01*
X139774000Y-122174390D01*
X139778085Y-122132909D01*
X139788393Y-122098931D01*
X139805134Y-122067610D01*
X139827661Y-122040161D01*
X139855110Y-122017634D01*
X139886431Y-122000893D01*
X139920409Y-121990585D01*
X139961890Y-121986500D01*
X140638110Y-121986500D01*
X140679591Y-121990585D01*
G37*
G36*
X132992091Y-121803085D02*
G01*
X133026069Y-121813393D01*
X133057390Y-121830134D01*
X133084839Y-121852661D01*
X133107366Y-121880110D01*
X133124107Y-121911431D01*
X133134415Y-121945409D01*
X133138500Y-121986890D01*
X133138500Y-122663110D01*
X133134415Y-122704591D01*
X133124107Y-122738569D01*
X133107366Y-122769890D01*
X133084839Y-122797339D01*
X133057390Y-122819866D01*
X133026069Y-122836607D01*
X132992091Y-122846915D01*
X132950610Y-122851000D01*
X132349390Y-122851000D01*
X132307909Y-122846915D01*
X132273931Y-122836607D01*
X132242610Y-122819866D01*
X132215161Y-122797339D01*
X132192634Y-122769890D01*
X132175893Y-122738569D01*
X132165585Y-122704591D01*
X132161500Y-122663110D01*
X132161500Y-121986890D01*
X132165585Y-121945409D01*
X132175893Y-121911431D01*
X132192634Y-121880110D01*
X132215161Y-121852661D01*
X132242610Y-121830134D01*
X132273931Y-121813393D01*
X132307909Y-121803085D01*
X132349390Y-121799000D01*
X132950610Y-121799000D01*
X132992091Y-121803085D01*
G37*
G36*
X131417091Y-121803085D02*
G01*
X131451069Y-121813393D01*
X131482390Y-121830134D01*
X131509839Y-121852661D01*
X131532366Y-121880110D01*
X131549107Y-121911431D01*
X131559415Y-121945409D01*
X131563500Y-121986890D01*
X131563500Y-122663110D01*
X131559415Y-122704591D01*
X131549107Y-122738569D01*
X131532366Y-122769890D01*
X131509839Y-122797339D01*
X131482390Y-122819866D01*
X131451069Y-122836607D01*
X131417091Y-122846915D01*
X131375610Y-122851000D01*
X130774390Y-122851000D01*
X130732909Y-122846915D01*
X130698931Y-122836607D01*
X130667610Y-122819866D01*
X130640161Y-122797339D01*
X130617634Y-122769890D01*
X130600893Y-122738569D01*
X130590585Y-122704591D01*
X130586500Y-122663110D01*
X130586500Y-121986890D01*
X130590585Y-121945409D01*
X130600893Y-121911431D01*
X130617634Y-121880110D01*
X130640161Y-121852661D01*
X130667610Y-121830134D01*
X130698931Y-121813393D01*
X130732909Y-121803085D01*
X130774390Y-121799000D01*
X131375610Y-121799000D01*
X131417091Y-121803085D01*
G37*
G36*
X114025000Y-122239000D02*
G01*
X112823000Y-122239000D01*
X112823000Y-121037000D01*
X114025000Y-121037000D01*
X114025000Y-122239000D01*
G37*
G36*
X115160601Y-121052397D02*
G01*
X115199305Y-121060096D01*
X115218990Y-121068250D01*
X115308680Y-121105400D01*
X115407115Y-121171173D01*
X115490827Y-121254885D01*
X115556600Y-121353320D01*
X115578996Y-121407390D01*
X115599697Y-121457366D01*
X115601904Y-121462696D01*
X115625000Y-121578805D01*
X115625000Y-121697195D01*
X115614792Y-121748512D01*
X115601904Y-121813305D01*
X115588635Y-121845340D01*
X115556600Y-121922680D01*
X115490827Y-122021115D01*
X115407115Y-122104827D01*
X115308680Y-122170600D01*
X115240115Y-122199000D01*
X115199305Y-122215904D01*
X115160601Y-122223603D01*
X115083195Y-122239000D01*
X114964805Y-122239000D01*
X114887399Y-122223603D01*
X114848695Y-122215904D01*
X114807885Y-122199000D01*
X114739320Y-122170600D01*
X114640885Y-122104827D01*
X114557173Y-122021115D01*
X114491400Y-121922680D01*
X114459365Y-121845340D01*
X114446096Y-121813305D01*
X114433208Y-121748512D01*
X114423000Y-121697195D01*
X114423000Y-121578805D01*
X114446096Y-121462696D01*
X114448304Y-121457366D01*
X114469004Y-121407390D01*
X114491400Y-121353320D01*
X114557173Y-121254885D01*
X114640885Y-121171173D01*
X114739320Y-121105400D01*
X114829010Y-121068250D01*
X114848695Y-121060096D01*
X114887399Y-121052397D01*
X114964805Y-121037000D01*
X115083195Y-121037000D01*
X115160601Y-121052397D01*
G37*
G36*
X116760601Y-121052397D02*
G01*
X116799305Y-121060096D01*
X116818990Y-121068250D01*
X116908680Y-121105400D01*
X117007115Y-121171173D01*
X117090827Y-121254885D01*
X117156600Y-121353320D01*
X117178996Y-121407390D01*
X117199697Y-121457366D01*
X117201904Y-121462696D01*
X117225000Y-121578805D01*
X117225000Y-121697195D01*
X117214792Y-121748512D01*
X117201904Y-121813305D01*
X117188635Y-121845340D01*
X117156600Y-121922680D01*
X117090827Y-122021115D01*
X117007115Y-122104827D01*
X116908680Y-122170600D01*
X116840115Y-122199000D01*
X116799305Y-122215904D01*
X116760601Y-122223603D01*
X116683195Y-122239000D01*
X116564805Y-122239000D01*
X116487399Y-122223603D01*
X116448695Y-122215904D01*
X116407885Y-122199000D01*
X116339320Y-122170600D01*
X116240885Y-122104827D01*
X116157173Y-122021115D01*
X116091400Y-121922680D01*
X116059365Y-121845340D01*
X116046096Y-121813305D01*
X116033208Y-121748512D01*
X116023000Y-121697195D01*
X116023000Y-121578805D01*
X116046096Y-121462696D01*
X116048304Y-121457366D01*
X116069004Y-121407390D01*
X116091400Y-121353320D01*
X116157173Y-121254885D01*
X116240885Y-121171173D01*
X116339320Y-121105400D01*
X116429010Y-121068250D01*
X116448695Y-121060096D01*
X116487399Y-121052397D01*
X116564805Y-121037000D01*
X116683195Y-121037000D01*
X116760601Y-121052397D01*
G37*
G36*
X111491817Y-119520696D02*
G01*
X111605104Y-119555062D01*
X111709511Y-119610869D01*
X111709513Y-119610870D01*
X111709512Y-119610870D01*
X111801027Y-119685973D01*
X111842813Y-119736890D01*
X111876131Y-119777488D01*
X111931938Y-119881895D01*
X111966304Y-119995182D01*
X111975000Y-120083481D01*
X111975000Y-121442519D01*
X111966304Y-121530818D01*
X111931938Y-121644105D01*
X111876131Y-121748512D01*
X111801027Y-121840027D01*
X111709512Y-121915131D01*
X111605105Y-121970938D01*
X111491818Y-122005304D01*
X111374000Y-122016907D01*
X111256183Y-122005304D01*
X111142896Y-121970938D01*
X111038489Y-121915131D01*
X110946974Y-121840027D01*
X110871870Y-121748512D01*
X110816063Y-121644105D01*
X110781697Y-121530818D01*
X110773001Y-121442519D01*
X110773000Y-120083482D01*
X110781696Y-119995183D01*
X110816062Y-119881896D01*
X110871869Y-119777489D01*
X110899058Y-119744359D01*
X110946973Y-119685973D01*
X111038487Y-119610870D01*
X111038486Y-119610870D01*
X111038488Y-119610869D01*
X111142895Y-119555062D01*
X111256182Y-119520696D01*
X111374000Y-119509093D01*
X111491817Y-119520696D01*
G37*
G36*
X118791817Y-119520696D02*
G01*
X118905104Y-119555062D01*
X119009511Y-119610869D01*
X119009513Y-119610870D01*
X119009512Y-119610870D01*
X119101027Y-119685973D01*
X119142813Y-119736890D01*
X119176131Y-119777488D01*
X119231938Y-119881895D01*
X119266304Y-119995182D01*
X119275000Y-120083481D01*
X119275000Y-121442519D01*
X119266304Y-121530818D01*
X119231938Y-121644105D01*
X119176131Y-121748512D01*
X119101027Y-121840027D01*
X119009512Y-121915131D01*
X118905105Y-121970938D01*
X118791818Y-122005304D01*
X118674000Y-122016907D01*
X118556183Y-122005304D01*
X118442896Y-121970938D01*
X118338489Y-121915131D01*
X118246974Y-121840027D01*
X118171870Y-121748512D01*
X118116063Y-121644105D01*
X118081697Y-121530818D01*
X118073001Y-121442519D01*
X118073000Y-120083482D01*
X118081696Y-119995183D01*
X118116062Y-119881896D01*
X118171869Y-119777489D01*
X118199058Y-119744359D01*
X118246973Y-119685973D01*
X118338487Y-119610870D01*
X118338486Y-119610870D01*
X118338488Y-119610869D01*
X118442895Y-119555062D01*
X118556182Y-119520696D01*
X118674000Y-119509093D01*
X118791817Y-119520696D01*
G37*
G36*
X126405355Y-121100083D02*
G01*
X126410029Y-121101501D01*
X126414330Y-121103800D01*
X126420702Y-121109029D01*
X126441076Y-121122643D01*
X126463715Y-121132020D01*
X126487749Y-121136800D01*
X126512253Y-121136800D01*
X126536286Y-121132019D01*
X126558925Y-121122642D01*
X126579298Y-121109029D01*
X126585670Y-121103800D01*
X126589971Y-121101501D01*
X126594645Y-121100083D01*
X126605641Y-121099000D01*
X126894359Y-121099000D01*
X126905355Y-121100083D01*
X126910029Y-121101501D01*
X126914330Y-121103800D01*
X126920702Y-121109029D01*
X126941076Y-121122643D01*
X126963715Y-121132020D01*
X126987749Y-121136800D01*
X127012253Y-121136800D01*
X127036286Y-121132019D01*
X127058925Y-121122642D01*
X127079298Y-121109029D01*
X127085670Y-121103800D01*
X127089971Y-121101501D01*
X127094645Y-121100083D01*
X127105641Y-121099000D01*
X127394359Y-121099000D01*
X127405355Y-121100083D01*
X127410029Y-121101501D01*
X127414330Y-121103800D01*
X127420702Y-121109029D01*
X127441076Y-121122643D01*
X127463715Y-121132020D01*
X127487749Y-121136800D01*
X127512253Y-121136800D01*
X127536286Y-121132019D01*
X127558925Y-121122642D01*
X127579298Y-121109029D01*
X127585670Y-121103800D01*
X127589971Y-121101501D01*
X127594645Y-121100083D01*
X127605641Y-121099000D01*
X127894359Y-121099000D01*
X127905355Y-121100083D01*
X127910029Y-121101501D01*
X127914330Y-121103800D01*
X127920702Y-121109029D01*
X127941076Y-121122643D01*
X127963715Y-121132020D01*
X127987749Y-121136800D01*
X128012253Y-121136800D01*
X128036286Y-121132019D01*
X128058925Y-121122642D01*
X128079298Y-121109029D01*
X128085670Y-121103800D01*
X128089971Y-121101501D01*
X128094645Y-121100083D01*
X128105641Y-121099000D01*
X128394359Y-121099000D01*
X128405355Y-121100083D01*
X128410029Y-121101501D01*
X128414330Y-121103800D01*
X128420702Y-121109029D01*
X128441076Y-121122643D01*
X128463715Y-121132020D01*
X128487749Y-121136800D01*
X128512253Y-121136800D01*
X128536286Y-121132019D01*
X128558925Y-121122642D01*
X128579298Y-121109029D01*
X128585670Y-121103800D01*
X128589971Y-121101501D01*
X128594645Y-121100083D01*
X128605641Y-121099000D01*
X128894359Y-121099000D01*
X128905355Y-121100083D01*
X128910029Y-121101501D01*
X128914330Y-121103800D01*
X128920702Y-121109029D01*
X128941076Y-121122643D01*
X128963715Y-121132020D01*
X128987749Y-121136800D01*
X129012253Y-121136800D01*
X129036286Y-121132019D01*
X129058925Y-121122642D01*
X129079298Y-121109029D01*
X129085670Y-121103800D01*
X129089971Y-121101501D01*
X129094645Y-121100083D01*
X129105641Y-121099000D01*
X129394359Y-121099000D01*
X129405355Y-121100083D01*
X129410029Y-121101501D01*
X129414331Y-121103800D01*
X129418104Y-121106896D01*
X129421200Y-121110669D01*
X129423499Y-121114971D01*
X129424917Y-121119645D01*
X129426000Y-121130641D01*
X129426000Y-121969359D01*
X129424917Y-121980355D01*
X129423499Y-121985029D01*
X129421200Y-121989331D01*
X129418104Y-121993104D01*
X129414331Y-121996200D01*
X129410029Y-121998499D01*
X129405355Y-121999917D01*
X129394359Y-122001000D01*
X129105641Y-122001000D01*
X129094645Y-121999917D01*
X129089971Y-121998499D01*
X129085670Y-121996200D01*
X129079298Y-121990971D01*
X129058924Y-121977357D01*
X129036285Y-121967980D01*
X129012251Y-121963200D01*
X128987747Y-121963200D01*
X128963714Y-121967981D01*
X128941075Y-121977358D01*
X128920702Y-121990971D01*
X128914330Y-121996200D01*
X128910029Y-121998499D01*
X128905355Y-121999917D01*
X128894359Y-122001000D01*
X128605641Y-122001000D01*
X128594645Y-121999917D01*
X128589971Y-121998499D01*
X128585670Y-121996200D01*
X128579298Y-121990971D01*
X128558924Y-121977357D01*
X128536285Y-121967980D01*
X128512251Y-121963200D01*
X128487747Y-121963200D01*
X128463714Y-121967981D01*
X128441075Y-121977358D01*
X128420702Y-121990971D01*
X128414330Y-121996200D01*
X128410029Y-121998499D01*
X128405355Y-121999917D01*
X128394359Y-122001000D01*
X128105641Y-122001000D01*
X128094645Y-121999917D01*
X128089971Y-121998499D01*
X128085670Y-121996200D01*
X128079298Y-121990971D01*
X128058924Y-121977357D01*
X128036285Y-121967980D01*
X128012251Y-121963200D01*
X127987747Y-121963200D01*
X127963714Y-121967981D01*
X127941075Y-121977358D01*
X127920702Y-121990971D01*
X127914330Y-121996200D01*
X127910029Y-121998499D01*
X127905355Y-121999917D01*
X127894359Y-122001000D01*
X127605641Y-122001000D01*
X127594645Y-121999917D01*
X127589971Y-121998499D01*
X127585670Y-121996200D01*
X127579298Y-121990971D01*
X127558924Y-121977357D01*
X127536285Y-121967980D01*
X127512251Y-121963200D01*
X127487747Y-121963200D01*
X127463714Y-121967981D01*
X127441075Y-121977358D01*
X127420702Y-121990971D01*
X127414330Y-121996200D01*
X127410029Y-121998499D01*
X127405355Y-121999917D01*
X127394359Y-122001000D01*
X127105641Y-122001000D01*
X127094645Y-121999917D01*
X127089971Y-121998499D01*
X127085670Y-121996200D01*
X127079298Y-121990971D01*
X127058924Y-121977357D01*
X127036285Y-121967980D01*
X127012251Y-121963200D01*
X126987747Y-121963200D01*
X126963714Y-121967981D01*
X126941075Y-121977358D01*
X126920702Y-121990971D01*
X126914330Y-121996200D01*
X126910029Y-121998499D01*
X126905355Y-121999917D01*
X126894359Y-122001000D01*
X126605641Y-122001000D01*
X126594645Y-121999917D01*
X126589971Y-121998499D01*
X126585670Y-121996200D01*
X126579298Y-121990971D01*
X126558924Y-121977357D01*
X126536285Y-121967980D01*
X126512251Y-121963200D01*
X126487747Y-121963200D01*
X126463714Y-121967981D01*
X126441075Y-121977358D01*
X126420702Y-121990971D01*
X126414330Y-121996200D01*
X126410029Y-121998499D01*
X126405355Y-121999917D01*
X126394359Y-122001000D01*
X126105641Y-122001000D01*
X126094645Y-121999917D01*
X126089971Y-121998499D01*
X126085669Y-121996200D01*
X126081896Y-121993104D01*
X126078800Y-121989331D01*
X126076501Y-121985029D01*
X126075083Y-121980355D01*
X126074000Y-121969359D01*
X126074000Y-121130641D01*
X126075083Y-121119645D01*
X126076501Y-121114971D01*
X126078800Y-121110669D01*
X126081896Y-121106896D01*
X126085669Y-121103800D01*
X126089971Y-121101501D01*
X126094645Y-121100083D01*
X126105641Y-121099000D01*
X126394359Y-121099000D01*
X126405355Y-121100083D01*
G37*
G36*
X155379591Y-120828085D02*
G01*
X155413569Y-120838393D01*
X155444890Y-120855134D01*
X155472339Y-120877661D01*
X155494866Y-120905110D01*
X155511607Y-120936431D01*
X155521915Y-120970409D01*
X155526000Y-121011890D01*
X155526000Y-121613110D01*
X155521915Y-121654591D01*
X155511607Y-121688569D01*
X155494866Y-121719890D01*
X155472339Y-121747339D01*
X155444890Y-121769866D01*
X155413569Y-121786607D01*
X155379591Y-121796915D01*
X155338110Y-121801000D01*
X154661890Y-121801000D01*
X154620409Y-121796915D01*
X154586431Y-121786607D01*
X154555110Y-121769866D01*
X154527661Y-121747339D01*
X154505134Y-121719890D01*
X154488393Y-121688569D01*
X154478085Y-121654591D01*
X154474000Y-121613110D01*
X154474000Y-121011890D01*
X154478085Y-120970409D01*
X154488393Y-120936431D01*
X154505134Y-120905110D01*
X154527661Y-120877661D01*
X154555110Y-120855134D01*
X154586431Y-120838393D01*
X154620409Y-120828085D01*
X154661890Y-120824000D01*
X155338110Y-120824000D01*
X155379591Y-120828085D01*
G37*
G36*
X166779591Y-120515585D02*
G01*
X166813569Y-120525893D01*
X166844890Y-120542634D01*
X166872339Y-120565161D01*
X166894866Y-120592610D01*
X166911607Y-120623931D01*
X166921915Y-120657909D01*
X166926000Y-120699390D01*
X166926000Y-121300610D01*
X166921915Y-121342091D01*
X166911607Y-121376069D01*
X166894866Y-121407390D01*
X166872339Y-121434839D01*
X166844890Y-121457366D01*
X166813569Y-121474107D01*
X166779591Y-121484415D01*
X166738110Y-121488500D01*
X166061890Y-121488500D01*
X166020409Y-121484415D01*
X165986431Y-121474107D01*
X165955110Y-121457366D01*
X165927661Y-121434839D01*
X165905134Y-121407390D01*
X165888393Y-121376069D01*
X165878085Y-121342091D01*
X165874000Y-121300610D01*
X165874000Y-120699390D01*
X165878085Y-120657909D01*
X165888393Y-120623931D01*
X165905134Y-120592610D01*
X165927661Y-120565161D01*
X165955110Y-120542634D01*
X165986431Y-120525893D01*
X166020409Y-120515585D01*
X166061890Y-120511500D01*
X166738110Y-120511500D01*
X166779591Y-120515585D01*
G37*
G36*
X140679591Y-120415585D02*
G01*
X140713569Y-120425893D01*
X140744890Y-120442634D01*
X140772339Y-120465161D01*
X140794866Y-120492610D01*
X140811607Y-120523931D01*
X140821915Y-120557909D01*
X140826000Y-120599390D01*
X140826000Y-121200610D01*
X140821915Y-121242091D01*
X140811607Y-121276069D01*
X140794866Y-121307390D01*
X140772339Y-121334839D01*
X140744890Y-121357366D01*
X140713569Y-121374107D01*
X140679591Y-121384415D01*
X140638110Y-121388500D01*
X139961890Y-121388500D01*
X139920409Y-121384415D01*
X139886431Y-121374107D01*
X139855110Y-121357366D01*
X139827661Y-121334839D01*
X139805134Y-121307390D01*
X139788393Y-121276069D01*
X139778085Y-121242091D01*
X139774000Y-121200610D01*
X139774000Y-120599390D01*
X139778085Y-120557909D01*
X139788393Y-120523931D01*
X139805134Y-120492610D01*
X139827661Y-120465161D01*
X139855110Y-120442634D01*
X139886431Y-120425893D01*
X139920409Y-120415585D01*
X139961890Y-120411500D01*
X140638110Y-120411500D01*
X140679591Y-120415585D01*
G37*
G36*
X145301000Y-121301000D02*
G01*
X144399000Y-121301000D01*
X144399000Y-120299000D01*
X145301000Y-120299000D01*
X145301000Y-121301000D01*
G37*
G36*
X150951000Y-121201000D02*
G01*
X150049000Y-121201000D01*
X150049000Y-120199000D01*
X150951000Y-120199000D01*
X150951000Y-121201000D01*
G37*
G36*
X133634592Y-120093086D02*
G01*
X133668570Y-120103394D01*
X133699891Y-120120135D01*
X133727340Y-120142662D01*
X133749867Y-120170111D01*
X133766608Y-120201432D01*
X133776916Y-120235410D01*
X133781001Y-120276891D01*
X133781001Y-120953111D01*
X133776916Y-120994592D01*
X133766608Y-121028570D01*
X133749867Y-121059891D01*
X133727340Y-121087340D01*
X133699891Y-121109867D01*
X133668570Y-121126608D01*
X133634592Y-121136916D01*
X133593111Y-121141001D01*
X132991891Y-121141001D01*
X132950410Y-121136916D01*
X132916432Y-121126608D01*
X132885111Y-121109867D01*
X132857662Y-121087340D01*
X132835135Y-121059891D01*
X132818394Y-121028570D01*
X132808086Y-120994592D01*
X132804001Y-120953111D01*
X132804001Y-120276891D01*
X132808086Y-120235410D01*
X132818394Y-120201432D01*
X132835135Y-120170111D01*
X132857662Y-120142662D01*
X132885111Y-120120135D01*
X132916432Y-120103394D01*
X132950410Y-120093086D01*
X132991891Y-120089001D01*
X133593111Y-120089001D01*
X133634592Y-120093086D01*
G37*
G36*
X132059592Y-120093086D02*
G01*
X132093570Y-120103394D01*
X132124891Y-120120135D01*
X132152340Y-120142662D01*
X132174867Y-120170111D01*
X132191608Y-120201432D01*
X132201916Y-120235410D01*
X132206001Y-120276891D01*
X132206001Y-120953111D01*
X132201916Y-120994592D01*
X132191608Y-121028570D01*
X132174867Y-121059891D01*
X132152340Y-121087340D01*
X132124891Y-121109867D01*
X132093570Y-121126608D01*
X132059592Y-121136916D01*
X132018111Y-121141001D01*
X131416891Y-121141001D01*
X131375410Y-121136916D01*
X131341432Y-121126608D01*
X131310111Y-121109867D01*
X131282662Y-121087340D01*
X131260135Y-121059891D01*
X131243394Y-121028570D01*
X131233086Y-120994592D01*
X131229001Y-120953111D01*
X131229001Y-120276891D01*
X131233086Y-120235410D01*
X131243394Y-120201432D01*
X131260135Y-120170111D01*
X131282662Y-120142662D01*
X131310111Y-120120135D01*
X131341432Y-120103394D01*
X131375410Y-120093086D01*
X131416891Y-120089001D01*
X132018111Y-120089001D01*
X132059592Y-120093086D01*
G37*
G36*
X129354124Y-117377499D02*
G01*
X129382387Y-117386073D01*
X129408434Y-117399996D01*
X129431267Y-117418733D01*
X129450004Y-117441566D01*
X129463927Y-117467613D01*
X129472501Y-117495876D01*
X129476000Y-117531408D01*
X129476000Y-120668592D01*
X129472501Y-120704124D01*
X129463927Y-120732387D01*
X129450004Y-120758434D01*
X129431267Y-120781267D01*
X129408434Y-120800004D01*
X129382387Y-120813927D01*
X129354124Y-120822501D01*
X129318592Y-120826000D01*
X126181408Y-120826000D01*
X126145876Y-120822501D01*
X126117613Y-120813927D01*
X126091566Y-120800004D01*
X126068733Y-120781267D01*
X126049996Y-120758434D01*
X126036073Y-120732387D01*
X126027499Y-120704124D01*
X126024000Y-120668592D01*
X126024000Y-117531408D01*
X126027499Y-117495876D01*
X126036073Y-117467613D01*
X126049996Y-117441566D01*
X126068733Y-117418733D01*
X126091566Y-117399996D01*
X126117613Y-117386073D01*
X126145876Y-117377499D01*
X126181408Y-117374000D01*
X129318592Y-117374000D01*
X129354124Y-117377499D01*
G37*
G36*
X125730355Y-117425083D02*
G01*
X125735029Y-117426501D01*
X125739331Y-117428800D01*
X125743104Y-117431896D01*
X125746200Y-117435669D01*
X125748499Y-117439971D01*
X125749917Y-117444645D01*
X125751000Y-117455641D01*
X125751000Y-117744359D01*
X125749917Y-117755355D01*
X125748499Y-117760029D01*
X125746200Y-117764330D01*
X125740971Y-117770702D01*
X125727357Y-117791076D01*
X125717980Y-117813715D01*
X125713200Y-117837749D01*
X125713200Y-117862253D01*
X125717981Y-117886286D01*
X125727358Y-117908925D01*
X125740971Y-117929298D01*
X125746200Y-117935670D01*
X125748499Y-117939971D01*
X125749917Y-117944645D01*
X125751000Y-117955641D01*
X125751000Y-118244359D01*
X125749917Y-118255355D01*
X125748499Y-118260029D01*
X125746200Y-118264330D01*
X125740971Y-118270702D01*
X125727357Y-118291076D01*
X125717980Y-118313715D01*
X125713200Y-118337749D01*
X125713200Y-118362253D01*
X125717981Y-118386286D01*
X125727358Y-118408925D01*
X125740971Y-118429298D01*
X125746200Y-118435670D01*
X125748499Y-118439971D01*
X125749917Y-118444645D01*
X125751000Y-118455641D01*
X125751000Y-118744359D01*
X125749917Y-118755355D01*
X125748499Y-118760029D01*
X125746200Y-118764330D01*
X125740971Y-118770702D01*
X125727357Y-118791076D01*
X125717980Y-118813715D01*
X125713200Y-118837749D01*
X125713200Y-118862253D01*
X125717981Y-118886286D01*
X125727358Y-118908925D01*
X125740971Y-118929298D01*
X125746200Y-118935670D01*
X125748499Y-118939971D01*
X125749917Y-118944645D01*
X125751000Y-118955641D01*
X125751000Y-119244359D01*
X125749917Y-119255355D01*
X125748499Y-119260029D01*
X125746200Y-119264330D01*
X125740971Y-119270702D01*
X125727357Y-119291076D01*
X125717980Y-119313715D01*
X125713200Y-119337749D01*
X125713200Y-119362253D01*
X125717981Y-119386286D01*
X125727358Y-119408925D01*
X125740971Y-119429298D01*
X125746200Y-119435670D01*
X125748499Y-119439971D01*
X125749917Y-119444645D01*
X125751000Y-119455641D01*
X125751000Y-119744359D01*
X125749917Y-119755355D01*
X125748499Y-119760029D01*
X125746200Y-119764330D01*
X125740971Y-119770702D01*
X125727357Y-119791076D01*
X125717980Y-119813715D01*
X125713200Y-119837749D01*
X125713200Y-119862253D01*
X125717981Y-119886286D01*
X125727358Y-119908925D01*
X125740971Y-119929298D01*
X125746200Y-119935670D01*
X125748499Y-119939971D01*
X125749917Y-119944645D01*
X125751000Y-119955641D01*
X125751000Y-120244359D01*
X125749917Y-120255355D01*
X125748499Y-120260029D01*
X125746200Y-120264330D01*
X125740971Y-120270702D01*
X125727357Y-120291076D01*
X125717980Y-120313715D01*
X125713200Y-120337749D01*
X125713200Y-120362253D01*
X125717981Y-120386286D01*
X125727358Y-120408925D01*
X125740971Y-120429298D01*
X125746200Y-120435670D01*
X125748499Y-120439971D01*
X125749917Y-120444645D01*
X125751000Y-120455641D01*
X125751000Y-120744359D01*
X125749917Y-120755355D01*
X125748499Y-120760029D01*
X125746200Y-120764331D01*
X125743104Y-120768104D01*
X125739331Y-120771200D01*
X125735029Y-120773499D01*
X125730355Y-120774917D01*
X125719359Y-120776000D01*
X124880641Y-120776000D01*
X124869645Y-120774917D01*
X124864971Y-120773499D01*
X124860669Y-120771200D01*
X124856896Y-120768104D01*
X124853800Y-120764331D01*
X124851501Y-120760029D01*
X124850083Y-120755355D01*
X124849000Y-120744359D01*
X124849000Y-120455641D01*
X124850083Y-120444645D01*
X124851501Y-120439971D01*
X124853800Y-120435670D01*
X124859029Y-120429298D01*
X124872643Y-120408924D01*
X124882020Y-120386285D01*
X124886800Y-120362251D01*
X124886800Y-120337747D01*
X124882019Y-120313714D01*
X124872642Y-120291075D01*
X124859029Y-120270702D01*
X124853800Y-120264330D01*
X124851501Y-120260029D01*
X124850083Y-120255355D01*
X124849000Y-120244359D01*
X124849000Y-119955641D01*
X124850083Y-119944645D01*
X124851501Y-119939971D01*
X124853800Y-119935670D01*
X124859029Y-119929298D01*
X124872643Y-119908924D01*
X124882020Y-119886285D01*
X124886800Y-119862251D01*
X124886800Y-119837747D01*
X124882019Y-119813714D01*
X124872642Y-119791075D01*
X124859029Y-119770702D01*
X124853800Y-119764330D01*
X124851501Y-119760029D01*
X124850083Y-119755355D01*
X124849000Y-119744359D01*
X124849000Y-119455641D01*
X124850083Y-119444645D01*
X124851501Y-119439971D01*
X124853800Y-119435670D01*
X124859029Y-119429298D01*
X124872643Y-119408924D01*
X124882020Y-119386285D01*
X124886800Y-119362251D01*
X124886800Y-119337747D01*
X124882019Y-119313714D01*
X124872642Y-119291075D01*
X124859029Y-119270702D01*
X124853800Y-119264330D01*
X124851501Y-119260029D01*
X124850083Y-119255355D01*
X124849000Y-119244359D01*
X124849000Y-118955641D01*
X124850083Y-118944645D01*
X124851501Y-118939971D01*
X124853800Y-118935670D01*
X124859029Y-118929298D01*
X124872643Y-118908924D01*
X124882020Y-118886285D01*
X124886800Y-118862251D01*
X124886800Y-118837747D01*
X124882019Y-118813714D01*
X124872642Y-118791075D01*
X124859029Y-118770702D01*
X124853800Y-118764330D01*
X124851501Y-118760029D01*
X124850083Y-118755355D01*
X124849000Y-118744359D01*
X124849000Y-118455641D01*
X124850083Y-118444645D01*
X124851501Y-118439971D01*
X124853800Y-118435670D01*
X124859029Y-118429298D01*
X124872643Y-118408924D01*
X124882020Y-118386285D01*
X124886800Y-118362251D01*
X124886800Y-118337747D01*
X124882019Y-118313714D01*
X124872642Y-118291075D01*
X124859029Y-118270702D01*
X124853800Y-118264330D01*
X124851501Y-118260029D01*
X124850083Y-118255355D01*
X124849000Y-118244359D01*
X124849000Y-117955641D01*
X124850083Y-117944645D01*
X124851501Y-117939971D01*
X124853800Y-117935670D01*
X124859029Y-117929298D01*
X124872643Y-117908924D01*
X124882020Y-117886285D01*
X124886800Y-117862251D01*
X124886800Y-117837747D01*
X124882019Y-117813714D01*
X124872642Y-117791075D01*
X124859029Y-117770702D01*
X124853800Y-117764330D01*
X124851501Y-117760029D01*
X124850083Y-117755355D01*
X124849000Y-117744359D01*
X124849000Y-117455641D01*
X124850083Y-117444645D01*
X124851501Y-117439971D01*
X124853800Y-117435669D01*
X124856896Y-117431896D01*
X124860669Y-117428800D01*
X124864971Y-117426501D01*
X124869645Y-117425083D01*
X124880641Y-117424000D01*
X125719359Y-117424000D01*
X125730355Y-117425083D01*
G37*
G36*
X130630355Y-117425083D02*
G01*
X130635029Y-117426501D01*
X130639331Y-117428800D01*
X130643104Y-117431896D01*
X130646200Y-117435669D01*
X130648499Y-117439971D01*
X130649917Y-117444645D01*
X130651000Y-117455641D01*
X130651000Y-117744359D01*
X130649917Y-117755355D01*
X130648499Y-117760029D01*
X130646200Y-117764330D01*
X130640971Y-117770702D01*
X130627357Y-117791076D01*
X130617980Y-117813715D01*
X130613200Y-117837749D01*
X130613200Y-117862253D01*
X130617981Y-117886286D01*
X130627358Y-117908925D01*
X130640971Y-117929298D01*
X130646200Y-117935670D01*
X130648499Y-117939971D01*
X130649917Y-117944645D01*
X130651000Y-117955641D01*
X130651000Y-118244359D01*
X130649917Y-118255355D01*
X130648499Y-118260029D01*
X130646200Y-118264330D01*
X130640971Y-118270702D01*
X130627357Y-118291076D01*
X130617980Y-118313715D01*
X130613200Y-118337749D01*
X130613200Y-118362253D01*
X130617981Y-118386286D01*
X130627358Y-118408925D01*
X130640971Y-118429298D01*
X130646200Y-118435670D01*
X130648499Y-118439971D01*
X130649917Y-118444645D01*
X130651000Y-118455641D01*
X130651000Y-118744359D01*
X130649917Y-118755355D01*
X130648499Y-118760029D01*
X130646200Y-118764330D01*
X130640971Y-118770702D01*
X130627357Y-118791076D01*
X130617980Y-118813715D01*
X130613200Y-118837749D01*
X130613200Y-118862253D01*
X130617981Y-118886286D01*
X130627358Y-118908925D01*
X130640971Y-118929298D01*
X130646200Y-118935670D01*
X130648499Y-118939971D01*
X130649917Y-118944645D01*
X130651000Y-118955641D01*
X130651000Y-119244359D01*
X130649917Y-119255355D01*
X130648499Y-119260029D01*
X130646200Y-119264330D01*
X130640971Y-119270702D01*
X130627357Y-119291076D01*
X130617980Y-119313715D01*
X130613200Y-119337749D01*
X130613200Y-119362253D01*
X130617981Y-119386286D01*
X130627358Y-119408925D01*
X130640971Y-119429298D01*
X130646200Y-119435670D01*
X130648499Y-119439971D01*
X130649917Y-119444645D01*
X130651000Y-119455641D01*
X130651000Y-119744359D01*
X130649917Y-119755355D01*
X130648499Y-119760029D01*
X130646200Y-119764330D01*
X130640971Y-119770702D01*
X130627357Y-119791076D01*
X130617980Y-119813715D01*
X130613200Y-119837749D01*
X130613200Y-119862253D01*
X130617981Y-119886286D01*
X130627358Y-119908925D01*
X130640971Y-119929298D01*
X130646200Y-119935670D01*
X130648499Y-119939971D01*
X130649917Y-119944645D01*
X130651000Y-119955641D01*
X130651000Y-120244359D01*
X130649917Y-120255355D01*
X130648499Y-120260029D01*
X130646200Y-120264330D01*
X130640971Y-120270702D01*
X130627357Y-120291076D01*
X130617980Y-120313715D01*
X130613200Y-120337749D01*
X130613200Y-120362253D01*
X130617981Y-120386286D01*
X130627358Y-120408925D01*
X130640971Y-120429298D01*
X130646200Y-120435670D01*
X130648499Y-120439971D01*
X130649917Y-120444645D01*
X130651000Y-120455641D01*
X130651000Y-120744359D01*
X130649917Y-120755355D01*
X130648499Y-120760029D01*
X130646200Y-120764331D01*
X130643104Y-120768104D01*
X130639331Y-120771200D01*
X130635029Y-120773499D01*
X130630355Y-120774917D01*
X130619359Y-120776000D01*
X129780641Y-120776000D01*
X129769645Y-120774917D01*
X129764971Y-120773499D01*
X129760669Y-120771200D01*
X129756896Y-120768104D01*
X129753800Y-120764331D01*
X129751501Y-120760029D01*
X129750083Y-120755355D01*
X129749000Y-120744359D01*
X129749000Y-120455641D01*
X129750083Y-120444645D01*
X129751501Y-120439971D01*
X129753800Y-120435670D01*
X129759029Y-120429298D01*
X129772643Y-120408924D01*
X129782020Y-120386285D01*
X129786800Y-120362251D01*
X129786800Y-120337747D01*
X129782019Y-120313714D01*
X129772642Y-120291075D01*
X129759029Y-120270702D01*
X129753800Y-120264330D01*
X129751501Y-120260029D01*
X129750083Y-120255355D01*
X129749000Y-120244359D01*
X129749000Y-119955641D01*
X129750083Y-119944645D01*
X129751501Y-119939971D01*
X129753800Y-119935670D01*
X129759029Y-119929298D01*
X129772643Y-119908924D01*
X129782020Y-119886285D01*
X129786800Y-119862251D01*
X129786800Y-119837747D01*
X129782019Y-119813714D01*
X129772642Y-119791075D01*
X129759029Y-119770702D01*
X129753800Y-119764330D01*
X129751501Y-119760029D01*
X129750083Y-119755355D01*
X129749000Y-119744359D01*
X129749000Y-119455641D01*
X129750083Y-119444645D01*
X129751501Y-119439971D01*
X129753800Y-119435670D01*
X129759029Y-119429298D01*
X129772643Y-119408924D01*
X129782020Y-119386285D01*
X129786800Y-119362251D01*
X129786800Y-119337747D01*
X129782019Y-119313714D01*
X129772642Y-119291075D01*
X129759029Y-119270702D01*
X129753800Y-119264330D01*
X129751501Y-119260029D01*
X129750083Y-119255355D01*
X129749000Y-119244359D01*
X129749000Y-118955641D01*
X129750083Y-118944645D01*
X129751501Y-118939971D01*
X129753800Y-118935670D01*
X129759029Y-118929298D01*
X129772643Y-118908924D01*
X129782020Y-118886285D01*
X129786800Y-118862251D01*
X129786800Y-118837747D01*
X129782019Y-118813714D01*
X129772642Y-118791075D01*
X129759029Y-118770702D01*
X129753800Y-118764330D01*
X129751501Y-118760029D01*
X129750083Y-118755355D01*
X129749000Y-118744359D01*
X129749000Y-118455641D01*
X129750083Y-118444645D01*
X129751501Y-118439971D01*
X129753800Y-118435670D01*
X129759029Y-118429298D01*
X129772643Y-118408924D01*
X129782020Y-118386285D01*
X129786800Y-118362251D01*
X129786800Y-118337747D01*
X129782019Y-118313714D01*
X129772642Y-118291075D01*
X129759029Y-118270702D01*
X129753800Y-118264330D01*
X129751501Y-118260029D01*
X129750083Y-118255355D01*
X129749000Y-118244359D01*
X129749000Y-117955641D01*
X129750083Y-117944645D01*
X129751501Y-117939971D01*
X129753800Y-117935670D01*
X129759029Y-117929298D01*
X129772643Y-117908924D01*
X129782020Y-117886285D01*
X129786800Y-117862251D01*
X129786800Y-117837747D01*
X129782019Y-117813714D01*
X129772642Y-117791075D01*
X129759029Y-117770702D01*
X129753800Y-117764330D01*
X129751501Y-117760029D01*
X129750083Y-117755355D01*
X129749000Y-117744359D01*
X129749000Y-117455641D01*
X129750083Y-117444645D01*
X129751501Y-117439971D01*
X129753800Y-117435669D01*
X129756896Y-117431896D01*
X129760669Y-117428800D01*
X129764971Y-117426501D01*
X129769645Y-117425083D01*
X129780641Y-117424000D01*
X130619359Y-117424000D01*
X130630355Y-117425083D01*
G37*
G36*
X114360601Y-119302397D02*
G01*
X114399305Y-119310096D01*
X114431340Y-119323365D01*
X114508680Y-119355400D01*
X114607115Y-119421173D01*
X114690827Y-119504885D01*
X114756600Y-119603320D01*
X114780802Y-119661750D01*
X114801904Y-119712695D01*
X114802981Y-119718110D01*
X114825000Y-119828805D01*
X114825000Y-119947195D01*
X114801904Y-120063304D01*
X114756600Y-120172680D01*
X114690827Y-120271115D01*
X114607115Y-120354827D01*
X114508680Y-120420600D01*
X114438244Y-120449775D01*
X114399305Y-120465904D01*
X114360601Y-120473603D01*
X114283195Y-120489000D01*
X114164805Y-120489000D01*
X114087399Y-120473603D01*
X114048695Y-120465904D01*
X114009756Y-120449775D01*
X113939320Y-120420600D01*
X113840885Y-120354827D01*
X113757173Y-120271115D01*
X113691400Y-120172680D01*
X113646096Y-120063304D01*
X113623000Y-119947195D01*
X113623000Y-119828805D01*
X113645019Y-119718110D01*
X113646096Y-119712695D01*
X113667198Y-119661750D01*
X113691400Y-119603320D01*
X113757173Y-119504885D01*
X113840885Y-119421173D01*
X113939320Y-119355400D01*
X114016660Y-119323365D01*
X114048695Y-119310096D01*
X114087399Y-119302397D01*
X114164805Y-119287000D01*
X114283195Y-119287000D01*
X114360601Y-119302397D01*
G37*
G36*
X115960601Y-119302397D02*
G01*
X115999305Y-119310096D01*
X116031340Y-119323365D01*
X116108680Y-119355400D01*
X116207115Y-119421173D01*
X116290827Y-119504885D01*
X116356600Y-119603320D01*
X116380802Y-119661750D01*
X116401904Y-119712695D01*
X116402981Y-119718110D01*
X116425000Y-119828805D01*
X116425000Y-119947195D01*
X116401904Y-120063304D01*
X116356600Y-120172680D01*
X116290827Y-120271115D01*
X116207115Y-120354827D01*
X116108680Y-120420600D01*
X116038244Y-120449775D01*
X115999305Y-120465904D01*
X115960601Y-120473603D01*
X115883195Y-120489000D01*
X115764805Y-120489000D01*
X115687399Y-120473603D01*
X115648695Y-120465904D01*
X115609756Y-120449775D01*
X115539320Y-120420600D01*
X115440885Y-120354827D01*
X115357173Y-120271115D01*
X115291400Y-120172680D01*
X115246096Y-120063304D01*
X115223000Y-119947195D01*
X115223000Y-119828805D01*
X115245019Y-119718110D01*
X115246096Y-119712695D01*
X115267198Y-119661750D01*
X115291400Y-119603320D01*
X115357173Y-119504885D01*
X115440885Y-119421173D01*
X115539320Y-119355400D01*
X115616660Y-119323365D01*
X115648695Y-119310096D01*
X115687399Y-119302397D01*
X115764805Y-119287000D01*
X115883195Y-119287000D01*
X115960601Y-119302397D01*
G37*
G36*
X166779591Y-118940585D02*
G01*
X166813569Y-118950893D01*
X166844890Y-118967634D01*
X166872339Y-118990161D01*
X166894866Y-119017610D01*
X166911607Y-119048931D01*
X166921915Y-119082909D01*
X166926000Y-119124390D01*
X166926000Y-119725610D01*
X166921915Y-119767091D01*
X166911607Y-119801069D01*
X166894866Y-119832390D01*
X166872339Y-119859839D01*
X166844890Y-119882366D01*
X166813569Y-119899107D01*
X166779591Y-119909415D01*
X166738110Y-119913500D01*
X166061890Y-119913500D01*
X166020409Y-119909415D01*
X165986431Y-119899107D01*
X165955110Y-119882366D01*
X165927661Y-119859839D01*
X165905134Y-119832390D01*
X165888393Y-119801069D01*
X165878085Y-119767091D01*
X165874000Y-119725610D01*
X165874000Y-119124390D01*
X165878085Y-119082909D01*
X165888393Y-119048931D01*
X165905134Y-119017610D01*
X165927661Y-118990161D01*
X165955110Y-118967634D01*
X165986431Y-118950893D01*
X166020409Y-118940585D01*
X166061890Y-118936500D01*
X166738110Y-118936500D01*
X166779591Y-118940585D01*
G37*
G36*
X159600091Y-118858085D02*
G01*
X159634069Y-118868393D01*
X159665390Y-118885134D01*
X159692839Y-118907661D01*
X159715366Y-118935110D01*
X159732107Y-118966431D01*
X159742415Y-119000409D01*
X159746500Y-119041890D01*
X159746500Y-119718110D01*
X159742415Y-119759591D01*
X159732107Y-119793569D01*
X159715366Y-119824890D01*
X159692839Y-119852339D01*
X159665390Y-119874866D01*
X159634069Y-119891607D01*
X159600091Y-119901915D01*
X159558610Y-119906000D01*
X158957390Y-119906000D01*
X158915909Y-119901915D01*
X158881931Y-119891607D01*
X158850610Y-119874866D01*
X158823161Y-119852339D01*
X158800634Y-119824890D01*
X158783893Y-119793569D01*
X158773585Y-119759591D01*
X158769500Y-119718110D01*
X158769500Y-119041890D01*
X158773585Y-119000409D01*
X158783893Y-118966431D01*
X158800634Y-118935110D01*
X158823161Y-118907661D01*
X158850610Y-118885134D01*
X158881931Y-118868393D01*
X158915909Y-118858085D01*
X158957390Y-118854000D01*
X159558610Y-118854000D01*
X159600091Y-118858085D01*
G37*
G36*
X158025091Y-118858085D02*
G01*
X158059069Y-118868393D01*
X158090390Y-118885134D01*
X158117839Y-118907661D01*
X158140366Y-118935110D01*
X158157107Y-118966431D01*
X158167415Y-119000409D01*
X158171500Y-119041890D01*
X158171500Y-119718110D01*
X158167415Y-119759591D01*
X158157107Y-119793569D01*
X158140366Y-119824890D01*
X158117839Y-119852339D01*
X158090390Y-119874866D01*
X158059069Y-119891607D01*
X158025091Y-119901915D01*
X157983610Y-119906000D01*
X157382390Y-119906000D01*
X157340909Y-119901915D01*
X157306931Y-119891607D01*
X157275610Y-119874866D01*
X157248161Y-119852339D01*
X157225634Y-119824890D01*
X157208893Y-119793569D01*
X157198585Y-119759591D01*
X157194500Y-119718110D01*
X157194500Y-119041890D01*
X157198585Y-119000409D01*
X157208893Y-118966431D01*
X157225634Y-118935110D01*
X157248161Y-118907661D01*
X157275610Y-118885134D01*
X157306931Y-118868393D01*
X157340909Y-118858085D01*
X157382390Y-118854000D01*
X157983610Y-118854000D01*
X158025091Y-118858085D01*
G37*
G36*
X172501000Y-118701000D02*
G01*
X170399000Y-118701000D01*
X170399000Y-117099000D01*
X172501000Y-117099000D01*
X172501000Y-118701000D01*
G37*
G36*
X132059592Y-117583086D02*
G01*
X132093570Y-117593394D01*
X132124891Y-117610135D01*
X132152340Y-117632662D01*
X132174867Y-117660111D01*
X132191608Y-117691432D01*
X132201916Y-117725410D01*
X132206001Y-117766891D01*
X132206001Y-118443111D01*
X132201916Y-118484592D01*
X132191608Y-118518570D01*
X132174867Y-118549891D01*
X132152340Y-118577340D01*
X132124891Y-118599867D01*
X132093570Y-118616608D01*
X132059592Y-118626916D01*
X132018111Y-118631001D01*
X131416891Y-118631001D01*
X131375410Y-118626916D01*
X131341432Y-118616608D01*
X131310111Y-118599867D01*
X131282662Y-118577340D01*
X131260135Y-118549891D01*
X131243394Y-118518570D01*
X131233086Y-118484592D01*
X131229001Y-118443111D01*
X131229001Y-117766891D01*
X131233086Y-117725410D01*
X131243394Y-117691432D01*
X131260135Y-117660111D01*
X131282662Y-117632662D01*
X131310111Y-117610135D01*
X131341432Y-117593394D01*
X131375410Y-117583086D01*
X131416891Y-117579001D01*
X132018111Y-117579001D01*
X132059592Y-117583086D01*
G37*
G36*
X133634592Y-117583086D02*
G01*
X133668570Y-117593394D01*
X133699891Y-117610135D01*
X133727340Y-117632662D01*
X133749867Y-117660111D01*
X133766608Y-117691432D01*
X133776916Y-117725410D01*
X133781001Y-117766891D01*
X133781001Y-118443111D01*
X133776916Y-118484592D01*
X133766608Y-118518570D01*
X133749867Y-118549891D01*
X133727340Y-118577340D01*
X133699891Y-118599867D01*
X133668570Y-118616608D01*
X133634592Y-118626916D01*
X133593111Y-118631001D01*
X132991891Y-118631001D01*
X132950410Y-118626916D01*
X132916432Y-118616608D01*
X132885111Y-118599867D01*
X132857662Y-118577340D01*
X132835135Y-118549891D01*
X132818394Y-118518570D01*
X132808086Y-118484592D01*
X132804001Y-118443111D01*
X132804001Y-117766891D01*
X132808086Y-117725410D01*
X132818394Y-117691432D01*
X132835135Y-117660111D01*
X132857662Y-117632662D01*
X132885111Y-117610135D01*
X132916432Y-117593394D01*
X132950410Y-117583086D01*
X132991891Y-117579001D01*
X133593111Y-117579001D01*
X133634592Y-117583086D01*
G37*
G36*
X178801000Y-117551000D02*
G01*
X176699000Y-117551000D01*
X176699000Y-113649000D01*
X178801000Y-113649000D01*
X178801000Y-117551000D01*
G37*
G36*
X183942091Y-116278085D02*
G01*
X183976069Y-116288393D01*
X184007390Y-116305134D01*
X184034839Y-116327661D01*
X184057366Y-116355110D01*
X184074107Y-116386431D01*
X184084415Y-116420409D01*
X184088500Y-116461890D01*
X184088500Y-117138110D01*
X184084415Y-117179591D01*
X184074107Y-117213569D01*
X184057366Y-117244890D01*
X184034839Y-117272339D01*
X184007390Y-117294866D01*
X183976069Y-117311607D01*
X183942091Y-117321915D01*
X183900610Y-117326000D01*
X183299390Y-117326000D01*
X183257909Y-117321915D01*
X183223931Y-117311607D01*
X183192610Y-117294866D01*
X183165161Y-117272339D01*
X183142634Y-117244890D01*
X183125893Y-117213569D01*
X183115585Y-117179591D01*
X183111500Y-117138110D01*
X183111500Y-116461890D01*
X183115585Y-116420409D01*
X183125893Y-116386431D01*
X183142634Y-116355110D01*
X183165161Y-116327661D01*
X183192610Y-116305134D01*
X183223931Y-116288393D01*
X183257909Y-116278085D01*
X183299390Y-116274000D01*
X183900610Y-116274000D01*
X183942091Y-116278085D01*
G37*
G36*
X182367091Y-116278085D02*
G01*
X182401069Y-116288393D01*
X182432390Y-116305134D01*
X182459839Y-116327661D01*
X182482366Y-116355110D01*
X182499107Y-116386431D01*
X182509415Y-116420409D01*
X182513500Y-116461890D01*
X182513500Y-117138110D01*
X182509415Y-117179591D01*
X182499107Y-117213569D01*
X182482366Y-117244890D01*
X182459839Y-117272339D01*
X182432390Y-117294866D01*
X182401069Y-117311607D01*
X182367091Y-117321915D01*
X182325610Y-117326000D01*
X181724390Y-117326000D01*
X181682909Y-117321915D01*
X181648931Y-117311607D01*
X181617610Y-117294866D01*
X181590161Y-117272339D01*
X181567634Y-117244890D01*
X181550893Y-117213569D01*
X181540585Y-117179591D01*
X181536500Y-117138110D01*
X181536500Y-116461890D01*
X181540585Y-116420409D01*
X181550893Y-116386431D01*
X181567634Y-116355110D01*
X181590161Y-116327661D01*
X181617610Y-116305134D01*
X181648931Y-116288393D01*
X181682909Y-116278085D01*
X181724390Y-116274000D01*
X182325610Y-116274000D01*
X182367091Y-116278085D01*
G37*
G36*
X163601000Y-117251000D02*
G01*
X161999000Y-117251000D01*
X161999000Y-115149000D01*
X163601000Y-115149000D01*
X163601000Y-117251000D01*
G37*
G36*
X165901000Y-117251000D02*
G01*
X164299000Y-117251000D01*
X164299000Y-115149000D01*
X165901000Y-115149000D01*
X165901000Y-117251000D01*
G37*
G36*
X161301000Y-117251000D02*
G01*
X159699000Y-117251000D01*
X159699000Y-115149000D01*
X161301000Y-115149000D01*
X161301000Y-117251000D01*
G37*
G36*
X118325091Y-116092085D02*
G01*
X118359069Y-116102393D01*
X118390390Y-116119134D01*
X118417839Y-116141661D01*
X118440366Y-116169110D01*
X118457107Y-116200431D01*
X118467415Y-116234409D01*
X118471500Y-116275890D01*
X118471500Y-116952110D01*
X118467415Y-116993591D01*
X118457107Y-117027569D01*
X118440366Y-117058890D01*
X118417839Y-117086339D01*
X118390390Y-117108866D01*
X118359069Y-117125607D01*
X118325091Y-117135915D01*
X118283610Y-117140000D01*
X117682390Y-117140000D01*
X117640909Y-117135915D01*
X117606931Y-117125607D01*
X117575610Y-117108866D01*
X117548161Y-117086339D01*
X117525634Y-117058890D01*
X117508893Y-117027569D01*
X117498585Y-116993591D01*
X117494500Y-116952110D01*
X117494500Y-116275890D01*
X117498585Y-116234409D01*
X117508893Y-116200431D01*
X117525634Y-116169110D01*
X117548161Y-116141661D01*
X117575610Y-116119134D01*
X117606931Y-116102393D01*
X117640909Y-116092085D01*
X117682390Y-116088000D01*
X118283610Y-116088000D01*
X118325091Y-116092085D01*
G37*
G36*
X119900091Y-116092085D02*
G01*
X119934069Y-116102393D01*
X119965390Y-116119134D01*
X119992839Y-116141661D01*
X120015366Y-116169110D01*
X120032107Y-116200431D01*
X120042415Y-116234409D01*
X120046500Y-116275890D01*
X120046500Y-116952110D01*
X120042415Y-116993591D01*
X120032107Y-117027569D01*
X120015366Y-117058890D01*
X119992839Y-117086339D01*
X119965390Y-117108866D01*
X119934069Y-117125607D01*
X119900091Y-117135915D01*
X119858610Y-117140000D01*
X119257390Y-117140000D01*
X119215909Y-117135915D01*
X119181931Y-117125607D01*
X119150610Y-117108866D01*
X119123161Y-117086339D01*
X119100634Y-117058890D01*
X119083893Y-117027569D01*
X119073585Y-116993591D01*
X119069500Y-116952110D01*
X119069500Y-116275890D01*
X119073585Y-116234409D01*
X119083893Y-116200431D01*
X119100634Y-116169110D01*
X119123161Y-116141661D01*
X119150610Y-116119134D01*
X119181931Y-116102393D01*
X119215909Y-116092085D01*
X119257390Y-116088000D01*
X119858610Y-116088000D01*
X119900091Y-116092085D01*
G37*
G36*
X126405355Y-116200083D02*
G01*
X126410029Y-116201501D01*
X126414330Y-116203800D01*
X126420702Y-116209029D01*
X126441076Y-116222643D01*
X126463715Y-116232020D01*
X126487749Y-116236800D01*
X126512253Y-116236800D01*
X126536286Y-116232019D01*
X126558925Y-116222642D01*
X126579298Y-116209029D01*
X126585670Y-116203800D01*
X126589971Y-116201501D01*
X126594645Y-116200083D01*
X126605641Y-116199000D01*
X126894359Y-116199000D01*
X126905355Y-116200083D01*
X126910029Y-116201501D01*
X126914330Y-116203800D01*
X126920702Y-116209029D01*
X126941076Y-116222643D01*
X126963715Y-116232020D01*
X126987749Y-116236800D01*
X127012253Y-116236800D01*
X127036286Y-116232019D01*
X127058925Y-116222642D01*
X127079298Y-116209029D01*
X127085670Y-116203800D01*
X127089971Y-116201501D01*
X127094645Y-116200083D01*
X127105641Y-116199000D01*
X127394359Y-116199000D01*
X127405355Y-116200083D01*
X127410029Y-116201501D01*
X127414330Y-116203800D01*
X127420702Y-116209029D01*
X127441076Y-116222643D01*
X127463715Y-116232020D01*
X127487749Y-116236800D01*
X127512253Y-116236800D01*
X127536286Y-116232019D01*
X127558925Y-116222642D01*
X127579298Y-116209029D01*
X127585670Y-116203800D01*
X127589971Y-116201501D01*
X127594645Y-116200083D01*
X127605641Y-116199000D01*
X127894359Y-116199000D01*
X127905355Y-116200083D01*
X127910029Y-116201501D01*
X127914330Y-116203800D01*
X127920702Y-116209029D01*
X127941076Y-116222643D01*
X127963715Y-116232020D01*
X127987749Y-116236800D01*
X128012253Y-116236800D01*
X128036286Y-116232019D01*
X128058925Y-116222642D01*
X128079298Y-116209029D01*
X128085670Y-116203800D01*
X128089971Y-116201501D01*
X128094645Y-116200083D01*
X128105641Y-116199000D01*
X128394359Y-116199000D01*
X128405355Y-116200083D01*
X128410029Y-116201501D01*
X128414330Y-116203800D01*
X128420702Y-116209029D01*
X128441076Y-116222643D01*
X128463715Y-116232020D01*
X128487749Y-116236800D01*
X128512253Y-116236800D01*
X128536286Y-116232019D01*
X128558925Y-116222642D01*
X128579298Y-116209029D01*
X128585670Y-116203800D01*
X128589971Y-116201501D01*
X128594645Y-116200083D01*
X128605641Y-116199000D01*
X128894359Y-116199000D01*
X128905355Y-116200083D01*
X128910029Y-116201501D01*
X128914330Y-116203800D01*
X128920702Y-116209029D01*
X128941076Y-116222643D01*
X128963715Y-116232020D01*
X128987749Y-116236800D01*
X129012253Y-116236800D01*
X129036286Y-116232019D01*
X129058925Y-116222642D01*
X129079298Y-116209029D01*
X129085670Y-116203800D01*
X129089971Y-116201501D01*
X129094645Y-116200083D01*
X129105641Y-116199000D01*
X129394359Y-116199000D01*
X129405355Y-116200083D01*
X129410029Y-116201501D01*
X129414331Y-116203800D01*
X129418104Y-116206896D01*
X129421200Y-116210669D01*
X129423499Y-116214971D01*
X129424917Y-116219645D01*
X129426000Y-116230641D01*
X129426000Y-117069359D01*
X129424917Y-117080355D01*
X129423499Y-117085029D01*
X129421200Y-117089331D01*
X129418104Y-117093104D01*
X129414331Y-117096200D01*
X129410029Y-117098499D01*
X129405355Y-117099917D01*
X129394359Y-117101000D01*
X129105641Y-117101000D01*
X129094645Y-117099917D01*
X129089971Y-117098499D01*
X129085670Y-117096200D01*
X129079298Y-117090971D01*
X129058924Y-117077357D01*
X129036285Y-117067980D01*
X129012251Y-117063200D01*
X128987747Y-117063200D01*
X128963714Y-117067981D01*
X128941075Y-117077358D01*
X128920702Y-117090971D01*
X128914330Y-117096200D01*
X128910029Y-117098499D01*
X128905355Y-117099917D01*
X128894359Y-117101000D01*
X128605641Y-117101000D01*
X128594645Y-117099917D01*
X128589971Y-117098499D01*
X128585670Y-117096200D01*
X128579298Y-117090971D01*
X128558924Y-117077357D01*
X128536285Y-117067980D01*
X128512251Y-117063200D01*
X128487747Y-117063200D01*
X128463714Y-117067981D01*
X128441075Y-117077358D01*
X128420702Y-117090971D01*
X128414330Y-117096200D01*
X128410029Y-117098499D01*
X128405355Y-117099917D01*
X128394359Y-117101000D01*
X128105641Y-117101000D01*
X128094645Y-117099917D01*
X128089971Y-117098499D01*
X128085670Y-117096200D01*
X128079298Y-117090971D01*
X128058924Y-117077357D01*
X128036285Y-117067980D01*
X128012251Y-117063200D01*
X127987747Y-117063200D01*
X127963714Y-117067981D01*
X127941075Y-117077358D01*
X127920702Y-117090971D01*
X127914330Y-117096200D01*
X127910029Y-117098499D01*
X127905355Y-117099917D01*
X127894359Y-117101000D01*
X127605641Y-117101000D01*
X127594645Y-117099917D01*
X127589971Y-117098499D01*
X127585670Y-117096200D01*
X127579298Y-117090971D01*
X127558924Y-117077357D01*
X127536285Y-117067980D01*
X127512251Y-117063200D01*
X127487747Y-117063200D01*
X127463714Y-117067981D01*
X127441075Y-117077358D01*
X127420702Y-117090971D01*
X127414330Y-117096200D01*
X127410029Y-117098499D01*
X127405355Y-117099917D01*
X127394359Y-117101000D01*
X127105641Y-117101000D01*
X127094645Y-117099917D01*
X127089971Y-117098499D01*
X127085670Y-117096200D01*
X127079298Y-117090971D01*
X127058924Y-117077357D01*
X127036285Y-117067980D01*
X127012251Y-117063200D01*
X126987747Y-117063200D01*
X126963714Y-117067981D01*
X126941075Y-117077358D01*
X126920702Y-117090971D01*
X126914330Y-117096200D01*
X126910029Y-117098499D01*
X126905355Y-117099917D01*
X126894359Y-117101000D01*
X126605641Y-117101000D01*
X126594645Y-117099917D01*
X126589971Y-117098499D01*
X126585670Y-117096200D01*
X126579298Y-117090971D01*
X126558924Y-117077357D01*
X126536285Y-117067980D01*
X126512251Y-117063200D01*
X126487747Y-117063200D01*
X126463714Y-117067981D01*
X126441075Y-117077358D01*
X126420702Y-117090971D01*
X126414330Y-117096200D01*
X126410029Y-117098499D01*
X126405355Y-117099917D01*
X126394359Y-117101000D01*
X126105641Y-117101000D01*
X126094645Y-117099917D01*
X126089971Y-117098499D01*
X126085669Y-117096200D01*
X126081896Y-117093104D01*
X126078800Y-117089331D01*
X126076501Y-117085029D01*
X126075083Y-117080355D01*
X126074000Y-117069359D01*
X126074000Y-116230641D01*
X126075083Y-116219645D01*
X126076501Y-116214971D01*
X126078800Y-116210669D01*
X126081896Y-116206896D01*
X126085669Y-116203800D01*
X126089971Y-116201501D01*
X126094645Y-116200083D01*
X126105641Y-116199000D01*
X126394359Y-116199000D01*
X126405355Y-116200083D01*
G37*
G36*
X196316217Y-114712808D02*
G01*
X196347489Y-114722294D01*
X196376308Y-114737698D01*
X196401570Y-114758430D01*
X196422302Y-114783692D01*
X196437706Y-114812511D01*
X196447192Y-114843783D01*
X196451000Y-114882448D01*
X196451000Y-116717552D01*
X196447192Y-116756217D01*
X196437706Y-116787489D01*
X196422302Y-116816308D01*
X196401570Y-116841570D01*
X196376308Y-116862302D01*
X196347489Y-116877706D01*
X196316217Y-116887192D01*
X196277552Y-116891000D01*
X192922448Y-116891000D01*
X192883783Y-116887192D01*
X192852511Y-116877706D01*
X192823692Y-116862302D01*
X192798430Y-116841570D01*
X192777698Y-116816308D01*
X192762294Y-116787489D01*
X192752808Y-116756217D01*
X192749000Y-116717552D01*
X192749000Y-114882448D01*
X192752808Y-114843783D01*
X192762294Y-114812511D01*
X192777698Y-114783692D01*
X192798430Y-114758430D01*
X192823692Y-114737698D01*
X192852511Y-114722294D01*
X192883783Y-114712808D01*
X192922448Y-114709000D01*
X196277552Y-114709000D01*
X196316217Y-114712808D01*
G37*
G36*
X172501000Y-116401000D02*
G01*
X170399000Y-116401000D01*
X170399000Y-114799000D01*
X172501000Y-114799000D01*
X172501000Y-116401000D01*
G37*
G36*
X150767091Y-114678085D02*
G01*
X150801069Y-114688393D01*
X150832390Y-114705134D01*
X150859839Y-114727661D01*
X150882366Y-114755110D01*
X150899107Y-114786431D01*
X150909415Y-114820409D01*
X150913500Y-114861890D01*
X150913500Y-115538110D01*
X150909415Y-115579591D01*
X150899107Y-115613569D01*
X150882366Y-115644890D01*
X150859839Y-115672339D01*
X150832390Y-115694866D01*
X150801069Y-115711607D01*
X150767091Y-115721915D01*
X150725610Y-115726000D01*
X150124390Y-115726000D01*
X150082909Y-115721915D01*
X150048931Y-115711607D01*
X150017610Y-115694866D01*
X149990161Y-115672339D01*
X149967634Y-115644890D01*
X149950893Y-115613569D01*
X149940585Y-115579591D01*
X149936500Y-115538110D01*
X149936500Y-114861890D01*
X149940585Y-114820409D01*
X149950893Y-114786431D01*
X149967634Y-114755110D01*
X149990161Y-114727661D01*
X150017610Y-114705134D01*
X150048931Y-114688393D01*
X150082909Y-114678085D01*
X150124390Y-114674000D01*
X150725610Y-114674000D01*
X150767091Y-114678085D01*
G37*
G36*
X152342091Y-114678085D02*
G01*
X152376069Y-114688393D01*
X152407390Y-114705134D01*
X152434839Y-114727661D01*
X152457366Y-114755110D01*
X152474107Y-114786431D01*
X152484415Y-114820409D01*
X152488500Y-114861890D01*
X152488500Y-115538110D01*
X152484415Y-115579591D01*
X152474107Y-115613569D01*
X152457366Y-115644890D01*
X152434839Y-115672339D01*
X152407390Y-115694866D01*
X152376069Y-115711607D01*
X152342091Y-115721915D01*
X152300610Y-115726000D01*
X151699390Y-115726000D01*
X151657909Y-115721915D01*
X151623931Y-115711607D01*
X151592610Y-115694866D01*
X151565161Y-115672339D01*
X151542634Y-115644890D01*
X151525893Y-115613569D01*
X151515585Y-115579591D01*
X151511500Y-115538110D01*
X151511500Y-114861890D01*
X151515585Y-114820409D01*
X151525893Y-114786431D01*
X151542634Y-114755110D01*
X151565161Y-114727661D01*
X151592610Y-114705134D01*
X151623931Y-114688393D01*
X151657909Y-114678085D01*
X151699390Y-114674000D01*
X152300610Y-114674000D01*
X152342091Y-114678085D01*
G37*
G36*
X118198091Y-114667085D02*
G01*
X118232069Y-114677393D01*
X118263390Y-114694134D01*
X118290839Y-114716661D01*
X118313366Y-114744110D01*
X118330107Y-114775431D01*
X118340415Y-114809409D01*
X118344500Y-114850890D01*
X118344500Y-115527110D01*
X118340415Y-115568591D01*
X118330107Y-115602569D01*
X118313366Y-115633890D01*
X118290839Y-115661339D01*
X118263390Y-115683866D01*
X118232069Y-115700607D01*
X118198091Y-115710915D01*
X118156610Y-115715000D01*
X117555390Y-115715000D01*
X117513909Y-115710915D01*
X117479931Y-115700607D01*
X117448610Y-115683866D01*
X117421161Y-115661339D01*
X117398634Y-115633890D01*
X117381893Y-115602569D01*
X117371585Y-115568591D01*
X117367500Y-115527110D01*
X117367500Y-114850890D01*
X117371585Y-114809409D01*
X117381893Y-114775431D01*
X117398634Y-114744110D01*
X117421161Y-114716661D01*
X117448610Y-114694134D01*
X117479931Y-114677393D01*
X117513909Y-114667085D01*
X117555390Y-114663000D01*
X118156610Y-114663000D01*
X118198091Y-114667085D01*
G37*
G36*
X119773091Y-114667085D02*
G01*
X119807069Y-114677393D01*
X119838390Y-114694134D01*
X119865839Y-114716661D01*
X119888366Y-114744110D01*
X119905107Y-114775431D01*
X119915415Y-114809409D01*
X119919500Y-114850890D01*
X119919500Y-115527110D01*
X119915415Y-115568591D01*
X119905107Y-115602569D01*
X119888366Y-115633890D01*
X119865839Y-115661339D01*
X119838390Y-115683866D01*
X119807069Y-115700607D01*
X119773091Y-115710915D01*
X119731610Y-115715000D01*
X119130390Y-115715000D01*
X119088909Y-115710915D01*
X119054931Y-115700607D01*
X119023610Y-115683866D01*
X118996161Y-115661339D01*
X118973634Y-115633890D01*
X118956893Y-115602569D01*
X118946585Y-115568591D01*
X118942500Y-115527110D01*
X118942500Y-114850890D01*
X118946585Y-114809409D01*
X118956893Y-114775431D01*
X118973634Y-114744110D01*
X118996161Y-114716661D01*
X119023610Y-114694134D01*
X119054931Y-114677393D01*
X119088909Y-114667085D01*
X119130390Y-114663000D01*
X119731610Y-114663000D01*
X119773091Y-114667085D01*
G37*
G36*
X144742091Y-114178085D02*
G01*
X144776069Y-114188393D01*
X144807390Y-114205134D01*
X144834839Y-114227661D01*
X144857366Y-114255110D01*
X144874107Y-114286431D01*
X144884415Y-114320409D01*
X144888500Y-114361890D01*
X144888500Y-115038110D01*
X144884415Y-115079591D01*
X144874107Y-115113569D01*
X144857366Y-115144890D01*
X144834839Y-115172339D01*
X144807390Y-115194866D01*
X144776069Y-115211607D01*
X144742091Y-115221915D01*
X144700610Y-115226000D01*
X144099390Y-115226000D01*
X144057909Y-115221915D01*
X144023931Y-115211607D01*
X143992610Y-115194866D01*
X143965161Y-115172339D01*
X143942634Y-115144890D01*
X143925893Y-115113569D01*
X143915585Y-115079591D01*
X143911500Y-115038110D01*
X143911500Y-114361890D01*
X143915585Y-114320409D01*
X143925893Y-114286431D01*
X143942634Y-114255110D01*
X143965161Y-114227661D01*
X143992610Y-114205134D01*
X144023931Y-114188393D01*
X144057909Y-114178085D01*
X144099390Y-114174000D01*
X144700610Y-114174000D01*
X144742091Y-114178085D01*
G37*
G36*
X143167091Y-114178085D02*
G01*
X143201069Y-114188393D01*
X143232390Y-114205134D01*
X143259839Y-114227661D01*
X143282366Y-114255110D01*
X143299107Y-114286431D01*
X143309415Y-114320409D01*
X143313500Y-114361890D01*
X143313500Y-115038110D01*
X143309415Y-115079591D01*
X143299107Y-115113569D01*
X143282366Y-115144890D01*
X143259839Y-115172339D01*
X143232390Y-115194866D01*
X143201069Y-115211607D01*
X143167091Y-115221915D01*
X143125610Y-115226000D01*
X142524390Y-115226000D01*
X142482909Y-115221915D01*
X142448931Y-115211607D01*
X142417610Y-115194866D01*
X142390161Y-115172339D01*
X142367634Y-115144890D01*
X142350893Y-115113569D01*
X142340585Y-115079591D01*
X142336500Y-115038110D01*
X142336500Y-114361890D01*
X142340585Y-114320409D01*
X142350893Y-114286431D01*
X142367634Y-114255110D01*
X142390161Y-114227661D01*
X142417610Y-114205134D01*
X142448931Y-114188393D01*
X142482909Y-114178085D01*
X142524390Y-114174000D01*
X143125610Y-114174000D01*
X143167091Y-114178085D01*
G37*
G36*
X105801000Y-115101000D02*
G01*
X103399000Y-115101000D01*
X103399000Y-114499000D01*
X105801000Y-114499000D01*
X105801000Y-115101000D01*
G37*
G36*
X113168604Y-113228347D02*
G01*
X113205144Y-113239432D01*
X113238821Y-113257433D01*
X113268341Y-113281659D01*
X113292567Y-113311179D01*
X113310568Y-113344856D01*
X113321653Y-113381396D01*
X113326000Y-113425538D01*
X113326000Y-114374462D01*
X113321653Y-114418604D01*
X113310568Y-114455144D01*
X113292567Y-114488821D01*
X113268341Y-114518341D01*
X113238821Y-114542567D01*
X113205144Y-114560568D01*
X113168604Y-114571653D01*
X113124462Y-114576000D01*
X111675538Y-114576000D01*
X111631396Y-114571653D01*
X111594856Y-114560568D01*
X111561179Y-114542567D01*
X111531659Y-114518341D01*
X111507433Y-114488821D01*
X111489432Y-114455144D01*
X111478347Y-114418604D01*
X111474000Y-114374462D01*
X111474000Y-113425538D01*
X111478347Y-113381396D01*
X111489432Y-113344856D01*
X111507433Y-113311179D01*
X111531659Y-113281659D01*
X111561179Y-113257433D01*
X111594856Y-113239432D01*
X111631396Y-113228347D01*
X111675538Y-113224000D01*
X113124462Y-113224000D01*
X113168604Y-113228347D01*
G37*
G36*
X172501000Y-114101000D02*
G01*
X170399000Y-114101000D01*
X170399000Y-112499000D01*
X172501000Y-112499000D01*
X172501000Y-114101000D01*
G37*
G36*
X182467091Y-112978085D02*
G01*
X182501069Y-112988393D01*
X182532390Y-113005134D01*
X182559839Y-113027661D01*
X182582366Y-113055110D01*
X182599107Y-113086431D01*
X182609415Y-113120409D01*
X182613500Y-113161890D01*
X182613500Y-113838110D01*
X182609415Y-113879591D01*
X182599107Y-113913569D01*
X182582366Y-113944890D01*
X182559839Y-113972339D01*
X182532390Y-113994866D01*
X182501069Y-114011607D01*
X182467091Y-114021915D01*
X182425610Y-114026000D01*
X181824390Y-114026000D01*
X181782909Y-114021915D01*
X181748931Y-114011607D01*
X181717610Y-113994866D01*
X181690161Y-113972339D01*
X181667634Y-113944890D01*
X181650893Y-113913569D01*
X181640585Y-113879591D01*
X181636500Y-113838110D01*
X181636500Y-113161890D01*
X181640585Y-113120409D01*
X181650893Y-113086431D01*
X181667634Y-113055110D01*
X181690161Y-113027661D01*
X181717610Y-113005134D01*
X181748931Y-112988393D01*
X181782909Y-112978085D01*
X181824390Y-112974000D01*
X182425610Y-112974000D01*
X182467091Y-112978085D01*
G37*
G36*
X184042091Y-112978085D02*
G01*
X184076069Y-112988393D01*
X184107390Y-113005134D01*
X184134839Y-113027661D01*
X184157366Y-113055110D01*
X184174107Y-113086431D01*
X184184415Y-113120409D01*
X184188500Y-113161890D01*
X184188500Y-113838110D01*
X184184415Y-113879591D01*
X184174107Y-113913569D01*
X184157366Y-113944890D01*
X184134839Y-113972339D01*
X184107390Y-113994866D01*
X184076069Y-114011607D01*
X184042091Y-114021915D01*
X184000610Y-114026000D01*
X183399390Y-114026000D01*
X183357909Y-114021915D01*
X183323931Y-114011607D01*
X183292610Y-113994866D01*
X183265161Y-113972339D01*
X183242634Y-113944890D01*
X183225893Y-113913569D01*
X183215585Y-113879591D01*
X183211500Y-113838110D01*
X183211500Y-113161890D01*
X183215585Y-113120409D01*
X183225893Y-113086431D01*
X183242634Y-113055110D01*
X183265161Y-113027661D01*
X183292610Y-113005134D01*
X183323931Y-112988393D01*
X183357909Y-112978085D01*
X183399390Y-112974000D01*
X184000610Y-112974000D01*
X184042091Y-112978085D01*
G37*
G36*
X141629591Y-112528085D02*
G01*
X141663569Y-112538393D01*
X141694890Y-112555134D01*
X141722339Y-112577661D01*
X141744866Y-112605110D01*
X141761607Y-112636431D01*
X141771915Y-112670409D01*
X141776000Y-112711890D01*
X141776000Y-113388110D01*
X141771915Y-113429591D01*
X141761607Y-113463569D01*
X141744866Y-113494890D01*
X141722339Y-113522339D01*
X141694890Y-113544866D01*
X141663569Y-113561607D01*
X141629591Y-113571915D01*
X141588110Y-113576000D01*
X140986890Y-113576000D01*
X140945409Y-113571915D01*
X140911431Y-113561607D01*
X140880110Y-113544866D01*
X140852661Y-113522339D01*
X140830134Y-113494890D01*
X140813393Y-113463569D01*
X140803085Y-113429591D01*
X140799000Y-113388110D01*
X140799000Y-112711890D01*
X140803085Y-112670409D01*
X140813393Y-112636431D01*
X140830134Y-112605110D01*
X140852661Y-112577661D01*
X140880110Y-112555134D01*
X140911431Y-112538393D01*
X140945409Y-112528085D01*
X140986890Y-112524000D01*
X141588110Y-112524000D01*
X141629591Y-112528085D01*
G37*
G36*
X140054591Y-112528085D02*
G01*
X140088569Y-112538393D01*
X140119890Y-112555134D01*
X140147339Y-112577661D01*
X140169866Y-112605110D01*
X140186607Y-112636431D01*
X140196915Y-112670409D01*
X140201000Y-112711890D01*
X140201000Y-113388110D01*
X140196915Y-113429591D01*
X140186607Y-113463569D01*
X140169866Y-113494890D01*
X140147339Y-113522339D01*
X140119890Y-113544866D01*
X140088569Y-113561607D01*
X140054591Y-113571915D01*
X140013110Y-113576000D01*
X139411890Y-113576000D01*
X139370409Y-113571915D01*
X139336431Y-113561607D01*
X139305110Y-113544866D01*
X139277661Y-113522339D01*
X139255134Y-113494890D01*
X139238393Y-113463569D01*
X139228085Y-113429591D01*
X139224000Y-113388110D01*
X139224000Y-112711890D01*
X139228085Y-112670409D01*
X139238393Y-112636431D01*
X139255134Y-112605110D01*
X139277661Y-112577661D01*
X139305110Y-112555134D01*
X139336431Y-112538393D01*
X139370409Y-112528085D01*
X139411890Y-112524000D01*
X140013110Y-112524000D01*
X140054591Y-112528085D01*
G37*
G36*
X143579591Y-112553085D02*
G01*
X143613569Y-112563393D01*
X143644890Y-112580134D01*
X143672339Y-112602661D01*
X143694866Y-112630110D01*
X143711607Y-112661431D01*
X143721915Y-112695409D01*
X143726000Y-112736890D01*
X143726000Y-113338110D01*
X143721915Y-113379591D01*
X143711607Y-113413569D01*
X143694866Y-113444890D01*
X143672339Y-113472339D01*
X143644890Y-113494866D01*
X143613569Y-113511607D01*
X143579591Y-113521915D01*
X143538110Y-113526000D01*
X142861890Y-113526000D01*
X142820409Y-113521915D01*
X142786431Y-113511607D01*
X142755110Y-113494866D01*
X142727661Y-113472339D01*
X142705134Y-113444890D01*
X142688393Y-113413569D01*
X142678085Y-113379591D01*
X142674000Y-113338110D01*
X142674000Y-112736890D01*
X142678085Y-112695409D01*
X142688393Y-112661431D01*
X142705134Y-112630110D01*
X142727661Y-112602661D01*
X142755110Y-112580134D01*
X142786431Y-112563393D01*
X142820409Y-112553085D01*
X142861890Y-112549000D01*
X143538110Y-112549000D01*
X143579591Y-112553085D01*
G37*
G36*
X105801000Y-113501000D02*
G01*
X103399000Y-113501000D01*
X103399000Y-112899000D01*
X105801000Y-112899000D01*
X105801000Y-113501000D01*
G37*
G36*
X117742091Y-112278085D02*
G01*
X117776069Y-112288393D01*
X117807390Y-112305134D01*
X117834839Y-112327661D01*
X117857366Y-112355110D01*
X117874107Y-112386431D01*
X117884415Y-112420409D01*
X117888500Y-112461890D01*
X117888500Y-113138110D01*
X117884415Y-113179591D01*
X117874107Y-113213569D01*
X117857366Y-113244890D01*
X117834839Y-113272339D01*
X117807390Y-113294866D01*
X117776069Y-113311607D01*
X117742091Y-113321915D01*
X117700610Y-113326000D01*
X117099390Y-113326000D01*
X117057909Y-113321915D01*
X117023931Y-113311607D01*
X116992610Y-113294866D01*
X116965161Y-113272339D01*
X116942634Y-113244890D01*
X116925893Y-113213569D01*
X116915585Y-113179591D01*
X116911500Y-113138110D01*
X116911500Y-112461890D01*
X116915585Y-112420409D01*
X116925893Y-112386431D01*
X116942634Y-112355110D01*
X116965161Y-112327661D01*
X116992610Y-112305134D01*
X117023931Y-112288393D01*
X117057909Y-112278085D01*
X117099390Y-112274000D01*
X117700610Y-112274000D01*
X117742091Y-112278085D01*
G37*
G36*
X119317091Y-112278085D02*
G01*
X119351069Y-112288393D01*
X119382390Y-112305134D01*
X119409839Y-112327661D01*
X119432366Y-112355110D01*
X119449107Y-112386431D01*
X119459415Y-112420409D01*
X119463500Y-112461890D01*
X119463500Y-113138110D01*
X119459415Y-113179591D01*
X119449107Y-113213569D01*
X119432366Y-113244890D01*
X119409839Y-113272339D01*
X119382390Y-113294866D01*
X119351069Y-113311607D01*
X119317091Y-113321915D01*
X119275610Y-113326000D01*
X118674390Y-113326000D01*
X118632909Y-113321915D01*
X118598931Y-113311607D01*
X118567610Y-113294866D01*
X118540161Y-113272339D01*
X118517634Y-113244890D01*
X118500893Y-113213569D01*
X118490585Y-113179591D01*
X118486500Y-113138110D01*
X118486500Y-112461890D01*
X118490585Y-112420409D01*
X118500893Y-112386431D01*
X118517634Y-112355110D01*
X118540161Y-112327661D01*
X118567610Y-112305134D01*
X118598931Y-112288393D01*
X118632909Y-112278085D01*
X118674390Y-112274000D01*
X119275610Y-112274000D01*
X119317091Y-112278085D01*
G37*
G36*
X182442091Y-111111085D02*
G01*
X182476069Y-111121393D01*
X182507390Y-111138134D01*
X182534839Y-111160661D01*
X182557366Y-111188110D01*
X182574107Y-111219431D01*
X182584415Y-111253409D01*
X182588500Y-111294890D01*
X182588500Y-111971110D01*
X182584415Y-112012591D01*
X182574107Y-112046569D01*
X182557366Y-112077890D01*
X182534839Y-112105339D01*
X182507390Y-112127866D01*
X182476069Y-112144607D01*
X182442091Y-112154915D01*
X182400610Y-112159000D01*
X181799390Y-112159000D01*
X181757909Y-112154915D01*
X181723931Y-112144607D01*
X181692610Y-112127866D01*
X181665161Y-112105339D01*
X181642634Y-112077890D01*
X181625893Y-112046569D01*
X181615585Y-112012591D01*
X181611500Y-111971110D01*
X181611500Y-111294890D01*
X181615585Y-111253409D01*
X181625893Y-111219431D01*
X181642634Y-111188110D01*
X181665161Y-111160661D01*
X181692610Y-111138134D01*
X181723931Y-111121393D01*
X181757909Y-111111085D01*
X181799390Y-111107000D01*
X182400610Y-111107000D01*
X182442091Y-111111085D01*
G37*
G36*
X184017091Y-111111085D02*
G01*
X184051069Y-111121393D01*
X184082390Y-111138134D01*
X184109839Y-111160661D01*
X184132366Y-111188110D01*
X184149107Y-111219431D01*
X184159415Y-111253409D01*
X184163500Y-111294890D01*
X184163500Y-111971110D01*
X184159415Y-112012591D01*
X184149107Y-112046569D01*
X184132366Y-112077890D01*
X184109839Y-112105339D01*
X184082390Y-112127866D01*
X184051069Y-112144607D01*
X184017091Y-112154915D01*
X183975610Y-112159000D01*
X183374390Y-112159000D01*
X183332909Y-112154915D01*
X183298931Y-112144607D01*
X183267610Y-112127866D01*
X183240161Y-112105339D01*
X183217634Y-112077890D01*
X183200893Y-112046569D01*
X183190585Y-112012591D01*
X183186500Y-111971110D01*
X183186500Y-111294890D01*
X183190585Y-111253409D01*
X183200893Y-111219431D01*
X183217634Y-111188110D01*
X183240161Y-111160661D01*
X183267610Y-111138134D01*
X183298931Y-111121393D01*
X183332909Y-111111085D01*
X183374390Y-111107000D01*
X183975610Y-111107000D01*
X184017091Y-111111085D01*
G37*
G36*
X143579591Y-110978085D02*
G01*
X143613569Y-110988393D01*
X143644890Y-111005134D01*
X143672339Y-111027661D01*
X143694866Y-111055110D01*
X143711607Y-111086431D01*
X143721915Y-111120409D01*
X143726000Y-111161890D01*
X143726000Y-111763110D01*
X143721915Y-111804591D01*
X143711607Y-111838569D01*
X143694866Y-111869890D01*
X143672339Y-111897339D01*
X143644890Y-111919866D01*
X143613569Y-111936607D01*
X143579591Y-111946915D01*
X143538110Y-111951000D01*
X142861890Y-111951000D01*
X142820409Y-111946915D01*
X142786431Y-111936607D01*
X142755110Y-111919866D01*
X142727661Y-111897339D01*
X142705134Y-111869890D01*
X142688393Y-111838569D01*
X142678085Y-111804591D01*
X142674000Y-111763110D01*
X142674000Y-111161890D01*
X142678085Y-111120409D01*
X142688393Y-111086431D01*
X142705134Y-111055110D01*
X142727661Y-111027661D01*
X142755110Y-111005134D01*
X142786431Y-110988393D01*
X142820409Y-110978085D01*
X142861890Y-110974000D01*
X143538110Y-110974000D01*
X143579591Y-110978085D01*
G37*
G36*
X195573871Y-109644786D02*
G01*
X195779530Y-109707172D01*
X195969055Y-109808475D01*
X195969058Y-109808477D01*
X195969059Y-109808478D01*
X196135186Y-109944814D01*
X196223971Y-110053000D01*
X196271525Y-110110945D01*
X196372828Y-110300470D01*
X196435214Y-110506129D01*
X196456278Y-110720000D01*
X196435214Y-110933871D01*
X196394147Y-111069250D01*
X196373252Y-111138134D01*
X196372828Y-111139530D01*
X196271525Y-111329055D01*
X196271523Y-111329058D01*
X196271522Y-111329059D01*
X196135186Y-111495186D01*
X195969059Y-111631522D01*
X195969055Y-111631525D01*
X195779530Y-111732828D01*
X195573871Y-111795214D01*
X195413591Y-111811000D01*
X193786409Y-111811000D01*
X193626129Y-111795214D01*
X193420470Y-111732828D01*
X193230945Y-111631525D01*
X193230941Y-111631522D01*
X193064814Y-111495186D01*
X192928478Y-111329059D01*
X192928477Y-111329058D01*
X192928475Y-111329055D01*
X192827172Y-111139530D01*
X192826749Y-111138134D01*
X192805853Y-111069250D01*
X192764786Y-110933871D01*
X192743722Y-110720000D01*
X192764786Y-110506129D01*
X192827172Y-110300470D01*
X192928475Y-110110945D01*
X192976029Y-110053000D01*
X193064814Y-109944814D01*
X193230941Y-109808478D01*
X193230942Y-109808477D01*
X193230945Y-109808475D01*
X193420470Y-109707172D01*
X193626129Y-109644786D01*
X193786409Y-109629000D01*
X195413591Y-109629000D01*
X195573871Y-109644786D01*
G37*
G36*
X113168604Y-110428347D02*
G01*
X113205144Y-110439432D01*
X113238821Y-110457433D01*
X113268341Y-110481659D01*
X113292567Y-110511179D01*
X113310568Y-110544856D01*
X113321653Y-110581396D01*
X113326000Y-110625538D01*
X113326000Y-111574462D01*
X113321653Y-111618604D01*
X113310568Y-111655144D01*
X113292567Y-111688821D01*
X113268341Y-111718341D01*
X113238821Y-111742567D01*
X113205144Y-111760568D01*
X113168604Y-111771653D01*
X113124462Y-111776000D01*
X111675538Y-111776000D01*
X111631396Y-111771653D01*
X111594856Y-111760568D01*
X111561179Y-111742567D01*
X111531659Y-111718341D01*
X111507433Y-111688821D01*
X111489432Y-111655144D01*
X111478347Y-111618604D01*
X111474000Y-111574462D01*
X111474000Y-110625538D01*
X111478347Y-110581396D01*
X111489432Y-110544856D01*
X111507433Y-110511179D01*
X111531659Y-110481659D01*
X111561179Y-110457433D01*
X111594856Y-110439432D01*
X111631396Y-110428347D01*
X111675538Y-110424000D01*
X113124462Y-110424000D01*
X113168604Y-110428347D01*
G37*
G36*
X141379591Y-110340585D02*
G01*
X141413569Y-110350893D01*
X141444890Y-110367634D01*
X141472339Y-110390161D01*
X141494866Y-110417610D01*
X141511607Y-110448931D01*
X141521915Y-110482909D01*
X141526000Y-110524390D01*
X141526000Y-111125610D01*
X141521915Y-111167091D01*
X141511607Y-111201069D01*
X141494866Y-111232390D01*
X141472339Y-111259839D01*
X141444890Y-111282366D01*
X141413569Y-111299107D01*
X141379591Y-111309415D01*
X141338110Y-111313500D01*
X140661890Y-111313500D01*
X140620409Y-111309415D01*
X140586431Y-111299107D01*
X140555110Y-111282366D01*
X140527661Y-111259839D01*
X140505134Y-111232390D01*
X140488393Y-111201069D01*
X140478085Y-111167091D01*
X140474000Y-111125610D01*
X140474000Y-110524390D01*
X140478085Y-110482909D01*
X140488393Y-110448931D01*
X140505134Y-110417610D01*
X140527661Y-110390161D01*
X140555110Y-110367634D01*
X140586431Y-110350893D01*
X140620409Y-110340585D01*
X140661890Y-110336500D01*
X141338110Y-110336500D01*
X141379591Y-110340585D01*
G37*
G36*
X164751000Y-110951000D02*
G01*
X160849000Y-110951000D01*
X160849000Y-108849000D01*
X164751000Y-108849000D01*
X164751000Y-110951000D01*
G37*
G36*
X183984091Y-109333085D02*
G01*
X184018069Y-109343393D01*
X184049390Y-109360134D01*
X184076839Y-109382661D01*
X184099366Y-109410110D01*
X184116107Y-109441431D01*
X184126415Y-109475409D01*
X184130500Y-109516890D01*
X184130500Y-110193110D01*
X184126415Y-110234591D01*
X184116107Y-110268569D01*
X184099366Y-110299890D01*
X184076839Y-110327339D01*
X184049390Y-110349866D01*
X184018069Y-110366607D01*
X183984091Y-110376915D01*
X183942610Y-110381000D01*
X183341390Y-110381000D01*
X183299909Y-110376915D01*
X183265931Y-110366607D01*
X183234610Y-110349866D01*
X183207161Y-110327339D01*
X183184634Y-110299890D01*
X183167893Y-110268569D01*
X183157585Y-110234591D01*
X183153500Y-110193110D01*
X183153500Y-109516890D01*
X183157585Y-109475409D01*
X183167893Y-109441431D01*
X183184634Y-109410110D01*
X183207161Y-109382661D01*
X183234610Y-109360134D01*
X183265931Y-109343393D01*
X183299909Y-109333085D01*
X183341390Y-109329000D01*
X183942610Y-109329000D01*
X183984091Y-109333085D01*
G37*
G36*
X182409091Y-109333085D02*
G01*
X182443069Y-109343393D01*
X182474390Y-109360134D01*
X182501839Y-109382661D01*
X182524366Y-109410110D01*
X182541107Y-109441431D01*
X182551415Y-109475409D01*
X182555500Y-109516890D01*
X182555500Y-110193110D01*
X182551415Y-110234591D01*
X182541107Y-110268569D01*
X182524366Y-110299890D01*
X182501839Y-110327339D01*
X182474390Y-110349866D01*
X182443069Y-110366607D01*
X182409091Y-110376915D01*
X182367610Y-110381000D01*
X181766390Y-110381000D01*
X181724909Y-110376915D01*
X181690931Y-110366607D01*
X181659610Y-110349866D01*
X181632161Y-110327339D01*
X181609634Y-110299890D01*
X181592893Y-110268569D01*
X181582585Y-110234591D01*
X181578500Y-110193110D01*
X181578500Y-109516890D01*
X181582585Y-109475409D01*
X181592893Y-109441431D01*
X181609634Y-109410110D01*
X181632161Y-109382661D01*
X181659610Y-109360134D01*
X181690931Y-109343393D01*
X181724909Y-109333085D01*
X181766390Y-109329000D01*
X182367610Y-109329000D01*
X182409091Y-109333085D01*
G37*
G36*
X131809000Y-110053000D02*
G01*
X128557000Y-110053000D01*
X128557000Y-108951000D01*
X131809000Y-108951000D01*
X131809000Y-110053000D01*
G37*
G36*
X136859000Y-110053000D02*
G01*
X133607000Y-110053000D01*
X133607000Y-108951000D01*
X136859000Y-108951000D01*
X136859000Y-110053000D01*
G37*
G36*
X141379591Y-108765585D02*
G01*
X141413569Y-108775893D01*
X141444890Y-108792634D01*
X141472339Y-108815161D01*
X141494866Y-108842610D01*
X141511607Y-108873931D01*
X141521915Y-108907909D01*
X141526000Y-108949390D01*
X141526000Y-109550610D01*
X141521915Y-109592091D01*
X141511607Y-109626069D01*
X141494866Y-109657390D01*
X141472339Y-109684839D01*
X141444890Y-109707366D01*
X141413569Y-109724107D01*
X141379591Y-109734415D01*
X141338110Y-109738500D01*
X140661890Y-109738500D01*
X140620409Y-109734415D01*
X140586431Y-109724107D01*
X140555110Y-109707366D01*
X140527661Y-109684839D01*
X140505134Y-109657390D01*
X140488393Y-109626069D01*
X140478085Y-109592091D01*
X140474000Y-109550610D01*
X140474000Y-108949390D01*
X140478085Y-108907909D01*
X140488393Y-108873931D01*
X140505134Y-108842610D01*
X140527661Y-108815161D01*
X140555110Y-108792634D01*
X140586431Y-108775893D01*
X140620409Y-108765585D01*
X140661890Y-108761500D01*
X141338110Y-108761500D01*
X141379591Y-108765585D01*
G37*
G36*
X103776000Y-109701000D02*
G01*
X103174000Y-109701000D01*
X103174000Y-107299000D01*
X103776000Y-107299000D01*
X103776000Y-109701000D01*
G37*
G36*
X105826000Y-109701000D02*
G01*
X105224000Y-109701000D01*
X105224000Y-107299000D01*
X105826000Y-107299000D01*
X105826000Y-109701000D01*
G37*
G36*
X150326000Y-109401000D02*
G01*
X144074000Y-109401000D01*
X144074000Y-107699000D01*
X150326000Y-107699000D01*
X150326000Y-109401000D01*
G37*
G36*
X178409928Y-107956764D02*
G01*
X178431009Y-107963160D01*
X178450445Y-107973548D01*
X178467476Y-107987524D01*
X178481452Y-108004555D01*
X178491840Y-108023991D01*
X178498236Y-108045072D01*
X178501000Y-108073140D01*
X178501000Y-108536860D01*
X178498236Y-108564928D01*
X178491840Y-108586009D01*
X178481452Y-108605445D01*
X178467476Y-108622476D01*
X178450445Y-108636452D01*
X178431009Y-108646840D01*
X178409928Y-108653236D01*
X178381860Y-108656000D01*
X176568140Y-108656000D01*
X176540072Y-108653236D01*
X176518991Y-108646840D01*
X176499555Y-108636452D01*
X176482524Y-108622476D01*
X176468548Y-108605445D01*
X176458160Y-108586009D01*
X176451764Y-108564928D01*
X176449000Y-108536860D01*
X176449000Y-108073140D01*
X176451764Y-108045072D01*
X176458160Y-108023991D01*
X176468548Y-108004555D01*
X176482524Y-107987524D01*
X176499555Y-107973548D01*
X176518991Y-107963160D01*
X176540072Y-107956764D01*
X176568140Y-107954000D01*
X178381860Y-107954000D01*
X178409928Y-107956764D01*
G37*
G36*
X173459928Y-107956764D02*
G01*
X173481009Y-107963160D01*
X173500445Y-107973548D01*
X173517476Y-107987524D01*
X173531452Y-108004555D01*
X173541840Y-108023991D01*
X173548236Y-108045072D01*
X173551000Y-108073140D01*
X173551000Y-108536860D01*
X173548236Y-108564928D01*
X173541840Y-108586009D01*
X173531452Y-108605445D01*
X173517476Y-108622476D01*
X173500445Y-108636452D01*
X173481009Y-108646840D01*
X173459928Y-108653236D01*
X173431860Y-108656000D01*
X171618140Y-108656000D01*
X171590072Y-108653236D01*
X171568991Y-108646840D01*
X171549555Y-108636452D01*
X171532524Y-108622476D01*
X171518548Y-108605445D01*
X171508160Y-108586009D01*
X171501764Y-108564928D01*
X171499000Y-108536860D01*
X171499000Y-108073140D01*
X171501764Y-108045072D01*
X171508160Y-108023991D01*
X171518548Y-108004555D01*
X171532524Y-107987524D01*
X171549555Y-107973548D01*
X171568991Y-107963160D01*
X171590072Y-107956764D01*
X171618140Y-107954000D01*
X173431860Y-107954000D01*
X173459928Y-107956764D01*
G37*
G36*
X131809000Y-107513000D02*
G01*
X128557000Y-107513000D01*
X128557000Y-106411000D01*
X131809000Y-106411000D01*
X131809000Y-107513000D01*
G37*
G36*
X136859000Y-107513000D02*
G01*
X133607000Y-107513000D01*
X133607000Y-106411000D01*
X136859000Y-106411000D01*
X136859000Y-107513000D01*
G37*
G36*
X143801000Y-107426000D02*
G01*
X142099000Y-107426000D01*
X142099000Y-101174000D01*
X143801000Y-101174000D01*
X143801000Y-107426000D01*
G37*
G36*
X152301000Y-107426000D02*
G01*
X150599000Y-107426000D01*
X150599000Y-101174000D01*
X152301000Y-101174000D01*
X152301000Y-107426000D01*
G37*
G36*
X173459928Y-106686764D02*
G01*
X173481009Y-106693160D01*
X173500445Y-106703548D01*
X173517476Y-106717524D01*
X173531452Y-106734555D01*
X173541840Y-106753991D01*
X173548236Y-106775072D01*
X173551000Y-106803140D01*
X173551000Y-107266860D01*
X173548236Y-107294928D01*
X173541840Y-107316009D01*
X173531452Y-107335445D01*
X173517476Y-107352476D01*
X173500445Y-107366452D01*
X173481009Y-107376840D01*
X173459928Y-107383236D01*
X173431860Y-107386000D01*
X171618140Y-107386000D01*
X171590072Y-107383236D01*
X171568991Y-107376840D01*
X171549555Y-107366452D01*
X171532524Y-107352476D01*
X171518548Y-107335445D01*
X171508160Y-107316009D01*
X171501764Y-107294928D01*
X171499000Y-107266860D01*
X171499000Y-106803140D01*
X171501764Y-106775072D01*
X171508160Y-106753991D01*
X171518548Y-106734555D01*
X171532524Y-106717524D01*
X171549555Y-106703548D01*
X171568991Y-106693160D01*
X171590072Y-106686764D01*
X171618140Y-106684000D01*
X173431860Y-106684000D01*
X173459928Y-106686764D01*
G37*
G36*
X178409928Y-106686764D02*
G01*
X178431009Y-106693160D01*
X178450445Y-106703548D01*
X178467476Y-106717524D01*
X178481452Y-106734555D01*
X178491840Y-106753991D01*
X178498236Y-106775072D01*
X178501000Y-106803140D01*
X178501000Y-107266860D01*
X178498236Y-107294928D01*
X178491840Y-107316009D01*
X178481452Y-107335445D01*
X178467476Y-107352476D01*
X178450445Y-107366452D01*
X178431009Y-107376840D01*
X178409928Y-107383236D01*
X178381860Y-107386000D01*
X176568140Y-107386000D01*
X176540072Y-107383236D01*
X176518991Y-107376840D01*
X176499555Y-107366452D01*
X176482524Y-107352476D01*
X176468548Y-107335445D01*
X176458160Y-107316009D01*
X176451764Y-107294928D01*
X176449000Y-107266860D01*
X176449000Y-106803140D01*
X176451764Y-106775072D01*
X176458160Y-106753991D01*
X176468548Y-106734555D01*
X176482524Y-106717524D01*
X176499555Y-106703548D01*
X176518991Y-106693160D01*
X176540072Y-106686764D01*
X176568140Y-106684000D01*
X178381860Y-106684000D01*
X178409928Y-106686764D01*
G37*
G36*
X111479591Y-106390585D02*
G01*
X111513569Y-106400893D01*
X111544890Y-106417634D01*
X111572339Y-106440161D01*
X111594866Y-106467610D01*
X111611607Y-106498931D01*
X111621915Y-106532909D01*
X111626000Y-106574390D01*
X111626000Y-107175610D01*
X111621915Y-107217091D01*
X111611607Y-107251069D01*
X111594866Y-107282390D01*
X111572339Y-107309839D01*
X111544890Y-107332366D01*
X111513569Y-107349107D01*
X111479591Y-107359415D01*
X111438110Y-107363500D01*
X110761890Y-107363500D01*
X110720409Y-107359415D01*
X110686431Y-107349107D01*
X110655110Y-107332366D01*
X110627661Y-107309839D01*
X110605134Y-107282390D01*
X110588393Y-107251069D01*
X110578085Y-107217091D01*
X110574000Y-107175610D01*
X110574000Y-106574390D01*
X110578085Y-106532909D01*
X110588393Y-106498931D01*
X110605134Y-106467610D01*
X110627661Y-106440161D01*
X110655110Y-106417634D01*
X110686431Y-106400893D01*
X110720409Y-106390585D01*
X110761890Y-106386500D01*
X111438110Y-106386500D01*
X111479591Y-106390585D01*
G37*
G36*
X184701000Y-107051000D02*
G01*
X183699000Y-107051000D01*
X183699000Y-105749000D01*
X184701000Y-105749000D01*
X184701000Y-107051000D01*
G37*
G36*
X181401000Y-107051000D02*
G01*
X180399000Y-107051000D01*
X180399000Y-105749000D01*
X181401000Y-105749000D01*
X181401000Y-107051000D01*
G37*
G36*
X195573871Y-104564786D02*
G01*
X195779530Y-104627172D01*
X195969055Y-104728475D01*
X195969058Y-104728477D01*
X195969059Y-104728478D01*
X196135186Y-104864814D01*
X196252776Y-105008099D01*
X196271525Y-105030945D01*
X196372828Y-105220470D01*
X196435214Y-105426129D01*
X196456278Y-105640000D01*
X196435214Y-105853871D01*
X196372828Y-106059530D01*
X196271525Y-106249055D01*
X196271523Y-106249058D01*
X196271522Y-106249059D01*
X196135186Y-106415186D01*
X195991739Y-106532909D01*
X195969055Y-106551525D01*
X195779530Y-106652828D01*
X195573871Y-106715214D01*
X195413591Y-106731000D01*
X193786409Y-106731000D01*
X193626129Y-106715214D01*
X193420470Y-106652828D01*
X193230945Y-106551525D01*
X193208261Y-106532909D01*
X193064814Y-106415186D01*
X192928478Y-106249059D01*
X192928477Y-106249058D01*
X192928475Y-106249055D01*
X192827172Y-106059530D01*
X192764786Y-105853871D01*
X192743722Y-105640000D01*
X192764786Y-105426129D01*
X192827172Y-105220470D01*
X192928475Y-105030945D01*
X192947224Y-105008099D01*
X193064814Y-104864814D01*
X193230941Y-104728478D01*
X193230942Y-104728477D01*
X193230945Y-104728475D01*
X193420470Y-104627172D01*
X193626129Y-104564786D01*
X193786409Y-104549000D01*
X195413591Y-104549000D01*
X195573871Y-104564786D01*
G37*
G36*
X104354591Y-105528085D02*
G01*
X104388569Y-105538393D01*
X104419890Y-105555134D01*
X104447339Y-105577661D01*
X104469866Y-105605110D01*
X104486607Y-105636431D01*
X104496915Y-105670409D01*
X104501000Y-105711890D01*
X104501000Y-106388110D01*
X104496915Y-106429591D01*
X104486607Y-106463569D01*
X104469866Y-106494890D01*
X104447339Y-106522339D01*
X104419890Y-106544866D01*
X104388569Y-106561607D01*
X104354591Y-106571915D01*
X104313110Y-106576000D01*
X103711890Y-106576000D01*
X103670409Y-106571915D01*
X103636431Y-106561607D01*
X103605110Y-106544866D01*
X103577661Y-106522339D01*
X103555134Y-106494890D01*
X103538393Y-106463569D01*
X103528085Y-106429591D01*
X103524000Y-106388110D01*
X103524000Y-105711890D01*
X103528085Y-105670409D01*
X103538393Y-105636431D01*
X103555134Y-105605110D01*
X103577661Y-105577661D01*
X103605110Y-105555134D01*
X103636431Y-105538393D01*
X103670409Y-105528085D01*
X103711890Y-105524000D01*
X104313110Y-105524000D01*
X104354591Y-105528085D01*
G37*
G36*
X105929591Y-105528085D02*
G01*
X105963569Y-105538393D01*
X105994890Y-105555134D01*
X106022339Y-105577661D01*
X106044866Y-105605110D01*
X106061607Y-105636431D01*
X106071915Y-105670409D01*
X106076000Y-105711890D01*
X106076000Y-106388110D01*
X106071915Y-106429591D01*
X106061607Y-106463569D01*
X106044866Y-106494890D01*
X106022339Y-106522339D01*
X105994890Y-106544866D01*
X105963569Y-106561607D01*
X105929591Y-106571915D01*
X105888110Y-106576000D01*
X105286890Y-106576000D01*
X105245409Y-106571915D01*
X105211431Y-106561607D01*
X105180110Y-106544866D01*
X105152661Y-106522339D01*
X105130134Y-106494890D01*
X105113393Y-106463569D01*
X105103085Y-106429591D01*
X105099000Y-106388110D01*
X105099000Y-105711890D01*
X105103085Y-105670409D01*
X105113393Y-105636431D01*
X105130134Y-105605110D01*
X105152661Y-105577661D01*
X105180110Y-105555134D01*
X105211431Y-105538393D01*
X105245409Y-105528085D01*
X105286890Y-105524000D01*
X105888110Y-105524000D01*
X105929591Y-105528085D01*
G37*
G36*
X173459928Y-105416764D02*
G01*
X173481009Y-105423160D01*
X173500445Y-105433548D01*
X173517476Y-105447524D01*
X173531452Y-105464555D01*
X173541840Y-105483991D01*
X173548236Y-105505072D01*
X173551000Y-105533140D01*
X173551000Y-105996860D01*
X173548236Y-106024928D01*
X173541840Y-106046009D01*
X173531452Y-106065445D01*
X173517476Y-106082476D01*
X173500445Y-106096452D01*
X173481009Y-106106840D01*
X173459928Y-106113236D01*
X173431860Y-106116000D01*
X171618140Y-106116000D01*
X171590072Y-106113236D01*
X171568991Y-106106840D01*
X171549555Y-106096452D01*
X171532524Y-106082476D01*
X171518548Y-106065445D01*
X171508160Y-106046009D01*
X171501764Y-106024928D01*
X171499000Y-105996860D01*
X171499000Y-105533140D01*
X171501764Y-105505072D01*
X171508160Y-105483991D01*
X171518548Y-105464555D01*
X171532524Y-105447524D01*
X171549555Y-105433548D01*
X171568991Y-105423160D01*
X171590072Y-105416764D01*
X171618140Y-105414000D01*
X173431860Y-105414000D01*
X173459928Y-105416764D01*
G37*
G36*
X178409928Y-105416764D02*
G01*
X178431009Y-105423160D01*
X178450445Y-105433548D01*
X178467476Y-105447524D01*
X178481452Y-105464555D01*
X178491840Y-105483991D01*
X178498236Y-105505072D01*
X178501000Y-105533140D01*
X178501000Y-105996860D01*
X178498236Y-106024928D01*
X178491840Y-106046009D01*
X178481452Y-106065445D01*
X178467476Y-106082476D01*
X178450445Y-106096452D01*
X178431009Y-106106840D01*
X178409928Y-106113236D01*
X178381860Y-106116000D01*
X176568140Y-106116000D01*
X176540072Y-106113236D01*
X176518991Y-106106840D01*
X176499555Y-106096452D01*
X176482524Y-106082476D01*
X176468548Y-106065445D01*
X176458160Y-106046009D01*
X176451764Y-106024928D01*
X176449000Y-105996860D01*
X176449000Y-105533140D01*
X176451764Y-105505072D01*
X176458160Y-105483991D01*
X176468548Y-105464555D01*
X176482524Y-105447524D01*
X176499555Y-105433548D01*
X176518991Y-105423160D01*
X176540072Y-105416764D01*
X176568140Y-105414000D01*
X178381860Y-105414000D01*
X178409928Y-105416764D01*
G37*
G36*
X111479591Y-104815585D02*
G01*
X111513569Y-104825893D01*
X111544890Y-104842634D01*
X111572339Y-104865161D01*
X111594866Y-104892610D01*
X111611607Y-104923931D01*
X111621915Y-104957909D01*
X111626000Y-104999390D01*
X111626000Y-105600610D01*
X111621915Y-105642091D01*
X111611607Y-105676069D01*
X111594866Y-105707390D01*
X111572339Y-105734839D01*
X111544890Y-105757366D01*
X111513569Y-105774107D01*
X111479591Y-105784415D01*
X111438110Y-105788500D01*
X110761890Y-105788500D01*
X110720409Y-105784415D01*
X110686431Y-105774107D01*
X110655110Y-105757366D01*
X110627661Y-105734839D01*
X110605134Y-105707390D01*
X110588393Y-105676069D01*
X110578085Y-105642091D01*
X110574000Y-105600610D01*
X110574000Y-104999390D01*
X110578085Y-104957909D01*
X110588393Y-104923931D01*
X110605134Y-104892610D01*
X110627661Y-104865161D01*
X110655110Y-104842634D01*
X110686431Y-104825893D01*
X110720409Y-104815585D01*
X110761890Y-104811500D01*
X111438110Y-104811500D01*
X111479591Y-104815585D01*
G37*
G36*
X131809000Y-104973000D02*
G01*
X128557000Y-104973000D01*
X128557000Y-103871000D01*
X131809000Y-103871000D01*
X131809000Y-104973000D01*
G37*
G36*
X136859000Y-104973000D02*
G01*
X133607000Y-104973000D01*
X133607000Y-103871000D01*
X136859000Y-103871000D01*
X136859000Y-104973000D01*
G37*
G36*
X178409928Y-104146764D02*
G01*
X178431009Y-104153160D01*
X178450445Y-104163548D01*
X178467476Y-104177524D01*
X178481452Y-104194555D01*
X178491840Y-104213991D01*
X178498236Y-104235072D01*
X178501000Y-104263140D01*
X178501000Y-104726860D01*
X178498236Y-104754928D01*
X178491840Y-104776009D01*
X178481452Y-104795445D01*
X178467476Y-104812476D01*
X178450445Y-104826452D01*
X178431009Y-104836840D01*
X178409928Y-104843236D01*
X178381860Y-104846000D01*
X176568140Y-104846000D01*
X176540072Y-104843236D01*
X176518991Y-104836840D01*
X176499555Y-104826452D01*
X176482524Y-104812476D01*
X176468548Y-104795445D01*
X176458160Y-104776009D01*
X176451764Y-104754928D01*
X176449000Y-104726860D01*
X176449000Y-104263140D01*
X176451764Y-104235072D01*
X176458160Y-104213991D01*
X176468548Y-104194555D01*
X176482524Y-104177524D01*
X176499555Y-104163548D01*
X176518991Y-104153160D01*
X176540072Y-104146764D01*
X176568140Y-104144000D01*
X178381860Y-104144000D01*
X178409928Y-104146764D01*
G37*
G36*
X173459928Y-104146764D02*
G01*
X173481009Y-104153160D01*
X173500445Y-104163548D01*
X173517476Y-104177524D01*
X173531452Y-104194555D01*
X173541840Y-104213991D01*
X173548236Y-104235072D01*
X173551000Y-104263140D01*
X173551000Y-104726860D01*
X173548236Y-104754928D01*
X173541840Y-104776009D01*
X173531452Y-104795445D01*
X173517476Y-104812476D01*
X173500445Y-104826452D01*
X173481009Y-104836840D01*
X173459928Y-104843236D01*
X173431860Y-104846000D01*
X171618140Y-104846000D01*
X171590072Y-104843236D01*
X171568991Y-104836840D01*
X171549555Y-104826452D01*
X171532524Y-104812476D01*
X171518548Y-104795445D01*
X171508160Y-104776009D01*
X171501764Y-104754928D01*
X171499000Y-104726860D01*
X171499000Y-104263140D01*
X171501764Y-104235072D01*
X171508160Y-104213991D01*
X171518548Y-104194555D01*
X171532524Y-104177524D01*
X171549555Y-104163548D01*
X171568991Y-104153160D01*
X171590072Y-104146764D01*
X171618140Y-104144000D01*
X173431860Y-104144000D01*
X173459928Y-104146764D01*
G37*
G36*
X103850170Y-102100803D02*
G01*
X103861875Y-102104354D01*
X103872665Y-102110121D01*
X103887904Y-102122628D01*
X103894702Y-102129426D01*
X103915076Y-102143040D01*
X103937715Y-102152417D01*
X103961748Y-102157198D01*
X103986252Y-102157198D01*
X104010285Y-102152418D01*
X104032924Y-102143041D01*
X104053299Y-102129427D01*
X104070626Y-102112100D01*
X104079379Y-102099000D01*
X105720330Y-102099000D01*
X105722066Y-102102247D01*
X105737611Y-102121189D01*
X105756553Y-102136734D01*
X105778164Y-102148285D01*
X105801613Y-102155398D01*
X105825999Y-102157800D01*
X105850385Y-102155398D01*
X105873834Y-102148285D01*
X105895445Y-102136734D01*
X105914387Y-102121189D01*
X105915948Y-102119467D01*
X105927335Y-102110121D01*
X105938125Y-102104354D01*
X105949830Y-102100803D01*
X105968138Y-102099000D01*
X106731862Y-102099000D01*
X106750170Y-102100803D01*
X106761875Y-102104354D01*
X106772665Y-102110121D01*
X106782119Y-102117881D01*
X106789879Y-102127335D01*
X106795646Y-102138125D01*
X106799197Y-102149830D01*
X106801000Y-102168138D01*
X106801000Y-102531862D01*
X106799197Y-102550170D01*
X106795646Y-102561875D01*
X106789879Y-102572665D01*
X106782119Y-102582119D01*
X106772665Y-102589879D01*
X106761875Y-102595646D01*
X106750170Y-102599197D01*
X106731862Y-102601000D01*
X105968138Y-102601000D01*
X105949830Y-102599197D01*
X105938125Y-102595646D01*
X105927335Y-102589879D01*
X105912096Y-102577372D01*
X105905298Y-102570574D01*
X105884924Y-102556960D01*
X105862285Y-102547583D01*
X105838252Y-102542802D01*
X105813748Y-102542802D01*
X105789715Y-102547582D01*
X105767076Y-102556959D01*
X105746701Y-102570573D01*
X105729374Y-102587900D01*
X105715760Y-102608274D01*
X105706383Y-102630913D01*
X105701602Y-102654946D01*
X105701000Y-102667199D01*
X105701000Y-103032801D01*
X105703402Y-103057187D01*
X105710515Y-103080636D01*
X105722066Y-103102247D01*
X105737611Y-103121189D01*
X105756553Y-103136734D01*
X105778164Y-103148285D01*
X105801613Y-103155398D01*
X105825999Y-103157800D01*
X105850385Y-103155398D01*
X105873834Y-103148285D01*
X105895445Y-103136734D01*
X105914387Y-103121189D01*
X105915948Y-103119467D01*
X105927335Y-103110121D01*
X105938125Y-103104354D01*
X105949830Y-103100803D01*
X105968138Y-103099000D01*
X106731862Y-103099000D01*
X106750170Y-103100803D01*
X106761875Y-103104354D01*
X106772665Y-103110121D01*
X106782119Y-103117881D01*
X106789879Y-103127335D01*
X106795646Y-103138125D01*
X106799197Y-103149830D01*
X106801000Y-103168138D01*
X106801000Y-103531862D01*
X106799197Y-103550170D01*
X106795646Y-103561875D01*
X106789879Y-103572665D01*
X106782119Y-103582119D01*
X106772665Y-103589879D01*
X106761875Y-103595646D01*
X106750170Y-103599197D01*
X106731862Y-103601000D01*
X105968138Y-103601000D01*
X105949830Y-103599197D01*
X105938125Y-103595646D01*
X105927335Y-103589879D01*
X105912096Y-103577372D01*
X105905298Y-103570574D01*
X105884924Y-103556960D01*
X105862285Y-103547583D01*
X105838252Y-103542802D01*
X105813748Y-103542802D01*
X105789715Y-103547582D01*
X105767076Y-103556959D01*
X105746701Y-103570573D01*
X105729374Y-103587900D01*
X105715760Y-103608274D01*
X105706383Y-103630913D01*
X105701602Y-103654946D01*
X105701000Y-103667199D01*
X105701000Y-104032801D01*
X105703402Y-104057187D01*
X105710515Y-104080636D01*
X105722066Y-104102247D01*
X105737611Y-104121189D01*
X105756553Y-104136734D01*
X105778164Y-104148285D01*
X105801613Y-104155398D01*
X105825999Y-104157800D01*
X105850385Y-104155398D01*
X105873834Y-104148285D01*
X105895445Y-104136734D01*
X105914387Y-104121189D01*
X105915948Y-104119467D01*
X105927335Y-104110121D01*
X105938125Y-104104354D01*
X105949830Y-104100803D01*
X105968138Y-104099000D01*
X106731862Y-104099000D01*
X106750170Y-104100803D01*
X106761875Y-104104354D01*
X106772665Y-104110121D01*
X106782119Y-104117881D01*
X106789879Y-104127335D01*
X106795646Y-104138125D01*
X106799197Y-104149830D01*
X106801000Y-104168138D01*
X106801000Y-104531862D01*
X106799197Y-104550170D01*
X106795646Y-104561875D01*
X106789879Y-104572665D01*
X106782119Y-104582119D01*
X106772665Y-104589879D01*
X106761875Y-104595646D01*
X106750170Y-104599197D01*
X106731862Y-104601000D01*
X105968138Y-104601000D01*
X105949830Y-104599197D01*
X105938125Y-104595646D01*
X105927335Y-104589879D01*
X105912096Y-104577372D01*
X105905298Y-104570574D01*
X105884924Y-104556960D01*
X105862285Y-104547583D01*
X105838252Y-104542802D01*
X105813748Y-104542802D01*
X105789715Y-104547582D01*
X105767076Y-104556959D01*
X105746701Y-104570573D01*
X105729374Y-104587900D01*
X105720621Y-104601000D01*
X104079670Y-104601000D01*
X104077934Y-104597753D01*
X104062389Y-104578811D01*
X104043447Y-104563266D01*
X104021836Y-104551715D01*
X103998387Y-104544602D01*
X103974001Y-104542200D01*
X103949615Y-104544602D01*
X103926166Y-104551715D01*
X103904555Y-104563266D01*
X103885613Y-104578811D01*
X103884052Y-104580533D01*
X103872665Y-104589879D01*
X103861875Y-104595646D01*
X103850170Y-104599197D01*
X103831862Y-104601000D01*
X103068138Y-104601000D01*
X103049830Y-104599197D01*
X103038125Y-104595646D01*
X103027335Y-104589879D01*
X103017881Y-104582119D01*
X103010121Y-104572665D01*
X103004354Y-104561875D01*
X103000803Y-104550170D01*
X102999000Y-104531862D01*
X102999000Y-104168138D01*
X103000803Y-104149830D01*
X103004354Y-104138125D01*
X103010121Y-104127335D01*
X103017881Y-104117881D01*
X103027335Y-104110121D01*
X103038125Y-104104354D01*
X103049830Y-104100803D01*
X103068138Y-104099000D01*
X103831862Y-104099000D01*
X103850170Y-104100803D01*
X103861875Y-104104354D01*
X103872665Y-104110121D01*
X103887904Y-104122628D01*
X103894702Y-104129426D01*
X103915076Y-104143040D01*
X103937715Y-104152417D01*
X103961748Y-104157198D01*
X103986252Y-104157198D01*
X104010285Y-104152418D01*
X104032924Y-104143041D01*
X104053299Y-104129427D01*
X104070626Y-104112100D01*
X104084240Y-104091726D01*
X104093617Y-104069087D01*
X104098398Y-104045054D01*
X104099000Y-104032801D01*
X104099000Y-103667199D01*
X104096598Y-103642813D01*
X104089485Y-103619364D01*
X104077934Y-103597753D01*
X104062389Y-103578811D01*
X104043447Y-103563266D01*
X104021836Y-103551715D01*
X103998387Y-103544602D01*
X103974001Y-103542200D01*
X103949615Y-103544602D01*
X103926166Y-103551715D01*
X103904555Y-103563266D01*
X103885613Y-103578811D01*
X103884052Y-103580533D01*
X103872665Y-103589879D01*
X103861875Y-103595646D01*
X103850170Y-103599197D01*
X103831862Y-103601000D01*
X103068138Y-103601000D01*
X103049830Y-103599197D01*
X103038125Y-103595646D01*
X103027335Y-103589879D01*
X103017881Y-103582119D01*
X103010121Y-103572665D01*
X103004354Y-103561875D01*
X103000803Y-103550170D01*
X102999000Y-103531862D01*
X102999000Y-103168138D01*
X103000803Y-103149830D01*
X103004354Y-103138125D01*
X103010121Y-103127335D01*
X103017881Y-103117881D01*
X103027335Y-103110121D01*
X103038125Y-103104354D01*
X103049830Y-103100803D01*
X103068138Y-103099000D01*
X103831862Y-103099000D01*
X103850170Y-103100803D01*
X103861875Y-103104354D01*
X103872665Y-103110121D01*
X103887904Y-103122628D01*
X103894702Y-103129426D01*
X103915076Y-103143040D01*
X103937715Y-103152417D01*
X103961748Y-103157198D01*
X103986252Y-103157198D01*
X104010285Y-103152418D01*
X104032924Y-103143041D01*
X104053299Y-103129427D01*
X104070626Y-103112100D01*
X104084240Y-103091726D01*
X104093617Y-103069087D01*
X104098398Y-103045054D01*
X104099000Y-103032801D01*
X104099000Y-102667199D01*
X104096598Y-102642813D01*
X104089485Y-102619364D01*
X104077934Y-102597753D01*
X104062389Y-102578811D01*
X104043447Y-102563266D01*
X104021836Y-102551715D01*
X103998387Y-102544602D01*
X103974001Y-102542200D01*
X103949615Y-102544602D01*
X103926166Y-102551715D01*
X103904555Y-102563266D01*
X103885613Y-102578811D01*
X103884052Y-102580533D01*
X103872665Y-102589879D01*
X103861875Y-102595646D01*
X103850170Y-102599197D01*
X103831862Y-102601000D01*
X103068138Y-102601000D01*
X103049830Y-102599197D01*
X103038125Y-102595646D01*
X103027335Y-102589879D01*
X103017881Y-102582119D01*
X103010121Y-102572665D01*
X103004354Y-102561875D01*
X103000803Y-102550170D01*
X102999000Y-102531862D01*
X102999000Y-102168138D01*
X103000803Y-102149830D01*
X103004354Y-102138125D01*
X103010121Y-102127335D01*
X103017881Y-102117881D01*
X103027335Y-102110121D01*
X103038125Y-102104354D01*
X103049830Y-102100803D01*
X103068138Y-102099000D01*
X103831862Y-102099000D01*
X103850170Y-102100803D01*
G37*
G36*
X159583408Y-102312127D02*
G01*
X157814227Y-104081308D01*
X156327888Y-102594969D01*
X158097069Y-100825788D01*
X159583408Y-102312127D01*
G37*
G36*
X113451000Y-102451000D02*
G01*
X112149000Y-102451000D01*
X112149000Y-101449000D01*
X113451000Y-101449000D01*
X113451000Y-102451000D01*
G37*
G36*
X195573871Y-99484786D02*
G01*
X195779530Y-99547172D01*
X195969055Y-99648475D01*
X195969058Y-99648477D01*
X195969059Y-99648478D01*
X196135186Y-99784814D01*
X196271522Y-99950941D01*
X196271525Y-99950945D01*
X196372828Y-100140470D01*
X196435214Y-100346129D01*
X196456278Y-100560000D01*
X196435214Y-100773871D01*
X196372828Y-100979530D01*
X196271525Y-101169055D01*
X196271523Y-101169058D01*
X196271522Y-101169059D01*
X196135186Y-101335186D01*
X195969059Y-101471522D01*
X195969055Y-101471525D01*
X195779530Y-101572828D01*
X195573871Y-101635214D01*
X195413591Y-101651000D01*
X193786409Y-101651000D01*
X193626129Y-101635214D01*
X193420470Y-101572828D01*
X193230945Y-101471525D01*
X193230941Y-101471522D01*
X193064814Y-101335186D01*
X192928478Y-101169059D01*
X192928477Y-101169058D01*
X192928475Y-101169055D01*
X192827172Y-100979530D01*
X192764786Y-100773871D01*
X192743722Y-100560000D01*
X192764786Y-100346129D01*
X192827172Y-100140470D01*
X192928475Y-99950945D01*
X192928478Y-99950941D01*
X193064814Y-99784814D01*
X193230941Y-99648478D01*
X193230942Y-99648477D01*
X193230945Y-99648475D01*
X193420470Y-99547172D01*
X193626129Y-99484786D01*
X193786409Y-99469000D01*
X195413591Y-99469000D01*
X195573871Y-99484786D01*
G37*
G36*
X156967112Y-99695831D02*
G01*
X155197931Y-101465012D01*
X153711592Y-99978673D01*
X155480773Y-98209492D01*
X156967112Y-99695831D01*
G37*
G36*
X132267091Y-99978085D02*
G01*
X132301069Y-99988393D01*
X132332390Y-100005134D01*
X132359839Y-100027661D01*
X132382366Y-100055110D01*
X132399107Y-100086431D01*
X132409415Y-100120409D01*
X132413500Y-100161890D01*
X132413500Y-100838110D01*
X132409415Y-100879591D01*
X132399107Y-100913569D01*
X132382366Y-100944890D01*
X132359839Y-100972339D01*
X132332390Y-100994866D01*
X132301069Y-101011607D01*
X132267091Y-101021915D01*
X132225610Y-101026000D01*
X131624390Y-101026000D01*
X131582909Y-101021915D01*
X131548931Y-101011607D01*
X131517610Y-100994866D01*
X131490161Y-100972339D01*
X131467634Y-100944890D01*
X131450893Y-100913569D01*
X131440585Y-100879591D01*
X131436500Y-100838110D01*
X131436500Y-100161890D01*
X131440585Y-100120409D01*
X131450893Y-100086431D01*
X131467634Y-100055110D01*
X131490161Y-100027661D01*
X131517610Y-100005134D01*
X131548931Y-99988393D01*
X131582909Y-99978085D01*
X131624390Y-99974000D01*
X132225610Y-99974000D01*
X132267091Y-99978085D01*
G37*
G36*
X133842091Y-99978085D02*
G01*
X133876069Y-99988393D01*
X133907390Y-100005134D01*
X133934839Y-100027661D01*
X133957366Y-100055110D01*
X133974107Y-100086431D01*
X133984415Y-100120409D01*
X133988500Y-100161890D01*
X133988500Y-100838110D01*
X133984415Y-100879591D01*
X133974107Y-100913569D01*
X133957366Y-100944890D01*
X133934839Y-100972339D01*
X133907390Y-100994866D01*
X133876069Y-101011607D01*
X133842091Y-101021915D01*
X133800610Y-101026000D01*
X133199390Y-101026000D01*
X133157909Y-101021915D01*
X133123931Y-101011607D01*
X133092610Y-100994866D01*
X133065161Y-100972339D01*
X133042634Y-100944890D01*
X133025893Y-100913569D01*
X133015585Y-100879591D01*
X133011500Y-100838110D01*
X133011500Y-100161890D01*
X133015585Y-100120409D01*
X133025893Y-100086431D01*
X133042634Y-100055110D01*
X133065161Y-100027661D01*
X133092610Y-100005134D01*
X133123931Y-99988393D01*
X133157909Y-99978085D01*
X133199390Y-99974000D01*
X133800610Y-99974000D01*
X133842091Y-99978085D01*
G37*
G36*
X150326000Y-100901000D02*
G01*
X144074000Y-100901000D01*
X144074000Y-99199000D01*
X150326000Y-99199000D01*
X150326000Y-100901000D01*
G37*
G36*
X127942091Y-99578085D02*
G01*
X127976069Y-99588393D01*
X128007390Y-99605134D01*
X128034839Y-99627661D01*
X128057366Y-99655110D01*
X128074107Y-99686431D01*
X128084415Y-99720409D01*
X128088500Y-99761890D01*
X128088500Y-100438110D01*
X128084415Y-100479591D01*
X128074107Y-100513569D01*
X128057366Y-100544890D01*
X128034839Y-100572339D01*
X128007390Y-100594866D01*
X127976069Y-100611607D01*
X127942091Y-100621915D01*
X127900610Y-100626000D01*
X127299390Y-100626000D01*
X127257909Y-100621915D01*
X127223931Y-100611607D01*
X127192610Y-100594866D01*
X127165161Y-100572339D01*
X127142634Y-100544890D01*
X127125893Y-100513569D01*
X127115585Y-100479591D01*
X127111500Y-100438110D01*
X127111500Y-99761890D01*
X127115585Y-99720409D01*
X127125893Y-99686431D01*
X127142634Y-99655110D01*
X127165161Y-99627661D01*
X127192610Y-99605134D01*
X127223931Y-99588393D01*
X127257909Y-99578085D01*
X127299390Y-99574000D01*
X127900610Y-99574000D01*
X127942091Y-99578085D01*
G37*
G36*
X126367091Y-99578085D02*
G01*
X126401069Y-99588393D01*
X126432390Y-99605134D01*
X126459839Y-99627661D01*
X126482366Y-99655110D01*
X126499107Y-99686431D01*
X126509415Y-99720409D01*
X126513500Y-99761890D01*
X126513500Y-100438110D01*
X126509415Y-100479591D01*
X126499107Y-100513569D01*
X126482366Y-100544890D01*
X126459839Y-100572339D01*
X126432390Y-100594866D01*
X126401069Y-100611607D01*
X126367091Y-100621915D01*
X126325610Y-100626000D01*
X125724390Y-100626000D01*
X125682909Y-100621915D01*
X125648931Y-100611607D01*
X125617610Y-100594866D01*
X125590161Y-100572339D01*
X125567634Y-100544890D01*
X125550893Y-100513569D01*
X125540585Y-100479591D01*
X125536500Y-100438110D01*
X125536500Y-99761890D01*
X125540585Y-99720409D01*
X125550893Y-99686431D01*
X125567634Y-99655110D01*
X125590161Y-99627661D01*
X125617610Y-99605134D01*
X125648931Y-99588393D01*
X125682909Y-99578085D01*
X125724390Y-99574000D01*
X126325610Y-99574000D01*
X126367091Y-99578085D01*
G37*
G36*
X162842091Y-99378085D02*
G01*
X162876069Y-99388393D01*
X162907390Y-99405134D01*
X162934839Y-99427661D01*
X162957366Y-99455110D01*
X162974107Y-99486431D01*
X162984415Y-99520409D01*
X162988500Y-99561890D01*
X162988500Y-100238110D01*
X162984415Y-100279591D01*
X162974107Y-100313569D01*
X162957366Y-100344890D01*
X162934839Y-100372339D01*
X162907390Y-100394866D01*
X162876069Y-100411607D01*
X162842091Y-100421915D01*
X162800610Y-100426000D01*
X162199390Y-100426000D01*
X162157909Y-100421915D01*
X162123931Y-100411607D01*
X162092610Y-100394866D01*
X162065161Y-100372339D01*
X162042634Y-100344890D01*
X162025893Y-100313569D01*
X162015585Y-100279591D01*
X162011500Y-100238110D01*
X162011500Y-99561890D01*
X162015585Y-99520409D01*
X162025893Y-99486431D01*
X162042634Y-99455110D01*
X162065161Y-99427661D01*
X162092610Y-99405134D01*
X162123931Y-99388393D01*
X162157909Y-99378085D01*
X162199390Y-99374000D01*
X162800610Y-99374000D01*
X162842091Y-99378085D01*
G37*
G36*
X161267091Y-99378085D02*
G01*
X161301069Y-99388393D01*
X161332390Y-99405134D01*
X161359839Y-99427661D01*
X161382366Y-99455110D01*
X161399107Y-99486431D01*
X161409415Y-99520409D01*
X161413500Y-99561890D01*
X161413500Y-100238110D01*
X161409415Y-100279591D01*
X161399107Y-100313569D01*
X161382366Y-100344890D01*
X161359839Y-100372339D01*
X161332390Y-100394866D01*
X161301069Y-100411607D01*
X161267091Y-100421915D01*
X161225610Y-100426000D01*
X160624390Y-100426000D01*
X160582909Y-100421915D01*
X160548931Y-100411607D01*
X160517610Y-100394866D01*
X160490161Y-100372339D01*
X160467634Y-100344890D01*
X160450893Y-100313569D01*
X160440585Y-100279591D01*
X160436500Y-100238110D01*
X160436500Y-99561890D01*
X160440585Y-99520409D01*
X160450893Y-99486431D01*
X160467634Y-99455110D01*
X160490161Y-99427661D01*
X160517610Y-99405134D01*
X160548931Y-99388393D01*
X160582909Y-99378085D01*
X160624390Y-99374000D01*
X161225610Y-99374000D01*
X161267091Y-99378085D01*
G37*
G36*
X113451000Y-99151000D02*
G01*
X112149000Y-99151000D01*
X112149000Y-98149000D01*
X113451000Y-98149000D01*
X113451000Y-99151000D01*
G37*
G36*
X131294928Y-97977764D02*
G01*
X131316009Y-97984160D01*
X131335445Y-97994548D01*
X131352476Y-98008524D01*
X131366452Y-98025555D01*
X131376840Y-98044991D01*
X131383236Y-98066072D01*
X131386000Y-98094140D01*
X131386000Y-98557860D01*
X131383236Y-98585928D01*
X131376840Y-98607009D01*
X131366452Y-98626445D01*
X131352476Y-98643476D01*
X131335445Y-98657452D01*
X131316009Y-98667840D01*
X131294928Y-98674236D01*
X131266860Y-98677000D01*
X129453140Y-98677000D01*
X129425072Y-98674236D01*
X129403991Y-98667840D01*
X129384555Y-98657452D01*
X129367524Y-98643476D01*
X129353548Y-98626445D01*
X129343160Y-98607009D01*
X129336764Y-98585928D01*
X129334000Y-98557860D01*
X129334000Y-98094140D01*
X129336764Y-98066072D01*
X129343160Y-98044991D01*
X129353548Y-98025555D01*
X129367524Y-98008524D01*
X129384555Y-97994548D01*
X129403991Y-97984160D01*
X129425072Y-97977764D01*
X129453140Y-97975000D01*
X131266860Y-97975000D01*
X131294928Y-97977764D01*
G37*
G36*
X136244928Y-97977764D02*
G01*
X136266009Y-97984160D01*
X136285445Y-97994548D01*
X136302476Y-98008524D01*
X136316452Y-98025555D01*
X136326840Y-98044991D01*
X136333236Y-98066072D01*
X136336000Y-98094140D01*
X136336000Y-98557860D01*
X136333236Y-98585928D01*
X136326840Y-98607009D01*
X136316452Y-98626445D01*
X136302476Y-98643476D01*
X136285445Y-98657452D01*
X136266009Y-98667840D01*
X136244928Y-98674236D01*
X136216860Y-98677000D01*
X134403140Y-98677000D01*
X134375072Y-98674236D01*
X134353991Y-98667840D01*
X134334555Y-98657452D01*
X134317524Y-98643476D01*
X134303548Y-98626445D01*
X134293160Y-98607009D01*
X134286764Y-98585928D01*
X134284000Y-98557860D01*
X134284000Y-98094140D01*
X134286764Y-98066072D01*
X134293160Y-98044991D01*
X134303548Y-98025555D01*
X134317524Y-98008524D01*
X134334555Y-97994548D01*
X134353991Y-97984160D01*
X134375072Y-97977764D01*
X134403140Y-97975000D01*
X136216860Y-97975000D01*
X136244928Y-97977764D01*
G37*
G36*
X124623000Y-98272000D02*
G01*
X123521000Y-98272000D01*
X123521000Y-96770000D01*
X124623000Y-96770000D01*
X124623000Y-98272000D01*
G37*
G36*
X160042091Y-97078085D02*
G01*
X160076069Y-97088393D01*
X160107390Y-97105134D01*
X160134839Y-97127661D01*
X160157366Y-97155110D01*
X160174107Y-97186431D01*
X160184415Y-97220409D01*
X160188500Y-97261890D01*
X160188500Y-97938110D01*
X160184415Y-97979591D01*
X160174107Y-98013569D01*
X160157366Y-98044890D01*
X160134839Y-98072339D01*
X160107390Y-98094866D01*
X160076069Y-98111607D01*
X160042091Y-98121915D01*
X160000610Y-98126000D01*
X159399390Y-98126000D01*
X159357909Y-98121915D01*
X159323931Y-98111607D01*
X159292610Y-98094866D01*
X159265161Y-98072339D01*
X159242634Y-98044890D01*
X159225893Y-98013569D01*
X159215585Y-97979591D01*
X159211500Y-97938110D01*
X159211500Y-97261890D01*
X159215585Y-97220409D01*
X159225893Y-97186431D01*
X159242634Y-97155110D01*
X159265161Y-97127661D01*
X159292610Y-97105134D01*
X159323931Y-97088393D01*
X159357909Y-97078085D01*
X159399390Y-97074000D01*
X160000610Y-97074000D01*
X160042091Y-97078085D01*
G37*
G36*
X158467091Y-97078085D02*
G01*
X158501069Y-97088393D01*
X158532390Y-97105134D01*
X158559839Y-97127661D01*
X158582366Y-97155110D01*
X158599107Y-97186431D01*
X158609415Y-97220409D01*
X158613500Y-97261890D01*
X158613500Y-97938110D01*
X158609415Y-97979591D01*
X158599107Y-98013569D01*
X158582366Y-98044890D01*
X158559839Y-98072339D01*
X158532390Y-98094866D01*
X158501069Y-98111607D01*
X158467091Y-98121915D01*
X158425610Y-98126000D01*
X157824390Y-98126000D01*
X157782909Y-98121915D01*
X157748931Y-98111607D01*
X157717610Y-98094866D01*
X157690161Y-98072339D01*
X157667634Y-98044890D01*
X157650893Y-98013569D01*
X157640585Y-97979591D01*
X157636500Y-97938110D01*
X157636500Y-97261890D01*
X157640585Y-97220409D01*
X157650893Y-97186431D01*
X157667634Y-97155110D01*
X157690161Y-97127661D01*
X157717610Y-97105134D01*
X157748931Y-97088393D01*
X157782909Y-97078085D01*
X157824390Y-97074000D01*
X158425610Y-97074000D01*
X158467091Y-97078085D01*
G37*
G36*
X140009591Y-96788085D02*
G01*
X140043569Y-96798393D01*
X140074890Y-96815134D01*
X140102339Y-96837661D01*
X140124866Y-96865110D01*
X140141607Y-96896431D01*
X140151915Y-96930409D01*
X140156000Y-96971890D01*
X140156000Y-97648110D01*
X140151915Y-97689591D01*
X140141607Y-97723569D01*
X140124866Y-97754890D01*
X140102339Y-97782339D01*
X140074890Y-97804866D01*
X140043569Y-97821607D01*
X140009591Y-97831915D01*
X139968110Y-97836000D01*
X139366890Y-97836000D01*
X139325409Y-97831915D01*
X139291431Y-97821607D01*
X139260110Y-97804866D01*
X139232661Y-97782339D01*
X139210134Y-97754890D01*
X139193393Y-97723569D01*
X139183085Y-97689591D01*
X139179000Y-97648110D01*
X139179000Y-96971890D01*
X139183085Y-96930409D01*
X139193393Y-96896431D01*
X139210134Y-96865110D01*
X139232661Y-96837661D01*
X139260110Y-96815134D01*
X139291431Y-96798393D01*
X139325409Y-96788085D01*
X139366890Y-96784000D01*
X139968110Y-96784000D01*
X140009591Y-96788085D01*
G37*
G36*
X141584591Y-96788085D02*
G01*
X141618569Y-96798393D01*
X141649890Y-96815134D01*
X141677339Y-96837661D01*
X141699866Y-96865110D01*
X141716607Y-96896431D01*
X141726915Y-96930409D01*
X141731000Y-96971890D01*
X141731000Y-97648110D01*
X141726915Y-97689591D01*
X141716607Y-97723569D01*
X141699866Y-97754890D01*
X141677339Y-97782339D01*
X141649890Y-97804866D01*
X141618569Y-97821607D01*
X141584591Y-97831915D01*
X141543110Y-97836000D01*
X140941890Y-97836000D01*
X140900409Y-97831915D01*
X140866431Y-97821607D01*
X140835110Y-97804866D01*
X140807661Y-97782339D01*
X140785134Y-97754890D01*
X140768393Y-97723569D01*
X140758085Y-97689591D01*
X140754000Y-97648110D01*
X140754000Y-96971890D01*
X140758085Y-96930409D01*
X140768393Y-96896431D01*
X140785134Y-96865110D01*
X140807661Y-96837661D01*
X140835110Y-96815134D01*
X140866431Y-96798393D01*
X140900409Y-96788085D01*
X140941890Y-96784000D01*
X141543110Y-96784000D01*
X141584591Y-96788085D01*
G37*
G36*
X136244928Y-96707764D02*
G01*
X136266009Y-96714160D01*
X136285445Y-96724548D01*
X136302476Y-96738524D01*
X136316452Y-96755555D01*
X136326840Y-96774991D01*
X136333236Y-96796072D01*
X136336000Y-96824140D01*
X136336000Y-97287860D01*
X136333236Y-97315928D01*
X136326840Y-97337009D01*
X136316452Y-97356445D01*
X136302476Y-97373476D01*
X136285445Y-97387452D01*
X136266009Y-97397840D01*
X136244928Y-97404236D01*
X136216860Y-97407000D01*
X134403140Y-97407000D01*
X134375072Y-97404236D01*
X134353991Y-97397840D01*
X134334555Y-97387452D01*
X134317524Y-97373476D01*
X134303548Y-97356445D01*
X134293160Y-97337009D01*
X134286764Y-97315928D01*
X134284000Y-97287860D01*
X134284000Y-96824140D01*
X134286764Y-96796072D01*
X134293160Y-96774991D01*
X134303548Y-96755555D01*
X134317524Y-96738524D01*
X134334555Y-96724548D01*
X134353991Y-96714160D01*
X134375072Y-96707764D01*
X134403140Y-96705000D01*
X136216860Y-96705000D01*
X136244928Y-96707764D01*
G37*
G36*
X131294928Y-96707764D02*
G01*
X131316009Y-96714160D01*
X131335445Y-96724548D01*
X131352476Y-96738524D01*
X131366452Y-96755555D01*
X131376840Y-96774991D01*
X131383236Y-96796072D01*
X131386000Y-96824140D01*
X131386000Y-97287860D01*
X131383236Y-97315928D01*
X131376840Y-97337009D01*
X131366452Y-97356445D01*
X131352476Y-97373476D01*
X131335445Y-97387452D01*
X131316009Y-97397840D01*
X131294928Y-97404236D01*
X131266860Y-97407000D01*
X129453140Y-97407000D01*
X129425072Y-97404236D01*
X129403991Y-97397840D01*
X129384555Y-97387452D01*
X129367524Y-97373476D01*
X129353548Y-97356445D01*
X129343160Y-97337009D01*
X129336764Y-97315928D01*
X129334000Y-97287860D01*
X129334000Y-96824140D01*
X129336764Y-96796072D01*
X129343160Y-96774991D01*
X129353548Y-96755555D01*
X129367524Y-96738524D01*
X129384555Y-96724548D01*
X129403991Y-96714160D01*
X129425072Y-96707764D01*
X129453140Y-96705000D01*
X131266860Y-96705000D01*
X131294928Y-96707764D01*
G37*
G36*
X131294928Y-95437764D02*
G01*
X131316009Y-95444160D01*
X131335445Y-95454548D01*
X131352476Y-95468524D01*
X131366452Y-95485555D01*
X131376840Y-95504991D01*
X131383236Y-95526072D01*
X131386000Y-95554140D01*
X131386000Y-96017860D01*
X131383236Y-96045928D01*
X131376840Y-96067009D01*
X131366452Y-96086445D01*
X131352476Y-96103476D01*
X131335445Y-96117452D01*
X131316009Y-96127840D01*
X131294928Y-96134236D01*
X131266860Y-96137000D01*
X129453140Y-96137000D01*
X129425072Y-96134236D01*
X129403991Y-96127840D01*
X129384555Y-96117452D01*
X129367524Y-96103476D01*
X129353548Y-96086445D01*
X129343160Y-96067009D01*
X129336764Y-96045928D01*
X129334000Y-96017860D01*
X129334000Y-95554140D01*
X129336764Y-95526072D01*
X129343160Y-95504991D01*
X129353548Y-95485555D01*
X129367524Y-95468524D01*
X129384555Y-95454548D01*
X129403991Y-95444160D01*
X129425072Y-95437764D01*
X129453140Y-95435000D01*
X131266860Y-95435000D01*
X131294928Y-95437764D01*
G37*
G36*
X136244928Y-95437764D02*
G01*
X136266009Y-95444160D01*
X136285445Y-95454548D01*
X136302476Y-95468524D01*
X136316452Y-95485555D01*
X136326840Y-95504991D01*
X136333236Y-95526072D01*
X136336000Y-95554140D01*
X136336000Y-96017860D01*
X136333236Y-96045928D01*
X136326840Y-96067009D01*
X136316452Y-96086445D01*
X136302476Y-96103476D01*
X136285445Y-96117452D01*
X136266009Y-96127840D01*
X136244928Y-96134236D01*
X136216860Y-96137000D01*
X134403140Y-96137000D01*
X134375072Y-96134236D01*
X134353991Y-96127840D01*
X134334555Y-96117452D01*
X134317524Y-96103476D01*
X134303548Y-96086445D01*
X134293160Y-96067009D01*
X134286764Y-96045928D01*
X134284000Y-96017860D01*
X134284000Y-95554140D01*
X134286764Y-95526072D01*
X134293160Y-95504991D01*
X134303548Y-95485555D01*
X134317524Y-95468524D01*
X134334555Y-95454548D01*
X134353991Y-95444160D01*
X134375072Y-95437764D01*
X134403140Y-95435000D01*
X136216860Y-95435000D01*
X136244928Y-95437764D01*
G37*
G36*
X123673000Y-96072000D02*
G01*
X122571000Y-96072000D01*
X122571000Y-94570000D01*
X123673000Y-94570000D01*
X123673000Y-96072000D01*
G37*
G36*
X125573000Y-96072000D02*
G01*
X124471000Y-96072000D01*
X124471000Y-94570000D01*
X125573000Y-94570000D01*
X125573000Y-96072000D01*
G37*
G36*
X140009591Y-94629085D02*
G01*
X140043569Y-94639393D01*
X140074890Y-94656134D01*
X140102339Y-94678661D01*
X140124866Y-94706110D01*
X140141607Y-94737431D01*
X140151915Y-94771409D01*
X140156000Y-94812890D01*
X140156000Y-95489110D01*
X140151915Y-95530591D01*
X140141607Y-95564569D01*
X140124866Y-95595890D01*
X140102339Y-95623339D01*
X140074890Y-95645866D01*
X140043569Y-95662607D01*
X140009591Y-95672915D01*
X139968110Y-95677000D01*
X139366890Y-95677000D01*
X139325409Y-95672915D01*
X139291431Y-95662607D01*
X139260110Y-95645866D01*
X139232661Y-95623339D01*
X139210134Y-95595890D01*
X139193393Y-95564569D01*
X139183085Y-95530591D01*
X139179000Y-95489110D01*
X139179000Y-94812890D01*
X139183085Y-94771409D01*
X139193393Y-94737431D01*
X139210134Y-94706110D01*
X139232661Y-94678661D01*
X139260110Y-94656134D01*
X139291431Y-94639393D01*
X139325409Y-94629085D01*
X139366890Y-94625000D01*
X139968110Y-94625000D01*
X140009591Y-94629085D01*
G37*
G36*
X141584591Y-94629085D02*
G01*
X141618569Y-94639393D01*
X141649890Y-94656134D01*
X141677339Y-94678661D01*
X141699866Y-94706110D01*
X141716607Y-94737431D01*
X141726915Y-94771409D01*
X141731000Y-94812890D01*
X141731000Y-95489110D01*
X141726915Y-95530591D01*
X141716607Y-95564569D01*
X141699866Y-95595890D01*
X141677339Y-95623339D01*
X141649890Y-95645866D01*
X141618569Y-95662607D01*
X141584591Y-95672915D01*
X141543110Y-95677000D01*
X140941890Y-95677000D01*
X140900409Y-95672915D01*
X140866431Y-95662607D01*
X140835110Y-95645866D01*
X140807661Y-95623339D01*
X140785134Y-95595890D01*
X140768393Y-95564569D01*
X140758085Y-95530591D01*
X140754000Y-95489110D01*
X140754000Y-94812890D01*
X140758085Y-94771409D01*
X140768393Y-94737431D01*
X140785134Y-94706110D01*
X140807661Y-94678661D01*
X140835110Y-94656134D01*
X140866431Y-94639393D01*
X140900409Y-94629085D01*
X140941890Y-94625000D01*
X141543110Y-94625000D01*
X141584591Y-94629085D01*
G37*
G36*
X111967091Y-94078085D02*
G01*
X112001069Y-94088393D01*
X112032390Y-94105134D01*
X112059839Y-94127661D01*
X112082366Y-94155110D01*
X112099107Y-94186431D01*
X112109415Y-94220409D01*
X112113500Y-94261890D01*
X112113500Y-94938110D01*
X112109415Y-94979591D01*
X112099107Y-95013569D01*
X112082366Y-95044890D01*
X112059839Y-95072339D01*
X112032390Y-95094866D01*
X112001069Y-95111607D01*
X111967091Y-95121915D01*
X111925610Y-95126000D01*
X111324390Y-95126000D01*
X111282909Y-95121915D01*
X111248931Y-95111607D01*
X111217610Y-95094866D01*
X111190161Y-95072339D01*
X111167634Y-95044890D01*
X111150893Y-95013569D01*
X111140585Y-94979591D01*
X111136500Y-94938110D01*
X111136500Y-94261890D01*
X111140585Y-94220409D01*
X111150893Y-94186431D01*
X111167634Y-94155110D01*
X111190161Y-94127661D01*
X111217610Y-94105134D01*
X111248931Y-94088393D01*
X111282909Y-94078085D01*
X111324390Y-94074000D01*
X111925610Y-94074000D01*
X111967091Y-94078085D01*
G37*
G36*
X117567091Y-94078085D02*
G01*
X117601069Y-94088393D01*
X117632390Y-94105134D01*
X117659839Y-94127661D01*
X117682366Y-94155110D01*
X117699107Y-94186431D01*
X117709415Y-94220409D01*
X117713500Y-94261890D01*
X117713500Y-94938110D01*
X117709415Y-94979591D01*
X117699107Y-95013569D01*
X117682366Y-95044890D01*
X117659839Y-95072339D01*
X117632390Y-95094866D01*
X117601069Y-95111607D01*
X117567091Y-95121915D01*
X117525610Y-95126000D01*
X116924390Y-95126000D01*
X116882909Y-95121915D01*
X116848931Y-95111607D01*
X116817610Y-95094866D01*
X116790161Y-95072339D01*
X116767634Y-95044890D01*
X116750893Y-95013569D01*
X116740585Y-94979591D01*
X116736500Y-94938110D01*
X116736500Y-94261890D01*
X116740585Y-94220409D01*
X116750893Y-94186431D01*
X116767634Y-94155110D01*
X116790161Y-94127661D01*
X116817610Y-94105134D01*
X116848931Y-94088393D01*
X116882909Y-94078085D01*
X116924390Y-94074000D01*
X117525610Y-94074000D01*
X117567091Y-94078085D01*
G37*
G36*
X113542091Y-94078085D02*
G01*
X113576069Y-94088393D01*
X113607390Y-94105134D01*
X113634839Y-94127661D01*
X113657366Y-94155110D01*
X113674107Y-94186431D01*
X113684415Y-94220409D01*
X113688500Y-94261890D01*
X113688500Y-94938110D01*
X113684415Y-94979591D01*
X113674107Y-95013569D01*
X113657366Y-95044890D01*
X113634839Y-95072339D01*
X113607390Y-95094866D01*
X113576069Y-95111607D01*
X113542091Y-95121915D01*
X113500610Y-95126000D01*
X112899390Y-95126000D01*
X112857909Y-95121915D01*
X112823931Y-95111607D01*
X112792610Y-95094866D01*
X112765161Y-95072339D01*
X112742634Y-95044890D01*
X112725893Y-95013569D01*
X112715585Y-94979591D01*
X112711500Y-94938110D01*
X112711500Y-94261890D01*
X112715585Y-94220409D01*
X112725893Y-94186431D01*
X112742634Y-94155110D01*
X112765161Y-94127661D01*
X112792610Y-94105134D01*
X112823931Y-94088393D01*
X112857909Y-94078085D01*
X112899390Y-94074000D01*
X113500610Y-94074000D01*
X113542091Y-94078085D01*
G37*
G36*
X119142091Y-94078085D02*
G01*
X119176069Y-94088393D01*
X119207390Y-94105134D01*
X119234839Y-94127661D01*
X119257366Y-94155110D01*
X119274107Y-94186431D01*
X119284415Y-94220409D01*
X119288500Y-94261890D01*
X119288500Y-94938110D01*
X119284415Y-94979591D01*
X119274107Y-95013569D01*
X119257366Y-95044890D01*
X119234839Y-95072339D01*
X119207390Y-95094866D01*
X119176069Y-95111607D01*
X119142091Y-95121915D01*
X119100610Y-95126000D01*
X118499390Y-95126000D01*
X118457909Y-95121915D01*
X118423931Y-95111607D01*
X118392610Y-95094866D01*
X118365161Y-95072339D01*
X118342634Y-95044890D01*
X118325893Y-95013569D01*
X118315585Y-94979591D01*
X118311500Y-94938110D01*
X118311500Y-94261890D01*
X118315585Y-94220409D01*
X118325893Y-94186431D01*
X118342634Y-94155110D01*
X118365161Y-94127661D01*
X118392610Y-94105134D01*
X118423931Y-94088393D01*
X118457909Y-94078085D01*
X118499390Y-94074000D01*
X119100610Y-94074000D01*
X119142091Y-94078085D01*
G37*
G36*
X175493512Y-93203927D02*
G01*
X175642812Y-93233624D01*
X175806784Y-93301544D01*
X175954354Y-93400147D01*
X176079853Y-93525646D01*
X176178456Y-93673216D01*
X176246376Y-93837188D01*
X176281000Y-94011259D01*
X176281000Y-94188741D01*
X176246376Y-94362812D01*
X176178456Y-94526784D01*
X176079853Y-94674354D01*
X175954354Y-94799853D01*
X175806784Y-94898456D01*
X175642812Y-94966376D01*
X175493512Y-94996073D01*
X175468742Y-95001000D01*
X175291258Y-95001000D01*
X175266488Y-94996073D01*
X175117188Y-94966376D01*
X174953216Y-94898456D01*
X174805646Y-94799853D01*
X174680147Y-94674354D01*
X174581544Y-94526784D01*
X174513624Y-94362812D01*
X174479000Y-94188741D01*
X174479000Y-94011259D01*
X174513624Y-93837188D01*
X174581544Y-93673216D01*
X174680147Y-93525646D01*
X174805646Y-93400147D01*
X174953216Y-93301544D01*
X175117188Y-93233624D01*
X175266488Y-93203927D01*
X175291258Y-93199000D01*
X175468742Y-93199000D01*
X175493512Y-93203927D01*
G37*
G36*
X180573512Y-93203927D02*
G01*
X180722812Y-93233624D01*
X180886784Y-93301544D01*
X181034354Y-93400147D01*
X181159853Y-93525646D01*
X181258456Y-93673216D01*
X181326376Y-93837188D01*
X181361000Y-94011259D01*
X181361000Y-94188741D01*
X181326376Y-94362812D01*
X181258456Y-94526784D01*
X181159853Y-94674354D01*
X181034354Y-94799853D01*
X180886784Y-94898456D01*
X180722812Y-94966376D01*
X180573512Y-94996073D01*
X180548742Y-95001000D01*
X180371258Y-95001000D01*
X180346488Y-94996073D01*
X180197188Y-94966376D01*
X180033216Y-94898456D01*
X179885646Y-94799853D01*
X179760147Y-94674354D01*
X179661544Y-94526784D01*
X179593624Y-94362812D01*
X179559000Y-94188741D01*
X179559000Y-94011259D01*
X179593624Y-93837188D01*
X179661544Y-93673216D01*
X179760147Y-93525646D01*
X179885646Y-93400147D01*
X180033216Y-93301544D01*
X180197188Y-93233624D01*
X180346488Y-93203927D01*
X180371258Y-93199000D01*
X180548742Y-93199000D01*
X180573512Y-93203927D01*
G37*
G36*
X178033512Y-93203927D02*
G01*
X178182812Y-93233624D01*
X178346784Y-93301544D01*
X178494354Y-93400147D01*
X178619853Y-93525646D01*
X178718456Y-93673216D01*
X178786376Y-93837188D01*
X178821000Y-94011259D01*
X178821000Y-94188741D01*
X178786376Y-94362812D01*
X178718456Y-94526784D01*
X178619853Y-94674354D01*
X178494354Y-94799853D01*
X178346784Y-94898456D01*
X178182812Y-94966376D01*
X178033512Y-94996073D01*
X178008742Y-95001000D01*
X177831258Y-95001000D01*
X177806488Y-94996073D01*
X177657188Y-94966376D01*
X177493216Y-94898456D01*
X177345646Y-94799853D01*
X177220147Y-94674354D01*
X177121544Y-94526784D01*
X177053624Y-94362812D01*
X177019000Y-94188741D01*
X177019000Y-94011259D01*
X177053624Y-93837188D01*
X177121544Y-93673216D01*
X177220147Y-93525646D01*
X177345646Y-93400147D01*
X177493216Y-93301544D01*
X177657188Y-93233624D01*
X177806488Y-93203927D01*
X177831258Y-93199000D01*
X178008742Y-93199000D01*
X178033512Y-93203927D01*
G37*
G36*
X172953512Y-93203927D02*
G01*
X173102812Y-93233624D01*
X173266784Y-93301544D01*
X173414354Y-93400147D01*
X173539853Y-93525646D01*
X173638456Y-93673216D01*
X173706376Y-93837188D01*
X173741000Y-94011259D01*
X173741000Y-94188741D01*
X173706376Y-94362812D01*
X173638456Y-94526784D01*
X173539853Y-94674354D01*
X173414354Y-94799853D01*
X173266784Y-94898456D01*
X173102812Y-94966376D01*
X172953512Y-94996073D01*
X172928742Y-95001000D01*
X172751258Y-95001000D01*
X172726488Y-94996073D01*
X172577188Y-94966376D01*
X172413216Y-94898456D01*
X172265646Y-94799853D01*
X172140147Y-94674354D01*
X172041544Y-94526784D01*
X171973624Y-94362812D01*
X171939000Y-94188741D01*
X171939000Y-94011259D01*
X171973624Y-93837188D01*
X172041544Y-93673216D01*
X172140147Y-93525646D01*
X172265646Y-93400147D01*
X172413216Y-93301544D01*
X172577188Y-93233624D01*
X172726488Y-93203927D01*
X172751258Y-93199000D01*
X172928742Y-93199000D01*
X172953512Y-93203927D01*
G37*
G36*
X183901000Y-95001000D02*
G01*
X182099000Y-95001000D01*
X182099000Y-93199000D01*
X183901000Y-93199000D01*
X183901000Y-95001000D01*
G37*
G36*
X131294928Y-94167764D02*
G01*
X131316009Y-94174160D01*
X131335445Y-94184548D01*
X131352476Y-94198524D01*
X131366452Y-94215555D01*
X131376840Y-94234991D01*
X131383236Y-94256072D01*
X131386000Y-94284140D01*
X131386000Y-94747860D01*
X131383236Y-94775928D01*
X131376840Y-94797009D01*
X131366452Y-94816445D01*
X131352476Y-94833476D01*
X131335445Y-94847452D01*
X131316009Y-94857840D01*
X131294928Y-94864236D01*
X131266860Y-94867000D01*
X129453140Y-94867000D01*
X129425072Y-94864236D01*
X129403991Y-94857840D01*
X129384555Y-94847452D01*
X129367524Y-94833476D01*
X129353548Y-94816445D01*
X129343160Y-94797009D01*
X129336764Y-94775928D01*
X129334000Y-94747860D01*
X129334000Y-94284140D01*
X129336764Y-94256072D01*
X129343160Y-94234991D01*
X129353548Y-94215555D01*
X129367524Y-94198524D01*
X129384555Y-94184548D01*
X129403991Y-94174160D01*
X129425072Y-94167764D01*
X129453140Y-94165000D01*
X131266860Y-94165000D01*
X131294928Y-94167764D01*
G37*
G36*
X136244928Y-94167764D02*
G01*
X136266009Y-94174160D01*
X136285445Y-94184548D01*
X136302476Y-94198524D01*
X136316452Y-94215555D01*
X136326840Y-94234991D01*
X136333236Y-94256072D01*
X136336000Y-94284140D01*
X136336000Y-94747860D01*
X136333236Y-94775928D01*
X136326840Y-94797009D01*
X136316452Y-94816445D01*
X136302476Y-94833476D01*
X136285445Y-94847452D01*
X136266009Y-94857840D01*
X136244928Y-94864236D01*
X136216860Y-94867000D01*
X134403140Y-94867000D01*
X134375072Y-94864236D01*
X134353991Y-94857840D01*
X134334555Y-94847452D01*
X134317524Y-94833476D01*
X134303548Y-94816445D01*
X134293160Y-94797009D01*
X134286764Y-94775928D01*
X134284000Y-94747860D01*
X134284000Y-94284140D01*
X134286764Y-94256072D01*
X134293160Y-94234991D01*
X134303548Y-94215555D01*
X134317524Y-94198524D01*
X134334555Y-94184548D01*
X134353991Y-94174160D01*
X134375072Y-94167764D01*
X134403140Y-94165000D01*
X136216860Y-94165000D01*
X136244928Y-94167764D01*
G37*
G36*
X118999943Y-85966248D02*
G01*
X119555189Y-86196238D01*
X119555190Y-86196239D01*
X120054899Y-86530134D01*
X120479866Y-86955101D01*
X120479867Y-86955103D01*
X120813762Y-87454811D01*
X121043752Y-88010057D01*
X121161000Y-88599501D01*
X121161000Y-89200499D01*
X121043752Y-89789943D01*
X120813762Y-90345189D01*
X120813761Y-90345190D01*
X120479866Y-90844899D01*
X120054899Y-91269866D01*
X119803347Y-91437948D01*
X119555189Y-91603762D01*
X118999943Y-91833752D01*
X118410499Y-91951000D01*
X117809501Y-91951000D01*
X117220057Y-91833752D01*
X116664811Y-91603762D01*
X116416653Y-91437948D01*
X116165101Y-91269866D01*
X115740134Y-90844899D01*
X115406239Y-90345190D01*
X115406238Y-90345189D01*
X115176248Y-89789943D01*
X115059000Y-89200499D01*
X115059000Y-88599501D01*
X115176248Y-88010057D01*
X115406238Y-87454811D01*
X115740133Y-86955103D01*
X115740134Y-86955101D01*
X116165101Y-86530134D01*
X116664810Y-86196239D01*
X116664811Y-86196238D01*
X117220057Y-85966248D01*
X117809501Y-85849000D01*
X118410499Y-85849000D01*
X118999943Y-85966248D01*
G37*
G36*
X188849943Y-85966248D02*
G01*
X189405189Y-86196238D01*
X189405190Y-86196239D01*
X189904899Y-86530134D01*
X190329866Y-86955101D01*
X190329867Y-86955103D01*
X190663762Y-87454811D01*
X190893752Y-88010057D01*
X191011000Y-88599501D01*
X191011000Y-89200499D01*
X190893752Y-89789943D01*
X190663762Y-90345189D01*
X190663761Y-90345190D01*
X190329866Y-90844899D01*
X189904899Y-91269866D01*
X189653347Y-91437948D01*
X189405189Y-91603762D01*
X188849943Y-91833752D01*
X188260499Y-91951000D01*
X187659501Y-91951000D01*
X187070057Y-91833752D01*
X186514811Y-91603762D01*
X186266653Y-91437948D01*
X186015101Y-91269866D01*
X185590134Y-90844899D01*
X185256239Y-90345190D01*
X185256238Y-90345189D01*
X185026248Y-89789943D01*
X184909000Y-89200499D01*
X184909000Y-88599501D01*
X185026248Y-88010057D01*
X185256238Y-87454811D01*
X185590133Y-86955103D01*
X185590134Y-86955101D01*
X186015101Y-86530134D01*
X186514810Y-86196239D01*
X186514811Y-86196238D01*
X187070057Y-85966248D01*
X187659501Y-85849000D01*
X188260499Y-85849000D01*
X188849943Y-85966248D01*
G37*
G36*
X146782585Y-87078802D02*
G01*
X146932410Y-87108604D01*
X147214674Y-87225521D01*
X147468705Y-87395259D01*
X147684741Y-87611295D01*
X147854479Y-87865326D01*
X147971396Y-88147590D01*
X148031000Y-88447240D01*
X148031000Y-88752760D01*
X147971396Y-89052410D01*
X147854479Y-89334674D01*
X147684741Y-89588705D01*
X147468705Y-89804741D01*
X147214674Y-89974479D01*
X146932410Y-90091396D01*
X146782585Y-90121198D01*
X146632761Y-90151000D01*
X146327239Y-90151000D01*
X146177415Y-90121198D01*
X146027590Y-90091396D01*
X145745326Y-89974479D01*
X145491295Y-89804741D01*
X145275259Y-89588705D01*
X145105521Y-89334674D01*
X144988604Y-89052410D01*
X144929000Y-88752760D01*
X144929000Y-88447240D01*
X144988604Y-88147590D01*
X145105521Y-87865326D01*
X145275259Y-87611295D01*
X145491295Y-87395259D01*
X145745326Y-87225521D01*
X146027590Y-87108604D01*
X146177415Y-87078802D01*
X146327239Y-87049000D01*
X146632761Y-87049000D01*
X146782585Y-87078802D01*
G37*
G36*
X151862585Y-87078802D02*
G01*
X152012410Y-87108604D01*
X152294674Y-87225521D01*
X152548705Y-87395259D01*
X152764741Y-87611295D01*
X152934479Y-87865326D01*
X153051396Y-88147590D01*
X153111000Y-88447240D01*
X153111000Y-88752760D01*
X153051396Y-89052410D01*
X152934479Y-89334674D01*
X152764741Y-89588705D01*
X152548705Y-89804741D01*
X152294674Y-89974479D01*
X152012410Y-90091396D01*
X151862585Y-90121198D01*
X151712761Y-90151000D01*
X151407239Y-90151000D01*
X151257415Y-90121198D01*
X151107590Y-90091396D01*
X150825326Y-89974479D01*
X150571295Y-89804741D01*
X150355259Y-89588705D01*
X150185521Y-89334674D01*
X150068604Y-89052410D01*
X150009000Y-88752760D01*
X150009000Y-88447240D01*
X150068604Y-88147590D01*
X150185521Y-87865326D01*
X150355259Y-87611295D01*
X150571295Y-87395259D01*
X150825326Y-87225521D01*
X151107590Y-87108604D01*
X151257415Y-87078802D01*
X151407239Y-87049000D01*
X151712761Y-87049000D01*
X151862585Y-87078802D01*
G37*
G36*
X156942585Y-87078802D02*
G01*
X157092410Y-87108604D01*
X157374674Y-87225521D01*
X157628705Y-87395259D01*
X157844741Y-87611295D01*
X158014479Y-87865326D01*
X158131396Y-88147590D01*
X158191000Y-88447240D01*
X158191000Y-88752760D01*
X158131396Y-89052410D01*
X158014479Y-89334674D01*
X157844741Y-89588705D01*
X157628705Y-89804741D01*
X157374674Y-89974479D01*
X157092410Y-90091396D01*
X156942585Y-90121198D01*
X156792761Y-90151000D01*
X156487239Y-90151000D01*
X156337415Y-90121198D01*
X156187590Y-90091396D01*
X155905326Y-89974479D01*
X155651295Y-89804741D01*
X155435259Y-89588705D01*
X155265521Y-89334674D01*
X155148604Y-89052410D01*
X155089000Y-88752760D01*
X155089000Y-88447240D01*
X155148604Y-88147590D01*
X155265521Y-87865326D01*
X155435259Y-87611295D01*
X155651295Y-87395259D01*
X155905326Y-87225521D01*
X156187590Y-87108604D01*
X156337415Y-87078802D01*
X156487239Y-87049000D01*
X156792761Y-87049000D01*
X156942585Y-87078802D01*
G37*
G36*
X162022585Y-87078802D02*
G01*
X162172410Y-87108604D01*
X162454674Y-87225521D01*
X162708705Y-87395259D01*
X162924741Y-87611295D01*
X163094479Y-87865326D01*
X163211396Y-88147590D01*
X163271000Y-88447240D01*
X163271000Y-88752760D01*
X163211396Y-89052410D01*
X163094479Y-89334674D01*
X162924741Y-89588705D01*
X162708705Y-89804741D01*
X162454674Y-89974479D01*
X162172410Y-90091396D01*
X162022585Y-90121198D01*
X161872761Y-90151000D01*
X161567239Y-90151000D01*
X161417415Y-90121198D01*
X161267590Y-90091396D01*
X160985326Y-89974479D01*
X160731295Y-89804741D01*
X160515259Y-89588705D01*
X160345521Y-89334674D01*
X160228604Y-89052410D01*
X160169000Y-88752760D01*
X160169000Y-88447240D01*
X160228604Y-88147590D01*
X160345521Y-87865326D01*
X160515259Y-87611295D01*
X160731295Y-87395259D01*
X160985326Y-87225521D01*
X161267590Y-87108604D01*
X161417415Y-87078802D01*
X161567239Y-87049000D01*
X161872761Y-87049000D01*
X162022585Y-87078802D01*
G37*
G36*
X141702585Y-87078802D02*
G01*
X141852410Y-87108604D01*
X142134674Y-87225521D01*
X142388705Y-87395259D01*
X142604741Y-87611295D01*
X142774479Y-87865326D01*
X142891396Y-88147590D01*
X142951000Y-88447240D01*
X142951000Y-88752760D01*
X142891396Y-89052410D01*
X142774479Y-89334674D01*
X142604741Y-89588705D01*
X142388705Y-89804741D01*
X142134674Y-89974479D01*
X141852410Y-90091396D01*
X141702585Y-90121198D01*
X141552761Y-90151000D01*
X141247239Y-90151000D01*
X141097415Y-90121198D01*
X140947590Y-90091396D01*
X140665326Y-89974479D01*
X140411295Y-89804741D01*
X140195259Y-89588705D01*
X140025521Y-89334674D01*
X139908604Y-89052410D01*
X139849000Y-88752760D01*
X139849000Y-88447240D01*
X139908604Y-88147590D01*
X140025521Y-87865326D01*
X140195259Y-87611295D01*
X140411295Y-87395259D01*
X140665326Y-87225521D01*
X140947590Y-87108604D01*
X141097415Y-87078802D01*
X141247239Y-87049000D01*
X141552761Y-87049000D01*
X141702585Y-87078802D01*
G37*
G36*
X137871000Y-90151000D02*
G01*
X134769000Y-90151000D01*
X134769000Y-87049000D01*
X137871000Y-87049000D01*
X137871000Y-90151000D01*
G37*
M02*
