M48
; DRILL file {KiCad (5.1.5)-3} date 22/09/2020 11:10:16
; FORMAT={-:-/ absolute / metric / decimal}
; #@! TF.CreationDate,2020-09-22T11:10:16+01:00
; #@! TF.GenerationSoftware,Kicad,Pcbnew,(5.1.5)-3
; #@! TF.FileFunction,Plated,1,2,PTH
FMAT,2
METRIC
T1C0.200
T2C0.400
T3C0.700
T4C1.000
T5C1.100
T6C1.400
T7C3.000
%
G90
G05
T1
X122.174Y-108.458
X127.508Y-108.331
X127.889Y-120.904
X128.397Y-118.872
X129.667Y-119.126
X137.249Y-115.357
X137.75Y-109.5
X138.0Y-108.75
X139.0Y-116.5
X141.75Y-108.0
X145.0Y-104.0
X145.034Y-119.761
X145.542Y-114.173
X147.0Y-106.75
X147.5Y-104.0
X147.75Y-106.0
X148.0Y-105.0
X153.67Y-114.173
X154.25Y-98.25
X156.25Y-119.0
X157.353Y-114.173
X158.5Y-117.0
X161.7Y-93.8
X163.1Y-92.4
X163.449Y-121.285
X163.957Y-123.571
X167.894Y-115.316
T2
X109.855Y-102.743
X119.25Y-98.25
X126.873Y-114.427
X129.921Y-100.457
X133.985Y-119.253
X135.382Y-116.459
X153.67Y-112.395
X154.25Y-105.25
X157.734Y-112.395
X162.179Y-91.313
X162.814Y-102.87
X170.053Y-105.537
X175.75Y-109.5
T3
X113.424Y-121.638
X114.224Y-119.888
X115.024Y-121.638
X115.824Y-119.888
X116.624Y-121.638
T4
X114.3Y-106.2
X117.482Y-109.382
X118.896Y-101.604
X122.078Y-104.786
X172.84Y-94.1
X172.84Y-123.8
X175.38Y-94.1
X175.38Y-123.8
X177.92Y-94.1
X177.92Y-123.8
X180.46Y-94.1
X180.46Y-123.8
X183.0Y-94.1
T5
X145.0Y-91.8
X147.54Y-91.8
X150.08Y-91.8
X152.62Y-91.8
X155.16Y-91.8
X157.7Y-91.8
T6
X194.6Y-100.56
X194.6Y-105.64
X194.6Y-110.72
X194.6Y-115.8
T7
X118.11Y-88.9
X118.11Y-128.27
X187.96Y-88.9
X187.96Y-128.27
T3
G00X111.374Y-120.113
M15
G01X111.374Y-121.413
M16
G05
G00X118.674Y-120.113
M15
G01X118.674Y-121.413
M16
G05
T0
M30
