G04 #@! TF.GenerationSoftware,KiCad,Pcbnew,(5.1.5)-3*
G04 #@! TF.CreationDate,2020-09-22T11:09:55+01:00*
G04 #@! TF.ProjectId,sensor_node_PCB,73656e73-6f72-45f6-9e6f-64655f504342,rev?*
G04 #@! TF.SameCoordinates,Original*
G04 #@! TF.FileFunction,Soldermask,Bot*
G04 #@! TF.FilePolarity,Negative*
%FSLAX46Y46*%
G04 Gerber Fmt 4.6, Leading zero omitted, Abs format (unit mm)*
G04 Created by KiCad (PCBNEW (5.1.5)-3) date 2020-09-22 11:09:55*
%MOMM*%
%LPD*%
G04 APERTURE LIST*
%ADD10C,0.100000*%
G04 APERTURE END LIST*
D10*
G36*
X188849943Y-125336248D02*
G01*
X189405189Y-125566238D01*
X189405190Y-125566239D01*
X189904899Y-125900134D01*
X190329866Y-126325101D01*
X190329867Y-126325103D01*
X190663762Y-126824811D01*
X190893752Y-127380057D01*
X191011000Y-127969501D01*
X191011000Y-128570499D01*
X190893752Y-129159943D01*
X190663762Y-129715189D01*
X190663761Y-129715190D01*
X190329866Y-130214899D01*
X189904899Y-130639866D01*
X189653347Y-130807948D01*
X189405189Y-130973762D01*
X188849943Y-131203752D01*
X188260499Y-131321000D01*
X187659501Y-131321000D01*
X187070057Y-131203752D01*
X186514811Y-130973762D01*
X186266653Y-130807948D01*
X186015101Y-130639866D01*
X185590134Y-130214899D01*
X185256239Y-129715190D01*
X185256238Y-129715189D01*
X185026248Y-129159943D01*
X184909000Y-128570499D01*
X184909000Y-127969501D01*
X185026248Y-127380057D01*
X185256238Y-126824811D01*
X185590133Y-126325103D01*
X185590134Y-126325101D01*
X186015101Y-125900134D01*
X186514810Y-125566239D01*
X186514811Y-125566238D01*
X187070057Y-125336248D01*
X187659501Y-125219000D01*
X188260499Y-125219000D01*
X188849943Y-125336248D01*
G37*
G36*
X118999943Y-125336248D02*
G01*
X119555189Y-125566238D01*
X119555190Y-125566239D01*
X120054899Y-125900134D01*
X120479866Y-126325101D01*
X120479867Y-126325103D01*
X120813762Y-126824811D01*
X121043752Y-127380057D01*
X121161000Y-127969501D01*
X121161000Y-128570499D01*
X121043752Y-129159943D01*
X120813762Y-129715189D01*
X120813761Y-129715190D01*
X120479866Y-130214899D01*
X120054899Y-130639866D01*
X119803347Y-130807948D01*
X119555189Y-130973762D01*
X118999943Y-131203752D01*
X118410499Y-131321000D01*
X117809501Y-131321000D01*
X117220057Y-131203752D01*
X116664811Y-130973762D01*
X116416653Y-130807948D01*
X116165101Y-130639866D01*
X115740134Y-130214899D01*
X115406239Y-129715190D01*
X115406238Y-129715189D01*
X115176248Y-129159943D01*
X115059000Y-128570499D01*
X115059000Y-127969501D01*
X115176248Y-127380057D01*
X115406238Y-126824811D01*
X115740133Y-126325103D01*
X115740134Y-126325101D01*
X116165101Y-125900134D01*
X116664810Y-125566239D01*
X116664811Y-125566238D01*
X117220057Y-125336248D01*
X117809501Y-125219000D01*
X118410499Y-125219000D01*
X118999943Y-125336248D01*
G37*
G36*
X172953512Y-122903927D02*
G01*
X173102812Y-122933624D01*
X173266784Y-123001544D01*
X173414354Y-123100147D01*
X173539853Y-123225646D01*
X173638456Y-123373216D01*
X173706376Y-123537188D01*
X173741000Y-123711259D01*
X173741000Y-123888741D01*
X173706376Y-124062812D01*
X173638456Y-124226784D01*
X173539853Y-124374354D01*
X173414354Y-124499853D01*
X173266784Y-124598456D01*
X173102812Y-124666376D01*
X172953512Y-124696073D01*
X172928742Y-124701000D01*
X172751258Y-124701000D01*
X172726488Y-124696073D01*
X172577188Y-124666376D01*
X172413216Y-124598456D01*
X172265646Y-124499853D01*
X172140147Y-124374354D01*
X172041544Y-124226784D01*
X171973624Y-124062812D01*
X171939000Y-123888741D01*
X171939000Y-123711259D01*
X171973624Y-123537188D01*
X172041544Y-123373216D01*
X172140147Y-123225646D01*
X172265646Y-123100147D01*
X172413216Y-123001544D01*
X172577188Y-122933624D01*
X172726488Y-122903927D01*
X172751258Y-122899000D01*
X172928742Y-122899000D01*
X172953512Y-122903927D01*
G37*
G36*
X178033512Y-122903927D02*
G01*
X178182812Y-122933624D01*
X178346784Y-123001544D01*
X178494354Y-123100147D01*
X178619853Y-123225646D01*
X178718456Y-123373216D01*
X178786376Y-123537188D01*
X178821000Y-123711259D01*
X178821000Y-123888741D01*
X178786376Y-124062812D01*
X178718456Y-124226784D01*
X178619853Y-124374354D01*
X178494354Y-124499853D01*
X178346784Y-124598456D01*
X178182812Y-124666376D01*
X178033512Y-124696073D01*
X178008742Y-124701000D01*
X177831258Y-124701000D01*
X177806488Y-124696073D01*
X177657188Y-124666376D01*
X177493216Y-124598456D01*
X177345646Y-124499853D01*
X177220147Y-124374354D01*
X177121544Y-124226784D01*
X177053624Y-124062812D01*
X177019000Y-123888741D01*
X177019000Y-123711259D01*
X177053624Y-123537188D01*
X177121544Y-123373216D01*
X177220147Y-123225646D01*
X177345646Y-123100147D01*
X177493216Y-123001544D01*
X177657188Y-122933624D01*
X177806488Y-122903927D01*
X177831258Y-122899000D01*
X178008742Y-122899000D01*
X178033512Y-122903927D01*
G37*
G36*
X180573512Y-122903927D02*
G01*
X180722812Y-122933624D01*
X180886784Y-123001544D01*
X181034354Y-123100147D01*
X181159853Y-123225646D01*
X181258456Y-123373216D01*
X181326376Y-123537188D01*
X181361000Y-123711259D01*
X181361000Y-123888741D01*
X181326376Y-124062812D01*
X181258456Y-124226784D01*
X181159853Y-124374354D01*
X181034354Y-124499853D01*
X180886784Y-124598456D01*
X180722812Y-124666376D01*
X180573512Y-124696073D01*
X180548742Y-124701000D01*
X180371258Y-124701000D01*
X180346488Y-124696073D01*
X180197188Y-124666376D01*
X180033216Y-124598456D01*
X179885646Y-124499853D01*
X179760147Y-124374354D01*
X179661544Y-124226784D01*
X179593624Y-124062812D01*
X179559000Y-123888741D01*
X179559000Y-123711259D01*
X179593624Y-123537188D01*
X179661544Y-123373216D01*
X179760147Y-123225646D01*
X179885646Y-123100147D01*
X180033216Y-123001544D01*
X180197188Y-122933624D01*
X180346488Y-122903927D01*
X180371258Y-122899000D01*
X180548742Y-122899000D01*
X180573512Y-122903927D01*
G37*
G36*
X175493512Y-122903927D02*
G01*
X175642812Y-122933624D01*
X175806784Y-123001544D01*
X175954354Y-123100147D01*
X176079853Y-123225646D01*
X176178456Y-123373216D01*
X176246376Y-123537188D01*
X176281000Y-123711259D01*
X176281000Y-123888741D01*
X176246376Y-124062812D01*
X176178456Y-124226784D01*
X176079853Y-124374354D01*
X175954354Y-124499853D01*
X175806784Y-124598456D01*
X175642812Y-124666376D01*
X175493512Y-124696073D01*
X175468742Y-124701000D01*
X175291258Y-124701000D01*
X175266488Y-124696073D01*
X175117188Y-124666376D01*
X174953216Y-124598456D01*
X174805646Y-124499853D01*
X174680147Y-124374354D01*
X174581544Y-124226784D01*
X174513624Y-124062812D01*
X174479000Y-123888741D01*
X174479000Y-123711259D01*
X174513624Y-123537188D01*
X174581544Y-123373216D01*
X174680147Y-123225646D01*
X174805646Y-123100147D01*
X174953216Y-123001544D01*
X175117188Y-122933624D01*
X175266488Y-122903927D01*
X175291258Y-122899000D01*
X175468742Y-122899000D01*
X175493512Y-122903927D01*
G37*
G36*
X116760601Y-121052397D02*
G01*
X116799305Y-121060096D01*
X116831340Y-121073365D01*
X116908680Y-121105400D01*
X117007115Y-121171173D01*
X117090827Y-121254885D01*
X117156600Y-121353320D01*
X117201904Y-121462696D01*
X117225000Y-121578805D01*
X117225000Y-121697195D01*
X117201904Y-121813304D01*
X117156600Y-121922680D01*
X117090827Y-122021115D01*
X117007115Y-122104827D01*
X116908680Y-122170600D01*
X116831340Y-122202635D01*
X116799305Y-122215904D01*
X116760601Y-122223603D01*
X116683195Y-122239000D01*
X116564805Y-122239000D01*
X116487399Y-122223603D01*
X116448695Y-122215904D01*
X116416660Y-122202635D01*
X116339320Y-122170600D01*
X116240885Y-122104827D01*
X116157173Y-122021115D01*
X116091400Y-121922680D01*
X116046096Y-121813304D01*
X116023000Y-121697195D01*
X116023000Y-121578805D01*
X116046096Y-121462696D01*
X116091400Y-121353320D01*
X116157173Y-121254885D01*
X116240885Y-121171173D01*
X116339320Y-121105400D01*
X116416660Y-121073365D01*
X116448695Y-121060096D01*
X116487399Y-121052397D01*
X116564805Y-121037000D01*
X116683195Y-121037000D01*
X116760601Y-121052397D01*
G37*
G36*
X115160601Y-121052397D02*
G01*
X115199305Y-121060096D01*
X115231340Y-121073365D01*
X115308680Y-121105400D01*
X115407115Y-121171173D01*
X115490827Y-121254885D01*
X115556600Y-121353320D01*
X115601904Y-121462696D01*
X115625000Y-121578805D01*
X115625000Y-121697195D01*
X115601904Y-121813304D01*
X115556600Y-121922680D01*
X115490827Y-122021115D01*
X115407115Y-122104827D01*
X115308680Y-122170600D01*
X115231340Y-122202635D01*
X115199305Y-122215904D01*
X115160601Y-122223603D01*
X115083195Y-122239000D01*
X114964805Y-122239000D01*
X114887399Y-122223603D01*
X114848695Y-122215904D01*
X114816660Y-122202635D01*
X114739320Y-122170600D01*
X114640885Y-122104827D01*
X114557173Y-122021115D01*
X114491400Y-121922680D01*
X114446096Y-121813304D01*
X114423000Y-121697195D01*
X114423000Y-121578805D01*
X114446096Y-121462696D01*
X114491400Y-121353320D01*
X114557173Y-121254885D01*
X114640885Y-121171173D01*
X114739320Y-121105400D01*
X114816660Y-121073365D01*
X114848695Y-121060096D01*
X114887399Y-121052397D01*
X114964805Y-121037000D01*
X115083195Y-121037000D01*
X115160601Y-121052397D01*
G37*
G36*
X114025000Y-122239000D02*
G01*
X112823000Y-122239000D01*
X112823000Y-121037000D01*
X114025000Y-121037000D01*
X114025000Y-122239000D01*
G37*
G36*
X111491817Y-119520696D02*
G01*
X111605104Y-119555062D01*
X111709511Y-119610869D01*
X111709513Y-119610870D01*
X111709512Y-119610870D01*
X111801027Y-119685973D01*
X111864711Y-119763572D01*
X111876131Y-119777488D01*
X111931938Y-119881895D01*
X111966304Y-119995182D01*
X111975000Y-120083481D01*
X111975000Y-121442519D01*
X111966304Y-121530818D01*
X111931938Y-121644105D01*
X111876131Y-121748512D01*
X111801027Y-121840027D01*
X111709512Y-121915131D01*
X111605105Y-121970938D01*
X111491818Y-122005304D01*
X111374000Y-122016907D01*
X111256183Y-122005304D01*
X111142896Y-121970938D01*
X111038489Y-121915131D01*
X110946974Y-121840027D01*
X110871870Y-121748512D01*
X110816063Y-121644105D01*
X110781697Y-121530818D01*
X110773001Y-121442519D01*
X110773000Y-120083482D01*
X110781696Y-119995183D01*
X110816062Y-119881896D01*
X110871869Y-119777489D01*
X110885338Y-119761077D01*
X110946973Y-119685973D01*
X111038487Y-119610870D01*
X111038486Y-119610870D01*
X111038488Y-119610869D01*
X111142895Y-119555062D01*
X111256182Y-119520696D01*
X111374000Y-119509093D01*
X111491817Y-119520696D01*
G37*
G36*
X118791817Y-119520696D02*
G01*
X118905104Y-119555062D01*
X119009511Y-119610869D01*
X119009513Y-119610870D01*
X119009512Y-119610870D01*
X119101027Y-119685973D01*
X119164711Y-119763572D01*
X119176131Y-119777488D01*
X119231938Y-119881895D01*
X119266304Y-119995182D01*
X119275000Y-120083481D01*
X119275000Y-121442519D01*
X119266304Y-121530818D01*
X119231938Y-121644105D01*
X119176131Y-121748512D01*
X119101027Y-121840027D01*
X119009512Y-121915131D01*
X118905105Y-121970938D01*
X118791818Y-122005304D01*
X118674000Y-122016907D01*
X118556183Y-122005304D01*
X118442896Y-121970938D01*
X118338489Y-121915131D01*
X118246974Y-121840027D01*
X118171870Y-121748512D01*
X118116063Y-121644105D01*
X118081697Y-121530818D01*
X118073001Y-121442519D01*
X118073000Y-120083482D01*
X118081696Y-119995183D01*
X118116062Y-119881896D01*
X118171869Y-119777489D01*
X118185338Y-119761077D01*
X118246973Y-119685973D01*
X118338487Y-119610870D01*
X118338486Y-119610870D01*
X118338488Y-119610869D01*
X118442895Y-119555062D01*
X118556182Y-119520696D01*
X118674000Y-119509093D01*
X118791817Y-119520696D01*
G37*
G36*
X115960601Y-119302397D02*
G01*
X115999305Y-119310096D01*
X116031340Y-119323365D01*
X116108680Y-119355400D01*
X116207115Y-119421173D01*
X116290827Y-119504885D01*
X116356600Y-119603320D01*
X116401904Y-119712696D01*
X116425000Y-119828805D01*
X116425000Y-119947195D01*
X116401904Y-120063304D01*
X116356600Y-120172680D01*
X116290827Y-120271115D01*
X116207115Y-120354827D01*
X116108680Y-120420600D01*
X116031340Y-120452635D01*
X115999305Y-120465904D01*
X115960601Y-120473603D01*
X115883195Y-120489000D01*
X115764805Y-120489000D01*
X115687399Y-120473603D01*
X115648695Y-120465904D01*
X115616660Y-120452635D01*
X115539320Y-120420600D01*
X115440885Y-120354827D01*
X115357173Y-120271115D01*
X115291400Y-120172680D01*
X115246096Y-120063304D01*
X115223000Y-119947195D01*
X115223000Y-119828805D01*
X115246096Y-119712696D01*
X115291400Y-119603320D01*
X115357173Y-119504885D01*
X115440885Y-119421173D01*
X115539320Y-119355400D01*
X115616660Y-119323365D01*
X115648695Y-119310096D01*
X115687399Y-119302397D01*
X115764805Y-119287000D01*
X115883195Y-119287000D01*
X115960601Y-119302397D01*
G37*
G36*
X114360601Y-119302397D02*
G01*
X114399305Y-119310096D01*
X114431340Y-119323365D01*
X114508680Y-119355400D01*
X114607115Y-119421173D01*
X114690827Y-119504885D01*
X114756600Y-119603320D01*
X114801904Y-119712696D01*
X114825000Y-119828805D01*
X114825000Y-119947195D01*
X114801904Y-120063304D01*
X114756600Y-120172680D01*
X114690827Y-120271115D01*
X114607115Y-120354827D01*
X114508680Y-120420600D01*
X114431340Y-120452635D01*
X114399305Y-120465904D01*
X114360601Y-120473603D01*
X114283195Y-120489000D01*
X114164805Y-120489000D01*
X114087399Y-120473603D01*
X114048695Y-120465904D01*
X114016660Y-120452635D01*
X113939320Y-120420600D01*
X113840885Y-120354827D01*
X113757173Y-120271115D01*
X113691400Y-120172680D01*
X113646096Y-120063304D01*
X113623000Y-119947195D01*
X113623000Y-119828805D01*
X113646096Y-119712696D01*
X113691400Y-119603320D01*
X113757173Y-119504885D01*
X113840885Y-119421173D01*
X113939320Y-119355400D01*
X114016660Y-119323365D01*
X114048695Y-119310096D01*
X114087399Y-119302397D01*
X114164805Y-119287000D01*
X114283195Y-119287000D01*
X114360601Y-119302397D01*
G37*
G36*
X196316217Y-114712808D02*
G01*
X196347489Y-114722294D01*
X196376308Y-114737698D01*
X196401570Y-114758430D01*
X196422302Y-114783692D01*
X196437706Y-114812511D01*
X196447192Y-114843783D01*
X196451000Y-114882448D01*
X196451000Y-116717552D01*
X196447192Y-116756217D01*
X196437706Y-116787489D01*
X196422302Y-116816308D01*
X196401570Y-116841570D01*
X196376308Y-116862302D01*
X196347489Y-116877706D01*
X196316217Y-116887192D01*
X196277552Y-116891000D01*
X192922448Y-116891000D01*
X192883783Y-116887192D01*
X192852511Y-116877706D01*
X192823692Y-116862302D01*
X192798430Y-116841570D01*
X192777698Y-116816308D01*
X192762294Y-116787489D01*
X192752808Y-116756217D01*
X192749000Y-116717552D01*
X192749000Y-114882448D01*
X192752808Y-114843783D01*
X192762294Y-114812511D01*
X192777698Y-114783692D01*
X192798430Y-114758430D01*
X192823692Y-114737698D01*
X192852511Y-114722294D01*
X192883783Y-114712808D01*
X192922448Y-114709000D01*
X196277552Y-114709000D01*
X196316217Y-114712808D01*
G37*
G36*
X195573871Y-109644786D02*
G01*
X195779530Y-109707172D01*
X195969055Y-109808475D01*
X195969058Y-109808477D01*
X195969059Y-109808478D01*
X196135186Y-109944814D01*
X196271522Y-110110941D01*
X196271525Y-110110945D01*
X196372828Y-110300470D01*
X196435214Y-110506129D01*
X196456278Y-110720000D01*
X196435214Y-110933871D01*
X196372828Y-111139530D01*
X196271525Y-111329055D01*
X196271523Y-111329058D01*
X196271522Y-111329059D01*
X196135186Y-111495186D01*
X195969059Y-111631522D01*
X195969055Y-111631525D01*
X195779530Y-111732828D01*
X195573871Y-111795214D01*
X195413591Y-111811000D01*
X193786409Y-111811000D01*
X193626129Y-111795214D01*
X193420470Y-111732828D01*
X193230945Y-111631525D01*
X193230941Y-111631522D01*
X193064814Y-111495186D01*
X192928478Y-111329059D01*
X192928477Y-111329058D01*
X192928475Y-111329055D01*
X192827172Y-111139530D01*
X192764786Y-110933871D01*
X192743722Y-110720000D01*
X192764786Y-110506129D01*
X192827172Y-110300470D01*
X192928475Y-110110945D01*
X192928478Y-110110941D01*
X193064814Y-109944814D01*
X193230941Y-109808478D01*
X193230942Y-109808477D01*
X193230945Y-109808475D01*
X193420470Y-109707172D01*
X193626129Y-109644786D01*
X193786409Y-109629000D01*
X195413591Y-109629000D01*
X195573871Y-109644786D01*
G37*
G36*
X117595493Y-108485908D02*
G01*
X117744793Y-108515605D01*
X117908765Y-108583525D01*
X118056335Y-108682128D01*
X118181834Y-108807627D01*
X118280437Y-108955197D01*
X118348357Y-109119169D01*
X118382981Y-109293240D01*
X118382981Y-109470722D01*
X118348357Y-109644793D01*
X118280437Y-109808765D01*
X118181834Y-109956335D01*
X118056335Y-110081834D01*
X117908765Y-110180437D01*
X117744793Y-110248357D01*
X117595493Y-110278054D01*
X117570723Y-110282981D01*
X117393239Y-110282981D01*
X117368469Y-110278054D01*
X117219169Y-110248357D01*
X117055197Y-110180437D01*
X116907627Y-110081834D01*
X116782128Y-109956335D01*
X116683525Y-109808765D01*
X116615605Y-109644793D01*
X116580981Y-109470722D01*
X116580981Y-109293240D01*
X116615605Y-109119169D01*
X116683525Y-108955197D01*
X116782128Y-108807627D01*
X116907627Y-108682128D01*
X117055197Y-108583525D01*
X117219169Y-108515605D01*
X117368469Y-108485908D01*
X117393239Y-108480981D01*
X117570723Y-108480981D01*
X117595493Y-108485908D01*
G37*
G36*
X114413512Y-105303927D02*
G01*
X114562812Y-105333624D01*
X114726784Y-105401544D01*
X114874354Y-105500147D01*
X114999853Y-105625646D01*
X115098456Y-105773216D01*
X115166376Y-105937188D01*
X115201000Y-106111259D01*
X115201000Y-106288741D01*
X115166376Y-106462812D01*
X115098456Y-106626784D01*
X114999853Y-106774354D01*
X114874354Y-106899853D01*
X114726784Y-106998456D01*
X114562812Y-107066376D01*
X114413512Y-107096073D01*
X114388742Y-107101000D01*
X114211258Y-107101000D01*
X114186488Y-107096073D01*
X114037188Y-107066376D01*
X113873216Y-106998456D01*
X113725646Y-106899853D01*
X113600147Y-106774354D01*
X113501544Y-106626784D01*
X113433624Y-106462812D01*
X113399000Y-106288741D01*
X113399000Y-106111259D01*
X113433624Y-105937188D01*
X113501544Y-105773216D01*
X113600147Y-105625646D01*
X113725646Y-105500147D01*
X113873216Y-105401544D01*
X114037188Y-105333624D01*
X114186488Y-105303927D01*
X114211258Y-105299000D01*
X114388742Y-105299000D01*
X114413512Y-105303927D01*
G37*
G36*
X195573871Y-104564786D02*
G01*
X195779530Y-104627172D01*
X195969055Y-104728475D01*
X195969058Y-104728477D01*
X195969059Y-104728478D01*
X196135186Y-104864814D01*
X196271522Y-105030941D01*
X196271525Y-105030945D01*
X196372828Y-105220470D01*
X196435214Y-105426129D01*
X196456278Y-105640000D01*
X196435214Y-105853871D01*
X196372828Y-106059530D01*
X196271525Y-106249055D01*
X196271523Y-106249058D01*
X196271522Y-106249059D01*
X196135186Y-106415186D01*
X195969059Y-106551522D01*
X195969055Y-106551525D01*
X195779530Y-106652828D01*
X195573871Y-106715214D01*
X195413591Y-106731000D01*
X193786409Y-106731000D01*
X193626129Y-106715214D01*
X193420470Y-106652828D01*
X193230945Y-106551525D01*
X193230941Y-106551522D01*
X193064814Y-106415186D01*
X192928478Y-106249059D01*
X192928477Y-106249058D01*
X192928475Y-106249055D01*
X192827172Y-106059530D01*
X192764786Y-105853871D01*
X192743722Y-105640000D01*
X192764786Y-105426129D01*
X192827172Y-105220470D01*
X192928475Y-105030945D01*
X192928478Y-105030941D01*
X193064814Y-104864814D01*
X193230941Y-104728478D01*
X193230942Y-104728477D01*
X193230945Y-104728475D01*
X193420470Y-104627172D01*
X193626129Y-104564786D01*
X193786409Y-104549000D01*
X195413591Y-104549000D01*
X195573871Y-104564786D01*
G37*
G36*
X122191687Y-103889713D02*
G01*
X122340987Y-103919410D01*
X122504959Y-103987330D01*
X122652529Y-104085933D01*
X122778028Y-104211432D01*
X122876631Y-104359002D01*
X122944551Y-104522974D01*
X122979175Y-104697045D01*
X122979175Y-104874527D01*
X122944551Y-105048598D01*
X122876631Y-105212570D01*
X122778028Y-105360140D01*
X122652529Y-105485639D01*
X122504959Y-105584242D01*
X122340987Y-105652162D01*
X122191687Y-105681859D01*
X122166917Y-105686786D01*
X121989433Y-105686786D01*
X121964663Y-105681859D01*
X121815363Y-105652162D01*
X121651391Y-105584242D01*
X121503821Y-105485639D01*
X121378322Y-105360140D01*
X121279719Y-105212570D01*
X121211799Y-105048598D01*
X121177175Y-104874527D01*
X121177175Y-104697045D01*
X121211799Y-104522974D01*
X121279719Y-104359002D01*
X121378322Y-104211432D01*
X121503821Y-104085933D01*
X121651391Y-103987330D01*
X121815363Y-103919410D01*
X121964663Y-103889713D01*
X121989433Y-103884786D01*
X122166917Y-103884786D01*
X122191687Y-103889713D01*
G37*
G36*
X119009706Y-100707733D02*
G01*
X119159006Y-100737430D01*
X119322978Y-100805350D01*
X119470548Y-100903953D01*
X119596047Y-101029452D01*
X119694650Y-101177022D01*
X119762570Y-101340994D01*
X119797194Y-101515065D01*
X119797194Y-101692547D01*
X119762570Y-101866618D01*
X119694650Y-102030590D01*
X119596047Y-102178160D01*
X119470548Y-102303659D01*
X119322978Y-102402262D01*
X119159006Y-102470182D01*
X119009706Y-102499879D01*
X118984936Y-102504806D01*
X118807452Y-102504806D01*
X118782682Y-102499879D01*
X118633382Y-102470182D01*
X118469410Y-102402262D01*
X118321840Y-102303659D01*
X118196341Y-102178160D01*
X118097738Y-102030590D01*
X118029818Y-101866618D01*
X117995194Y-101692547D01*
X117995194Y-101515065D01*
X118029818Y-101340994D01*
X118097738Y-101177022D01*
X118196341Y-101029452D01*
X118321840Y-100903953D01*
X118469410Y-100805350D01*
X118633382Y-100737430D01*
X118782682Y-100707733D01*
X118807452Y-100702806D01*
X118984936Y-100702806D01*
X119009706Y-100707733D01*
G37*
G36*
X195573871Y-99484786D02*
G01*
X195779530Y-99547172D01*
X195969055Y-99648475D01*
X195969058Y-99648477D01*
X195969059Y-99648478D01*
X196135186Y-99784814D01*
X196271522Y-99950941D01*
X196271525Y-99950945D01*
X196372828Y-100140470D01*
X196435214Y-100346129D01*
X196456278Y-100560000D01*
X196435214Y-100773871D01*
X196372828Y-100979530D01*
X196271525Y-101169055D01*
X196271523Y-101169058D01*
X196271522Y-101169059D01*
X196135186Y-101335186D01*
X195969059Y-101471522D01*
X195969055Y-101471525D01*
X195779530Y-101572828D01*
X195573871Y-101635214D01*
X195413591Y-101651000D01*
X193786409Y-101651000D01*
X193626129Y-101635214D01*
X193420470Y-101572828D01*
X193230945Y-101471525D01*
X193230941Y-101471522D01*
X193064814Y-101335186D01*
X192928478Y-101169059D01*
X192928477Y-101169058D01*
X192928475Y-101169055D01*
X192827172Y-100979530D01*
X192764786Y-100773871D01*
X192743722Y-100560000D01*
X192764786Y-100346129D01*
X192827172Y-100140470D01*
X192928475Y-99950945D01*
X192928478Y-99950941D01*
X193064814Y-99784814D01*
X193230941Y-99648478D01*
X193230942Y-99648477D01*
X193230945Y-99648475D01*
X193420470Y-99547172D01*
X193626129Y-99484786D01*
X193786409Y-99469000D01*
X195413591Y-99469000D01*
X195573871Y-99484786D01*
G37*
G36*
X183901000Y-95001000D02*
G01*
X182099000Y-95001000D01*
X182099000Y-93199000D01*
X183901000Y-93199000D01*
X183901000Y-95001000D01*
G37*
G36*
X180573512Y-93203927D02*
G01*
X180722812Y-93233624D01*
X180886784Y-93301544D01*
X181034354Y-93400147D01*
X181159853Y-93525646D01*
X181258456Y-93673216D01*
X181326376Y-93837188D01*
X181361000Y-94011259D01*
X181361000Y-94188741D01*
X181326376Y-94362812D01*
X181258456Y-94526784D01*
X181159853Y-94674354D01*
X181034354Y-94799853D01*
X180886784Y-94898456D01*
X180722812Y-94966376D01*
X180573512Y-94996073D01*
X180548742Y-95001000D01*
X180371258Y-95001000D01*
X180346488Y-94996073D01*
X180197188Y-94966376D01*
X180033216Y-94898456D01*
X179885646Y-94799853D01*
X179760147Y-94674354D01*
X179661544Y-94526784D01*
X179593624Y-94362812D01*
X179559000Y-94188741D01*
X179559000Y-94011259D01*
X179593624Y-93837188D01*
X179661544Y-93673216D01*
X179760147Y-93525646D01*
X179885646Y-93400147D01*
X180033216Y-93301544D01*
X180197188Y-93233624D01*
X180346488Y-93203927D01*
X180371258Y-93199000D01*
X180548742Y-93199000D01*
X180573512Y-93203927D01*
G37*
G36*
X178033512Y-93203927D02*
G01*
X178182812Y-93233624D01*
X178346784Y-93301544D01*
X178494354Y-93400147D01*
X178619853Y-93525646D01*
X178718456Y-93673216D01*
X178786376Y-93837188D01*
X178821000Y-94011259D01*
X178821000Y-94188741D01*
X178786376Y-94362812D01*
X178718456Y-94526784D01*
X178619853Y-94674354D01*
X178494354Y-94799853D01*
X178346784Y-94898456D01*
X178182812Y-94966376D01*
X178033512Y-94996073D01*
X178008742Y-95001000D01*
X177831258Y-95001000D01*
X177806488Y-94996073D01*
X177657188Y-94966376D01*
X177493216Y-94898456D01*
X177345646Y-94799853D01*
X177220147Y-94674354D01*
X177121544Y-94526784D01*
X177053624Y-94362812D01*
X177019000Y-94188741D01*
X177019000Y-94011259D01*
X177053624Y-93837188D01*
X177121544Y-93673216D01*
X177220147Y-93525646D01*
X177345646Y-93400147D01*
X177493216Y-93301544D01*
X177657188Y-93233624D01*
X177806488Y-93203927D01*
X177831258Y-93199000D01*
X178008742Y-93199000D01*
X178033512Y-93203927D01*
G37*
G36*
X175493512Y-93203927D02*
G01*
X175642812Y-93233624D01*
X175806784Y-93301544D01*
X175954354Y-93400147D01*
X176079853Y-93525646D01*
X176178456Y-93673216D01*
X176246376Y-93837188D01*
X176281000Y-94011259D01*
X176281000Y-94188741D01*
X176246376Y-94362812D01*
X176178456Y-94526784D01*
X176079853Y-94674354D01*
X175954354Y-94799853D01*
X175806784Y-94898456D01*
X175642812Y-94966376D01*
X175493512Y-94996073D01*
X175468742Y-95001000D01*
X175291258Y-95001000D01*
X175266488Y-94996073D01*
X175117188Y-94966376D01*
X174953216Y-94898456D01*
X174805646Y-94799853D01*
X174680147Y-94674354D01*
X174581544Y-94526784D01*
X174513624Y-94362812D01*
X174479000Y-94188741D01*
X174479000Y-94011259D01*
X174513624Y-93837188D01*
X174581544Y-93673216D01*
X174680147Y-93525646D01*
X174805646Y-93400147D01*
X174953216Y-93301544D01*
X175117188Y-93233624D01*
X175266488Y-93203927D01*
X175291258Y-93199000D01*
X175468742Y-93199000D01*
X175493512Y-93203927D01*
G37*
G36*
X172953512Y-93203927D02*
G01*
X173102812Y-93233624D01*
X173266784Y-93301544D01*
X173414354Y-93400147D01*
X173539853Y-93525646D01*
X173638456Y-93673216D01*
X173706376Y-93837188D01*
X173741000Y-94011259D01*
X173741000Y-94188741D01*
X173706376Y-94362812D01*
X173638456Y-94526784D01*
X173539853Y-94674354D01*
X173414354Y-94799853D01*
X173266784Y-94898456D01*
X173102812Y-94966376D01*
X172953512Y-94996073D01*
X172928742Y-95001000D01*
X172751258Y-95001000D01*
X172726488Y-94996073D01*
X172577188Y-94966376D01*
X172413216Y-94898456D01*
X172265646Y-94799853D01*
X172140147Y-94674354D01*
X172041544Y-94526784D01*
X171973624Y-94362812D01*
X171939000Y-94188741D01*
X171939000Y-94011259D01*
X171973624Y-93837188D01*
X172041544Y-93673216D01*
X172140147Y-93525646D01*
X172265646Y-93400147D01*
X172413216Y-93301544D01*
X172577188Y-93233624D01*
X172726488Y-93203927D01*
X172751258Y-93199000D01*
X172928742Y-93199000D01*
X172953512Y-93203927D01*
G37*
G36*
X146151000Y-91614007D02*
G01*
X146153402Y-91638393D01*
X146160515Y-91661842D01*
X146172066Y-91683453D01*
X146187611Y-91702395D01*
X146206553Y-91717940D01*
X146228164Y-91729491D01*
X146251613Y-91736604D01*
X146275999Y-91739006D01*
X146300385Y-91736604D01*
X146323834Y-91729491D01*
X146345445Y-91717940D01*
X146364387Y-91702395D01*
X146379932Y-91683453D01*
X146391483Y-91661842D01*
X146398596Y-91638393D01*
X146433232Y-91464267D01*
X146519996Y-91254799D01*
X146519997Y-91254797D01*
X146645960Y-91066280D01*
X146806280Y-90905960D01*
X146994797Y-90779997D01*
X147204266Y-90693232D01*
X147315451Y-90671116D01*
X147426635Y-90649000D01*
X147653365Y-90649000D01*
X147764549Y-90671116D01*
X147875734Y-90693232D01*
X148085203Y-90779997D01*
X148273720Y-90905960D01*
X148434040Y-91066280D01*
X148560003Y-91254797D01*
X148560004Y-91254799D01*
X148646768Y-91464267D01*
X148687403Y-91668552D01*
X148694516Y-91692001D01*
X148706067Y-91713612D01*
X148721612Y-91732554D01*
X148740554Y-91748099D01*
X148762165Y-91759650D01*
X148785614Y-91766763D01*
X148810000Y-91769165D01*
X148834386Y-91766763D01*
X148857835Y-91759650D01*
X148879446Y-91748099D01*
X148898388Y-91732554D01*
X148913933Y-91713612D01*
X148925484Y-91692001D01*
X148932597Y-91668552D01*
X148973232Y-91464267D01*
X149059996Y-91254799D01*
X149059997Y-91254797D01*
X149185960Y-91066280D01*
X149346280Y-90905960D01*
X149534797Y-90779997D01*
X149744266Y-90693232D01*
X149855451Y-90671116D01*
X149966635Y-90649000D01*
X150193365Y-90649000D01*
X150304549Y-90671116D01*
X150415734Y-90693232D01*
X150625203Y-90779997D01*
X150813720Y-90905960D01*
X150974040Y-91066280D01*
X151100003Y-91254797D01*
X151100004Y-91254799D01*
X151186768Y-91464267D01*
X151227403Y-91668552D01*
X151234516Y-91692001D01*
X151246067Y-91713612D01*
X151261612Y-91732554D01*
X151280554Y-91748099D01*
X151302165Y-91759650D01*
X151325614Y-91766763D01*
X151350000Y-91769165D01*
X151374386Y-91766763D01*
X151397835Y-91759650D01*
X151419446Y-91748099D01*
X151438388Y-91732554D01*
X151453933Y-91713612D01*
X151465484Y-91692001D01*
X151472597Y-91668552D01*
X151513232Y-91464267D01*
X151599996Y-91254799D01*
X151599997Y-91254797D01*
X151725960Y-91066280D01*
X151886280Y-90905960D01*
X152074797Y-90779997D01*
X152284266Y-90693232D01*
X152395451Y-90671116D01*
X152506635Y-90649000D01*
X152733365Y-90649000D01*
X152844549Y-90671116D01*
X152955734Y-90693232D01*
X153165203Y-90779997D01*
X153353720Y-90905960D01*
X153514040Y-91066280D01*
X153640003Y-91254797D01*
X153640004Y-91254799D01*
X153726768Y-91464267D01*
X153767403Y-91668552D01*
X153774516Y-91692001D01*
X153786067Y-91713612D01*
X153801612Y-91732554D01*
X153820554Y-91748099D01*
X153842165Y-91759650D01*
X153865614Y-91766763D01*
X153890000Y-91769165D01*
X153914386Y-91766763D01*
X153937835Y-91759650D01*
X153959446Y-91748099D01*
X153978388Y-91732554D01*
X153993933Y-91713612D01*
X154005484Y-91692001D01*
X154012597Y-91668552D01*
X154053232Y-91464267D01*
X154139996Y-91254799D01*
X154139997Y-91254797D01*
X154265960Y-91066280D01*
X154426280Y-90905960D01*
X154614797Y-90779997D01*
X154824266Y-90693232D01*
X154935451Y-90671116D01*
X155046635Y-90649000D01*
X155273365Y-90649000D01*
X155384549Y-90671116D01*
X155495734Y-90693232D01*
X155705203Y-90779997D01*
X155893720Y-90905960D01*
X156054040Y-91066280D01*
X156180003Y-91254797D01*
X156180004Y-91254799D01*
X156266768Y-91464267D01*
X156307403Y-91668552D01*
X156314516Y-91692001D01*
X156326067Y-91713612D01*
X156341612Y-91732554D01*
X156360554Y-91748099D01*
X156382165Y-91759650D01*
X156405614Y-91766763D01*
X156430000Y-91769165D01*
X156454386Y-91766763D01*
X156477835Y-91759650D01*
X156499446Y-91748099D01*
X156518388Y-91732554D01*
X156533933Y-91713612D01*
X156545484Y-91692001D01*
X156552597Y-91668552D01*
X156593232Y-91464267D01*
X156679996Y-91254799D01*
X156679997Y-91254797D01*
X156805960Y-91066280D01*
X156966280Y-90905960D01*
X157154797Y-90779997D01*
X157364266Y-90693232D01*
X157475451Y-90671116D01*
X157586635Y-90649000D01*
X157813365Y-90649000D01*
X157924549Y-90671116D01*
X158035734Y-90693232D01*
X158245203Y-90779997D01*
X158433720Y-90905960D01*
X158594040Y-91066280D01*
X158720003Y-91254797D01*
X158806768Y-91464266D01*
X158851000Y-91686636D01*
X158851000Y-91913364D01*
X158806768Y-92135734D01*
X158720003Y-92345203D01*
X158594040Y-92533720D01*
X158433720Y-92694040D01*
X158245203Y-92820003D01*
X158035734Y-92906768D01*
X157924549Y-92928884D01*
X157813365Y-92951000D01*
X157586635Y-92951000D01*
X157475451Y-92928884D01*
X157364266Y-92906768D01*
X157154797Y-92820003D01*
X156966280Y-92694040D01*
X156805960Y-92533720D01*
X156679997Y-92345203D01*
X156593232Y-92135734D01*
X156552597Y-91931448D01*
X156545484Y-91907999D01*
X156533933Y-91886388D01*
X156518388Y-91867446D01*
X156499446Y-91851901D01*
X156477835Y-91840350D01*
X156454386Y-91833237D01*
X156430000Y-91830835D01*
X156405614Y-91833237D01*
X156382165Y-91840350D01*
X156360554Y-91851901D01*
X156341612Y-91867446D01*
X156326067Y-91886388D01*
X156314516Y-91907999D01*
X156307403Y-91931448D01*
X156266768Y-92135734D01*
X156180003Y-92345203D01*
X156054040Y-92533720D01*
X155893720Y-92694040D01*
X155705203Y-92820003D01*
X155495734Y-92906768D01*
X155384549Y-92928884D01*
X155273365Y-92951000D01*
X155046635Y-92951000D01*
X154935451Y-92928884D01*
X154824266Y-92906768D01*
X154614797Y-92820003D01*
X154426280Y-92694040D01*
X154265960Y-92533720D01*
X154139997Y-92345203D01*
X154053232Y-92135734D01*
X154012597Y-91931448D01*
X154005484Y-91907999D01*
X153993933Y-91886388D01*
X153978388Y-91867446D01*
X153959446Y-91851901D01*
X153937835Y-91840350D01*
X153914386Y-91833237D01*
X153890000Y-91830835D01*
X153865614Y-91833237D01*
X153842165Y-91840350D01*
X153820554Y-91851901D01*
X153801612Y-91867446D01*
X153786067Y-91886388D01*
X153774516Y-91907999D01*
X153767403Y-91931448D01*
X153726768Y-92135734D01*
X153640003Y-92345203D01*
X153514040Y-92533720D01*
X153353720Y-92694040D01*
X153165203Y-92820003D01*
X152955734Y-92906768D01*
X152844549Y-92928884D01*
X152733365Y-92951000D01*
X152506635Y-92951000D01*
X152395451Y-92928884D01*
X152284266Y-92906768D01*
X152074797Y-92820003D01*
X151886280Y-92694040D01*
X151725960Y-92533720D01*
X151599997Y-92345203D01*
X151513232Y-92135734D01*
X151472597Y-91931448D01*
X151465484Y-91907999D01*
X151453933Y-91886388D01*
X151438388Y-91867446D01*
X151419446Y-91851901D01*
X151397835Y-91840350D01*
X151374386Y-91833237D01*
X151350000Y-91830835D01*
X151325614Y-91833237D01*
X151302165Y-91840350D01*
X151280554Y-91851901D01*
X151261612Y-91867446D01*
X151246067Y-91886388D01*
X151234516Y-91907999D01*
X151227403Y-91931448D01*
X151186768Y-92135734D01*
X151100003Y-92345203D01*
X150974040Y-92533720D01*
X150813720Y-92694040D01*
X150625203Y-92820003D01*
X150415734Y-92906768D01*
X150304549Y-92928884D01*
X150193365Y-92951000D01*
X149966635Y-92951000D01*
X149855451Y-92928884D01*
X149744266Y-92906768D01*
X149534797Y-92820003D01*
X149346280Y-92694040D01*
X149185960Y-92533720D01*
X149059997Y-92345203D01*
X148973232Y-92135734D01*
X148932597Y-91931448D01*
X148925484Y-91907999D01*
X148913933Y-91886388D01*
X148898388Y-91867446D01*
X148879446Y-91851901D01*
X148857835Y-91840350D01*
X148834386Y-91833237D01*
X148810000Y-91830835D01*
X148785614Y-91833237D01*
X148762165Y-91840350D01*
X148740554Y-91851901D01*
X148721612Y-91867446D01*
X148706067Y-91886388D01*
X148694516Y-91907999D01*
X148687403Y-91931448D01*
X148646768Y-92135734D01*
X148560003Y-92345203D01*
X148434040Y-92533720D01*
X148273720Y-92694040D01*
X148085203Y-92820003D01*
X147875734Y-92906768D01*
X147764549Y-92928884D01*
X147653365Y-92951000D01*
X147426635Y-92951000D01*
X147315451Y-92928884D01*
X147204266Y-92906768D01*
X146994797Y-92820003D01*
X146806280Y-92694040D01*
X146645960Y-92533720D01*
X146519997Y-92345203D01*
X146433232Y-92135734D01*
X146398596Y-91961607D01*
X146391483Y-91938158D01*
X146379932Y-91916547D01*
X146364387Y-91897605D01*
X146345445Y-91882060D01*
X146323834Y-91870509D01*
X146300385Y-91863396D01*
X146275999Y-91860994D01*
X146251613Y-91863396D01*
X146228164Y-91870509D01*
X146206553Y-91882060D01*
X146187611Y-91897605D01*
X146172066Y-91916547D01*
X146160515Y-91938158D01*
X146153402Y-91961607D01*
X146151000Y-91985993D01*
X146151000Y-92951000D01*
X143849000Y-92951000D01*
X143849000Y-90649000D01*
X146151000Y-90649000D01*
X146151000Y-91614007D01*
G37*
G36*
X188849943Y-85966248D02*
G01*
X189405189Y-86196238D01*
X189405190Y-86196239D01*
X189904899Y-86530134D01*
X190329866Y-86955101D01*
X190329867Y-86955103D01*
X190663762Y-87454811D01*
X190893752Y-88010057D01*
X191011000Y-88599501D01*
X191011000Y-89200499D01*
X190893752Y-89789943D01*
X190663762Y-90345189D01*
X190663761Y-90345190D01*
X190329866Y-90844899D01*
X189904899Y-91269866D01*
X189653347Y-91437948D01*
X189405189Y-91603762D01*
X188849943Y-91833752D01*
X188260499Y-91951000D01*
X187659501Y-91951000D01*
X187070057Y-91833752D01*
X186514811Y-91603762D01*
X186266653Y-91437948D01*
X186015101Y-91269866D01*
X185590134Y-90844899D01*
X185256239Y-90345190D01*
X185256238Y-90345189D01*
X185026248Y-89789943D01*
X184909000Y-89200499D01*
X184909000Y-88599501D01*
X185026248Y-88010057D01*
X185256238Y-87454811D01*
X185590133Y-86955103D01*
X185590134Y-86955101D01*
X186015101Y-86530134D01*
X186514810Y-86196239D01*
X186514811Y-86196238D01*
X187070057Y-85966248D01*
X187659501Y-85849000D01*
X188260499Y-85849000D01*
X188849943Y-85966248D01*
G37*
G36*
X118999943Y-85966248D02*
G01*
X119555189Y-86196238D01*
X119555190Y-86196239D01*
X120054899Y-86530134D01*
X120479866Y-86955101D01*
X120479867Y-86955103D01*
X120813762Y-87454811D01*
X121043752Y-88010057D01*
X121161000Y-88599501D01*
X121161000Y-89200499D01*
X121043752Y-89789943D01*
X120813762Y-90345189D01*
X120813761Y-90345190D01*
X120479866Y-90844899D01*
X120054899Y-91269866D01*
X119803347Y-91437948D01*
X119555189Y-91603762D01*
X118999943Y-91833752D01*
X118410499Y-91951000D01*
X117809501Y-91951000D01*
X117220057Y-91833752D01*
X116664811Y-91603762D01*
X116416653Y-91437948D01*
X116165101Y-91269866D01*
X115740134Y-90844899D01*
X115406239Y-90345190D01*
X115406238Y-90345189D01*
X115176248Y-89789943D01*
X115059000Y-89200499D01*
X115059000Y-88599501D01*
X115176248Y-88010057D01*
X115406238Y-87454811D01*
X115740133Y-86955103D01*
X115740134Y-86955101D01*
X116165101Y-86530134D01*
X116664810Y-86196239D01*
X116664811Y-86196238D01*
X117220057Y-85966248D01*
X117809501Y-85849000D01*
X118410499Y-85849000D01*
X118999943Y-85966248D01*
G37*
M02*
