G04 #@! TF.GenerationSoftware,KiCad,Pcbnew,(5.1.5)-3*
G04 #@! TF.CreationDate,2020-09-22T11:09:55+01:00*
G04 #@! TF.ProjectId,sensor_node_PCB,73656e73-6f72-45f6-9e6f-64655f504342,rev?*
G04 #@! TF.SameCoordinates,Original*
G04 #@! TF.FileFunction,Legend,Top*
G04 #@! TF.FilePolarity,Positive*
%FSLAX46Y46*%
G04 Gerber Fmt 4.6, Leading zero omitted, Abs format (unit mm)*
G04 Created by KiCad (PCBNEW (5.1.5)-3) date 2020-09-22 11:09:55*
%MOMM*%
%LPD*%
G04 APERTURE LIST*
%ADD10C,0.150000*%
%ADD11C,0.120000*%
%ADD12C,0.100000*%
G04 APERTURE END LIST*
D10*
X121762571Y-125674380D02*
X121762571Y-124674380D01*
X122095904Y-125388666D01*
X122429238Y-124674380D01*
X122429238Y-125674380D01*
X123095904Y-124674380D02*
X123286380Y-124674380D01*
X123381619Y-124722000D01*
X123476857Y-124817238D01*
X123524476Y-125007714D01*
X123524476Y-125341047D01*
X123476857Y-125531523D01*
X123381619Y-125626761D01*
X123286380Y-125674380D01*
X123095904Y-125674380D01*
X123000666Y-125626761D01*
X122905428Y-125531523D01*
X122857809Y-125341047D01*
X122857809Y-125007714D01*
X122905428Y-124817238D01*
X123000666Y-124722000D01*
X123095904Y-124674380D01*
X123953047Y-125674380D02*
X123953047Y-124674380D01*
X124191142Y-124674380D01*
X124334000Y-124722000D01*
X124429238Y-124817238D01*
X124476857Y-124912476D01*
X124524476Y-125102952D01*
X124524476Y-125245809D01*
X124476857Y-125436285D01*
X124429238Y-125531523D01*
X124334000Y-125626761D01*
X124191142Y-125674380D01*
X123953047Y-125674380D01*
X125286380Y-125150571D02*
X125429238Y-125198190D01*
X125476857Y-125245809D01*
X125524476Y-125341047D01*
X125524476Y-125483904D01*
X125476857Y-125579142D01*
X125429238Y-125626761D01*
X125334000Y-125674380D01*
X124953047Y-125674380D01*
X124953047Y-124674380D01*
X125286380Y-124674380D01*
X125381619Y-124722000D01*
X125429238Y-124769619D01*
X125476857Y-124864857D01*
X125476857Y-124960095D01*
X125429238Y-125055333D01*
X125381619Y-125102952D01*
X125286380Y-125150571D01*
X124953047Y-125150571D01*
X125953047Y-124674380D02*
X125953047Y-125483904D01*
X126000666Y-125579142D01*
X126048285Y-125626761D01*
X126143523Y-125674380D01*
X126334000Y-125674380D01*
X126429238Y-125626761D01*
X126476857Y-125579142D01*
X126524476Y-125483904D01*
X126524476Y-124674380D01*
X126953047Y-125626761D02*
X127095904Y-125674380D01*
X127334000Y-125674380D01*
X127429238Y-125626761D01*
X127476857Y-125579142D01*
X127524476Y-125483904D01*
X127524476Y-125388666D01*
X127476857Y-125293428D01*
X127429238Y-125245809D01*
X127334000Y-125198190D01*
X127143523Y-125150571D01*
X127048285Y-125102952D01*
X127000666Y-125055333D01*
X126953047Y-124960095D01*
X126953047Y-124864857D01*
X127000666Y-124769619D01*
X127048285Y-124722000D01*
X127143523Y-124674380D01*
X127381619Y-124674380D01*
X127524476Y-124722000D01*
X128667333Y-125626761D02*
X128810190Y-125674380D01*
X129048285Y-125674380D01*
X129143523Y-125626761D01*
X129191142Y-125579142D01*
X129238761Y-125483904D01*
X129238761Y-125388666D01*
X129191142Y-125293428D01*
X129143523Y-125245809D01*
X129048285Y-125198190D01*
X128857809Y-125150571D01*
X128762571Y-125102952D01*
X128714952Y-125055333D01*
X128667333Y-124960095D01*
X128667333Y-124864857D01*
X128714952Y-124769619D01*
X128762571Y-124722000D01*
X128857809Y-124674380D01*
X129095904Y-124674380D01*
X129238761Y-124722000D01*
X129667333Y-125150571D02*
X130000666Y-125150571D01*
X130143523Y-125674380D02*
X129667333Y-125674380D01*
X129667333Y-124674380D01*
X130143523Y-124674380D01*
X130572095Y-125674380D02*
X130572095Y-124674380D01*
X131143523Y-125674380D01*
X131143523Y-124674380D01*
X131572095Y-125626761D02*
X131714952Y-125674380D01*
X131953047Y-125674380D01*
X132048285Y-125626761D01*
X132095904Y-125579142D01*
X132143523Y-125483904D01*
X132143523Y-125388666D01*
X132095904Y-125293428D01*
X132048285Y-125245809D01*
X131953047Y-125198190D01*
X131762571Y-125150571D01*
X131667333Y-125102952D01*
X131619714Y-125055333D01*
X131572095Y-124960095D01*
X131572095Y-124864857D01*
X131619714Y-124769619D01*
X131667333Y-124722000D01*
X131762571Y-124674380D01*
X132000666Y-124674380D01*
X132143523Y-124722000D01*
X132762571Y-124674380D02*
X132953047Y-124674380D01*
X133048285Y-124722000D01*
X133143523Y-124817238D01*
X133191142Y-125007714D01*
X133191142Y-125341047D01*
X133143523Y-125531523D01*
X133048285Y-125626761D01*
X132953047Y-125674380D01*
X132762571Y-125674380D01*
X132667333Y-125626761D01*
X132572095Y-125531523D01*
X132524476Y-125341047D01*
X132524476Y-125007714D01*
X132572095Y-124817238D01*
X132667333Y-124722000D01*
X132762571Y-124674380D01*
X134191142Y-125674380D02*
X133857809Y-125198190D01*
X133619714Y-125674380D02*
X133619714Y-124674380D01*
X134000666Y-124674380D01*
X134095904Y-124722000D01*
X134143523Y-124769619D01*
X134191142Y-124864857D01*
X134191142Y-125007714D01*
X134143523Y-125102952D01*
X134095904Y-125150571D01*
X134000666Y-125198190D01*
X133619714Y-125198190D01*
X135381619Y-125674380D02*
X135381619Y-124674380D01*
X135953047Y-125674380D01*
X135953047Y-124674380D01*
X136619714Y-124674380D02*
X136810190Y-124674380D01*
X136905428Y-124722000D01*
X137000666Y-124817238D01*
X137048285Y-125007714D01*
X137048285Y-125341047D01*
X137000666Y-125531523D01*
X136905428Y-125626761D01*
X136810190Y-125674380D01*
X136619714Y-125674380D01*
X136524476Y-125626761D01*
X136429238Y-125531523D01*
X136381619Y-125341047D01*
X136381619Y-125007714D01*
X136429238Y-124817238D01*
X136524476Y-124722000D01*
X136619714Y-124674380D01*
X137476857Y-125674380D02*
X137476857Y-124674380D01*
X137714952Y-124674380D01*
X137857809Y-124722000D01*
X137953047Y-124817238D01*
X138000666Y-124912476D01*
X138048285Y-125102952D01*
X138048285Y-125245809D01*
X138000666Y-125436285D01*
X137953047Y-125531523D01*
X137857809Y-125626761D01*
X137714952Y-125674380D01*
X137476857Y-125674380D01*
X138476857Y-125150571D02*
X138810190Y-125150571D01*
X138953047Y-125674380D02*
X138476857Y-125674380D01*
X138476857Y-124674380D01*
X138953047Y-124674380D01*
X140000666Y-124674380D02*
X140334000Y-125674380D01*
X140667333Y-124674380D01*
X141191142Y-124674380D02*
X141286380Y-124674380D01*
X141381619Y-124722000D01*
X141429238Y-124769619D01*
X141476857Y-124864857D01*
X141524476Y-125055333D01*
X141524476Y-125293428D01*
X141476857Y-125483904D01*
X141429238Y-125579142D01*
X141381619Y-125626761D01*
X141286380Y-125674380D01*
X141191142Y-125674380D01*
X141095904Y-125626761D01*
X141048285Y-125579142D01*
X141000666Y-125483904D01*
X140953047Y-125293428D01*
X140953047Y-125055333D01*
X141000666Y-124864857D01*
X141048285Y-124769619D01*
X141095904Y-124722000D01*
X141191142Y-124674380D01*
X141953047Y-125579142D02*
X142000666Y-125626761D01*
X141953047Y-125674380D01*
X141905428Y-125626761D01*
X141953047Y-125579142D01*
X141953047Y-125674380D01*
X142381619Y-124769619D02*
X142429238Y-124722000D01*
X142524476Y-124674380D01*
X142762571Y-124674380D01*
X142857809Y-124722000D01*
X142905428Y-124769619D01*
X142953047Y-124864857D01*
X142953047Y-124960095D01*
X142905428Y-125102952D01*
X142334000Y-125674380D01*
X142953047Y-125674380D01*
D11*
X153179605Y-108250000D02*
G75*
G03X153179605Y-108250000I-179605J0D01*
G01*
X133402605Y-115951000D02*
G75*
G03X133402605Y-115951000I-179605J0D01*
G01*
X157988000Y-123698000D02*
G75*
G03X157988000Y-123698000I-127000J0D01*
G01*
X171577000Y-103378000D02*
G75*
G03X171577000Y-103378000I-127000J0D01*
G01*
X129286000Y-93599000D02*
G75*
G03X129286000Y-93599000I-127000J0D01*
G01*
D10*
X137731571Y-109099000D02*
X137660142Y-109063285D01*
X137553000Y-109063285D01*
X137445857Y-109099000D01*
X137374428Y-109170428D01*
X137338714Y-109241857D01*
X137303000Y-109384714D01*
X137303000Y-109491857D01*
X137338714Y-109634714D01*
X137374428Y-109706142D01*
X137445857Y-109777571D01*
X137553000Y-109813285D01*
X137624428Y-109813285D01*
X137731571Y-109777571D01*
X137767285Y-109741857D01*
X137767285Y-109491857D01*
X137624428Y-109491857D01*
X138088714Y-109813285D02*
X138088714Y-109063285D01*
X138517285Y-109813285D01*
X138517285Y-109063285D01*
X138874428Y-109813285D02*
X138874428Y-109063285D01*
X139053000Y-109063285D01*
X139160142Y-109099000D01*
X139231571Y-109170428D01*
X139267285Y-109241857D01*
X139303000Y-109384714D01*
X139303000Y-109491857D01*
X139267285Y-109634714D01*
X139231571Y-109706142D01*
X139160142Y-109777571D01*
X139053000Y-109813285D01*
X138874428Y-109813285D01*
X137886428Y-107273285D02*
X137886428Y-106523285D01*
X138136428Y-107059000D01*
X138386428Y-106523285D01*
X138386428Y-107273285D01*
X138886428Y-106523285D02*
X139029285Y-106523285D01*
X139100714Y-106559000D01*
X139172142Y-106630428D01*
X139207857Y-106773285D01*
X139207857Y-107023285D01*
X139172142Y-107166142D01*
X139100714Y-107237571D01*
X139029285Y-107273285D01*
X138886428Y-107273285D01*
X138815000Y-107237571D01*
X138743571Y-107166142D01*
X138707857Y-107023285D01*
X138707857Y-106773285D01*
X138743571Y-106630428D01*
X138815000Y-106559000D01*
X138886428Y-106523285D01*
X139493571Y-107237571D02*
X139600714Y-107273285D01*
X139779285Y-107273285D01*
X139850714Y-107237571D01*
X139886428Y-107201857D01*
X139922142Y-107130428D01*
X139922142Y-107059000D01*
X139886428Y-106987571D01*
X139850714Y-106951857D01*
X139779285Y-106916142D01*
X139636428Y-106880428D01*
X139565000Y-106844714D01*
X139529285Y-106809000D01*
X139493571Y-106737571D01*
X139493571Y-106666142D01*
X139529285Y-106594714D01*
X139565000Y-106559000D01*
X139636428Y-106523285D01*
X139815000Y-106523285D01*
X139922142Y-106559000D01*
X140243571Y-107273285D02*
X140243571Y-106523285D01*
X138287142Y-103983285D02*
X137930000Y-103983285D01*
X137894285Y-104340428D01*
X137930000Y-104304714D01*
X138001428Y-104269000D01*
X138180000Y-104269000D01*
X138251428Y-104304714D01*
X138287142Y-104340428D01*
X138322857Y-104411857D01*
X138322857Y-104590428D01*
X138287142Y-104661857D01*
X138251428Y-104697571D01*
X138180000Y-104733285D01*
X138001428Y-104733285D01*
X137930000Y-104697571D01*
X137894285Y-104661857D01*
X138537142Y-103983285D02*
X138787142Y-104733285D01*
X139037142Y-103983285D01*
X125700285Y-109813285D02*
X125450285Y-109456142D01*
X125271714Y-109813285D02*
X125271714Y-109063285D01*
X125557428Y-109063285D01*
X125628857Y-109099000D01*
X125664571Y-109134714D01*
X125700285Y-109206142D01*
X125700285Y-109313285D01*
X125664571Y-109384714D01*
X125628857Y-109420428D01*
X125557428Y-109456142D01*
X125271714Y-109456142D01*
X125986000Y-109777571D02*
X126093142Y-109813285D01*
X126271714Y-109813285D01*
X126343142Y-109777571D01*
X126378857Y-109741857D01*
X126414571Y-109670428D01*
X126414571Y-109599000D01*
X126378857Y-109527571D01*
X126343142Y-109491857D01*
X126271714Y-109456142D01*
X126128857Y-109420428D01*
X126057428Y-109384714D01*
X126021714Y-109349000D01*
X125986000Y-109277571D01*
X125986000Y-109206142D01*
X126021714Y-109134714D01*
X126057428Y-109099000D01*
X126128857Y-109063285D01*
X126307428Y-109063285D01*
X126414571Y-109099000D01*
X126628857Y-109063285D02*
X127057428Y-109063285D01*
X126843142Y-109813285D02*
X126843142Y-109063285D01*
X125146714Y-107364571D02*
X125253857Y-107400285D01*
X125432428Y-107400285D01*
X125503857Y-107364571D01*
X125539571Y-107328857D01*
X125575285Y-107257428D01*
X125575285Y-107186000D01*
X125539571Y-107114571D01*
X125503857Y-107078857D01*
X125432428Y-107043142D01*
X125289571Y-107007428D01*
X125218142Y-106971714D01*
X125182428Y-106936000D01*
X125146714Y-106864571D01*
X125146714Y-106793142D01*
X125182428Y-106721714D01*
X125218142Y-106686000D01*
X125289571Y-106650285D01*
X125468142Y-106650285D01*
X125575285Y-106686000D01*
X126325285Y-107328857D02*
X126289571Y-107364571D01*
X126182428Y-107400285D01*
X126111000Y-107400285D01*
X126003857Y-107364571D01*
X125932428Y-107293142D01*
X125896714Y-107221714D01*
X125861000Y-107078857D01*
X125861000Y-106971714D01*
X125896714Y-106828857D01*
X125932428Y-106757428D01*
X126003857Y-106686000D01*
X126111000Y-106650285D01*
X126182428Y-106650285D01*
X126289571Y-106686000D01*
X126325285Y-106721714D01*
X126646714Y-107400285D02*
X126646714Y-106650285D01*
X127075285Y-107400285D02*
X126753857Y-106971714D01*
X127075285Y-106650285D02*
X126646714Y-107078857D01*
X124932428Y-104733285D02*
X124932428Y-103983285D01*
X125182428Y-104519000D01*
X125432428Y-103983285D01*
X125432428Y-104733285D01*
X125789571Y-104733285D02*
X125789571Y-103983285D01*
X126111000Y-104697571D02*
X126218142Y-104733285D01*
X126396714Y-104733285D01*
X126468142Y-104697571D01*
X126503857Y-104661857D01*
X126539571Y-104590428D01*
X126539571Y-104519000D01*
X126503857Y-104447571D01*
X126468142Y-104411857D01*
X126396714Y-104376142D01*
X126253857Y-104340428D01*
X126182428Y-104304714D01*
X126146714Y-104269000D01*
X126111000Y-104197571D01*
X126111000Y-104126142D01*
X126146714Y-104054714D01*
X126182428Y-104019000D01*
X126253857Y-103983285D01*
X126432428Y-103983285D01*
X126539571Y-104019000D01*
X127003857Y-103983285D02*
X127146714Y-103983285D01*
X127218142Y-104019000D01*
X127289571Y-104090428D01*
X127325285Y-104233285D01*
X127325285Y-104483285D01*
X127289571Y-104626142D01*
X127218142Y-104697571D01*
X127146714Y-104733285D01*
X127003857Y-104733285D01*
X126932428Y-104697571D01*
X126861000Y-104626142D01*
X126825285Y-104483285D01*
X126825285Y-104233285D01*
X126861000Y-104090428D01*
X126932428Y-104019000D01*
X127003857Y-103983285D01*
D11*
X128322605Y-102870000D02*
G75*
G03X128322605Y-102870000I-179605J0D01*
G01*
D10*
X150825000Y-107925000D02*
X150825000Y-107700000D01*
X143575000Y-107925000D02*
X143575000Y-107600000D01*
X143575000Y-100675000D02*
X143575000Y-101000000D01*
X150825000Y-100675000D02*
X150825000Y-101000000D01*
X150825000Y-107925000D02*
X150500000Y-107925000D01*
X150825000Y-100675000D02*
X150500000Y-100675000D01*
X143575000Y-100675000D02*
X143900000Y-100675000D01*
X143575000Y-107925000D02*
X143900000Y-107925000D01*
X150825000Y-107700000D02*
X152250000Y-107700000D01*
D11*
X140617779Y-94641000D02*
X140292221Y-94641000D01*
X140617779Y-95661000D02*
X140292221Y-95661000D01*
X110590000Y-105924721D02*
X110590000Y-106250279D01*
X111610000Y-105924721D02*
X111610000Y-106250279D01*
X140292221Y-96800000D02*
X140617779Y-96800000D01*
X140292221Y-97820000D02*
X140617779Y-97820000D01*
X126649721Y-100610000D02*
X126975279Y-100610000D01*
X126649721Y-99590000D02*
X126975279Y-99590000D01*
X166910000Y-120049721D02*
X166910000Y-120375279D01*
X165890000Y-120049721D02*
X165890000Y-120375279D01*
X182649721Y-116290000D02*
X182975279Y-116290000D01*
X182649721Y-117310000D02*
X182975279Y-117310000D01*
X183050279Y-112143000D02*
X182724721Y-112143000D01*
X183050279Y-111123000D02*
X182724721Y-111123000D01*
X111800000Y-102550000D02*
X113800000Y-102550000D01*
X113800000Y-102550000D02*
X113800000Y-98650000D01*
X111800000Y-102550000D02*
X111800000Y-98650000D01*
X113212500Y-93865000D02*
X110927500Y-93865000D01*
X110927500Y-93865000D02*
X110927500Y-95335000D01*
X110927500Y-95335000D02*
X113212500Y-95335000D01*
X184800000Y-107400000D02*
X180900000Y-107400000D01*
X184800000Y-105400000D02*
X180900000Y-105400000D01*
X184800000Y-107400000D02*
X184800000Y-105400000D01*
X113310000Y-111897936D02*
X113310000Y-113102064D01*
X111490000Y-111897936D02*
X111490000Y-113102064D01*
X130108000Y-103092000D02*
X135308000Y-103092000D01*
X130108000Y-110832000D02*
X135308000Y-110832000D01*
X128668000Y-103662000D02*
X130108000Y-103662000D01*
X130108000Y-103092000D02*
X130108000Y-103662000D01*
X135308000Y-103092000D02*
X135308000Y-103662000D01*
X130108000Y-110262000D02*
X130108000Y-110832000D01*
X135308000Y-110262000D02*
X135308000Y-110832000D01*
X130108000Y-105182000D02*
X130108000Y-106202000D01*
X135308000Y-105182000D02*
X135308000Y-106202000D01*
X130108000Y-107722000D02*
X130108000Y-108742000D01*
X135308000Y-107722000D02*
X135308000Y-108742000D01*
X192490000Y-123530000D02*
X204710000Y-123530000D01*
X204710000Y-123530000D02*
X204710000Y-92830000D01*
X204710000Y-92830000D02*
X192490000Y-92830000D01*
X192490000Y-92830000D02*
X192490000Y-123530000D01*
X203210000Y-123530000D02*
X201410000Y-123530000D01*
X201410000Y-123530000D02*
X201410000Y-92830000D01*
X201410000Y-92830000D02*
X203210000Y-92830000D01*
X203210000Y-92830000D02*
X203210000Y-123530000D01*
X204710000Y-121880000D02*
X204710000Y-119880000D01*
X204710000Y-119880000D02*
X203210000Y-120130000D01*
X203210000Y-120130000D02*
X203210000Y-121630000D01*
X203210000Y-121630000D02*
X204710000Y-121880000D01*
X204710000Y-96480000D02*
X204710000Y-94480000D01*
X204710000Y-94480000D02*
X203210000Y-94730000D01*
X203210000Y-94730000D02*
X203210000Y-96230000D01*
X203210000Y-96230000D02*
X204710000Y-96480000D01*
X204710000Y-116800000D02*
X204710000Y-114800000D01*
X204710000Y-114800000D02*
X203210000Y-115050000D01*
X203210000Y-115050000D02*
X203210000Y-116550000D01*
X203210000Y-116550000D02*
X204710000Y-116800000D01*
X204710000Y-111720000D02*
X204710000Y-109720000D01*
X204710000Y-109720000D02*
X203210000Y-109970000D01*
X203210000Y-109970000D02*
X203210000Y-111470000D01*
X203210000Y-111470000D02*
X204710000Y-111720000D01*
X204710000Y-106640000D02*
X204710000Y-104640000D01*
X204710000Y-104640000D02*
X203210000Y-104890000D01*
X203210000Y-104890000D02*
X203210000Y-106390000D01*
X203210000Y-106390000D02*
X204710000Y-106640000D01*
X204710000Y-101560000D02*
X204710000Y-99560000D01*
X204710000Y-99560000D02*
X203210000Y-99810000D01*
X203210000Y-99810000D02*
X203210000Y-101310000D01*
X203210000Y-101310000D02*
X204710000Y-101560000D01*
X191690000Y-115500000D02*
X192290000Y-115800000D01*
X192290000Y-115800000D02*
X191690000Y-116100000D01*
X191690000Y-116100000D02*
X191690000Y-115500000D01*
X143440000Y-94400000D02*
X159260000Y-94400000D01*
X143440000Y-89100000D02*
X159260000Y-89100000D01*
X143440000Y-88640000D02*
X159260000Y-88640000D01*
X143440000Y-94960000D02*
X159260000Y-94960000D01*
X143440000Y-88640000D02*
X143440000Y-94960000D01*
X159260000Y-88640000D02*
X159260000Y-94960000D01*
X143200000Y-94460000D02*
X143200000Y-95200000D01*
X143200000Y-95200000D02*
X143700000Y-95200000D01*
X123422000Y-97271000D02*
X122622000Y-97271000D01*
X125672000Y-94671000D02*
X125672000Y-97271000D01*
X125672000Y-97271000D02*
X124722000Y-97271000D01*
X146430000Y-121040000D02*
X145500000Y-121040000D01*
X143270000Y-121040000D02*
X144200000Y-121040000D01*
X143270000Y-121040000D02*
X143270000Y-123200000D01*
X146430000Y-121040000D02*
X146430000Y-122500000D01*
X152080000Y-120940000D02*
X152080000Y-122400000D01*
X148920000Y-120940000D02*
X148920000Y-123100000D01*
X148920000Y-120940000D02*
X149850000Y-120940000D01*
X152080000Y-120940000D02*
X151150000Y-120940000D01*
X118350279Y-112290000D02*
X118024721Y-112290000D01*
X118350279Y-113310000D02*
X118024721Y-113310000D01*
X132549721Y-101010000D02*
X132875279Y-101010000D01*
X132549721Y-99990000D02*
X132875279Y-99990000D01*
X117849721Y-95110000D02*
X118175279Y-95110000D01*
X117849721Y-94090000D02*
X118175279Y-94090000D01*
X118933279Y-117124000D02*
X118607721Y-117124000D01*
X118933279Y-116104000D02*
X118607721Y-116104000D01*
X118806279Y-114679000D02*
X118480721Y-114679000D01*
X118806279Y-115699000D02*
X118480721Y-115699000D01*
X140810000Y-121850279D02*
X140810000Y-121524721D01*
X139790000Y-121850279D02*
X139790000Y-121524721D01*
X155510000Y-122262779D02*
X155510000Y-121937221D01*
X154490000Y-122262779D02*
X154490000Y-121937221D01*
X143449721Y-114190000D02*
X143775279Y-114190000D01*
X143449721Y-115210000D02*
X143775279Y-115210000D01*
X158633279Y-119890000D02*
X158307721Y-119890000D01*
X158633279Y-118870000D02*
X158307721Y-118870000D01*
X183075279Y-114010000D02*
X182749721Y-114010000D01*
X183075279Y-112990000D02*
X182749721Y-112990000D01*
X182691721Y-109345000D02*
X183017279Y-109345000D01*
X182691721Y-110365000D02*
X183017279Y-110365000D01*
X151375279Y-114690000D02*
X151049721Y-114690000D01*
X151375279Y-115710000D02*
X151049721Y-115710000D01*
X119603301Y-105492893D02*
G75*
G03X119603301Y-105492893I-1414214J0D01*
G01*
X118295153Y-109799174D02*
X122495368Y-105598959D01*
X113882807Y-105386827D02*
X118083021Y-101186613D01*
X116930437Y-108646589D02*
X115035391Y-106751543D01*
X119447737Y-102339197D02*
X121342784Y-104234243D01*
X132835000Y-93861000D02*
X129385000Y-93861000D01*
X132835000Y-93861000D02*
X134785000Y-93861000D01*
X132835000Y-98981000D02*
X130885000Y-98981000D01*
X132835000Y-98981000D02*
X134785000Y-98981000D01*
X166210000Y-111140000D02*
X164950000Y-111140000D01*
X159390000Y-111140000D02*
X160650000Y-111140000D01*
X166210000Y-114900000D02*
X166210000Y-111140000D01*
X159390000Y-117150000D02*
X159390000Y-111140000D01*
D10*
X132771000Y-117333000D02*
X133881000Y-117333000D01*
X133881000Y-121483000D02*
X132771000Y-121483000D01*
X124931000Y-121483000D02*
X126041000Y-121483000D01*
X124931000Y-117333000D02*
X126041000Y-117333000D01*
X133881000Y-117333000D02*
X133881000Y-121483000D01*
X124931000Y-117333000D02*
X124931000Y-121483000D01*
X132771000Y-117333000D02*
X132771000Y-116208000D01*
D11*
X170500000Y-112190000D02*
X176510000Y-112190000D01*
X172750000Y-119010000D02*
X176510000Y-119010000D01*
X176510000Y-112190000D02*
X176510000Y-113450000D01*
X176510000Y-119010000D02*
X176510000Y-117750000D01*
X175000000Y-108960000D02*
X176950000Y-108960000D01*
X175000000Y-108960000D02*
X173050000Y-108960000D01*
X175000000Y-103840000D02*
X176950000Y-103840000D01*
X175000000Y-103840000D02*
X171550000Y-103840000D01*
D12*
X161060000Y-123450000D02*
X161060000Y-123300000D01*
X161050000Y-123450000D02*
X160900000Y-123450000D01*
X161050000Y-120750000D02*
X160900000Y-120750000D01*
X161050000Y-120750000D02*
X161050000Y-120900000D01*
X158350000Y-120900000D02*
X158350000Y-120750000D01*
X158350000Y-120750000D02*
X158500000Y-120750000D01*
X158500000Y-123450000D02*
X158250000Y-123450000D01*
D11*
X153465519Y-100509004D02*
X157531383Y-104574868D01*
X157531383Y-104574868D02*
X160076968Y-102029283D01*
X160076968Y-102029283D02*
X156011104Y-97963419D01*
X171510000Y-92770000D02*
X171510000Y-95430000D01*
X181730000Y-92770000D02*
X171510000Y-92770000D01*
X181730000Y-95430000D02*
X171510000Y-95430000D01*
X181730000Y-92770000D02*
X181730000Y-95430000D01*
X183000000Y-92770000D02*
X184330000Y-92770000D01*
X184330000Y-92770000D02*
X184330000Y-94100000D01*
X181730000Y-122470000D02*
X181730000Y-125130000D01*
X181730000Y-125130000D02*
X171510000Y-125130000D01*
X181730000Y-122470000D02*
X171510000Y-122470000D01*
X183000000Y-122470000D02*
X184330000Y-122470000D01*
X184330000Y-122470000D02*
X184330000Y-123800000D01*
X171510000Y-122470000D02*
X171510000Y-125130000D01*
X188400000Y-95800000D02*
X188400000Y-122100000D01*
X188400000Y-122100000D02*
X168800000Y-122100000D01*
X168800000Y-122100000D02*
X168800000Y-95800000D01*
X168800000Y-95800000D02*
X188400000Y-95800000D01*
D10*
X112924000Y-123138000D02*
X113924000Y-123138000D01*
X111124000Y-118738000D02*
X118924000Y-118738000D01*
X111124000Y-122238000D02*
X111124000Y-122838000D01*
X111124000Y-122838000D02*
X118924000Y-122838000D01*
X118924000Y-122838000D02*
X118924000Y-122238000D01*
X111124000Y-119338000D02*
X111124000Y-118738000D01*
X118924000Y-118738000D02*
X118924000Y-119338000D01*
D11*
X141510000Y-109874721D02*
X141510000Y-110200279D01*
X140490000Y-109874721D02*
X140490000Y-110200279D01*
X161875279Y-100410000D02*
X161549721Y-100410000D01*
X161875279Y-99390000D02*
X161549721Y-99390000D01*
X159075279Y-97090000D02*
X158749721Y-97090000D01*
X159075279Y-98110000D02*
X158749721Y-98110000D01*
D10*
X146438095Y-109802380D02*
X146438095Y-110611904D01*
X146485714Y-110707142D01*
X146533333Y-110754761D01*
X146628571Y-110802380D01*
X146819047Y-110802380D01*
X146914285Y-110754761D01*
X146961904Y-110707142D01*
X147009523Y-110611904D01*
X147009523Y-109802380D01*
X147961904Y-109802380D02*
X147485714Y-109802380D01*
X147438095Y-110278571D01*
X147485714Y-110230952D01*
X147580952Y-110183333D01*
X147819047Y-110183333D01*
X147914285Y-110230952D01*
X147961904Y-110278571D01*
X148009523Y-110373809D01*
X148009523Y-110611904D01*
X147961904Y-110707142D01*
X147914285Y-110754761D01*
X147819047Y-110802380D01*
X147580952Y-110802380D01*
X147485714Y-110754761D01*
X147438095Y-110707142D01*
X140168333Y-94083142D02*
X140120714Y-94130761D01*
X139977857Y-94178380D01*
X139882619Y-94178380D01*
X139739761Y-94130761D01*
X139644523Y-94035523D01*
X139596904Y-93940285D01*
X139549285Y-93749809D01*
X139549285Y-93606952D01*
X139596904Y-93416476D01*
X139644523Y-93321238D01*
X139739761Y-93226000D01*
X139882619Y-93178380D01*
X139977857Y-93178380D01*
X140120714Y-93226000D01*
X140168333Y-93273619D01*
X141120714Y-94178380D02*
X140549285Y-94178380D01*
X140835000Y-94178380D02*
X140835000Y-93178380D01*
X140739761Y-93321238D01*
X140644523Y-93416476D01*
X140549285Y-93464095D01*
X112887142Y-106254166D02*
X112934761Y-106301785D01*
X112982380Y-106444642D01*
X112982380Y-106539880D01*
X112934761Y-106682738D01*
X112839523Y-106777976D01*
X112744285Y-106825595D01*
X112553809Y-106873214D01*
X112410952Y-106873214D01*
X112220476Y-106825595D01*
X112125238Y-106777976D01*
X112030000Y-106682738D01*
X111982380Y-106539880D01*
X111982380Y-106444642D01*
X112030000Y-106301785D01*
X112077619Y-106254166D01*
X112077619Y-105873214D02*
X112030000Y-105825595D01*
X111982380Y-105730357D01*
X111982380Y-105492261D01*
X112030000Y-105397023D01*
X112077619Y-105349404D01*
X112172857Y-105301785D01*
X112268095Y-105301785D01*
X112410952Y-105349404D01*
X112982380Y-105920833D01*
X112982380Y-105301785D01*
X140288333Y-99290142D02*
X140240714Y-99337761D01*
X140097857Y-99385380D01*
X140002619Y-99385380D01*
X139859761Y-99337761D01*
X139764523Y-99242523D01*
X139716904Y-99147285D01*
X139669285Y-98956809D01*
X139669285Y-98813952D01*
X139716904Y-98623476D01*
X139764523Y-98528238D01*
X139859761Y-98433000D01*
X140002619Y-98385380D01*
X140097857Y-98385380D01*
X140240714Y-98433000D01*
X140288333Y-98480619D01*
X140621666Y-98385380D02*
X141240714Y-98385380D01*
X140907380Y-98766333D01*
X141050238Y-98766333D01*
X141145476Y-98813952D01*
X141193095Y-98861571D01*
X141240714Y-98956809D01*
X141240714Y-99194904D01*
X141193095Y-99290142D01*
X141145476Y-99337761D01*
X141050238Y-99385380D01*
X140764523Y-99385380D01*
X140669285Y-99337761D01*
X140621666Y-99290142D01*
X126645833Y-99027142D02*
X126598214Y-99074761D01*
X126455357Y-99122380D01*
X126360119Y-99122380D01*
X126217261Y-99074761D01*
X126122023Y-98979523D01*
X126074404Y-98884285D01*
X126026785Y-98693809D01*
X126026785Y-98550952D01*
X126074404Y-98360476D01*
X126122023Y-98265238D01*
X126217261Y-98170000D01*
X126360119Y-98122380D01*
X126455357Y-98122380D01*
X126598214Y-98170000D01*
X126645833Y-98217619D01*
X127502976Y-98455714D02*
X127502976Y-99122380D01*
X127264880Y-98074761D02*
X127026785Y-98789047D01*
X127645833Y-98789047D01*
X168187142Y-120379166D02*
X168234761Y-120426785D01*
X168282380Y-120569642D01*
X168282380Y-120664880D01*
X168234761Y-120807738D01*
X168139523Y-120902976D01*
X168044285Y-120950595D01*
X167853809Y-120998214D01*
X167710952Y-120998214D01*
X167520476Y-120950595D01*
X167425238Y-120902976D01*
X167330000Y-120807738D01*
X167282380Y-120664880D01*
X167282380Y-120569642D01*
X167330000Y-120426785D01*
X167377619Y-120379166D01*
X167282380Y-119474404D02*
X167282380Y-119950595D01*
X167758571Y-119998214D01*
X167710952Y-119950595D01*
X167663333Y-119855357D01*
X167663333Y-119617261D01*
X167710952Y-119522023D01*
X167758571Y-119474404D01*
X167853809Y-119426785D01*
X168091904Y-119426785D01*
X168187142Y-119474404D01*
X168234761Y-119522023D01*
X168282380Y-119617261D01*
X168282380Y-119855357D01*
X168234761Y-119950595D01*
X168187142Y-119998214D01*
X182645833Y-115727142D02*
X182598214Y-115774761D01*
X182455357Y-115822380D01*
X182360119Y-115822380D01*
X182217261Y-115774761D01*
X182122023Y-115679523D01*
X182074404Y-115584285D01*
X182026785Y-115393809D01*
X182026785Y-115250952D01*
X182074404Y-115060476D01*
X182122023Y-114965238D01*
X182217261Y-114870000D01*
X182360119Y-114822380D01*
X182455357Y-114822380D01*
X182598214Y-114870000D01*
X182645833Y-114917619D01*
X183502976Y-114822380D02*
X183312500Y-114822380D01*
X183217261Y-114870000D01*
X183169642Y-114917619D01*
X183074404Y-115060476D01*
X183026785Y-115250952D01*
X183026785Y-115631904D01*
X183074404Y-115727142D01*
X183122023Y-115774761D01*
X183217261Y-115822380D01*
X183407738Y-115822380D01*
X183502976Y-115774761D01*
X183550595Y-115727142D01*
X183598214Y-115631904D01*
X183598214Y-115393809D01*
X183550595Y-115298571D01*
X183502976Y-115250952D01*
X183407738Y-115203333D01*
X183217261Y-115203333D01*
X183122023Y-115250952D01*
X183074404Y-115298571D01*
X183026785Y-115393809D01*
X185412142Y-112117142D02*
X185364523Y-112164761D01*
X185221666Y-112212380D01*
X185126428Y-112212380D01*
X184983571Y-112164761D01*
X184888333Y-112069523D01*
X184840714Y-111974285D01*
X184793095Y-111783809D01*
X184793095Y-111640952D01*
X184840714Y-111450476D01*
X184888333Y-111355238D01*
X184983571Y-111260000D01*
X185126428Y-111212380D01*
X185221666Y-111212380D01*
X185364523Y-111260000D01*
X185412142Y-111307619D01*
X186364523Y-112212380D02*
X185793095Y-112212380D01*
X186078809Y-112212380D02*
X186078809Y-111212380D01*
X185983571Y-111355238D01*
X185888333Y-111450476D01*
X185793095Y-111498095D01*
X187316904Y-112212380D02*
X186745476Y-112212380D01*
X187031190Y-112212380D02*
X187031190Y-111212380D01*
X186935952Y-111355238D01*
X186840714Y-111450476D01*
X186745476Y-111498095D01*
X111252380Y-101038095D02*
X110252380Y-101038095D01*
X110252380Y-100800000D01*
X110300000Y-100657142D01*
X110395238Y-100561904D01*
X110490476Y-100514285D01*
X110680952Y-100466666D01*
X110823809Y-100466666D01*
X111014285Y-100514285D01*
X111109523Y-100561904D01*
X111204761Y-100657142D01*
X111252380Y-100800000D01*
X111252380Y-101038095D01*
X111252380Y-99514285D02*
X111252380Y-100085714D01*
X111252380Y-99800000D02*
X110252380Y-99800000D01*
X110395238Y-99895238D01*
X110490476Y-99990476D01*
X110538095Y-100085714D01*
X111674404Y-93622380D02*
X111674404Y-92622380D01*
X111912500Y-92622380D01*
X112055357Y-92670000D01*
X112150595Y-92765238D01*
X112198214Y-92860476D01*
X112245833Y-93050952D01*
X112245833Y-93193809D01*
X112198214Y-93384285D01*
X112150595Y-93479523D01*
X112055357Y-93574761D01*
X111912500Y-93622380D01*
X111674404Y-93622380D01*
X112626785Y-92717619D02*
X112674404Y-92670000D01*
X112769642Y-92622380D01*
X113007738Y-92622380D01*
X113102976Y-92670000D01*
X113150595Y-92717619D01*
X113198214Y-92812857D01*
X113198214Y-92908095D01*
X113150595Y-93050952D01*
X112579166Y-93622380D01*
X113198214Y-93622380D01*
X181811904Y-104592380D02*
X181811904Y-103592380D01*
X182050000Y-103592380D01*
X182192857Y-103640000D01*
X182288095Y-103735238D01*
X182335714Y-103830476D01*
X182383333Y-104020952D01*
X182383333Y-104163809D01*
X182335714Y-104354285D01*
X182288095Y-104449523D01*
X182192857Y-104544761D01*
X182050000Y-104592380D01*
X181811904Y-104592380D01*
X182716666Y-103592380D02*
X183383333Y-103592380D01*
X182954761Y-104592380D01*
X114148571Y-112833333D02*
X114148571Y-113166666D01*
X114672380Y-113166666D02*
X113672380Y-113166666D01*
X113672380Y-112690476D01*
X114672380Y-111785714D02*
X114672380Y-112357142D01*
X114672380Y-112071428D02*
X113672380Y-112071428D01*
X113815238Y-112166666D01*
X113910476Y-112261904D01*
X113958095Y-112357142D01*
X130755619Y-102544380D02*
X130755619Y-101544380D01*
X131803238Y-102449142D02*
X131755619Y-102496761D01*
X131612761Y-102544380D01*
X131517523Y-102544380D01*
X131374666Y-102496761D01*
X131279428Y-102401523D01*
X131231809Y-102306285D01*
X131184190Y-102115809D01*
X131184190Y-101972952D01*
X131231809Y-101782476D01*
X131279428Y-101687238D01*
X131374666Y-101592000D01*
X131517523Y-101544380D01*
X131612761Y-101544380D01*
X131755619Y-101592000D01*
X131803238Y-101639619D01*
X132184190Y-102496761D02*
X132327047Y-102544380D01*
X132565142Y-102544380D01*
X132660380Y-102496761D01*
X132708000Y-102449142D01*
X132755619Y-102353904D01*
X132755619Y-102258666D01*
X132708000Y-102163428D01*
X132660380Y-102115809D01*
X132565142Y-102068190D01*
X132374666Y-102020571D01*
X132279428Y-101972952D01*
X132231809Y-101925333D01*
X132184190Y-101830095D01*
X132184190Y-101734857D01*
X132231809Y-101639619D01*
X132279428Y-101592000D01*
X132374666Y-101544380D01*
X132612761Y-101544380D01*
X132755619Y-101592000D01*
X133184190Y-102544380D02*
X133184190Y-101544380D01*
X133565142Y-101544380D01*
X133660380Y-101592000D01*
X133708000Y-101639619D01*
X133755619Y-101734857D01*
X133755619Y-101877714D01*
X133708000Y-101972952D01*
X133660380Y-102020571D01*
X133565142Y-102068190D01*
X133184190Y-102068190D01*
X134136571Y-101639619D02*
X134184190Y-101592000D01*
X134279428Y-101544380D01*
X134517523Y-101544380D01*
X134612761Y-101592000D01*
X134660380Y-101639619D01*
X134708000Y-101734857D01*
X134708000Y-101830095D01*
X134660380Y-101972952D01*
X134088952Y-102544380D01*
X134708000Y-102544380D01*
X190852380Y-108513333D02*
X191566666Y-108513333D01*
X191709523Y-108560952D01*
X191804761Y-108656190D01*
X191852380Y-108799047D01*
X191852380Y-108894285D01*
X190852380Y-108132380D02*
X190852380Y-107513333D01*
X191233333Y-107846666D01*
X191233333Y-107703809D01*
X191280952Y-107608571D01*
X191328571Y-107560952D01*
X191423809Y-107513333D01*
X191661904Y-107513333D01*
X191757142Y-107560952D01*
X191804761Y-107608571D01*
X191852380Y-107703809D01*
X191852380Y-107989523D01*
X191804761Y-108084761D01*
X191757142Y-108132380D01*
X150611904Y-88092380D02*
X150611904Y-87092380D01*
X150992857Y-87092380D01*
X151088095Y-87140000D01*
X151135714Y-87187619D01*
X151183333Y-87282857D01*
X151183333Y-87425714D01*
X151135714Y-87520952D01*
X151088095Y-87568571D01*
X150992857Y-87616190D01*
X150611904Y-87616190D01*
X152135714Y-88092380D02*
X151564285Y-88092380D01*
X151850000Y-88092380D02*
X151850000Y-87092380D01*
X151754761Y-87235238D01*
X151659523Y-87330476D01*
X151564285Y-87378095D01*
X126969619Y-96516238D02*
X126922000Y-96611476D01*
X126826761Y-96706714D01*
X126683904Y-96849571D01*
X126636285Y-96944809D01*
X126636285Y-97040047D01*
X126874380Y-96992428D02*
X126826761Y-97087666D01*
X126731523Y-97182904D01*
X126541047Y-97230523D01*
X126207714Y-97230523D01*
X126017238Y-97182904D01*
X125922000Y-97087666D01*
X125874380Y-96992428D01*
X125874380Y-96801952D01*
X125922000Y-96706714D01*
X126017238Y-96611476D01*
X126207714Y-96563857D01*
X126541047Y-96563857D01*
X126731523Y-96611476D01*
X126826761Y-96706714D01*
X126874380Y-96801952D01*
X126874380Y-96992428D01*
X126874380Y-95611476D02*
X126874380Y-96182904D01*
X126874380Y-95897190D02*
X125874380Y-95897190D01*
X126017238Y-95992428D01*
X126112476Y-96087666D01*
X126160095Y-96182904D01*
X142897619Y-121895238D02*
X142850000Y-121990476D01*
X142754761Y-122085714D01*
X142611904Y-122228571D01*
X142564285Y-122323809D01*
X142564285Y-122419047D01*
X142802380Y-122371428D02*
X142754761Y-122466666D01*
X142659523Y-122561904D01*
X142469047Y-122609523D01*
X142135714Y-122609523D01*
X141945238Y-122561904D01*
X141850000Y-122466666D01*
X141802380Y-122371428D01*
X141802380Y-122180952D01*
X141850000Y-122085714D01*
X141945238Y-121990476D01*
X142135714Y-121942857D01*
X142469047Y-121942857D01*
X142659523Y-121990476D01*
X142754761Y-122085714D01*
X142802380Y-122180952D01*
X142802380Y-122371428D01*
X141897619Y-121561904D02*
X141850000Y-121514285D01*
X141802380Y-121419047D01*
X141802380Y-121180952D01*
X141850000Y-121085714D01*
X141897619Y-121038095D01*
X141992857Y-120990476D01*
X142088095Y-120990476D01*
X142230952Y-121038095D01*
X142802380Y-121609523D01*
X142802380Y-120990476D01*
X148547619Y-121795238D02*
X148500000Y-121890476D01*
X148404761Y-121985714D01*
X148261904Y-122128571D01*
X148214285Y-122223809D01*
X148214285Y-122319047D01*
X148452380Y-122271428D02*
X148404761Y-122366666D01*
X148309523Y-122461904D01*
X148119047Y-122509523D01*
X147785714Y-122509523D01*
X147595238Y-122461904D01*
X147500000Y-122366666D01*
X147452380Y-122271428D01*
X147452380Y-122080952D01*
X147500000Y-121985714D01*
X147595238Y-121890476D01*
X147785714Y-121842857D01*
X148119047Y-121842857D01*
X148309523Y-121890476D01*
X148404761Y-121985714D01*
X148452380Y-122080952D01*
X148452380Y-122271428D01*
X147452380Y-121509523D02*
X147452380Y-120890476D01*
X147833333Y-121223809D01*
X147833333Y-121080952D01*
X147880952Y-120985714D01*
X147928571Y-120938095D01*
X148023809Y-120890476D01*
X148261904Y-120890476D01*
X148357142Y-120938095D01*
X148404761Y-120985714D01*
X148452380Y-121080952D01*
X148452380Y-121366666D01*
X148404761Y-121461904D01*
X148357142Y-121509523D01*
X118197333Y-111958380D02*
X117864000Y-111482190D01*
X117625904Y-111958380D02*
X117625904Y-110958380D01*
X118006857Y-110958380D01*
X118102095Y-111006000D01*
X118149714Y-111053619D01*
X118197333Y-111148857D01*
X118197333Y-111291714D01*
X118149714Y-111386952D01*
X118102095Y-111434571D01*
X118006857Y-111482190D01*
X117625904Y-111482190D01*
X119149714Y-111958380D02*
X118578285Y-111958380D01*
X118864000Y-111958380D02*
X118864000Y-110958380D01*
X118768761Y-111101238D01*
X118673523Y-111196476D01*
X118578285Y-111244095D01*
X135215333Y-101036380D02*
X134882000Y-100560190D01*
X134643904Y-101036380D02*
X134643904Y-100036380D01*
X135024857Y-100036380D01*
X135120095Y-100084000D01*
X135167714Y-100131619D01*
X135215333Y-100226857D01*
X135215333Y-100369714D01*
X135167714Y-100464952D01*
X135120095Y-100512571D01*
X135024857Y-100560190D01*
X134643904Y-100560190D01*
X135596285Y-100131619D02*
X135643904Y-100084000D01*
X135739142Y-100036380D01*
X135977238Y-100036380D01*
X136072476Y-100084000D01*
X136120095Y-100131619D01*
X136167714Y-100226857D01*
X136167714Y-100322095D01*
X136120095Y-100464952D01*
X135548666Y-101036380D01*
X136167714Y-101036380D01*
X117845833Y-93622380D02*
X117512500Y-93146190D01*
X117274404Y-93622380D02*
X117274404Y-92622380D01*
X117655357Y-92622380D01*
X117750595Y-92670000D01*
X117798214Y-92717619D01*
X117845833Y-92812857D01*
X117845833Y-92955714D01*
X117798214Y-93050952D01*
X117750595Y-93098571D01*
X117655357Y-93146190D01*
X117274404Y-93146190D01*
X118179166Y-92622380D02*
X118798214Y-92622380D01*
X118464880Y-93003333D01*
X118607738Y-93003333D01*
X118702976Y-93050952D01*
X118750595Y-93098571D01*
X118798214Y-93193809D01*
X118798214Y-93431904D01*
X118750595Y-93527142D01*
X118702976Y-93574761D01*
X118607738Y-93622380D01*
X118322023Y-93622380D01*
X118226785Y-93574761D01*
X118179166Y-93527142D01*
X118603833Y-118496380D02*
X118270500Y-118020190D01*
X118032404Y-118496380D02*
X118032404Y-117496380D01*
X118413357Y-117496380D01*
X118508595Y-117544000D01*
X118556214Y-117591619D01*
X118603833Y-117686857D01*
X118603833Y-117829714D01*
X118556214Y-117924952D01*
X118508595Y-117972571D01*
X118413357Y-118020190D01*
X118032404Y-118020190D01*
X119460976Y-117829714D02*
X119460976Y-118496380D01*
X119222880Y-117448761D02*
X118984785Y-118163047D01*
X119603833Y-118163047D01*
X118451333Y-114498380D02*
X118118000Y-114022190D01*
X117879904Y-114498380D02*
X117879904Y-113498380D01*
X118260857Y-113498380D01*
X118356095Y-113546000D01*
X118403714Y-113593619D01*
X118451333Y-113688857D01*
X118451333Y-113831714D01*
X118403714Y-113926952D01*
X118356095Y-113974571D01*
X118260857Y-114022190D01*
X117879904Y-114022190D01*
X119356095Y-113498380D02*
X118879904Y-113498380D01*
X118832285Y-113974571D01*
X118879904Y-113926952D01*
X118975142Y-113879333D01*
X119213238Y-113879333D01*
X119308476Y-113926952D01*
X119356095Y-113974571D01*
X119403714Y-114069809D01*
X119403714Y-114307904D01*
X119356095Y-114403142D01*
X119308476Y-114450761D01*
X119213238Y-114498380D01*
X118975142Y-114498380D01*
X118879904Y-114450761D01*
X118832285Y-114403142D01*
X139322380Y-121854166D02*
X138846190Y-122187500D01*
X139322380Y-122425595D02*
X138322380Y-122425595D01*
X138322380Y-122044642D01*
X138370000Y-121949404D01*
X138417619Y-121901785D01*
X138512857Y-121854166D01*
X138655714Y-121854166D01*
X138750952Y-121901785D01*
X138798571Y-121949404D01*
X138846190Y-122044642D01*
X138846190Y-122425595D01*
X138322380Y-120997023D02*
X138322380Y-121187500D01*
X138370000Y-121282738D01*
X138417619Y-121330357D01*
X138560476Y-121425595D01*
X138750952Y-121473214D01*
X139131904Y-121473214D01*
X139227142Y-121425595D01*
X139274761Y-121377976D01*
X139322380Y-121282738D01*
X139322380Y-121092261D01*
X139274761Y-120997023D01*
X139227142Y-120949404D01*
X139131904Y-120901785D01*
X138893809Y-120901785D01*
X138798571Y-120949404D01*
X138750952Y-120997023D01*
X138703333Y-121092261D01*
X138703333Y-121282738D01*
X138750952Y-121377976D01*
X138798571Y-121425595D01*
X138893809Y-121473214D01*
X154022380Y-122266666D02*
X153546190Y-122600000D01*
X154022380Y-122838095D02*
X153022380Y-122838095D01*
X153022380Y-122457142D01*
X153070000Y-122361904D01*
X153117619Y-122314285D01*
X153212857Y-122266666D01*
X153355714Y-122266666D01*
X153450952Y-122314285D01*
X153498571Y-122361904D01*
X153546190Y-122457142D01*
X153546190Y-122838095D01*
X153022380Y-121933333D02*
X153022380Y-121266666D01*
X154022380Y-121695238D01*
X143445833Y-113722380D02*
X143112500Y-113246190D01*
X142874404Y-113722380D02*
X142874404Y-112722380D01*
X143255357Y-112722380D01*
X143350595Y-112770000D01*
X143398214Y-112817619D01*
X143445833Y-112912857D01*
X143445833Y-113055714D01*
X143398214Y-113150952D01*
X143350595Y-113198571D01*
X143255357Y-113246190D01*
X142874404Y-113246190D01*
X144017261Y-113150952D02*
X143922023Y-113103333D01*
X143874404Y-113055714D01*
X143826785Y-112960476D01*
X143826785Y-112912857D01*
X143874404Y-112817619D01*
X143922023Y-112770000D01*
X144017261Y-112722380D01*
X144207738Y-112722380D01*
X144302976Y-112770000D01*
X144350595Y-112817619D01*
X144398214Y-112912857D01*
X144398214Y-112960476D01*
X144350595Y-113055714D01*
X144302976Y-113103333D01*
X144207738Y-113150952D01*
X144017261Y-113150952D01*
X143922023Y-113198571D01*
X143874404Y-113246190D01*
X143826785Y-113341428D01*
X143826785Y-113531904D01*
X143874404Y-113627142D01*
X143922023Y-113674761D01*
X144017261Y-113722380D01*
X144207738Y-113722380D01*
X144302976Y-113674761D01*
X144350595Y-113627142D01*
X144398214Y-113531904D01*
X144398214Y-113341428D01*
X144350595Y-113246190D01*
X144302976Y-113198571D01*
X144207738Y-113150952D01*
X157567333Y-118308380D02*
X157234000Y-117832190D01*
X156995904Y-118308380D02*
X156995904Y-117308380D01*
X157376857Y-117308380D01*
X157472095Y-117356000D01*
X157519714Y-117403619D01*
X157567333Y-117498857D01*
X157567333Y-117641714D01*
X157519714Y-117736952D01*
X157472095Y-117784571D01*
X157376857Y-117832190D01*
X156995904Y-117832190D01*
X158043523Y-118308380D02*
X158234000Y-118308380D01*
X158329238Y-118260761D01*
X158376857Y-118213142D01*
X158472095Y-118070285D01*
X158519714Y-117879809D01*
X158519714Y-117498857D01*
X158472095Y-117403619D01*
X158424476Y-117356000D01*
X158329238Y-117308380D01*
X158138761Y-117308380D01*
X158043523Y-117356000D01*
X157995904Y-117403619D01*
X157948285Y-117498857D01*
X157948285Y-117736952D01*
X157995904Y-117832190D01*
X158043523Y-117879809D01*
X158138761Y-117927428D01*
X158329238Y-117927428D01*
X158424476Y-117879809D01*
X158472095Y-117832190D01*
X158519714Y-117736952D01*
X185412142Y-114117380D02*
X185078809Y-113641190D01*
X184840714Y-114117380D02*
X184840714Y-113117380D01*
X185221666Y-113117380D01*
X185316904Y-113165000D01*
X185364523Y-113212619D01*
X185412142Y-113307857D01*
X185412142Y-113450714D01*
X185364523Y-113545952D01*
X185316904Y-113593571D01*
X185221666Y-113641190D01*
X184840714Y-113641190D01*
X186364523Y-114117380D02*
X185793095Y-114117380D01*
X186078809Y-114117380D02*
X186078809Y-113117380D01*
X185983571Y-113260238D01*
X185888333Y-113355476D01*
X185793095Y-113403095D01*
X186745476Y-113212619D02*
X186793095Y-113165000D01*
X186888333Y-113117380D01*
X187126428Y-113117380D01*
X187221666Y-113165000D01*
X187269285Y-113212619D01*
X187316904Y-113307857D01*
X187316904Y-113403095D01*
X187269285Y-113545952D01*
X186697857Y-114117380D01*
X187316904Y-114117380D01*
X185285142Y-110434380D02*
X184951809Y-109958190D01*
X184713714Y-110434380D02*
X184713714Y-109434380D01*
X185094666Y-109434380D01*
X185189904Y-109482000D01*
X185237523Y-109529619D01*
X185285142Y-109624857D01*
X185285142Y-109767714D01*
X185237523Y-109862952D01*
X185189904Y-109910571D01*
X185094666Y-109958190D01*
X184713714Y-109958190D01*
X186237523Y-110434380D02*
X185666095Y-110434380D01*
X185951809Y-110434380D02*
X185951809Y-109434380D01*
X185856571Y-109577238D01*
X185761333Y-109672476D01*
X185666095Y-109720095D01*
X186570857Y-109434380D02*
X187189904Y-109434380D01*
X186856571Y-109815333D01*
X186999428Y-109815333D01*
X187094666Y-109862952D01*
X187142285Y-109910571D01*
X187189904Y-110005809D01*
X187189904Y-110243904D01*
X187142285Y-110339142D01*
X187094666Y-110386761D01*
X186999428Y-110434380D01*
X186713714Y-110434380D01*
X186618476Y-110386761D01*
X186570857Y-110339142D01*
X150569642Y-117082380D02*
X150236309Y-116606190D01*
X149998214Y-117082380D02*
X149998214Y-116082380D01*
X150379166Y-116082380D01*
X150474404Y-116130000D01*
X150522023Y-116177619D01*
X150569642Y-116272857D01*
X150569642Y-116415714D01*
X150522023Y-116510952D01*
X150474404Y-116558571D01*
X150379166Y-116606190D01*
X149998214Y-116606190D01*
X151522023Y-117082380D02*
X150950595Y-117082380D01*
X151236309Y-117082380D02*
X151236309Y-116082380D01*
X151141071Y-116225238D01*
X151045833Y-116320476D01*
X150950595Y-116368095D01*
X152379166Y-116082380D02*
X152188690Y-116082380D01*
X152093452Y-116130000D01*
X152045833Y-116177619D01*
X151950595Y-116320476D01*
X151902976Y-116510952D01*
X151902976Y-116891904D01*
X151950595Y-116987142D01*
X151998214Y-117034761D01*
X152093452Y-117082380D01*
X152283928Y-117082380D01*
X152379166Y-117034761D01*
X152426785Y-116987142D01*
X152474404Y-116891904D01*
X152474404Y-116653809D01*
X152426785Y-116558571D01*
X152379166Y-116510952D01*
X152283928Y-116463333D01*
X152093452Y-116463333D01*
X151998214Y-116510952D01*
X151950595Y-116558571D01*
X151902976Y-116653809D01*
X114491928Y-103681352D02*
X114626615Y-103614009D01*
X114794974Y-103445650D01*
X114828646Y-103344635D01*
X114828646Y-103277291D01*
X114794974Y-103176276D01*
X114727631Y-103108933D01*
X114626615Y-103075261D01*
X114559272Y-103075261D01*
X114458257Y-103108933D01*
X114289898Y-103209948D01*
X114188883Y-103243620D01*
X114121539Y-103243620D01*
X114020524Y-103209948D01*
X113953180Y-103142604D01*
X113919509Y-103041589D01*
X113919509Y-102974246D01*
X113953180Y-102873230D01*
X114121539Y-102704872D01*
X114256226Y-102637528D01*
X114458257Y-102368154D02*
X115333722Y-102906902D01*
X114963333Y-102267139D01*
X115603096Y-102637528D01*
X115064348Y-101762063D01*
X116411218Y-101829406D02*
X116007157Y-102233467D01*
X116209188Y-102031437D02*
X115502081Y-101324330D01*
X115535753Y-101492689D01*
X115535753Y-101627376D01*
X115502081Y-101728391D01*
X132073095Y-92473380D02*
X132073095Y-93282904D01*
X132120714Y-93378142D01*
X132168333Y-93425761D01*
X132263571Y-93473380D01*
X132454047Y-93473380D01*
X132549285Y-93425761D01*
X132596904Y-93378142D01*
X132644523Y-93282904D01*
X132644523Y-92473380D01*
X133644523Y-93473380D02*
X133073095Y-93473380D01*
X133358809Y-93473380D02*
X133358809Y-92473380D01*
X133263571Y-92616238D01*
X133168333Y-92711476D01*
X133073095Y-92759095D01*
X157752380Y-113811904D02*
X158561904Y-113811904D01*
X158657142Y-113764285D01*
X158704761Y-113716666D01*
X158752380Y-113621428D01*
X158752380Y-113430952D01*
X158704761Y-113335714D01*
X158657142Y-113288095D01*
X158561904Y-113240476D01*
X157752380Y-113240476D01*
X157847619Y-112811904D02*
X157800000Y-112764285D01*
X157752380Y-112669047D01*
X157752380Y-112430952D01*
X157800000Y-112335714D01*
X157847619Y-112288095D01*
X157942857Y-112240476D01*
X158038095Y-112240476D01*
X158180952Y-112288095D01*
X158752380Y-112859523D01*
X158752380Y-112240476D01*
X134258380Y-120169904D02*
X135067904Y-120169904D01*
X135163142Y-120122285D01*
X135210761Y-120074666D01*
X135258380Y-119979428D01*
X135258380Y-119788952D01*
X135210761Y-119693714D01*
X135163142Y-119646095D01*
X135067904Y-119598476D01*
X134258380Y-119598476D01*
X134258380Y-119217523D02*
X134258380Y-118598476D01*
X134639333Y-118931809D01*
X134639333Y-118788952D01*
X134686952Y-118693714D01*
X134734571Y-118646095D01*
X134829809Y-118598476D01*
X135067904Y-118598476D01*
X135163142Y-118646095D01*
X135210761Y-118693714D01*
X135258380Y-118788952D01*
X135258380Y-119074666D01*
X135210761Y-119169904D01*
X135163142Y-119217523D01*
X173838095Y-110552380D02*
X173838095Y-111361904D01*
X173885714Y-111457142D01*
X173933333Y-111504761D01*
X174028571Y-111552380D01*
X174219047Y-111552380D01*
X174314285Y-111504761D01*
X174361904Y-111457142D01*
X174409523Y-111361904D01*
X174409523Y-110552380D01*
X175314285Y-110885714D02*
X175314285Y-111552380D01*
X175076190Y-110504761D02*
X174838095Y-111219047D01*
X175457142Y-111219047D01*
X174238095Y-102452380D02*
X174238095Y-103261904D01*
X174285714Y-103357142D01*
X174333333Y-103404761D01*
X174428571Y-103452380D01*
X174619047Y-103452380D01*
X174714285Y-103404761D01*
X174761904Y-103357142D01*
X174809523Y-103261904D01*
X174809523Y-102452380D01*
X175714285Y-102452380D02*
X175523809Y-102452380D01*
X175428571Y-102500000D01*
X175380952Y-102547619D01*
X175285714Y-102690476D01*
X175238095Y-102880952D01*
X175238095Y-103261904D01*
X175285714Y-103357142D01*
X175333333Y-103404761D01*
X175428571Y-103452380D01*
X175619047Y-103452380D01*
X175714285Y-103404761D01*
X175761904Y-103357142D01*
X175809523Y-103261904D01*
X175809523Y-103023809D01*
X175761904Y-102928571D01*
X175714285Y-102880952D01*
X175619047Y-102833333D01*
X175428571Y-102833333D01*
X175333333Y-102880952D01*
X175285714Y-102928571D01*
X175238095Y-103023809D01*
X156687380Y-122846904D02*
X157496904Y-122846904D01*
X157592142Y-122799285D01*
X157639761Y-122751666D01*
X157687380Y-122656428D01*
X157687380Y-122465952D01*
X157639761Y-122370714D01*
X157592142Y-122323095D01*
X157496904Y-122275476D01*
X156687380Y-122275476D01*
X157115952Y-121656428D02*
X157068333Y-121751666D01*
X157020714Y-121799285D01*
X156925476Y-121846904D01*
X156877857Y-121846904D01*
X156782619Y-121799285D01*
X156735000Y-121751666D01*
X156687380Y-121656428D01*
X156687380Y-121465952D01*
X156735000Y-121370714D01*
X156782619Y-121323095D01*
X156877857Y-121275476D01*
X156925476Y-121275476D01*
X157020714Y-121323095D01*
X157068333Y-121370714D01*
X157115952Y-121465952D01*
X157115952Y-121656428D01*
X157163571Y-121751666D01*
X157211190Y-121799285D01*
X157306428Y-121846904D01*
X157496904Y-121846904D01*
X157592142Y-121799285D01*
X157639761Y-121751666D01*
X157687380Y-121656428D01*
X157687380Y-121465952D01*
X157639761Y-121370714D01*
X157592142Y-121323095D01*
X157496904Y-121275476D01*
X157306428Y-121275476D01*
X157211190Y-121323095D01*
X157163571Y-121370714D01*
X157115952Y-121465952D01*
X154347719Y-102771745D02*
X154011001Y-103108463D01*
X154482406Y-102165654D02*
X154347719Y-102771745D01*
X154953810Y-102637058D01*
X154852795Y-103950256D02*
X154448734Y-103546195D01*
X154650765Y-103748226D02*
X155357871Y-103041119D01*
X155189513Y-103074791D01*
X155054826Y-103074791D01*
X154953810Y-103041119D01*
X114690666Y-117390380D02*
X114690666Y-118104666D01*
X114643047Y-118247523D01*
X114547809Y-118342761D01*
X114404952Y-118390380D01*
X114309714Y-118390380D01*
X115690666Y-118390380D02*
X115119238Y-118390380D01*
X115404952Y-118390380D02*
X115404952Y-117390380D01*
X115309714Y-117533238D01*
X115214476Y-117628476D01*
X115119238Y-117676095D01*
X142787142Y-110204166D02*
X142834761Y-110251785D01*
X142882380Y-110394642D01*
X142882380Y-110489880D01*
X142834761Y-110632738D01*
X142739523Y-110727976D01*
X142644285Y-110775595D01*
X142453809Y-110823214D01*
X142310952Y-110823214D01*
X142120476Y-110775595D01*
X142025238Y-110727976D01*
X141930000Y-110632738D01*
X141882380Y-110489880D01*
X141882380Y-110394642D01*
X141930000Y-110251785D01*
X141977619Y-110204166D01*
X141882380Y-109870833D02*
X141882380Y-109204166D01*
X142882380Y-109632738D01*
X161545833Y-101687142D02*
X161498214Y-101734761D01*
X161355357Y-101782380D01*
X161260119Y-101782380D01*
X161117261Y-101734761D01*
X161022023Y-101639523D01*
X160974404Y-101544285D01*
X160926785Y-101353809D01*
X160926785Y-101210952D01*
X160974404Y-101020476D01*
X161022023Y-100925238D01*
X161117261Y-100830000D01*
X161260119Y-100782380D01*
X161355357Y-100782380D01*
X161498214Y-100830000D01*
X161545833Y-100877619D01*
X162117261Y-101210952D02*
X162022023Y-101163333D01*
X161974404Y-101115714D01*
X161926785Y-101020476D01*
X161926785Y-100972857D01*
X161974404Y-100877619D01*
X162022023Y-100830000D01*
X162117261Y-100782380D01*
X162307738Y-100782380D01*
X162402976Y-100830000D01*
X162450595Y-100877619D01*
X162498214Y-100972857D01*
X162498214Y-101020476D01*
X162450595Y-101115714D01*
X162402976Y-101163333D01*
X162307738Y-101210952D01*
X162117261Y-101210952D01*
X162022023Y-101258571D01*
X161974404Y-101306190D01*
X161926785Y-101401428D01*
X161926785Y-101591904D01*
X161974404Y-101687142D01*
X162022023Y-101734761D01*
X162117261Y-101782380D01*
X162307738Y-101782380D01*
X162402976Y-101734761D01*
X162450595Y-101687142D01*
X162498214Y-101591904D01*
X162498214Y-101401428D01*
X162450595Y-101306190D01*
X162402976Y-101258571D01*
X162307738Y-101210952D01*
X158745833Y-99387142D02*
X158698214Y-99434761D01*
X158555357Y-99482380D01*
X158460119Y-99482380D01*
X158317261Y-99434761D01*
X158222023Y-99339523D01*
X158174404Y-99244285D01*
X158126785Y-99053809D01*
X158126785Y-98910952D01*
X158174404Y-98720476D01*
X158222023Y-98625238D01*
X158317261Y-98530000D01*
X158460119Y-98482380D01*
X158555357Y-98482380D01*
X158698214Y-98530000D01*
X158745833Y-98577619D01*
X159222023Y-99482380D02*
X159412500Y-99482380D01*
X159507738Y-99434761D01*
X159555357Y-99387142D01*
X159650595Y-99244285D01*
X159698214Y-99053809D01*
X159698214Y-98672857D01*
X159650595Y-98577619D01*
X159602976Y-98530000D01*
X159507738Y-98482380D01*
X159317261Y-98482380D01*
X159222023Y-98530000D01*
X159174404Y-98577619D01*
X159126785Y-98672857D01*
X159126785Y-98910952D01*
X159174404Y-99006190D01*
X159222023Y-99053809D01*
X159317261Y-99101428D01*
X159507738Y-99101428D01*
X159602976Y-99053809D01*
X159650595Y-99006190D01*
X159698214Y-98910952D01*
M02*
