G04 #@! TF.GenerationSoftware,KiCad,Pcbnew,(5.1.5)-3*
G04 #@! TF.CreationDate,2020-09-22T11:09:55+01:00*
G04 #@! TF.ProjectId,sensor_node_PCB,73656e73-6f72-45f6-9e6f-64655f504342,rev?*
G04 #@! TF.SameCoordinates,Original*
G04 #@! TF.FileFunction,Paste,Top*
G04 #@! TF.FilePolarity,Positive*
%FSLAX46Y46*%
G04 Gerber Fmt 4.6, Leading zero omitted, Abs format (unit mm)*
G04 Created by KiCad (PCBNEW (5.1.5)-3) date 2020-09-22 11:09:55*
%MOMM*%
%LPD*%
G04 APERTURE LIST*
%ADD10R,1.600000X0.550000*%
%ADD11R,0.550000X1.600000*%
%ADD12C,0.100000*%
%ADD13R,1.200000X0.900000*%
%ADD14R,0.900000X1.200000*%
%ADD15R,3.150000X1.000000*%
%ADD16R,1.000000X1.400000*%
%ADD17R,0.800000X0.900000*%
%ADD18R,3.800000X2.000000*%
%ADD19R,1.500000X2.000000*%
%ADD20R,0.400000X1.200000*%
%ADD21R,2.000000X1.500000*%
%ADD22R,2.000000X3.800000*%
%ADD23R,0.500000X0.350000*%
G04 APERTURE END LIST*
D10*
X151450000Y-107100000D03*
X151450000Y-106300000D03*
X151450000Y-105500000D03*
X151450000Y-104700000D03*
X151450000Y-103900000D03*
X151450000Y-103100000D03*
X151450000Y-102300000D03*
X151450000Y-101500000D03*
D11*
X150000000Y-100050000D03*
X149200000Y-100050000D03*
X148400000Y-100050000D03*
X147600000Y-100050000D03*
X146800000Y-100050000D03*
X146000000Y-100050000D03*
X145200000Y-100050000D03*
X144400000Y-100050000D03*
D10*
X142950000Y-101500000D03*
X142950000Y-102300000D03*
X142950000Y-103100000D03*
X142950000Y-103900000D03*
X142950000Y-104700000D03*
X142950000Y-105500000D03*
X142950000Y-106300000D03*
X142950000Y-107100000D03*
D11*
X144400000Y-108550000D03*
X145200000Y-108550000D03*
X146000000Y-108550000D03*
X146800000Y-108550000D03*
X147600000Y-108550000D03*
X148400000Y-108550000D03*
X149200000Y-108550000D03*
X150000000Y-108550000D03*
D12*
G36*
X139907691Y-94677053D02*
G01*
X139928926Y-94680203D01*
X139949750Y-94685419D01*
X139969962Y-94692651D01*
X139989368Y-94701830D01*
X140007781Y-94712866D01*
X140025024Y-94725654D01*
X140040930Y-94740070D01*
X140055346Y-94755976D01*
X140068134Y-94773219D01*
X140079170Y-94791632D01*
X140088349Y-94811038D01*
X140095581Y-94831250D01*
X140100797Y-94852074D01*
X140103947Y-94873309D01*
X140105000Y-94894750D01*
X140105000Y-95407250D01*
X140103947Y-95428691D01*
X140100797Y-95449926D01*
X140095581Y-95470750D01*
X140088349Y-95490962D01*
X140079170Y-95510368D01*
X140068134Y-95528781D01*
X140055346Y-95546024D01*
X140040930Y-95561930D01*
X140025024Y-95576346D01*
X140007781Y-95589134D01*
X139989368Y-95600170D01*
X139969962Y-95609349D01*
X139949750Y-95616581D01*
X139928926Y-95621797D01*
X139907691Y-95624947D01*
X139886250Y-95626000D01*
X139448750Y-95626000D01*
X139427309Y-95624947D01*
X139406074Y-95621797D01*
X139385250Y-95616581D01*
X139365038Y-95609349D01*
X139345632Y-95600170D01*
X139327219Y-95589134D01*
X139309976Y-95576346D01*
X139294070Y-95561930D01*
X139279654Y-95546024D01*
X139266866Y-95528781D01*
X139255830Y-95510368D01*
X139246651Y-95490962D01*
X139239419Y-95470750D01*
X139234203Y-95449926D01*
X139231053Y-95428691D01*
X139230000Y-95407250D01*
X139230000Y-94894750D01*
X139231053Y-94873309D01*
X139234203Y-94852074D01*
X139239419Y-94831250D01*
X139246651Y-94811038D01*
X139255830Y-94791632D01*
X139266866Y-94773219D01*
X139279654Y-94755976D01*
X139294070Y-94740070D01*
X139309976Y-94725654D01*
X139327219Y-94712866D01*
X139345632Y-94701830D01*
X139365038Y-94692651D01*
X139385250Y-94685419D01*
X139406074Y-94680203D01*
X139427309Y-94677053D01*
X139448750Y-94676000D01*
X139886250Y-94676000D01*
X139907691Y-94677053D01*
G37*
G36*
X141482691Y-94677053D02*
G01*
X141503926Y-94680203D01*
X141524750Y-94685419D01*
X141544962Y-94692651D01*
X141564368Y-94701830D01*
X141582781Y-94712866D01*
X141600024Y-94725654D01*
X141615930Y-94740070D01*
X141630346Y-94755976D01*
X141643134Y-94773219D01*
X141654170Y-94791632D01*
X141663349Y-94811038D01*
X141670581Y-94831250D01*
X141675797Y-94852074D01*
X141678947Y-94873309D01*
X141680000Y-94894750D01*
X141680000Y-95407250D01*
X141678947Y-95428691D01*
X141675797Y-95449926D01*
X141670581Y-95470750D01*
X141663349Y-95490962D01*
X141654170Y-95510368D01*
X141643134Y-95528781D01*
X141630346Y-95546024D01*
X141615930Y-95561930D01*
X141600024Y-95576346D01*
X141582781Y-95589134D01*
X141564368Y-95600170D01*
X141544962Y-95609349D01*
X141524750Y-95616581D01*
X141503926Y-95621797D01*
X141482691Y-95624947D01*
X141461250Y-95626000D01*
X141023750Y-95626000D01*
X141002309Y-95624947D01*
X140981074Y-95621797D01*
X140960250Y-95616581D01*
X140940038Y-95609349D01*
X140920632Y-95600170D01*
X140902219Y-95589134D01*
X140884976Y-95576346D01*
X140869070Y-95561930D01*
X140854654Y-95546024D01*
X140841866Y-95528781D01*
X140830830Y-95510368D01*
X140821651Y-95490962D01*
X140814419Y-95470750D01*
X140809203Y-95449926D01*
X140806053Y-95428691D01*
X140805000Y-95407250D01*
X140805000Y-94894750D01*
X140806053Y-94873309D01*
X140809203Y-94852074D01*
X140814419Y-94831250D01*
X140821651Y-94811038D01*
X140830830Y-94791632D01*
X140841866Y-94773219D01*
X140854654Y-94755976D01*
X140869070Y-94740070D01*
X140884976Y-94725654D01*
X140902219Y-94712866D01*
X140920632Y-94701830D01*
X140940038Y-94692651D01*
X140960250Y-94685419D01*
X140981074Y-94680203D01*
X141002309Y-94677053D01*
X141023750Y-94676000D01*
X141461250Y-94676000D01*
X141482691Y-94677053D01*
G37*
G36*
X111377691Y-106438553D02*
G01*
X111398926Y-106441703D01*
X111419750Y-106446919D01*
X111439962Y-106454151D01*
X111459368Y-106463330D01*
X111477781Y-106474366D01*
X111495024Y-106487154D01*
X111510930Y-106501570D01*
X111525346Y-106517476D01*
X111538134Y-106534719D01*
X111549170Y-106553132D01*
X111558349Y-106572538D01*
X111565581Y-106592750D01*
X111570797Y-106613574D01*
X111573947Y-106634809D01*
X111575000Y-106656250D01*
X111575000Y-107093750D01*
X111573947Y-107115191D01*
X111570797Y-107136426D01*
X111565581Y-107157250D01*
X111558349Y-107177462D01*
X111549170Y-107196868D01*
X111538134Y-107215281D01*
X111525346Y-107232524D01*
X111510930Y-107248430D01*
X111495024Y-107262846D01*
X111477781Y-107275634D01*
X111459368Y-107286670D01*
X111439962Y-107295849D01*
X111419750Y-107303081D01*
X111398926Y-107308297D01*
X111377691Y-107311447D01*
X111356250Y-107312500D01*
X110843750Y-107312500D01*
X110822309Y-107311447D01*
X110801074Y-107308297D01*
X110780250Y-107303081D01*
X110760038Y-107295849D01*
X110740632Y-107286670D01*
X110722219Y-107275634D01*
X110704976Y-107262846D01*
X110689070Y-107248430D01*
X110674654Y-107232524D01*
X110661866Y-107215281D01*
X110650830Y-107196868D01*
X110641651Y-107177462D01*
X110634419Y-107157250D01*
X110629203Y-107136426D01*
X110626053Y-107115191D01*
X110625000Y-107093750D01*
X110625000Y-106656250D01*
X110626053Y-106634809D01*
X110629203Y-106613574D01*
X110634419Y-106592750D01*
X110641651Y-106572538D01*
X110650830Y-106553132D01*
X110661866Y-106534719D01*
X110674654Y-106517476D01*
X110689070Y-106501570D01*
X110704976Y-106487154D01*
X110722219Y-106474366D01*
X110740632Y-106463330D01*
X110760038Y-106454151D01*
X110780250Y-106446919D01*
X110801074Y-106441703D01*
X110822309Y-106438553D01*
X110843750Y-106437500D01*
X111356250Y-106437500D01*
X111377691Y-106438553D01*
G37*
G36*
X111377691Y-104863553D02*
G01*
X111398926Y-104866703D01*
X111419750Y-104871919D01*
X111439962Y-104879151D01*
X111459368Y-104888330D01*
X111477781Y-104899366D01*
X111495024Y-104912154D01*
X111510930Y-104926570D01*
X111525346Y-104942476D01*
X111538134Y-104959719D01*
X111549170Y-104978132D01*
X111558349Y-104997538D01*
X111565581Y-105017750D01*
X111570797Y-105038574D01*
X111573947Y-105059809D01*
X111575000Y-105081250D01*
X111575000Y-105518750D01*
X111573947Y-105540191D01*
X111570797Y-105561426D01*
X111565581Y-105582250D01*
X111558349Y-105602462D01*
X111549170Y-105621868D01*
X111538134Y-105640281D01*
X111525346Y-105657524D01*
X111510930Y-105673430D01*
X111495024Y-105687846D01*
X111477781Y-105700634D01*
X111459368Y-105711670D01*
X111439962Y-105720849D01*
X111419750Y-105728081D01*
X111398926Y-105733297D01*
X111377691Y-105736447D01*
X111356250Y-105737500D01*
X110843750Y-105737500D01*
X110822309Y-105736447D01*
X110801074Y-105733297D01*
X110780250Y-105728081D01*
X110760038Y-105720849D01*
X110740632Y-105711670D01*
X110722219Y-105700634D01*
X110704976Y-105687846D01*
X110689070Y-105673430D01*
X110674654Y-105657524D01*
X110661866Y-105640281D01*
X110650830Y-105621868D01*
X110641651Y-105602462D01*
X110634419Y-105582250D01*
X110629203Y-105561426D01*
X110626053Y-105540191D01*
X110625000Y-105518750D01*
X110625000Y-105081250D01*
X110626053Y-105059809D01*
X110629203Y-105038574D01*
X110634419Y-105017750D01*
X110641651Y-104997538D01*
X110650830Y-104978132D01*
X110661866Y-104959719D01*
X110674654Y-104942476D01*
X110689070Y-104926570D01*
X110704976Y-104912154D01*
X110722219Y-104899366D01*
X110740632Y-104888330D01*
X110760038Y-104879151D01*
X110780250Y-104871919D01*
X110801074Y-104866703D01*
X110822309Y-104863553D01*
X110843750Y-104862500D01*
X111356250Y-104862500D01*
X111377691Y-104863553D01*
G37*
G36*
X139907691Y-96836053D02*
G01*
X139928926Y-96839203D01*
X139949750Y-96844419D01*
X139969962Y-96851651D01*
X139989368Y-96860830D01*
X140007781Y-96871866D01*
X140025024Y-96884654D01*
X140040930Y-96899070D01*
X140055346Y-96914976D01*
X140068134Y-96932219D01*
X140079170Y-96950632D01*
X140088349Y-96970038D01*
X140095581Y-96990250D01*
X140100797Y-97011074D01*
X140103947Y-97032309D01*
X140105000Y-97053750D01*
X140105000Y-97566250D01*
X140103947Y-97587691D01*
X140100797Y-97608926D01*
X140095581Y-97629750D01*
X140088349Y-97649962D01*
X140079170Y-97669368D01*
X140068134Y-97687781D01*
X140055346Y-97705024D01*
X140040930Y-97720930D01*
X140025024Y-97735346D01*
X140007781Y-97748134D01*
X139989368Y-97759170D01*
X139969962Y-97768349D01*
X139949750Y-97775581D01*
X139928926Y-97780797D01*
X139907691Y-97783947D01*
X139886250Y-97785000D01*
X139448750Y-97785000D01*
X139427309Y-97783947D01*
X139406074Y-97780797D01*
X139385250Y-97775581D01*
X139365038Y-97768349D01*
X139345632Y-97759170D01*
X139327219Y-97748134D01*
X139309976Y-97735346D01*
X139294070Y-97720930D01*
X139279654Y-97705024D01*
X139266866Y-97687781D01*
X139255830Y-97669368D01*
X139246651Y-97649962D01*
X139239419Y-97629750D01*
X139234203Y-97608926D01*
X139231053Y-97587691D01*
X139230000Y-97566250D01*
X139230000Y-97053750D01*
X139231053Y-97032309D01*
X139234203Y-97011074D01*
X139239419Y-96990250D01*
X139246651Y-96970038D01*
X139255830Y-96950632D01*
X139266866Y-96932219D01*
X139279654Y-96914976D01*
X139294070Y-96899070D01*
X139309976Y-96884654D01*
X139327219Y-96871866D01*
X139345632Y-96860830D01*
X139365038Y-96851651D01*
X139385250Y-96844419D01*
X139406074Y-96839203D01*
X139427309Y-96836053D01*
X139448750Y-96835000D01*
X139886250Y-96835000D01*
X139907691Y-96836053D01*
G37*
G36*
X141482691Y-96836053D02*
G01*
X141503926Y-96839203D01*
X141524750Y-96844419D01*
X141544962Y-96851651D01*
X141564368Y-96860830D01*
X141582781Y-96871866D01*
X141600024Y-96884654D01*
X141615930Y-96899070D01*
X141630346Y-96914976D01*
X141643134Y-96932219D01*
X141654170Y-96950632D01*
X141663349Y-96970038D01*
X141670581Y-96990250D01*
X141675797Y-97011074D01*
X141678947Y-97032309D01*
X141680000Y-97053750D01*
X141680000Y-97566250D01*
X141678947Y-97587691D01*
X141675797Y-97608926D01*
X141670581Y-97629750D01*
X141663349Y-97649962D01*
X141654170Y-97669368D01*
X141643134Y-97687781D01*
X141630346Y-97705024D01*
X141615930Y-97720930D01*
X141600024Y-97735346D01*
X141582781Y-97748134D01*
X141564368Y-97759170D01*
X141544962Y-97768349D01*
X141524750Y-97775581D01*
X141503926Y-97780797D01*
X141482691Y-97783947D01*
X141461250Y-97785000D01*
X141023750Y-97785000D01*
X141002309Y-97783947D01*
X140981074Y-97780797D01*
X140960250Y-97775581D01*
X140940038Y-97768349D01*
X140920632Y-97759170D01*
X140902219Y-97748134D01*
X140884976Y-97735346D01*
X140869070Y-97720930D01*
X140854654Y-97705024D01*
X140841866Y-97687781D01*
X140830830Y-97669368D01*
X140821651Y-97649962D01*
X140814419Y-97629750D01*
X140809203Y-97608926D01*
X140806053Y-97587691D01*
X140805000Y-97566250D01*
X140805000Y-97053750D01*
X140806053Y-97032309D01*
X140809203Y-97011074D01*
X140814419Y-96990250D01*
X140821651Y-96970038D01*
X140830830Y-96950632D01*
X140841866Y-96932219D01*
X140854654Y-96914976D01*
X140869070Y-96899070D01*
X140884976Y-96884654D01*
X140902219Y-96871866D01*
X140920632Y-96860830D01*
X140940038Y-96851651D01*
X140960250Y-96844419D01*
X140981074Y-96839203D01*
X141002309Y-96836053D01*
X141023750Y-96835000D01*
X141461250Y-96835000D01*
X141482691Y-96836053D01*
G37*
G36*
X127840191Y-99626053D02*
G01*
X127861426Y-99629203D01*
X127882250Y-99634419D01*
X127902462Y-99641651D01*
X127921868Y-99650830D01*
X127940281Y-99661866D01*
X127957524Y-99674654D01*
X127973430Y-99689070D01*
X127987846Y-99704976D01*
X128000634Y-99722219D01*
X128011670Y-99740632D01*
X128020849Y-99760038D01*
X128028081Y-99780250D01*
X128033297Y-99801074D01*
X128036447Y-99822309D01*
X128037500Y-99843750D01*
X128037500Y-100356250D01*
X128036447Y-100377691D01*
X128033297Y-100398926D01*
X128028081Y-100419750D01*
X128020849Y-100439962D01*
X128011670Y-100459368D01*
X128000634Y-100477781D01*
X127987846Y-100495024D01*
X127973430Y-100510930D01*
X127957524Y-100525346D01*
X127940281Y-100538134D01*
X127921868Y-100549170D01*
X127902462Y-100558349D01*
X127882250Y-100565581D01*
X127861426Y-100570797D01*
X127840191Y-100573947D01*
X127818750Y-100575000D01*
X127381250Y-100575000D01*
X127359809Y-100573947D01*
X127338574Y-100570797D01*
X127317750Y-100565581D01*
X127297538Y-100558349D01*
X127278132Y-100549170D01*
X127259719Y-100538134D01*
X127242476Y-100525346D01*
X127226570Y-100510930D01*
X127212154Y-100495024D01*
X127199366Y-100477781D01*
X127188330Y-100459368D01*
X127179151Y-100439962D01*
X127171919Y-100419750D01*
X127166703Y-100398926D01*
X127163553Y-100377691D01*
X127162500Y-100356250D01*
X127162500Y-99843750D01*
X127163553Y-99822309D01*
X127166703Y-99801074D01*
X127171919Y-99780250D01*
X127179151Y-99760038D01*
X127188330Y-99740632D01*
X127199366Y-99722219D01*
X127212154Y-99704976D01*
X127226570Y-99689070D01*
X127242476Y-99674654D01*
X127259719Y-99661866D01*
X127278132Y-99650830D01*
X127297538Y-99641651D01*
X127317750Y-99634419D01*
X127338574Y-99629203D01*
X127359809Y-99626053D01*
X127381250Y-99625000D01*
X127818750Y-99625000D01*
X127840191Y-99626053D01*
G37*
G36*
X126265191Y-99626053D02*
G01*
X126286426Y-99629203D01*
X126307250Y-99634419D01*
X126327462Y-99641651D01*
X126346868Y-99650830D01*
X126365281Y-99661866D01*
X126382524Y-99674654D01*
X126398430Y-99689070D01*
X126412846Y-99704976D01*
X126425634Y-99722219D01*
X126436670Y-99740632D01*
X126445849Y-99760038D01*
X126453081Y-99780250D01*
X126458297Y-99801074D01*
X126461447Y-99822309D01*
X126462500Y-99843750D01*
X126462500Y-100356250D01*
X126461447Y-100377691D01*
X126458297Y-100398926D01*
X126453081Y-100419750D01*
X126445849Y-100439962D01*
X126436670Y-100459368D01*
X126425634Y-100477781D01*
X126412846Y-100495024D01*
X126398430Y-100510930D01*
X126382524Y-100525346D01*
X126365281Y-100538134D01*
X126346868Y-100549170D01*
X126327462Y-100558349D01*
X126307250Y-100565581D01*
X126286426Y-100570797D01*
X126265191Y-100573947D01*
X126243750Y-100575000D01*
X125806250Y-100575000D01*
X125784809Y-100573947D01*
X125763574Y-100570797D01*
X125742750Y-100565581D01*
X125722538Y-100558349D01*
X125703132Y-100549170D01*
X125684719Y-100538134D01*
X125667476Y-100525346D01*
X125651570Y-100510930D01*
X125637154Y-100495024D01*
X125624366Y-100477781D01*
X125613330Y-100459368D01*
X125604151Y-100439962D01*
X125596919Y-100419750D01*
X125591703Y-100398926D01*
X125588553Y-100377691D01*
X125587500Y-100356250D01*
X125587500Y-99843750D01*
X125588553Y-99822309D01*
X125591703Y-99801074D01*
X125596919Y-99780250D01*
X125604151Y-99760038D01*
X125613330Y-99740632D01*
X125624366Y-99722219D01*
X125637154Y-99704976D01*
X125651570Y-99689070D01*
X125667476Y-99674654D01*
X125684719Y-99661866D01*
X125703132Y-99650830D01*
X125722538Y-99641651D01*
X125742750Y-99634419D01*
X125763574Y-99629203D01*
X125784809Y-99626053D01*
X125806250Y-99625000D01*
X126243750Y-99625000D01*
X126265191Y-99626053D01*
G37*
G36*
X166677691Y-118988553D02*
G01*
X166698926Y-118991703D01*
X166719750Y-118996919D01*
X166739962Y-119004151D01*
X166759368Y-119013330D01*
X166777781Y-119024366D01*
X166795024Y-119037154D01*
X166810930Y-119051570D01*
X166825346Y-119067476D01*
X166838134Y-119084719D01*
X166849170Y-119103132D01*
X166858349Y-119122538D01*
X166865581Y-119142750D01*
X166870797Y-119163574D01*
X166873947Y-119184809D01*
X166875000Y-119206250D01*
X166875000Y-119643750D01*
X166873947Y-119665191D01*
X166870797Y-119686426D01*
X166865581Y-119707250D01*
X166858349Y-119727462D01*
X166849170Y-119746868D01*
X166838134Y-119765281D01*
X166825346Y-119782524D01*
X166810930Y-119798430D01*
X166795024Y-119812846D01*
X166777781Y-119825634D01*
X166759368Y-119836670D01*
X166739962Y-119845849D01*
X166719750Y-119853081D01*
X166698926Y-119858297D01*
X166677691Y-119861447D01*
X166656250Y-119862500D01*
X166143750Y-119862500D01*
X166122309Y-119861447D01*
X166101074Y-119858297D01*
X166080250Y-119853081D01*
X166060038Y-119845849D01*
X166040632Y-119836670D01*
X166022219Y-119825634D01*
X166004976Y-119812846D01*
X165989070Y-119798430D01*
X165974654Y-119782524D01*
X165961866Y-119765281D01*
X165950830Y-119746868D01*
X165941651Y-119727462D01*
X165934419Y-119707250D01*
X165929203Y-119686426D01*
X165926053Y-119665191D01*
X165925000Y-119643750D01*
X165925000Y-119206250D01*
X165926053Y-119184809D01*
X165929203Y-119163574D01*
X165934419Y-119142750D01*
X165941651Y-119122538D01*
X165950830Y-119103132D01*
X165961866Y-119084719D01*
X165974654Y-119067476D01*
X165989070Y-119051570D01*
X166004976Y-119037154D01*
X166022219Y-119024366D01*
X166040632Y-119013330D01*
X166060038Y-119004151D01*
X166080250Y-118996919D01*
X166101074Y-118991703D01*
X166122309Y-118988553D01*
X166143750Y-118987500D01*
X166656250Y-118987500D01*
X166677691Y-118988553D01*
G37*
G36*
X166677691Y-120563553D02*
G01*
X166698926Y-120566703D01*
X166719750Y-120571919D01*
X166739962Y-120579151D01*
X166759368Y-120588330D01*
X166777781Y-120599366D01*
X166795024Y-120612154D01*
X166810930Y-120626570D01*
X166825346Y-120642476D01*
X166838134Y-120659719D01*
X166849170Y-120678132D01*
X166858349Y-120697538D01*
X166865581Y-120717750D01*
X166870797Y-120738574D01*
X166873947Y-120759809D01*
X166875000Y-120781250D01*
X166875000Y-121218750D01*
X166873947Y-121240191D01*
X166870797Y-121261426D01*
X166865581Y-121282250D01*
X166858349Y-121302462D01*
X166849170Y-121321868D01*
X166838134Y-121340281D01*
X166825346Y-121357524D01*
X166810930Y-121373430D01*
X166795024Y-121387846D01*
X166777781Y-121400634D01*
X166759368Y-121411670D01*
X166739962Y-121420849D01*
X166719750Y-121428081D01*
X166698926Y-121433297D01*
X166677691Y-121436447D01*
X166656250Y-121437500D01*
X166143750Y-121437500D01*
X166122309Y-121436447D01*
X166101074Y-121433297D01*
X166080250Y-121428081D01*
X166060038Y-121420849D01*
X166040632Y-121411670D01*
X166022219Y-121400634D01*
X166004976Y-121387846D01*
X165989070Y-121373430D01*
X165974654Y-121357524D01*
X165961866Y-121340281D01*
X165950830Y-121321868D01*
X165941651Y-121302462D01*
X165934419Y-121282250D01*
X165929203Y-121261426D01*
X165926053Y-121240191D01*
X165925000Y-121218750D01*
X165925000Y-120781250D01*
X165926053Y-120759809D01*
X165929203Y-120738574D01*
X165934419Y-120717750D01*
X165941651Y-120697538D01*
X165950830Y-120678132D01*
X165961866Y-120659719D01*
X165974654Y-120642476D01*
X165989070Y-120626570D01*
X166004976Y-120612154D01*
X166022219Y-120599366D01*
X166040632Y-120588330D01*
X166060038Y-120579151D01*
X166080250Y-120571919D01*
X166101074Y-120566703D01*
X166122309Y-120563553D01*
X166143750Y-120562500D01*
X166656250Y-120562500D01*
X166677691Y-120563553D01*
G37*
G36*
X182265191Y-116326053D02*
G01*
X182286426Y-116329203D01*
X182307250Y-116334419D01*
X182327462Y-116341651D01*
X182346868Y-116350830D01*
X182365281Y-116361866D01*
X182382524Y-116374654D01*
X182398430Y-116389070D01*
X182412846Y-116404976D01*
X182425634Y-116422219D01*
X182436670Y-116440632D01*
X182445849Y-116460038D01*
X182453081Y-116480250D01*
X182458297Y-116501074D01*
X182461447Y-116522309D01*
X182462500Y-116543750D01*
X182462500Y-117056250D01*
X182461447Y-117077691D01*
X182458297Y-117098926D01*
X182453081Y-117119750D01*
X182445849Y-117139962D01*
X182436670Y-117159368D01*
X182425634Y-117177781D01*
X182412846Y-117195024D01*
X182398430Y-117210930D01*
X182382524Y-117225346D01*
X182365281Y-117238134D01*
X182346868Y-117249170D01*
X182327462Y-117258349D01*
X182307250Y-117265581D01*
X182286426Y-117270797D01*
X182265191Y-117273947D01*
X182243750Y-117275000D01*
X181806250Y-117275000D01*
X181784809Y-117273947D01*
X181763574Y-117270797D01*
X181742750Y-117265581D01*
X181722538Y-117258349D01*
X181703132Y-117249170D01*
X181684719Y-117238134D01*
X181667476Y-117225346D01*
X181651570Y-117210930D01*
X181637154Y-117195024D01*
X181624366Y-117177781D01*
X181613330Y-117159368D01*
X181604151Y-117139962D01*
X181596919Y-117119750D01*
X181591703Y-117098926D01*
X181588553Y-117077691D01*
X181587500Y-117056250D01*
X181587500Y-116543750D01*
X181588553Y-116522309D01*
X181591703Y-116501074D01*
X181596919Y-116480250D01*
X181604151Y-116460038D01*
X181613330Y-116440632D01*
X181624366Y-116422219D01*
X181637154Y-116404976D01*
X181651570Y-116389070D01*
X181667476Y-116374654D01*
X181684719Y-116361866D01*
X181703132Y-116350830D01*
X181722538Y-116341651D01*
X181742750Y-116334419D01*
X181763574Y-116329203D01*
X181784809Y-116326053D01*
X181806250Y-116325000D01*
X182243750Y-116325000D01*
X182265191Y-116326053D01*
G37*
G36*
X183840191Y-116326053D02*
G01*
X183861426Y-116329203D01*
X183882250Y-116334419D01*
X183902462Y-116341651D01*
X183921868Y-116350830D01*
X183940281Y-116361866D01*
X183957524Y-116374654D01*
X183973430Y-116389070D01*
X183987846Y-116404976D01*
X184000634Y-116422219D01*
X184011670Y-116440632D01*
X184020849Y-116460038D01*
X184028081Y-116480250D01*
X184033297Y-116501074D01*
X184036447Y-116522309D01*
X184037500Y-116543750D01*
X184037500Y-117056250D01*
X184036447Y-117077691D01*
X184033297Y-117098926D01*
X184028081Y-117119750D01*
X184020849Y-117139962D01*
X184011670Y-117159368D01*
X184000634Y-117177781D01*
X183987846Y-117195024D01*
X183973430Y-117210930D01*
X183957524Y-117225346D01*
X183940281Y-117238134D01*
X183921868Y-117249170D01*
X183902462Y-117258349D01*
X183882250Y-117265581D01*
X183861426Y-117270797D01*
X183840191Y-117273947D01*
X183818750Y-117275000D01*
X183381250Y-117275000D01*
X183359809Y-117273947D01*
X183338574Y-117270797D01*
X183317750Y-117265581D01*
X183297538Y-117258349D01*
X183278132Y-117249170D01*
X183259719Y-117238134D01*
X183242476Y-117225346D01*
X183226570Y-117210930D01*
X183212154Y-117195024D01*
X183199366Y-117177781D01*
X183188330Y-117159368D01*
X183179151Y-117139962D01*
X183171919Y-117119750D01*
X183166703Y-117098926D01*
X183163553Y-117077691D01*
X183162500Y-117056250D01*
X183162500Y-116543750D01*
X183163553Y-116522309D01*
X183166703Y-116501074D01*
X183171919Y-116480250D01*
X183179151Y-116460038D01*
X183188330Y-116440632D01*
X183199366Y-116422219D01*
X183212154Y-116404976D01*
X183226570Y-116389070D01*
X183242476Y-116374654D01*
X183259719Y-116361866D01*
X183278132Y-116350830D01*
X183297538Y-116341651D01*
X183317750Y-116334419D01*
X183338574Y-116329203D01*
X183359809Y-116326053D01*
X183381250Y-116325000D01*
X183818750Y-116325000D01*
X183840191Y-116326053D01*
G37*
G36*
X183915191Y-111159053D02*
G01*
X183936426Y-111162203D01*
X183957250Y-111167419D01*
X183977462Y-111174651D01*
X183996868Y-111183830D01*
X184015281Y-111194866D01*
X184032524Y-111207654D01*
X184048430Y-111222070D01*
X184062846Y-111237976D01*
X184075634Y-111255219D01*
X184086670Y-111273632D01*
X184095849Y-111293038D01*
X184103081Y-111313250D01*
X184108297Y-111334074D01*
X184111447Y-111355309D01*
X184112500Y-111376750D01*
X184112500Y-111889250D01*
X184111447Y-111910691D01*
X184108297Y-111931926D01*
X184103081Y-111952750D01*
X184095849Y-111972962D01*
X184086670Y-111992368D01*
X184075634Y-112010781D01*
X184062846Y-112028024D01*
X184048430Y-112043930D01*
X184032524Y-112058346D01*
X184015281Y-112071134D01*
X183996868Y-112082170D01*
X183977462Y-112091349D01*
X183957250Y-112098581D01*
X183936426Y-112103797D01*
X183915191Y-112106947D01*
X183893750Y-112108000D01*
X183456250Y-112108000D01*
X183434809Y-112106947D01*
X183413574Y-112103797D01*
X183392750Y-112098581D01*
X183372538Y-112091349D01*
X183353132Y-112082170D01*
X183334719Y-112071134D01*
X183317476Y-112058346D01*
X183301570Y-112043930D01*
X183287154Y-112028024D01*
X183274366Y-112010781D01*
X183263330Y-111992368D01*
X183254151Y-111972962D01*
X183246919Y-111952750D01*
X183241703Y-111931926D01*
X183238553Y-111910691D01*
X183237500Y-111889250D01*
X183237500Y-111376750D01*
X183238553Y-111355309D01*
X183241703Y-111334074D01*
X183246919Y-111313250D01*
X183254151Y-111293038D01*
X183263330Y-111273632D01*
X183274366Y-111255219D01*
X183287154Y-111237976D01*
X183301570Y-111222070D01*
X183317476Y-111207654D01*
X183334719Y-111194866D01*
X183353132Y-111183830D01*
X183372538Y-111174651D01*
X183392750Y-111167419D01*
X183413574Y-111162203D01*
X183434809Y-111159053D01*
X183456250Y-111158000D01*
X183893750Y-111158000D01*
X183915191Y-111159053D01*
G37*
G36*
X182340191Y-111159053D02*
G01*
X182361426Y-111162203D01*
X182382250Y-111167419D01*
X182402462Y-111174651D01*
X182421868Y-111183830D01*
X182440281Y-111194866D01*
X182457524Y-111207654D01*
X182473430Y-111222070D01*
X182487846Y-111237976D01*
X182500634Y-111255219D01*
X182511670Y-111273632D01*
X182520849Y-111293038D01*
X182528081Y-111313250D01*
X182533297Y-111334074D01*
X182536447Y-111355309D01*
X182537500Y-111376750D01*
X182537500Y-111889250D01*
X182536447Y-111910691D01*
X182533297Y-111931926D01*
X182528081Y-111952750D01*
X182520849Y-111972962D01*
X182511670Y-111992368D01*
X182500634Y-112010781D01*
X182487846Y-112028024D01*
X182473430Y-112043930D01*
X182457524Y-112058346D01*
X182440281Y-112071134D01*
X182421868Y-112082170D01*
X182402462Y-112091349D01*
X182382250Y-112098581D01*
X182361426Y-112103797D01*
X182340191Y-112106947D01*
X182318750Y-112108000D01*
X181881250Y-112108000D01*
X181859809Y-112106947D01*
X181838574Y-112103797D01*
X181817750Y-112098581D01*
X181797538Y-112091349D01*
X181778132Y-112082170D01*
X181759719Y-112071134D01*
X181742476Y-112058346D01*
X181726570Y-112043930D01*
X181712154Y-112028024D01*
X181699366Y-112010781D01*
X181688330Y-111992368D01*
X181679151Y-111972962D01*
X181671919Y-111952750D01*
X181666703Y-111931926D01*
X181663553Y-111910691D01*
X181662500Y-111889250D01*
X181662500Y-111376750D01*
X181663553Y-111355309D01*
X181666703Y-111334074D01*
X181671919Y-111313250D01*
X181679151Y-111293038D01*
X181688330Y-111273632D01*
X181699366Y-111255219D01*
X181712154Y-111237976D01*
X181726570Y-111222070D01*
X181742476Y-111207654D01*
X181759719Y-111194866D01*
X181778132Y-111183830D01*
X181797538Y-111174651D01*
X181817750Y-111167419D01*
X181838574Y-111162203D01*
X181859809Y-111159053D01*
X181881250Y-111158000D01*
X182318750Y-111158000D01*
X182340191Y-111159053D01*
G37*
D13*
X112800000Y-101950000D03*
X112800000Y-98650000D03*
D12*
G36*
X111865191Y-94126053D02*
G01*
X111886426Y-94129203D01*
X111907250Y-94134419D01*
X111927462Y-94141651D01*
X111946868Y-94150830D01*
X111965281Y-94161866D01*
X111982524Y-94174654D01*
X111998430Y-94189070D01*
X112012846Y-94204976D01*
X112025634Y-94222219D01*
X112036670Y-94240632D01*
X112045849Y-94260038D01*
X112053081Y-94280250D01*
X112058297Y-94301074D01*
X112061447Y-94322309D01*
X112062500Y-94343750D01*
X112062500Y-94856250D01*
X112061447Y-94877691D01*
X112058297Y-94898926D01*
X112053081Y-94919750D01*
X112045849Y-94939962D01*
X112036670Y-94959368D01*
X112025634Y-94977781D01*
X112012846Y-94995024D01*
X111998430Y-95010930D01*
X111982524Y-95025346D01*
X111965281Y-95038134D01*
X111946868Y-95049170D01*
X111927462Y-95058349D01*
X111907250Y-95065581D01*
X111886426Y-95070797D01*
X111865191Y-95073947D01*
X111843750Y-95075000D01*
X111406250Y-95075000D01*
X111384809Y-95073947D01*
X111363574Y-95070797D01*
X111342750Y-95065581D01*
X111322538Y-95058349D01*
X111303132Y-95049170D01*
X111284719Y-95038134D01*
X111267476Y-95025346D01*
X111251570Y-95010930D01*
X111237154Y-94995024D01*
X111224366Y-94977781D01*
X111213330Y-94959368D01*
X111204151Y-94939962D01*
X111196919Y-94919750D01*
X111191703Y-94898926D01*
X111188553Y-94877691D01*
X111187500Y-94856250D01*
X111187500Y-94343750D01*
X111188553Y-94322309D01*
X111191703Y-94301074D01*
X111196919Y-94280250D01*
X111204151Y-94260038D01*
X111213330Y-94240632D01*
X111224366Y-94222219D01*
X111237154Y-94204976D01*
X111251570Y-94189070D01*
X111267476Y-94174654D01*
X111284719Y-94161866D01*
X111303132Y-94150830D01*
X111322538Y-94141651D01*
X111342750Y-94134419D01*
X111363574Y-94129203D01*
X111384809Y-94126053D01*
X111406250Y-94125000D01*
X111843750Y-94125000D01*
X111865191Y-94126053D01*
G37*
G36*
X113440191Y-94126053D02*
G01*
X113461426Y-94129203D01*
X113482250Y-94134419D01*
X113502462Y-94141651D01*
X113521868Y-94150830D01*
X113540281Y-94161866D01*
X113557524Y-94174654D01*
X113573430Y-94189070D01*
X113587846Y-94204976D01*
X113600634Y-94222219D01*
X113611670Y-94240632D01*
X113620849Y-94260038D01*
X113628081Y-94280250D01*
X113633297Y-94301074D01*
X113636447Y-94322309D01*
X113637500Y-94343750D01*
X113637500Y-94856250D01*
X113636447Y-94877691D01*
X113633297Y-94898926D01*
X113628081Y-94919750D01*
X113620849Y-94939962D01*
X113611670Y-94959368D01*
X113600634Y-94977781D01*
X113587846Y-94995024D01*
X113573430Y-95010930D01*
X113557524Y-95025346D01*
X113540281Y-95038134D01*
X113521868Y-95049170D01*
X113502462Y-95058349D01*
X113482250Y-95065581D01*
X113461426Y-95070797D01*
X113440191Y-95073947D01*
X113418750Y-95075000D01*
X112981250Y-95075000D01*
X112959809Y-95073947D01*
X112938574Y-95070797D01*
X112917750Y-95065581D01*
X112897538Y-95058349D01*
X112878132Y-95049170D01*
X112859719Y-95038134D01*
X112842476Y-95025346D01*
X112826570Y-95010930D01*
X112812154Y-94995024D01*
X112799366Y-94977781D01*
X112788330Y-94959368D01*
X112779151Y-94939962D01*
X112771919Y-94919750D01*
X112766703Y-94898926D01*
X112763553Y-94877691D01*
X112762500Y-94856250D01*
X112762500Y-94343750D01*
X112763553Y-94322309D01*
X112766703Y-94301074D01*
X112771919Y-94280250D01*
X112779151Y-94260038D01*
X112788330Y-94240632D01*
X112799366Y-94222219D01*
X112812154Y-94204976D01*
X112826570Y-94189070D01*
X112842476Y-94174654D01*
X112859719Y-94161866D01*
X112878132Y-94150830D01*
X112897538Y-94141651D01*
X112917750Y-94134419D01*
X112938574Y-94129203D01*
X112959809Y-94126053D01*
X112981250Y-94125000D01*
X113418750Y-94125000D01*
X113440191Y-94126053D01*
G37*
D14*
X180900000Y-106400000D03*
X184200000Y-106400000D03*
D12*
G36*
X113049504Y-110476204D02*
G01*
X113073773Y-110479804D01*
X113097571Y-110485765D01*
X113120671Y-110494030D01*
X113142849Y-110504520D01*
X113163893Y-110517133D01*
X113183598Y-110531747D01*
X113201777Y-110548223D01*
X113218253Y-110566402D01*
X113232867Y-110586107D01*
X113245480Y-110607151D01*
X113255970Y-110629329D01*
X113264235Y-110652429D01*
X113270196Y-110676227D01*
X113273796Y-110700496D01*
X113275000Y-110725000D01*
X113275000Y-111475000D01*
X113273796Y-111499504D01*
X113270196Y-111523773D01*
X113264235Y-111547571D01*
X113255970Y-111570671D01*
X113245480Y-111592849D01*
X113232867Y-111613893D01*
X113218253Y-111633598D01*
X113201777Y-111651777D01*
X113183598Y-111668253D01*
X113163893Y-111682867D01*
X113142849Y-111695480D01*
X113120671Y-111705970D01*
X113097571Y-111714235D01*
X113073773Y-111720196D01*
X113049504Y-111723796D01*
X113025000Y-111725000D01*
X111775000Y-111725000D01*
X111750496Y-111723796D01*
X111726227Y-111720196D01*
X111702429Y-111714235D01*
X111679329Y-111705970D01*
X111657151Y-111695480D01*
X111636107Y-111682867D01*
X111616402Y-111668253D01*
X111598223Y-111651777D01*
X111581747Y-111633598D01*
X111567133Y-111613893D01*
X111554520Y-111592849D01*
X111544030Y-111570671D01*
X111535765Y-111547571D01*
X111529804Y-111523773D01*
X111526204Y-111499504D01*
X111525000Y-111475000D01*
X111525000Y-110725000D01*
X111526204Y-110700496D01*
X111529804Y-110676227D01*
X111535765Y-110652429D01*
X111544030Y-110629329D01*
X111554520Y-110607151D01*
X111567133Y-110586107D01*
X111581747Y-110566402D01*
X111598223Y-110548223D01*
X111616402Y-110531747D01*
X111636107Y-110517133D01*
X111657151Y-110504520D01*
X111679329Y-110494030D01*
X111702429Y-110485765D01*
X111726227Y-110479804D01*
X111750496Y-110476204D01*
X111775000Y-110475000D01*
X113025000Y-110475000D01*
X113049504Y-110476204D01*
G37*
G36*
X113049504Y-113276204D02*
G01*
X113073773Y-113279804D01*
X113097571Y-113285765D01*
X113120671Y-113294030D01*
X113142849Y-113304520D01*
X113163893Y-113317133D01*
X113183598Y-113331747D01*
X113201777Y-113348223D01*
X113218253Y-113366402D01*
X113232867Y-113386107D01*
X113245480Y-113407151D01*
X113255970Y-113429329D01*
X113264235Y-113452429D01*
X113270196Y-113476227D01*
X113273796Y-113500496D01*
X113275000Y-113525000D01*
X113275000Y-114275000D01*
X113273796Y-114299504D01*
X113270196Y-114323773D01*
X113264235Y-114347571D01*
X113255970Y-114370671D01*
X113245480Y-114392849D01*
X113232867Y-114413893D01*
X113218253Y-114433598D01*
X113201777Y-114451777D01*
X113183598Y-114468253D01*
X113163893Y-114482867D01*
X113142849Y-114495480D01*
X113120671Y-114505970D01*
X113097571Y-114514235D01*
X113073773Y-114520196D01*
X113049504Y-114523796D01*
X113025000Y-114525000D01*
X111775000Y-114525000D01*
X111750496Y-114523796D01*
X111726227Y-114520196D01*
X111702429Y-114514235D01*
X111679329Y-114505970D01*
X111657151Y-114495480D01*
X111636107Y-114482867D01*
X111616402Y-114468253D01*
X111598223Y-114451777D01*
X111581747Y-114433598D01*
X111567133Y-114413893D01*
X111554520Y-114392849D01*
X111544030Y-114370671D01*
X111535765Y-114347571D01*
X111529804Y-114323773D01*
X111526204Y-114299504D01*
X111525000Y-114275000D01*
X111525000Y-113525000D01*
X111526204Y-113500496D01*
X111529804Y-113476227D01*
X111535765Y-113452429D01*
X111544030Y-113429329D01*
X111554520Y-113407151D01*
X111567133Y-113386107D01*
X111581747Y-113366402D01*
X111598223Y-113348223D01*
X111616402Y-113331747D01*
X111636107Y-113317133D01*
X111657151Y-113304520D01*
X111679329Y-113294030D01*
X111702429Y-113285765D01*
X111726227Y-113279804D01*
X111750496Y-113276204D01*
X111775000Y-113275000D01*
X113025000Y-113275000D01*
X113049504Y-113276204D01*
G37*
D15*
X130183000Y-104422000D03*
X135233000Y-104422000D03*
X130183000Y-106962000D03*
X135233000Y-106962000D03*
X130183000Y-109502000D03*
X135233000Y-109502000D03*
D16*
X125022000Y-95321000D03*
X123122000Y-95321000D03*
X124072000Y-97521000D03*
D17*
X143900000Y-122800000D03*
X145800000Y-122800000D03*
X144850000Y-120800000D03*
X150500000Y-120700000D03*
X151450000Y-122700000D03*
X149550000Y-122700000D03*
D12*
G36*
X117640191Y-112326053D02*
G01*
X117661426Y-112329203D01*
X117682250Y-112334419D01*
X117702462Y-112341651D01*
X117721868Y-112350830D01*
X117740281Y-112361866D01*
X117757524Y-112374654D01*
X117773430Y-112389070D01*
X117787846Y-112404976D01*
X117800634Y-112422219D01*
X117811670Y-112440632D01*
X117820849Y-112460038D01*
X117828081Y-112480250D01*
X117833297Y-112501074D01*
X117836447Y-112522309D01*
X117837500Y-112543750D01*
X117837500Y-113056250D01*
X117836447Y-113077691D01*
X117833297Y-113098926D01*
X117828081Y-113119750D01*
X117820849Y-113139962D01*
X117811670Y-113159368D01*
X117800634Y-113177781D01*
X117787846Y-113195024D01*
X117773430Y-113210930D01*
X117757524Y-113225346D01*
X117740281Y-113238134D01*
X117721868Y-113249170D01*
X117702462Y-113258349D01*
X117682250Y-113265581D01*
X117661426Y-113270797D01*
X117640191Y-113273947D01*
X117618750Y-113275000D01*
X117181250Y-113275000D01*
X117159809Y-113273947D01*
X117138574Y-113270797D01*
X117117750Y-113265581D01*
X117097538Y-113258349D01*
X117078132Y-113249170D01*
X117059719Y-113238134D01*
X117042476Y-113225346D01*
X117026570Y-113210930D01*
X117012154Y-113195024D01*
X116999366Y-113177781D01*
X116988330Y-113159368D01*
X116979151Y-113139962D01*
X116971919Y-113119750D01*
X116966703Y-113098926D01*
X116963553Y-113077691D01*
X116962500Y-113056250D01*
X116962500Y-112543750D01*
X116963553Y-112522309D01*
X116966703Y-112501074D01*
X116971919Y-112480250D01*
X116979151Y-112460038D01*
X116988330Y-112440632D01*
X116999366Y-112422219D01*
X117012154Y-112404976D01*
X117026570Y-112389070D01*
X117042476Y-112374654D01*
X117059719Y-112361866D01*
X117078132Y-112350830D01*
X117097538Y-112341651D01*
X117117750Y-112334419D01*
X117138574Y-112329203D01*
X117159809Y-112326053D01*
X117181250Y-112325000D01*
X117618750Y-112325000D01*
X117640191Y-112326053D01*
G37*
G36*
X119215191Y-112326053D02*
G01*
X119236426Y-112329203D01*
X119257250Y-112334419D01*
X119277462Y-112341651D01*
X119296868Y-112350830D01*
X119315281Y-112361866D01*
X119332524Y-112374654D01*
X119348430Y-112389070D01*
X119362846Y-112404976D01*
X119375634Y-112422219D01*
X119386670Y-112440632D01*
X119395849Y-112460038D01*
X119403081Y-112480250D01*
X119408297Y-112501074D01*
X119411447Y-112522309D01*
X119412500Y-112543750D01*
X119412500Y-113056250D01*
X119411447Y-113077691D01*
X119408297Y-113098926D01*
X119403081Y-113119750D01*
X119395849Y-113139962D01*
X119386670Y-113159368D01*
X119375634Y-113177781D01*
X119362846Y-113195024D01*
X119348430Y-113210930D01*
X119332524Y-113225346D01*
X119315281Y-113238134D01*
X119296868Y-113249170D01*
X119277462Y-113258349D01*
X119257250Y-113265581D01*
X119236426Y-113270797D01*
X119215191Y-113273947D01*
X119193750Y-113275000D01*
X118756250Y-113275000D01*
X118734809Y-113273947D01*
X118713574Y-113270797D01*
X118692750Y-113265581D01*
X118672538Y-113258349D01*
X118653132Y-113249170D01*
X118634719Y-113238134D01*
X118617476Y-113225346D01*
X118601570Y-113210930D01*
X118587154Y-113195024D01*
X118574366Y-113177781D01*
X118563330Y-113159368D01*
X118554151Y-113139962D01*
X118546919Y-113119750D01*
X118541703Y-113098926D01*
X118538553Y-113077691D01*
X118537500Y-113056250D01*
X118537500Y-112543750D01*
X118538553Y-112522309D01*
X118541703Y-112501074D01*
X118546919Y-112480250D01*
X118554151Y-112460038D01*
X118563330Y-112440632D01*
X118574366Y-112422219D01*
X118587154Y-112404976D01*
X118601570Y-112389070D01*
X118617476Y-112374654D01*
X118634719Y-112361866D01*
X118653132Y-112350830D01*
X118672538Y-112341651D01*
X118692750Y-112334419D01*
X118713574Y-112329203D01*
X118734809Y-112326053D01*
X118756250Y-112325000D01*
X119193750Y-112325000D01*
X119215191Y-112326053D01*
G37*
G36*
X133740191Y-100026053D02*
G01*
X133761426Y-100029203D01*
X133782250Y-100034419D01*
X133802462Y-100041651D01*
X133821868Y-100050830D01*
X133840281Y-100061866D01*
X133857524Y-100074654D01*
X133873430Y-100089070D01*
X133887846Y-100104976D01*
X133900634Y-100122219D01*
X133911670Y-100140632D01*
X133920849Y-100160038D01*
X133928081Y-100180250D01*
X133933297Y-100201074D01*
X133936447Y-100222309D01*
X133937500Y-100243750D01*
X133937500Y-100756250D01*
X133936447Y-100777691D01*
X133933297Y-100798926D01*
X133928081Y-100819750D01*
X133920849Y-100839962D01*
X133911670Y-100859368D01*
X133900634Y-100877781D01*
X133887846Y-100895024D01*
X133873430Y-100910930D01*
X133857524Y-100925346D01*
X133840281Y-100938134D01*
X133821868Y-100949170D01*
X133802462Y-100958349D01*
X133782250Y-100965581D01*
X133761426Y-100970797D01*
X133740191Y-100973947D01*
X133718750Y-100975000D01*
X133281250Y-100975000D01*
X133259809Y-100973947D01*
X133238574Y-100970797D01*
X133217750Y-100965581D01*
X133197538Y-100958349D01*
X133178132Y-100949170D01*
X133159719Y-100938134D01*
X133142476Y-100925346D01*
X133126570Y-100910930D01*
X133112154Y-100895024D01*
X133099366Y-100877781D01*
X133088330Y-100859368D01*
X133079151Y-100839962D01*
X133071919Y-100819750D01*
X133066703Y-100798926D01*
X133063553Y-100777691D01*
X133062500Y-100756250D01*
X133062500Y-100243750D01*
X133063553Y-100222309D01*
X133066703Y-100201074D01*
X133071919Y-100180250D01*
X133079151Y-100160038D01*
X133088330Y-100140632D01*
X133099366Y-100122219D01*
X133112154Y-100104976D01*
X133126570Y-100089070D01*
X133142476Y-100074654D01*
X133159719Y-100061866D01*
X133178132Y-100050830D01*
X133197538Y-100041651D01*
X133217750Y-100034419D01*
X133238574Y-100029203D01*
X133259809Y-100026053D01*
X133281250Y-100025000D01*
X133718750Y-100025000D01*
X133740191Y-100026053D01*
G37*
G36*
X132165191Y-100026053D02*
G01*
X132186426Y-100029203D01*
X132207250Y-100034419D01*
X132227462Y-100041651D01*
X132246868Y-100050830D01*
X132265281Y-100061866D01*
X132282524Y-100074654D01*
X132298430Y-100089070D01*
X132312846Y-100104976D01*
X132325634Y-100122219D01*
X132336670Y-100140632D01*
X132345849Y-100160038D01*
X132353081Y-100180250D01*
X132358297Y-100201074D01*
X132361447Y-100222309D01*
X132362500Y-100243750D01*
X132362500Y-100756250D01*
X132361447Y-100777691D01*
X132358297Y-100798926D01*
X132353081Y-100819750D01*
X132345849Y-100839962D01*
X132336670Y-100859368D01*
X132325634Y-100877781D01*
X132312846Y-100895024D01*
X132298430Y-100910930D01*
X132282524Y-100925346D01*
X132265281Y-100938134D01*
X132246868Y-100949170D01*
X132227462Y-100958349D01*
X132207250Y-100965581D01*
X132186426Y-100970797D01*
X132165191Y-100973947D01*
X132143750Y-100975000D01*
X131706250Y-100975000D01*
X131684809Y-100973947D01*
X131663574Y-100970797D01*
X131642750Y-100965581D01*
X131622538Y-100958349D01*
X131603132Y-100949170D01*
X131584719Y-100938134D01*
X131567476Y-100925346D01*
X131551570Y-100910930D01*
X131537154Y-100895024D01*
X131524366Y-100877781D01*
X131513330Y-100859368D01*
X131504151Y-100839962D01*
X131496919Y-100819750D01*
X131491703Y-100798926D01*
X131488553Y-100777691D01*
X131487500Y-100756250D01*
X131487500Y-100243750D01*
X131488553Y-100222309D01*
X131491703Y-100201074D01*
X131496919Y-100180250D01*
X131504151Y-100160038D01*
X131513330Y-100140632D01*
X131524366Y-100122219D01*
X131537154Y-100104976D01*
X131551570Y-100089070D01*
X131567476Y-100074654D01*
X131584719Y-100061866D01*
X131603132Y-100050830D01*
X131622538Y-100041651D01*
X131642750Y-100034419D01*
X131663574Y-100029203D01*
X131684809Y-100026053D01*
X131706250Y-100025000D01*
X132143750Y-100025000D01*
X132165191Y-100026053D01*
G37*
G36*
X119040191Y-94126053D02*
G01*
X119061426Y-94129203D01*
X119082250Y-94134419D01*
X119102462Y-94141651D01*
X119121868Y-94150830D01*
X119140281Y-94161866D01*
X119157524Y-94174654D01*
X119173430Y-94189070D01*
X119187846Y-94204976D01*
X119200634Y-94222219D01*
X119211670Y-94240632D01*
X119220849Y-94260038D01*
X119228081Y-94280250D01*
X119233297Y-94301074D01*
X119236447Y-94322309D01*
X119237500Y-94343750D01*
X119237500Y-94856250D01*
X119236447Y-94877691D01*
X119233297Y-94898926D01*
X119228081Y-94919750D01*
X119220849Y-94939962D01*
X119211670Y-94959368D01*
X119200634Y-94977781D01*
X119187846Y-94995024D01*
X119173430Y-95010930D01*
X119157524Y-95025346D01*
X119140281Y-95038134D01*
X119121868Y-95049170D01*
X119102462Y-95058349D01*
X119082250Y-95065581D01*
X119061426Y-95070797D01*
X119040191Y-95073947D01*
X119018750Y-95075000D01*
X118581250Y-95075000D01*
X118559809Y-95073947D01*
X118538574Y-95070797D01*
X118517750Y-95065581D01*
X118497538Y-95058349D01*
X118478132Y-95049170D01*
X118459719Y-95038134D01*
X118442476Y-95025346D01*
X118426570Y-95010930D01*
X118412154Y-94995024D01*
X118399366Y-94977781D01*
X118388330Y-94959368D01*
X118379151Y-94939962D01*
X118371919Y-94919750D01*
X118366703Y-94898926D01*
X118363553Y-94877691D01*
X118362500Y-94856250D01*
X118362500Y-94343750D01*
X118363553Y-94322309D01*
X118366703Y-94301074D01*
X118371919Y-94280250D01*
X118379151Y-94260038D01*
X118388330Y-94240632D01*
X118399366Y-94222219D01*
X118412154Y-94204976D01*
X118426570Y-94189070D01*
X118442476Y-94174654D01*
X118459719Y-94161866D01*
X118478132Y-94150830D01*
X118497538Y-94141651D01*
X118517750Y-94134419D01*
X118538574Y-94129203D01*
X118559809Y-94126053D01*
X118581250Y-94125000D01*
X119018750Y-94125000D01*
X119040191Y-94126053D01*
G37*
G36*
X117465191Y-94126053D02*
G01*
X117486426Y-94129203D01*
X117507250Y-94134419D01*
X117527462Y-94141651D01*
X117546868Y-94150830D01*
X117565281Y-94161866D01*
X117582524Y-94174654D01*
X117598430Y-94189070D01*
X117612846Y-94204976D01*
X117625634Y-94222219D01*
X117636670Y-94240632D01*
X117645849Y-94260038D01*
X117653081Y-94280250D01*
X117658297Y-94301074D01*
X117661447Y-94322309D01*
X117662500Y-94343750D01*
X117662500Y-94856250D01*
X117661447Y-94877691D01*
X117658297Y-94898926D01*
X117653081Y-94919750D01*
X117645849Y-94939962D01*
X117636670Y-94959368D01*
X117625634Y-94977781D01*
X117612846Y-94995024D01*
X117598430Y-95010930D01*
X117582524Y-95025346D01*
X117565281Y-95038134D01*
X117546868Y-95049170D01*
X117527462Y-95058349D01*
X117507250Y-95065581D01*
X117486426Y-95070797D01*
X117465191Y-95073947D01*
X117443750Y-95075000D01*
X117006250Y-95075000D01*
X116984809Y-95073947D01*
X116963574Y-95070797D01*
X116942750Y-95065581D01*
X116922538Y-95058349D01*
X116903132Y-95049170D01*
X116884719Y-95038134D01*
X116867476Y-95025346D01*
X116851570Y-95010930D01*
X116837154Y-94995024D01*
X116824366Y-94977781D01*
X116813330Y-94959368D01*
X116804151Y-94939962D01*
X116796919Y-94919750D01*
X116791703Y-94898926D01*
X116788553Y-94877691D01*
X116787500Y-94856250D01*
X116787500Y-94343750D01*
X116788553Y-94322309D01*
X116791703Y-94301074D01*
X116796919Y-94280250D01*
X116804151Y-94260038D01*
X116813330Y-94240632D01*
X116824366Y-94222219D01*
X116837154Y-94204976D01*
X116851570Y-94189070D01*
X116867476Y-94174654D01*
X116884719Y-94161866D01*
X116903132Y-94150830D01*
X116922538Y-94141651D01*
X116942750Y-94134419D01*
X116963574Y-94129203D01*
X116984809Y-94126053D01*
X117006250Y-94125000D01*
X117443750Y-94125000D01*
X117465191Y-94126053D01*
G37*
G36*
X119798191Y-116140053D02*
G01*
X119819426Y-116143203D01*
X119840250Y-116148419D01*
X119860462Y-116155651D01*
X119879868Y-116164830D01*
X119898281Y-116175866D01*
X119915524Y-116188654D01*
X119931430Y-116203070D01*
X119945846Y-116218976D01*
X119958634Y-116236219D01*
X119969670Y-116254632D01*
X119978849Y-116274038D01*
X119986081Y-116294250D01*
X119991297Y-116315074D01*
X119994447Y-116336309D01*
X119995500Y-116357750D01*
X119995500Y-116870250D01*
X119994447Y-116891691D01*
X119991297Y-116912926D01*
X119986081Y-116933750D01*
X119978849Y-116953962D01*
X119969670Y-116973368D01*
X119958634Y-116991781D01*
X119945846Y-117009024D01*
X119931430Y-117024930D01*
X119915524Y-117039346D01*
X119898281Y-117052134D01*
X119879868Y-117063170D01*
X119860462Y-117072349D01*
X119840250Y-117079581D01*
X119819426Y-117084797D01*
X119798191Y-117087947D01*
X119776750Y-117089000D01*
X119339250Y-117089000D01*
X119317809Y-117087947D01*
X119296574Y-117084797D01*
X119275750Y-117079581D01*
X119255538Y-117072349D01*
X119236132Y-117063170D01*
X119217719Y-117052134D01*
X119200476Y-117039346D01*
X119184570Y-117024930D01*
X119170154Y-117009024D01*
X119157366Y-116991781D01*
X119146330Y-116973368D01*
X119137151Y-116953962D01*
X119129919Y-116933750D01*
X119124703Y-116912926D01*
X119121553Y-116891691D01*
X119120500Y-116870250D01*
X119120500Y-116357750D01*
X119121553Y-116336309D01*
X119124703Y-116315074D01*
X119129919Y-116294250D01*
X119137151Y-116274038D01*
X119146330Y-116254632D01*
X119157366Y-116236219D01*
X119170154Y-116218976D01*
X119184570Y-116203070D01*
X119200476Y-116188654D01*
X119217719Y-116175866D01*
X119236132Y-116164830D01*
X119255538Y-116155651D01*
X119275750Y-116148419D01*
X119296574Y-116143203D01*
X119317809Y-116140053D01*
X119339250Y-116139000D01*
X119776750Y-116139000D01*
X119798191Y-116140053D01*
G37*
G36*
X118223191Y-116140053D02*
G01*
X118244426Y-116143203D01*
X118265250Y-116148419D01*
X118285462Y-116155651D01*
X118304868Y-116164830D01*
X118323281Y-116175866D01*
X118340524Y-116188654D01*
X118356430Y-116203070D01*
X118370846Y-116218976D01*
X118383634Y-116236219D01*
X118394670Y-116254632D01*
X118403849Y-116274038D01*
X118411081Y-116294250D01*
X118416297Y-116315074D01*
X118419447Y-116336309D01*
X118420500Y-116357750D01*
X118420500Y-116870250D01*
X118419447Y-116891691D01*
X118416297Y-116912926D01*
X118411081Y-116933750D01*
X118403849Y-116953962D01*
X118394670Y-116973368D01*
X118383634Y-116991781D01*
X118370846Y-117009024D01*
X118356430Y-117024930D01*
X118340524Y-117039346D01*
X118323281Y-117052134D01*
X118304868Y-117063170D01*
X118285462Y-117072349D01*
X118265250Y-117079581D01*
X118244426Y-117084797D01*
X118223191Y-117087947D01*
X118201750Y-117089000D01*
X117764250Y-117089000D01*
X117742809Y-117087947D01*
X117721574Y-117084797D01*
X117700750Y-117079581D01*
X117680538Y-117072349D01*
X117661132Y-117063170D01*
X117642719Y-117052134D01*
X117625476Y-117039346D01*
X117609570Y-117024930D01*
X117595154Y-117009024D01*
X117582366Y-116991781D01*
X117571330Y-116973368D01*
X117562151Y-116953962D01*
X117554919Y-116933750D01*
X117549703Y-116912926D01*
X117546553Y-116891691D01*
X117545500Y-116870250D01*
X117545500Y-116357750D01*
X117546553Y-116336309D01*
X117549703Y-116315074D01*
X117554919Y-116294250D01*
X117562151Y-116274038D01*
X117571330Y-116254632D01*
X117582366Y-116236219D01*
X117595154Y-116218976D01*
X117609570Y-116203070D01*
X117625476Y-116188654D01*
X117642719Y-116175866D01*
X117661132Y-116164830D01*
X117680538Y-116155651D01*
X117700750Y-116148419D01*
X117721574Y-116143203D01*
X117742809Y-116140053D01*
X117764250Y-116139000D01*
X118201750Y-116139000D01*
X118223191Y-116140053D01*
G37*
G36*
X118096191Y-114715053D02*
G01*
X118117426Y-114718203D01*
X118138250Y-114723419D01*
X118158462Y-114730651D01*
X118177868Y-114739830D01*
X118196281Y-114750866D01*
X118213524Y-114763654D01*
X118229430Y-114778070D01*
X118243846Y-114793976D01*
X118256634Y-114811219D01*
X118267670Y-114829632D01*
X118276849Y-114849038D01*
X118284081Y-114869250D01*
X118289297Y-114890074D01*
X118292447Y-114911309D01*
X118293500Y-114932750D01*
X118293500Y-115445250D01*
X118292447Y-115466691D01*
X118289297Y-115487926D01*
X118284081Y-115508750D01*
X118276849Y-115528962D01*
X118267670Y-115548368D01*
X118256634Y-115566781D01*
X118243846Y-115584024D01*
X118229430Y-115599930D01*
X118213524Y-115614346D01*
X118196281Y-115627134D01*
X118177868Y-115638170D01*
X118158462Y-115647349D01*
X118138250Y-115654581D01*
X118117426Y-115659797D01*
X118096191Y-115662947D01*
X118074750Y-115664000D01*
X117637250Y-115664000D01*
X117615809Y-115662947D01*
X117594574Y-115659797D01*
X117573750Y-115654581D01*
X117553538Y-115647349D01*
X117534132Y-115638170D01*
X117515719Y-115627134D01*
X117498476Y-115614346D01*
X117482570Y-115599930D01*
X117468154Y-115584024D01*
X117455366Y-115566781D01*
X117444330Y-115548368D01*
X117435151Y-115528962D01*
X117427919Y-115508750D01*
X117422703Y-115487926D01*
X117419553Y-115466691D01*
X117418500Y-115445250D01*
X117418500Y-114932750D01*
X117419553Y-114911309D01*
X117422703Y-114890074D01*
X117427919Y-114869250D01*
X117435151Y-114849038D01*
X117444330Y-114829632D01*
X117455366Y-114811219D01*
X117468154Y-114793976D01*
X117482570Y-114778070D01*
X117498476Y-114763654D01*
X117515719Y-114750866D01*
X117534132Y-114739830D01*
X117553538Y-114730651D01*
X117573750Y-114723419D01*
X117594574Y-114718203D01*
X117615809Y-114715053D01*
X117637250Y-114714000D01*
X118074750Y-114714000D01*
X118096191Y-114715053D01*
G37*
G36*
X119671191Y-114715053D02*
G01*
X119692426Y-114718203D01*
X119713250Y-114723419D01*
X119733462Y-114730651D01*
X119752868Y-114739830D01*
X119771281Y-114750866D01*
X119788524Y-114763654D01*
X119804430Y-114778070D01*
X119818846Y-114793976D01*
X119831634Y-114811219D01*
X119842670Y-114829632D01*
X119851849Y-114849038D01*
X119859081Y-114869250D01*
X119864297Y-114890074D01*
X119867447Y-114911309D01*
X119868500Y-114932750D01*
X119868500Y-115445250D01*
X119867447Y-115466691D01*
X119864297Y-115487926D01*
X119859081Y-115508750D01*
X119851849Y-115528962D01*
X119842670Y-115548368D01*
X119831634Y-115566781D01*
X119818846Y-115584024D01*
X119804430Y-115599930D01*
X119788524Y-115614346D01*
X119771281Y-115627134D01*
X119752868Y-115638170D01*
X119733462Y-115647349D01*
X119713250Y-115654581D01*
X119692426Y-115659797D01*
X119671191Y-115662947D01*
X119649750Y-115664000D01*
X119212250Y-115664000D01*
X119190809Y-115662947D01*
X119169574Y-115659797D01*
X119148750Y-115654581D01*
X119128538Y-115647349D01*
X119109132Y-115638170D01*
X119090719Y-115627134D01*
X119073476Y-115614346D01*
X119057570Y-115599930D01*
X119043154Y-115584024D01*
X119030366Y-115566781D01*
X119019330Y-115548368D01*
X119010151Y-115528962D01*
X119002919Y-115508750D01*
X118997703Y-115487926D01*
X118994553Y-115466691D01*
X118993500Y-115445250D01*
X118993500Y-114932750D01*
X118994553Y-114911309D01*
X118997703Y-114890074D01*
X119002919Y-114869250D01*
X119010151Y-114849038D01*
X119019330Y-114829632D01*
X119030366Y-114811219D01*
X119043154Y-114793976D01*
X119057570Y-114778070D01*
X119073476Y-114763654D01*
X119090719Y-114750866D01*
X119109132Y-114739830D01*
X119128538Y-114730651D01*
X119148750Y-114723419D01*
X119169574Y-114718203D01*
X119190809Y-114715053D01*
X119212250Y-114714000D01*
X119649750Y-114714000D01*
X119671191Y-114715053D01*
G37*
G36*
X140577691Y-120463553D02*
G01*
X140598926Y-120466703D01*
X140619750Y-120471919D01*
X140639962Y-120479151D01*
X140659368Y-120488330D01*
X140677781Y-120499366D01*
X140695024Y-120512154D01*
X140710930Y-120526570D01*
X140725346Y-120542476D01*
X140738134Y-120559719D01*
X140749170Y-120578132D01*
X140758349Y-120597538D01*
X140765581Y-120617750D01*
X140770797Y-120638574D01*
X140773947Y-120659809D01*
X140775000Y-120681250D01*
X140775000Y-121118750D01*
X140773947Y-121140191D01*
X140770797Y-121161426D01*
X140765581Y-121182250D01*
X140758349Y-121202462D01*
X140749170Y-121221868D01*
X140738134Y-121240281D01*
X140725346Y-121257524D01*
X140710930Y-121273430D01*
X140695024Y-121287846D01*
X140677781Y-121300634D01*
X140659368Y-121311670D01*
X140639962Y-121320849D01*
X140619750Y-121328081D01*
X140598926Y-121333297D01*
X140577691Y-121336447D01*
X140556250Y-121337500D01*
X140043750Y-121337500D01*
X140022309Y-121336447D01*
X140001074Y-121333297D01*
X139980250Y-121328081D01*
X139960038Y-121320849D01*
X139940632Y-121311670D01*
X139922219Y-121300634D01*
X139904976Y-121287846D01*
X139889070Y-121273430D01*
X139874654Y-121257524D01*
X139861866Y-121240281D01*
X139850830Y-121221868D01*
X139841651Y-121202462D01*
X139834419Y-121182250D01*
X139829203Y-121161426D01*
X139826053Y-121140191D01*
X139825000Y-121118750D01*
X139825000Y-120681250D01*
X139826053Y-120659809D01*
X139829203Y-120638574D01*
X139834419Y-120617750D01*
X139841651Y-120597538D01*
X139850830Y-120578132D01*
X139861866Y-120559719D01*
X139874654Y-120542476D01*
X139889070Y-120526570D01*
X139904976Y-120512154D01*
X139922219Y-120499366D01*
X139940632Y-120488330D01*
X139960038Y-120479151D01*
X139980250Y-120471919D01*
X140001074Y-120466703D01*
X140022309Y-120463553D01*
X140043750Y-120462500D01*
X140556250Y-120462500D01*
X140577691Y-120463553D01*
G37*
G36*
X140577691Y-122038553D02*
G01*
X140598926Y-122041703D01*
X140619750Y-122046919D01*
X140639962Y-122054151D01*
X140659368Y-122063330D01*
X140677781Y-122074366D01*
X140695024Y-122087154D01*
X140710930Y-122101570D01*
X140725346Y-122117476D01*
X140738134Y-122134719D01*
X140749170Y-122153132D01*
X140758349Y-122172538D01*
X140765581Y-122192750D01*
X140770797Y-122213574D01*
X140773947Y-122234809D01*
X140775000Y-122256250D01*
X140775000Y-122693750D01*
X140773947Y-122715191D01*
X140770797Y-122736426D01*
X140765581Y-122757250D01*
X140758349Y-122777462D01*
X140749170Y-122796868D01*
X140738134Y-122815281D01*
X140725346Y-122832524D01*
X140710930Y-122848430D01*
X140695024Y-122862846D01*
X140677781Y-122875634D01*
X140659368Y-122886670D01*
X140639962Y-122895849D01*
X140619750Y-122903081D01*
X140598926Y-122908297D01*
X140577691Y-122911447D01*
X140556250Y-122912500D01*
X140043750Y-122912500D01*
X140022309Y-122911447D01*
X140001074Y-122908297D01*
X139980250Y-122903081D01*
X139960038Y-122895849D01*
X139940632Y-122886670D01*
X139922219Y-122875634D01*
X139904976Y-122862846D01*
X139889070Y-122848430D01*
X139874654Y-122832524D01*
X139861866Y-122815281D01*
X139850830Y-122796868D01*
X139841651Y-122777462D01*
X139834419Y-122757250D01*
X139829203Y-122736426D01*
X139826053Y-122715191D01*
X139825000Y-122693750D01*
X139825000Y-122256250D01*
X139826053Y-122234809D01*
X139829203Y-122213574D01*
X139834419Y-122192750D01*
X139841651Y-122172538D01*
X139850830Y-122153132D01*
X139861866Y-122134719D01*
X139874654Y-122117476D01*
X139889070Y-122101570D01*
X139904976Y-122087154D01*
X139922219Y-122074366D01*
X139940632Y-122063330D01*
X139960038Y-122054151D01*
X139980250Y-122046919D01*
X140001074Y-122041703D01*
X140022309Y-122038553D01*
X140043750Y-122037500D01*
X140556250Y-122037500D01*
X140577691Y-122038553D01*
G37*
G36*
X155277691Y-120876053D02*
G01*
X155298926Y-120879203D01*
X155319750Y-120884419D01*
X155339962Y-120891651D01*
X155359368Y-120900830D01*
X155377781Y-120911866D01*
X155395024Y-120924654D01*
X155410930Y-120939070D01*
X155425346Y-120954976D01*
X155438134Y-120972219D01*
X155449170Y-120990632D01*
X155458349Y-121010038D01*
X155465581Y-121030250D01*
X155470797Y-121051074D01*
X155473947Y-121072309D01*
X155475000Y-121093750D01*
X155475000Y-121531250D01*
X155473947Y-121552691D01*
X155470797Y-121573926D01*
X155465581Y-121594750D01*
X155458349Y-121614962D01*
X155449170Y-121634368D01*
X155438134Y-121652781D01*
X155425346Y-121670024D01*
X155410930Y-121685930D01*
X155395024Y-121700346D01*
X155377781Y-121713134D01*
X155359368Y-121724170D01*
X155339962Y-121733349D01*
X155319750Y-121740581D01*
X155298926Y-121745797D01*
X155277691Y-121748947D01*
X155256250Y-121750000D01*
X154743750Y-121750000D01*
X154722309Y-121748947D01*
X154701074Y-121745797D01*
X154680250Y-121740581D01*
X154660038Y-121733349D01*
X154640632Y-121724170D01*
X154622219Y-121713134D01*
X154604976Y-121700346D01*
X154589070Y-121685930D01*
X154574654Y-121670024D01*
X154561866Y-121652781D01*
X154550830Y-121634368D01*
X154541651Y-121614962D01*
X154534419Y-121594750D01*
X154529203Y-121573926D01*
X154526053Y-121552691D01*
X154525000Y-121531250D01*
X154525000Y-121093750D01*
X154526053Y-121072309D01*
X154529203Y-121051074D01*
X154534419Y-121030250D01*
X154541651Y-121010038D01*
X154550830Y-120990632D01*
X154561866Y-120972219D01*
X154574654Y-120954976D01*
X154589070Y-120939070D01*
X154604976Y-120924654D01*
X154622219Y-120911866D01*
X154640632Y-120900830D01*
X154660038Y-120891651D01*
X154680250Y-120884419D01*
X154701074Y-120879203D01*
X154722309Y-120876053D01*
X154743750Y-120875000D01*
X155256250Y-120875000D01*
X155277691Y-120876053D01*
G37*
G36*
X155277691Y-122451053D02*
G01*
X155298926Y-122454203D01*
X155319750Y-122459419D01*
X155339962Y-122466651D01*
X155359368Y-122475830D01*
X155377781Y-122486866D01*
X155395024Y-122499654D01*
X155410930Y-122514070D01*
X155425346Y-122529976D01*
X155438134Y-122547219D01*
X155449170Y-122565632D01*
X155458349Y-122585038D01*
X155465581Y-122605250D01*
X155470797Y-122626074D01*
X155473947Y-122647309D01*
X155475000Y-122668750D01*
X155475000Y-123106250D01*
X155473947Y-123127691D01*
X155470797Y-123148926D01*
X155465581Y-123169750D01*
X155458349Y-123189962D01*
X155449170Y-123209368D01*
X155438134Y-123227781D01*
X155425346Y-123245024D01*
X155410930Y-123260930D01*
X155395024Y-123275346D01*
X155377781Y-123288134D01*
X155359368Y-123299170D01*
X155339962Y-123308349D01*
X155319750Y-123315581D01*
X155298926Y-123320797D01*
X155277691Y-123323947D01*
X155256250Y-123325000D01*
X154743750Y-123325000D01*
X154722309Y-123323947D01*
X154701074Y-123320797D01*
X154680250Y-123315581D01*
X154660038Y-123308349D01*
X154640632Y-123299170D01*
X154622219Y-123288134D01*
X154604976Y-123275346D01*
X154589070Y-123260930D01*
X154574654Y-123245024D01*
X154561866Y-123227781D01*
X154550830Y-123209368D01*
X154541651Y-123189962D01*
X154534419Y-123169750D01*
X154529203Y-123148926D01*
X154526053Y-123127691D01*
X154525000Y-123106250D01*
X154525000Y-122668750D01*
X154526053Y-122647309D01*
X154529203Y-122626074D01*
X154534419Y-122605250D01*
X154541651Y-122585038D01*
X154550830Y-122565632D01*
X154561866Y-122547219D01*
X154574654Y-122529976D01*
X154589070Y-122514070D01*
X154604976Y-122499654D01*
X154622219Y-122486866D01*
X154640632Y-122475830D01*
X154660038Y-122466651D01*
X154680250Y-122459419D01*
X154701074Y-122454203D01*
X154722309Y-122451053D01*
X154743750Y-122450000D01*
X155256250Y-122450000D01*
X155277691Y-122451053D01*
G37*
G36*
X143065191Y-114226053D02*
G01*
X143086426Y-114229203D01*
X143107250Y-114234419D01*
X143127462Y-114241651D01*
X143146868Y-114250830D01*
X143165281Y-114261866D01*
X143182524Y-114274654D01*
X143198430Y-114289070D01*
X143212846Y-114304976D01*
X143225634Y-114322219D01*
X143236670Y-114340632D01*
X143245849Y-114360038D01*
X143253081Y-114380250D01*
X143258297Y-114401074D01*
X143261447Y-114422309D01*
X143262500Y-114443750D01*
X143262500Y-114956250D01*
X143261447Y-114977691D01*
X143258297Y-114998926D01*
X143253081Y-115019750D01*
X143245849Y-115039962D01*
X143236670Y-115059368D01*
X143225634Y-115077781D01*
X143212846Y-115095024D01*
X143198430Y-115110930D01*
X143182524Y-115125346D01*
X143165281Y-115138134D01*
X143146868Y-115149170D01*
X143127462Y-115158349D01*
X143107250Y-115165581D01*
X143086426Y-115170797D01*
X143065191Y-115173947D01*
X143043750Y-115175000D01*
X142606250Y-115175000D01*
X142584809Y-115173947D01*
X142563574Y-115170797D01*
X142542750Y-115165581D01*
X142522538Y-115158349D01*
X142503132Y-115149170D01*
X142484719Y-115138134D01*
X142467476Y-115125346D01*
X142451570Y-115110930D01*
X142437154Y-115095024D01*
X142424366Y-115077781D01*
X142413330Y-115059368D01*
X142404151Y-115039962D01*
X142396919Y-115019750D01*
X142391703Y-114998926D01*
X142388553Y-114977691D01*
X142387500Y-114956250D01*
X142387500Y-114443750D01*
X142388553Y-114422309D01*
X142391703Y-114401074D01*
X142396919Y-114380250D01*
X142404151Y-114360038D01*
X142413330Y-114340632D01*
X142424366Y-114322219D01*
X142437154Y-114304976D01*
X142451570Y-114289070D01*
X142467476Y-114274654D01*
X142484719Y-114261866D01*
X142503132Y-114250830D01*
X142522538Y-114241651D01*
X142542750Y-114234419D01*
X142563574Y-114229203D01*
X142584809Y-114226053D01*
X142606250Y-114225000D01*
X143043750Y-114225000D01*
X143065191Y-114226053D01*
G37*
G36*
X144640191Y-114226053D02*
G01*
X144661426Y-114229203D01*
X144682250Y-114234419D01*
X144702462Y-114241651D01*
X144721868Y-114250830D01*
X144740281Y-114261866D01*
X144757524Y-114274654D01*
X144773430Y-114289070D01*
X144787846Y-114304976D01*
X144800634Y-114322219D01*
X144811670Y-114340632D01*
X144820849Y-114360038D01*
X144828081Y-114380250D01*
X144833297Y-114401074D01*
X144836447Y-114422309D01*
X144837500Y-114443750D01*
X144837500Y-114956250D01*
X144836447Y-114977691D01*
X144833297Y-114998926D01*
X144828081Y-115019750D01*
X144820849Y-115039962D01*
X144811670Y-115059368D01*
X144800634Y-115077781D01*
X144787846Y-115095024D01*
X144773430Y-115110930D01*
X144757524Y-115125346D01*
X144740281Y-115138134D01*
X144721868Y-115149170D01*
X144702462Y-115158349D01*
X144682250Y-115165581D01*
X144661426Y-115170797D01*
X144640191Y-115173947D01*
X144618750Y-115175000D01*
X144181250Y-115175000D01*
X144159809Y-115173947D01*
X144138574Y-115170797D01*
X144117750Y-115165581D01*
X144097538Y-115158349D01*
X144078132Y-115149170D01*
X144059719Y-115138134D01*
X144042476Y-115125346D01*
X144026570Y-115110930D01*
X144012154Y-115095024D01*
X143999366Y-115077781D01*
X143988330Y-115059368D01*
X143979151Y-115039962D01*
X143971919Y-115019750D01*
X143966703Y-114998926D01*
X143963553Y-114977691D01*
X143962500Y-114956250D01*
X143962500Y-114443750D01*
X143963553Y-114422309D01*
X143966703Y-114401074D01*
X143971919Y-114380250D01*
X143979151Y-114360038D01*
X143988330Y-114340632D01*
X143999366Y-114322219D01*
X144012154Y-114304976D01*
X144026570Y-114289070D01*
X144042476Y-114274654D01*
X144059719Y-114261866D01*
X144078132Y-114250830D01*
X144097538Y-114241651D01*
X144117750Y-114234419D01*
X144138574Y-114229203D01*
X144159809Y-114226053D01*
X144181250Y-114225000D01*
X144618750Y-114225000D01*
X144640191Y-114226053D01*
G37*
G36*
X159498191Y-118906053D02*
G01*
X159519426Y-118909203D01*
X159540250Y-118914419D01*
X159560462Y-118921651D01*
X159579868Y-118930830D01*
X159598281Y-118941866D01*
X159615524Y-118954654D01*
X159631430Y-118969070D01*
X159645846Y-118984976D01*
X159658634Y-119002219D01*
X159669670Y-119020632D01*
X159678849Y-119040038D01*
X159686081Y-119060250D01*
X159691297Y-119081074D01*
X159694447Y-119102309D01*
X159695500Y-119123750D01*
X159695500Y-119636250D01*
X159694447Y-119657691D01*
X159691297Y-119678926D01*
X159686081Y-119699750D01*
X159678849Y-119719962D01*
X159669670Y-119739368D01*
X159658634Y-119757781D01*
X159645846Y-119775024D01*
X159631430Y-119790930D01*
X159615524Y-119805346D01*
X159598281Y-119818134D01*
X159579868Y-119829170D01*
X159560462Y-119838349D01*
X159540250Y-119845581D01*
X159519426Y-119850797D01*
X159498191Y-119853947D01*
X159476750Y-119855000D01*
X159039250Y-119855000D01*
X159017809Y-119853947D01*
X158996574Y-119850797D01*
X158975750Y-119845581D01*
X158955538Y-119838349D01*
X158936132Y-119829170D01*
X158917719Y-119818134D01*
X158900476Y-119805346D01*
X158884570Y-119790930D01*
X158870154Y-119775024D01*
X158857366Y-119757781D01*
X158846330Y-119739368D01*
X158837151Y-119719962D01*
X158829919Y-119699750D01*
X158824703Y-119678926D01*
X158821553Y-119657691D01*
X158820500Y-119636250D01*
X158820500Y-119123750D01*
X158821553Y-119102309D01*
X158824703Y-119081074D01*
X158829919Y-119060250D01*
X158837151Y-119040038D01*
X158846330Y-119020632D01*
X158857366Y-119002219D01*
X158870154Y-118984976D01*
X158884570Y-118969070D01*
X158900476Y-118954654D01*
X158917719Y-118941866D01*
X158936132Y-118930830D01*
X158955538Y-118921651D01*
X158975750Y-118914419D01*
X158996574Y-118909203D01*
X159017809Y-118906053D01*
X159039250Y-118905000D01*
X159476750Y-118905000D01*
X159498191Y-118906053D01*
G37*
G36*
X157923191Y-118906053D02*
G01*
X157944426Y-118909203D01*
X157965250Y-118914419D01*
X157985462Y-118921651D01*
X158004868Y-118930830D01*
X158023281Y-118941866D01*
X158040524Y-118954654D01*
X158056430Y-118969070D01*
X158070846Y-118984976D01*
X158083634Y-119002219D01*
X158094670Y-119020632D01*
X158103849Y-119040038D01*
X158111081Y-119060250D01*
X158116297Y-119081074D01*
X158119447Y-119102309D01*
X158120500Y-119123750D01*
X158120500Y-119636250D01*
X158119447Y-119657691D01*
X158116297Y-119678926D01*
X158111081Y-119699750D01*
X158103849Y-119719962D01*
X158094670Y-119739368D01*
X158083634Y-119757781D01*
X158070846Y-119775024D01*
X158056430Y-119790930D01*
X158040524Y-119805346D01*
X158023281Y-119818134D01*
X158004868Y-119829170D01*
X157985462Y-119838349D01*
X157965250Y-119845581D01*
X157944426Y-119850797D01*
X157923191Y-119853947D01*
X157901750Y-119855000D01*
X157464250Y-119855000D01*
X157442809Y-119853947D01*
X157421574Y-119850797D01*
X157400750Y-119845581D01*
X157380538Y-119838349D01*
X157361132Y-119829170D01*
X157342719Y-119818134D01*
X157325476Y-119805346D01*
X157309570Y-119790930D01*
X157295154Y-119775024D01*
X157282366Y-119757781D01*
X157271330Y-119739368D01*
X157262151Y-119719962D01*
X157254919Y-119699750D01*
X157249703Y-119678926D01*
X157246553Y-119657691D01*
X157245500Y-119636250D01*
X157245500Y-119123750D01*
X157246553Y-119102309D01*
X157249703Y-119081074D01*
X157254919Y-119060250D01*
X157262151Y-119040038D01*
X157271330Y-119020632D01*
X157282366Y-119002219D01*
X157295154Y-118984976D01*
X157309570Y-118969070D01*
X157325476Y-118954654D01*
X157342719Y-118941866D01*
X157361132Y-118930830D01*
X157380538Y-118921651D01*
X157400750Y-118914419D01*
X157421574Y-118909203D01*
X157442809Y-118906053D01*
X157464250Y-118905000D01*
X157901750Y-118905000D01*
X157923191Y-118906053D01*
G37*
G36*
X183940191Y-113026053D02*
G01*
X183961426Y-113029203D01*
X183982250Y-113034419D01*
X184002462Y-113041651D01*
X184021868Y-113050830D01*
X184040281Y-113061866D01*
X184057524Y-113074654D01*
X184073430Y-113089070D01*
X184087846Y-113104976D01*
X184100634Y-113122219D01*
X184111670Y-113140632D01*
X184120849Y-113160038D01*
X184128081Y-113180250D01*
X184133297Y-113201074D01*
X184136447Y-113222309D01*
X184137500Y-113243750D01*
X184137500Y-113756250D01*
X184136447Y-113777691D01*
X184133297Y-113798926D01*
X184128081Y-113819750D01*
X184120849Y-113839962D01*
X184111670Y-113859368D01*
X184100634Y-113877781D01*
X184087846Y-113895024D01*
X184073430Y-113910930D01*
X184057524Y-113925346D01*
X184040281Y-113938134D01*
X184021868Y-113949170D01*
X184002462Y-113958349D01*
X183982250Y-113965581D01*
X183961426Y-113970797D01*
X183940191Y-113973947D01*
X183918750Y-113975000D01*
X183481250Y-113975000D01*
X183459809Y-113973947D01*
X183438574Y-113970797D01*
X183417750Y-113965581D01*
X183397538Y-113958349D01*
X183378132Y-113949170D01*
X183359719Y-113938134D01*
X183342476Y-113925346D01*
X183326570Y-113910930D01*
X183312154Y-113895024D01*
X183299366Y-113877781D01*
X183288330Y-113859368D01*
X183279151Y-113839962D01*
X183271919Y-113819750D01*
X183266703Y-113798926D01*
X183263553Y-113777691D01*
X183262500Y-113756250D01*
X183262500Y-113243750D01*
X183263553Y-113222309D01*
X183266703Y-113201074D01*
X183271919Y-113180250D01*
X183279151Y-113160038D01*
X183288330Y-113140632D01*
X183299366Y-113122219D01*
X183312154Y-113104976D01*
X183326570Y-113089070D01*
X183342476Y-113074654D01*
X183359719Y-113061866D01*
X183378132Y-113050830D01*
X183397538Y-113041651D01*
X183417750Y-113034419D01*
X183438574Y-113029203D01*
X183459809Y-113026053D01*
X183481250Y-113025000D01*
X183918750Y-113025000D01*
X183940191Y-113026053D01*
G37*
G36*
X182365191Y-113026053D02*
G01*
X182386426Y-113029203D01*
X182407250Y-113034419D01*
X182427462Y-113041651D01*
X182446868Y-113050830D01*
X182465281Y-113061866D01*
X182482524Y-113074654D01*
X182498430Y-113089070D01*
X182512846Y-113104976D01*
X182525634Y-113122219D01*
X182536670Y-113140632D01*
X182545849Y-113160038D01*
X182553081Y-113180250D01*
X182558297Y-113201074D01*
X182561447Y-113222309D01*
X182562500Y-113243750D01*
X182562500Y-113756250D01*
X182561447Y-113777691D01*
X182558297Y-113798926D01*
X182553081Y-113819750D01*
X182545849Y-113839962D01*
X182536670Y-113859368D01*
X182525634Y-113877781D01*
X182512846Y-113895024D01*
X182498430Y-113910930D01*
X182482524Y-113925346D01*
X182465281Y-113938134D01*
X182446868Y-113949170D01*
X182427462Y-113958349D01*
X182407250Y-113965581D01*
X182386426Y-113970797D01*
X182365191Y-113973947D01*
X182343750Y-113975000D01*
X181906250Y-113975000D01*
X181884809Y-113973947D01*
X181863574Y-113970797D01*
X181842750Y-113965581D01*
X181822538Y-113958349D01*
X181803132Y-113949170D01*
X181784719Y-113938134D01*
X181767476Y-113925346D01*
X181751570Y-113910930D01*
X181737154Y-113895024D01*
X181724366Y-113877781D01*
X181713330Y-113859368D01*
X181704151Y-113839962D01*
X181696919Y-113819750D01*
X181691703Y-113798926D01*
X181688553Y-113777691D01*
X181687500Y-113756250D01*
X181687500Y-113243750D01*
X181688553Y-113222309D01*
X181691703Y-113201074D01*
X181696919Y-113180250D01*
X181704151Y-113160038D01*
X181713330Y-113140632D01*
X181724366Y-113122219D01*
X181737154Y-113104976D01*
X181751570Y-113089070D01*
X181767476Y-113074654D01*
X181784719Y-113061866D01*
X181803132Y-113050830D01*
X181822538Y-113041651D01*
X181842750Y-113034419D01*
X181863574Y-113029203D01*
X181884809Y-113026053D01*
X181906250Y-113025000D01*
X182343750Y-113025000D01*
X182365191Y-113026053D01*
G37*
G36*
X182307191Y-109381053D02*
G01*
X182328426Y-109384203D01*
X182349250Y-109389419D01*
X182369462Y-109396651D01*
X182388868Y-109405830D01*
X182407281Y-109416866D01*
X182424524Y-109429654D01*
X182440430Y-109444070D01*
X182454846Y-109459976D01*
X182467634Y-109477219D01*
X182478670Y-109495632D01*
X182487849Y-109515038D01*
X182495081Y-109535250D01*
X182500297Y-109556074D01*
X182503447Y-109577309D01*
X182504500Y-109598750D01*
X182504500Y-110111250D01*
X182503447Y-110132691D01*
X182500297Y-110153926D01*
X182495081Y-110174750D01*
X182487849Y-110194962D01*
X182478670Y-110214368D01*
X182467634Y-110232781D01*
X182454846Y-110250024D01*
X182440430Y-110265930D01*
X182424524Y-110280346D01*
X182407281Y-110293134D01*
X182388868Y-110304170D01*
X182369462Y-110313349D01*
X182349250Y-110320581D01*
X182328426Y-110325797D01*
X182307191Y-110328947D01*
X182285750Y-110330000D01*
X181848250Y-110330000D01*
X181826809Y-110328947D01*
X181805574Y-110325797D01*
X181784750Y-110320581D01*
X181764538Y-110313349D01*
X181745132Y-110304170D01*
X181726719Y-110293134D01*
X181709476Y-110280346D01*
X181693570Y-110265930D01*
X181679154Y-110250024D01*
X181666366Y-110232781D01*
X181655330Y-110214368D01*
X181646151Y-110194962D01*
X181638919Y-110174750D01*
X181633703Y-110153926D01*
X181630553Y-110132691D01*
X181629500Y-110111250D01*
X181629500Y-109598750D01*
X181630553Y-109577309D01*
X181633703Y-109556074D01*
X181638919Y-109535250D01*
X181646151Y-109515038D01*
X181655330Y-109495632D01*
X181666366Y-109477219D01*
X181679154Y-109459976D01*
X181693570Y-109444070D01*
X181709476Y-109429654D01*
X181726719Y-109416866D01*
X181745132Y-109405830D01*
X181764538Y-109396651D01*
X181784750Y-109389419D01*
X181805574Y-109384203D01*
X181826809Y-109381053D01*
X181848250Y-109380000D01*
X182285750Y-109380000D01*
X182307191Y-109381053D01*
G37*
G36*
X183882191Y-109381053D02*
G01*
X183903426Y-109384203D01*
X183924250Y-109389419D01*
X183944462Y-109396651D01*
X183963868Y-109405830D01*
X183982281Y-109416866D01*
X183999524Y-109429654D01*
X184015430Y-109444070D01*
X184029846Y-109459976D01*
X184042634Y-109477219D01*
X184053670Y-109495632D01*
X184062849Y-109515038D01*
X184070081Y-109535250D01*
X184075297Y-109556074D01*
X184078447Y-109577309D01*
X184079500Y-109598750D01*
X184079500Y-110111250D01*
X184078447Y-110132691D01*
X184075297Y-110153926D01*
X184070081Y-110174750D01*
X184062849Y-110194962D01*
X184053670Y-110214368D01*
X184042634Y-110232781D01*
X184029846Y-110250024D01*
X184015430Y-110265930D01*
X183999524Y-110280346D01*
X183982281Y-110293134D01*
X183963868Y-110304170D01*
X183944462Y-110313349D01*
X183924250Y-110320581D01*
X183903426Y-110325797D01*
X183882191Y-110328947D01*
X183860750Y-110330000D01*
X183423250Y-110330000D01*
X183401809Y-110328947D01*
X183380574Y-110325797D01*
X183359750Y-110320581D01*
X183339538Y-110313349D01*
X183320132Y-110304170D01*
X183301719Y-110293134D01*
X183284476Y-110280346D01*
X183268570Y-110265930D01*
X183254154Y-110250024D01*
X183241366Y-110232781D01*
X183230330Y-110214368D01*
X183221151Y-110194962D01*
X183213919Y-110174750D01*
X183208703Y-110153926D01*
X183205553Y-110132691D01*
X183204500Y-110111250D01*
X183204500Y-109598750D01*
X183205553Y-109577309D01*
X183208703Y-109556074D01*
X183213919Y-109535250D01*
X183221151Y-109515038D01*
X183230330Y-109495632D01*
X183241366Y-109477219D01*
X183254154Y-109459976D01*
X183268570Y-109444070D01*
X183284476Y-109429654D01*
X183301719Y-109416866D01*
X183320132Y-109405830D01*
X183339538Y-109396651D01*
X183359750Y-109389419D01*
X183380574Y-109384203D01*
X183401809Y-109381053D01*
X183423250Y-109380000D01*
X183860750Y-109380000D01*
X183882191Y-109381053D01*
G37*
G36*
X150665191Y-114726053D02*
G01*
X150686426Y-114729203D01*
X150707250Y-114734419D01*
X150727462Y-114741651D01*
X150746868Y-114750830D01*
X150765281Y-114761866D01*
X150782524Y-114774654D01*
X150798430Y-114789070D01*
X150812846Y-114804976D01*
X150825634Y-114822219D01*
X150836670Y-114840632D01*
X150845849Y-114860038D01*
X150853081Y-114880250D01*
X150858297Y-114901074D01*
X150861447Y-114922309D01*
X150862500Y-114943750D01*
X150862500Y-115456250D01*
X150861447Y-115477691D01*
X150858297Y-115498926D01*
X150853081Y-115519750D01*
X150845849Y-115539962D01*
X150836670Y-115559368D01*
X150825634Y-115577781D01*
X150812846Y-115595024D01*
X150798430Y-115610930D01*
X150782524Y-115625346D01*
X150765281Y-115638134D01*
X150746868Y-115649170D01*
X150727462Y-115658349D01*
X150707250Y-115665581D01*
X150686426Y-115670797D01*
X150665191Y-115673947D01*
X150643750Y-115675000D01*
X150206250Y-115675000D01*
X150184809Y-115673947D01*
X150163574Y-115670797D01*
X150142750Y-115665581D01*
X150122538Y-115658349D01*
X150103132Y-115649170D01*
X150084719Y-115638134D01*
X150067476Y-115625346D01*
X150051570Y-115610930D01*
X150037154Y-115595024D01*
X150024366Y-115577781D01*
X150013330Y-115559368D01*
X150004151Y-115539962D01*
X149996919Y-115519750D01*
X149991703Y-115498926D01*
X149988553Y-115477691D01*
X149987500Y-115456250D01*
X149987500Y-114943750D01*
X149988553Y-114922309D01*
X149991703Y-114901074D01*
X149996919Y-114880250D01*
X150004151Y-114860038D01*
X150013330Y-114840632D01*
X150024366Y-114822219D01*
X150037154Y-114804976D01*
X150051570Y-114789070D01*
X150067476Y-114774654D01*
X150084719Y-114761866D01*
X150103132Y-114750830D01*
X150122538Y-114741651D01*
X150142750Y-114734419D01*
X150163574Y-114729203D01*
X150184809Y-114726053D01*
X150206250Y-114725000D01*
X150643750Y-114725000D01*
X150665191Y-114726053D01*
G37*
G36*
X152240191Y-114726053D02*
G01*
X152261426Y-114729203D01*
X152282250Y-114734419D01*
X152302462Y-114741651D01*
X152321868Y-114750830D01*
X152340281Y-114761866D01*
X152357524Y-114774654D01*
X152373430Y-114789070D01*
X152387846Y-114804976D01*
X152400634Y-114822219D01*
X152411670Y-114840632D01*
X152420849Y-114860038D01*
X152428081Y-114880250D01*
X152433297Y-114901074D01*
X152436447Y-114922309D01*
X152437500Y-114943750D01*
X152437500Y-115456250D01*
X152436447Y-115477691D01*
X152433297Y-115498926D01*
X152428081Y-115519750D01*
X152420849Y-115539962D01*
X152411670Y-115559368D01*
X152400634Y-115577781D01*
X152387846Y-115595024D01*
X152373430Y-115610930D01*
X152357524Y-115625346D01*
X152340281Y-115638134D01*
X152321868Y-115649170D01*
X152302462Y-115658349D01*
X152282250Y-115665581D01*
X152261426Y-115670797D01*
X152240191Y-115673947D01*
X152218750Y-115675000D01*
X151781250Y-115675000D01*
X151759809Y-115673947D01*
X151738574Y-115670797D01*
X151717750Y-115665581D01*
X151697538Y-115658349D01*
X151678132Y-115649170D01*
X151659719Y-115638134D01*
X151642476Y-115625346D01*
X151626570Y-115610930D01*
X151612154Y-115595024D01*
X151599366Y-115577781D01*
X151588330Y-115559368D01*
X151579151Y-115539962D01*
X151571919Y-115519750D01*
X151566703Y-115498926D01*
X151563553Y-115477691D01*
X151562500Y-115456250D01*
X151562500Y-114943750D01*
X151563553Y-114922309D01*
X151566703Y-114901074D01*
X151571919Y-114880250D01*
X151579151Y-114860038D01*
X151588330Y-114840632D01*
X151599366Y-114822219D01*
X151612154Y-114804976D01*
X151626570Y-114789070D01*
X151642476Y-114774654D01*
X151659719Y-114761866D01*
X151678132Y-114750830D01*
X151697538Y-114741651D01*
X151717750Y-114734419D01*
X151738574Y-114729203D01*
X151759809Y-114726053D01*
X151781250Y-114725000D01*
X152218750Y-114725000D01*
X152240191Y-114726053D01*
G37*
G36*
X136149703Y-94216722D02*
G01*
X136164264Y-94218882D01*
X136178543Y-94222459D01*
X136192403Y-94227418D01*
X136205710Y-94233712D01*
X136218336Y-94241280D01*
X136230159Y-94250048D01*
X136241066Y-94259934D01*
X136250952Y-94270841D01*
X136259720Y-94282664D01*
X136267288Y-94295290D01*
X136273582Y-94308597D01*
X136278541Y-94322457D01*
X136282118Y-94336736D01*
X136284278Y-94351297D01*
X136285000Y-94366000D01*
X136285000Y-94666000D01*
X136284278Y-94680703D01*
X136282118Y-94695264D01*
X136278541Y-94709543D01*
X136273582Y-94723403D01*
X136267288Y-94736710D01*
X136259720Y-94749336D01*
X136250952Y-94761159D01*
X136241066Y-94772066D01*
X136230159Y-94781952D01*
X136218336Y-94790720D01*
X136205710Y-94798288D01*
X136192403Y-94804582D01*
X136178543Y-94809541D01*
X136164264Y-94813118D01*
X136149703Y-94815278D01*
X136135000Y-94816000D01*
X134485000Y-94816000D01*
X134470297Y-94815278D01*
X134455736Y-94813118D01*
X134441457Y-94809541D01*
X134427597Y-94804582D01*
X134414290Y-94798288D01*
X134401664Y-94790720D01*
X134389841Y-94781952D01*
X134378934Y-94772066D01*
X134369048Y-94761159D01*
X134360280Y-94749336D01*
X134352712Y-94736710D01*
X134346418Y-94723403D01*
X134341459Y-94709543D01*
X134337882Y-94695264D01*
X134335722Y-94680703D01*
X134335000Y-94666000D01*
X134335000Y-94366000D01*
X134335722Y-94351297D01*
X134337882Y-94336736D01*
X134341459Y-94322457D01*
X134346418Y-94308597D01*
X134352712Y-94295290D01*
X134360280Y-94282664D01*
X134369048Y-94270841D01*
X134378934Y-94259934D01*
X134389841Y-94250048D01*
X134401664Y-94241280D01*
X134414290Y-94233712D01*
X134427597Y-94227418D01*
X134441457Y-94222459D01*
X134455736Y-94218882D01*
X134470297Y-94216722D01*
X134485000Y-94216000D01*
X136135000Y-94216000D01*
X136149703Y-94216722D01*
G37*
G36*
X136149703Y-95486722D02*
G01*
X136164264Y-95488882D01*
X136178543Y-95492459D01*
X136192403Y-95497418D01*
X136205710Y-95503712D01*
X136218336Y-95511280D01*
X136230159Y-95520048D01*
X136241066Y-95529934D01*
X136250952Y-95540841D01*
X136259720Y-95552664D01*
X136267288Y-95565290D01*
X136273582Y-95578597D01*
X136278541Y-95592457D01*
X136282118Y-95606736D01*
X136284278Y-95621297D01*
X136285000Y-95636000D01*
X136285000Y-95936000D01*
X136284278Y-95950703D01*
X136282118Y-95965264D01*
X136278541Y-95979543D01*
X136273582Y-95993403D01*
X136267288Y-96006710D01*
X136259720Y-96019336D01*
X136250952Y-96031159D01*
X136241066Y-96042066D01*
X136230159Y-96051952D01*
X136218336Y-96060720D01*
X136205710Y-96068288D01*
X136192403Y-96074582D01*
X136178543Y-96079541D01*
X136164264Y-96083118D01*
X136149703Y-96085278D01*
X136135000Y-96086000D01*
X134485000Y-96086000D01*
X134470297Y-96085278D01*
X134455736Y-96083118D01*
X134441457Y-96079541D01*
X134427597Y-96074582D01*
X134414290Y-96068288D01*
X134401664Y-96060720D01*
X134389841Y-96051952D01*
X134378934Y-96042066D01*
X134369048Y-96031159D01*
X134360280Y-96019336D01*
X134352712Y-96006710D01*
X134346418Y-95993403D01*
X134341459Y-95979543D01*
X134337882Y-95965264D01*
X134335722Y-95950703D01*
X134335000Y-95936000D01*
X134335000Y-95636000D01*
X134335722Y-95621297D01*
X134337882Y-95606736D01*
X134341459Y-95592457D01*
X134346418Y-95578597D01*
X134352712Y-95565290D01*
X134360280Y-95552664D01*
X134369048Y-95540841D01*
X134378934Y-95529934D01*
X134389841Y-95520048D01*
X134401664Y-95511280D01*
X134414290Y-95503712D01*
X134427597Y-95497418D01*
X134441457Y-95492459D01*
X134455736Y-95488882D01*
X134470297Y-95486722D01*
X134485000Y-95486000D01*
X136135000Y-95486000D01*
X136149703Y-95486722D01*
G37*
G36*
X136149703Y-96756722D02*
G01*
X136164264Y-96758882D01*
X136178543Y-96762459D01*
X136192403Y-96767418D01*
X136205710Y-96773712D01*
X136218336Y-96781280D01*
X136230159Y-96790048D01*
X136241066Y-96799934D01*
X136250952Y-96810841D01*
X136259720Y-96822664D01*
X136267288Y-96835290D01*
X136273582Y-96848597D01*
X136278541Y-96862457D01*
X136282118Y-96876736D01*
X136284278Y-96891297D01*
X136285000Y-96906000D01*
X136285000Y-97206000D01*
X136284278Y-97220703D01*
X136282118Y-97235264D01*
X136278541Y-97249543D01*
X136273582Y-97263403D01*
X136267288Y-97276710D01*
X136259720Y-97289336D01*
X136250952Y-97301159D01*
X136241066Y-97312066D01*
X136230159Y-97321952D01*
X136218336Y-97330720D01*
X136205710Y-97338288D01*
X136192403Y-97344582D01*
X136178543Y-97349541D01*
X136164264Y-97353118D01*
X136149703Y-97355278D01*
X136135000Y-97356000D01*
X134485000Y-97356000D01*
X134470297Y-97355278D01*
X134455736Y-97353118D01*
X134441457Y-97349541D01*
X134427597Y-97344582D01*
X134414290Y-97338288D01*
X134401664Y-97330720D01*
X134389841Y-97321952D01*
X134378934Y-97312066D01*
X134369048Y-97301159D01*
X134360280Y-97289336D01*
X134352712Y-97276710D01*
X134346418Y-97263403D01*
X134341459Y-97249543D01*
X134337882Y-97235264D01*
X134335722Y-97220703D01*
X134335000Y-97206000D01*
X134335000Y-96906000D01*
X134335722Y-96891297D01*
X134337882Y-96876736D01*
X134341459Y-96862457D01*
X134346418Y-96848597D01*
X134352712Y-96835290D01*
X134360280Y-96822664D01*
X134369048Y-96810841D01*
X134378934Y-96799934D01*
X134389841Y-96790048D01*
X134401664Y-96781280D01*
X134414290Y-96773712D01*
X134427597Y-96767418D01*
X134441457Y-96762459D01*
X134455736Y-96758882D01*
X134470297Y-96756722D01*
X134485000Y-96756000D01*
X136135000Y-96756000D01*
X136149703Y-96756722D01*
G37*
G36*
X136149703Y-98026722D02*
G01*
X136164264Y-98028882D01*
X136178543Y-98032459D01*
X136192403Y-98037418D01*
X136205710Y-98043712D01*
X136218336Y-98051280D01*
X136230159Y-98060048D01*
X136241066Y-98069934D01*
X136250952Y-98080841D01*
X136259720Y-98092664D01*
X136267288Y-98105290D01*
X136273582Y-98118597D01*
X136278541Y-98132457D01*
X136282118Y-98146736D01*
X136284278Y-98161297D01*
X136285000Y-98176000D01*
X136285000Y-98476000D01*
X136284278Y-98490703D01*
X136282118Y-98505264D01*
X136278541Y-98519543D01*
X136273582Y-98533403D01*
X136267288Y-98546710D01*
X136259720Y-98559336D01*
X136250952Y-98571159D01*
X136241066Y-98582066D01*
X136230159Y-98591952D01*
X136218336Y-98600720D01*
X136205710Y-98608288D01*
X136192403Y-98614582D01*
X136178543Y-98619541D01*
X136164264Y-98623118D01*
X136149703Y-98625278D01*
X136135000Y-98626000D01*
X134485000Y-98626000D01*
X134470297Y-98625278D01*
X134455736Y-98623118D01*
X134441457Y-98619541D01*
X134427597Y-98614582D01*
X134414290Y-98608288D01*
X134401664Y-98600720D01*
X134389841Y-98591952D01*
X134378934Y-98582066D01*
X134369048Y-98571159D01*
X134360280Y-98559336D01*
X134352712Y-98546710D01*
X134346418Y-98533403D01*
X134341459Y-98519543D01*
X134337882Y-98505264D01*
X134335722Y-98490703D01*
X134335000Y-98476000D01*
X134335000Y-98176000D01*
X134335722Y-98161297D01*
X134337882Y-98146736D01*
X134341459Y-98132457D01*
X134346418Y-98118597D01*
X134352712Y-98105290D01*
X134360280Y-98092664D01*
X134369048Y-98080841D01*
X134378934Y-98069934D01*
X134389841Y-98060048D01*
X134401664Y-98051280D01*
X134414290Y-98043712D01*
X134427597Y-98037418D01*
X134441457Y-98032459D01*
X134455736Y-98028882D01*
X134470297Y-98026722D01*
X134485000Y-98026000D01*
X136135000Y-98026000D01*
X136149703Y-98026722D01*
G37*
G36*
X131199703Y-98026722D02*
G01*
X131214264Y-98028882D01*
X131228543Y-98032459D01*
X131242403Y-98037418D01*
X131255710Y-98043712D01*
X131268336Y-98051280D01*
X131280159Y-98060048D01*
X131291066Y-98069934D01*
X131300952Y-98080841D01*
X131309720Y-98092664D01*
X131317288Y-98105290D01*
X131323582Y-98118597D01*
X131328541Y-98132457D01*
X131332118Y-98146736D01*
X131334278Y-98161297D01*
X131335000Y-98176000D01*
X131335000Y-98476000D01*
X131334278Y-98490703D01*
X131332118Y-98505264D01*
X131328541Y-98519543D01*
X131323582Y-98533403D01*
X131317288Y-98546710D01*
X131309720Y-98559336D01*
X131300952Y-98571159D01*
X131291066Y-98582066D01*
X131280159Y-98591952D01*
X131268336Y-98600720D01*
X131255710Y-98608288D01*
X131242403Y-98614582D01*
X131228543Y-98619541D01*
X131214264Y-98623118D01*
X131199703Y-98625278D01*
X131185000Y-98626000D01*
X129535000Y-98626000D01*
X129520297Y-98625278D01*
X129505736Y-98623118D01*
X129491457Y-98619541D01*
X129477597Y-98614582D01*
X129464290Y-98608288D01*
X129451664Y-98600720D01*
X129439841Y-98591952D01*
X129428934Y-98582066D01*
X129419048Y-98571159D01*
X129410280Y-98559336D01*
X129402712Y-98546710D01*
X129396418Y-98533403D01*
X129391459Y-98519543D01*
X129387882Y-98505264D01*
X129385722Y-98490703D01*
X129385000Y-98476000D01*
X129385000Y-98176000D01*
X129385722Y-98161297D01*
X129387882Y-98146736D01*
X129391459Y-98132457D01*
X129396418Y-98118597D01*
X129402712Y-98105290D01*
X129410280Y-98092664D01*
X129419048Y-98080841D01*
X129428934Y-98069934D01*
X129439841Y-98060048D01*
X129451664Y-98051280D01*
X129464290Y-98043712D01*
X129477597Y-98037418D01*
X129491457Y-98032459D01*
X129505736Y-98028882D01*
X129520297Y-98026722D01*
X129535000Y-98026000D01*
X131185000Y-98026000D01*
X131199703Y-98026722D01*
G37*
G36*
X131199703Y-96756722D02*
G01*
X131214264Y-96758882D01*
X131228543Y-96762459D01*
X131242403Y-96767418D01*
X131255710Y-96773712D01*
X131268336Y-96781280D01*
X131280159Y-96790048D01*
X131291066Y-96799934D01*
X131300952Y-96810841D01*
X131309720Y-96822664D01*
X131317288Y-96835290D01*
X131323582Y-96848597D01*
X131328541Y-96862457D01*
X131332118Y-96876736D01*
X131334278Y-96891297D01*
X131335000Y-96906000D01*
X131335000Y-97206000D01*
X131334278Y-97220703D01*
X131332118Y-97235264D01*
X131328541Y-97249543D01*
X131323582Y-97263403D01*
X131317288Y-97276710D01*
X131309720Y-97289336D01*
X131300952Y-97301159D01*
X131291066Y-97312066D01*
X131280159Y-97321952D01*
X131268336Y-97330720D01*
X131255710Y-97338288D01*
X131242403Y-97344582D01*
X131228543Y-97349541D01*
X131214264Y-97353118D01*
X131199703Y-97355278D01*
X131185000Y-97356000D01*
X129535000Y-97356000D01*
X129520297Y-97355278D01*
X129505736Y-97353118D01*
X129491457Y-97349541D01*
X129477597Y-97344582D01*
X129464290Y-97338288D01*
X129451664Y-97330720D01*
X129439841Y-97321952D01*
X129428934Y-97312066D01*
X129419048Y-97301159D01*
X129410280Y-97289336D01*
X129402712Y-97276710D01*
X129396418Y-97263403D01*
X129391459Y-97249543D01*
X129387882Y-97235264D01*
X129385722Y-97220703D01*
X129385000Y-97206000D01*
X129385000Y-96906000D01*
X129385722Y-96891297D01*
X129387882Y-96876736D01*
X129391459Y-96862457D01*
X129396418Y-96848597D01*
X129402712Y-96835290D01*
X129410280Y-96822664D01*
X129419048Y-96810841D01*
X129428934Y-96799934D01*
X129439841Y-96790048D01*
X129451664Y-96781280D01*
X129464290Y-96773712D01*
X129477597Y-96767418D01*
X129491457Y-96762459D01*
X129505736Y-96758882D01*
X129520297Y-96756722D01*
X129535000Y-96756000D01*
X131185000Y-96756000D01*
X131199703Y-96756722D01*
G37*
G36*
X131199703Y-95486722D02*
G01*
X131214264Y-95488882D01*
X131228543Y-95492459D01*
X131242403Y-95497418D01*
X131255710Y-95503712D01*
X131268336Y-95511280D01*
X131280159Y-95520048D01*
X131291066Y-95529934D01*
X131300952Y-95540841D01*
X131309720Y-95552664D01*
X131317288Y-95565290D01*
X131323582Y-95578597D01*
X131328541Y-95592457D01*
X131332118Y-95606736D01*
X131334278Y-95621297D01*
X131335000Y-95636000D01*
X131335000Y-95936000D01*
X131334278Y-95950703D01*
X131332118Y-95965264D01*
X131328541Y-95979543D01*
X131323582Y-95993403D01*
X131317288Y-96006710D01*
X131309720Y-96019336D01*
X131300952Y-96031159D01*
X131291066Y-96042066D01*
X131280159Y-96051952D01*
X131268336Y-96060720D01*
X131255710Y-96068288D01*
X131242403Y-96074582D01*
X131228543Y-96079541D01*
X131214264Y-96083118D01*
X131199703Y-96085278D01*
X131185000Y-96086000D01*
X129535000Y-96086000D01*
X129520297Y-96085278D01*
X129505736Y-96083118D01*
X129491457Y-96079541D01*
X129477597Y-96074582D01*
X129464290Y-96068288D01*
X129451664Y-96060720D01*
X129439841Y-96051952D01*
X129428934Y-96042066D01*
X129419048Y-96031159D01*
X129410280Y-96019336D01*
X129402712Y-96006710D01*
X129396418Y-95993403D01*
X129391459Y-95979543D01*
X129387882Y-95965264D01*
X129385722Y-95950703D01*
X129385000Y-95936000D01*
X129385000Y-95636000D01*
X129385722Y-95621297D01*
X129387882Y-95606736D01*
X129391459Y-95592457D01*
X129396418Y-95578597D01*
X129402712Y-95565290D01*
X129410280Y-95552664D01*
X129419048Y-95540841D01*
X129428934Y-95529934D01*
X129439841Y-95520048D01*
X129451664Y-95511280D01*
X129464290Y-95503712D01*
X129477597Y-95497418D01*
X129491457Y-95492459D01*
X129505736Y-95488882D01*
X129520297Y-95486722D01*
X129535000Y-95486000D01*
X131185000Y-95486000D01*
X131199703Y-95486722D01*
G37*
G36*
X131199703Y-94216722D02*
G01*
X131214264Y-94218882D01*
X131228543Y-94222459D01*
X131242403Y-94227418D01*
X131255710Y-94233712D01*
X131268336Y-94241280D01*
X131280159Y-94250048D01*
X131291066Y-94259934D01*
X131300952Y-94270841D01*
X131309720Y-94282664D01*
X131317288Y-94295290D01*
X131323582Y-94308597D01*
X131328541Y-94322457D01*
X131332118Y-94336736D01*
X131334278Y-94351297D01*
X131335000Y-94366000D01*
X131335000Y-94666000D01*
X131334278Y-94680703D01*
X131332118Y-94695264D01*
X131328541Y-94709543D01*
X131323582Y-94723403D01*
X131317288Y-94736710D01*
X131309720Y-94749336D01*
X131300952Y-94761159D01*
X131291066Y-94772066D01*
X131280159Y-94781952D01*
X131268336Y-94790720D01*
X131255710Y-94798288D01*
X131242403Y-94804582D01*
X131228543Y-94809541D01*
X131214264Y-94813118D01*
X131199703Y-94815278D01*
X131185000Y-94816000D01*
X129535000Y-94816000D01*
X129520297Y-94815278D01*
X129505736Y-94813118D01*
X129491457Y-94809541D01*
X129477597Y-94804582D01*
X129464290Y-94798288D01*
X129451664Y-94790720D01*
X129439841Y-94781952D01*
X129428934Y-94772066D01*
X129419048Y-94761159D01*
X129410280Y-94749336D01*
X129402712Y-94736710D01*
X129396418Y-94723403D01*
X129391459Y-94709543D01*
X129387882Y-94695264D01*
X129385722Y-94680703D01*
X129385000Y-94666000D01*
X129385000Y-94366000D01*
X129385722Y-94351297D01*
X129387882Y-94336736D01*
X129391459Y-94322457D01*
X129396418Y-94308597D01*
X129402712Y-94295290D01*
X129410280Y-94282664D01*
X129419048Y-94270841D01*
X129428934Y-94259934D01*
X129439841Y-94250048D01*
X129451664Y-94241280D01*
X129464290Y-94233712D01*
X129477597Y-94227418D01*
X129491457Y-94222459D01*
X129505736Y-94218882D01*
X129520297Y-94216722D01*
X129535000Y-94216000D01*
X131185000Y-94216000D01*
X131199703Y-94216722D01*
G37*
D18*
X162800000Y-109900000D03*
D19*
X162800000Y-116200000D03*
X165100000Y-116200000D03*
X160500000Y-116200000D03*
D20*
X132263500Y-116808000D03*
X131628500Y-116808000D03*
X130993500Y-116808000D03*
X130358500Y-116808000D03*
X129723500Y-116808000D03*
X129088500Y-116808000D03*
X128453500Y-116808000D03*
X127818500Y-116808000D03*
X127183500Y-116808000D03*
X126548500Y-116808000D03*
X126548500Y-122008000D03*
X127183500Y-122008000D03*
X127818500Y-122008000D03*
X128453500Y-122008000D03*
X129088500Y-122008000D03*
X129723500Y-122008000D03*
X130358500Y-122008000D03*
X130993500Y-122008000D03*
X131628500Y-122008000D03*
X132263500Y-122008000D03*
D21*
X171450000Y-113300000D03*
X171450000Y-117900000D03*
X171450000Y-115600000D03*
D22*
X177750000Y-115600000D03*
D12*
G36*
X173364703Y-104195722D02*
G01*
X173379264Y-104197882D01*
X173393543Y-104201459D01*
X173407403Y-104206418D01*
X173420710Y-104212712D01*
X173433336Y-104220280D01*
X173445159Y-104229048D01*
X173456066Y-104238934D01*
X173465952Y-104249841D01*
X173474720Y-104261664D01*
X173482288Y-104274290D01*
X173488582Y-104287597D01*
X173493541Y-104301457D01*
X173497118Y-104315736D01*
X173499278Y-104330297D01*
X173500000Y-104345000D01*
X173500000Y-104645000D01*
X173499278Y-104659703D01*
X173497118Y-104674264D01*
X173493541Y-104688543D01*
X173488582Y-104702403D01*
X173482288Y-104715710D01*
X173474720Y-104728336D01*
X173465952Y-104740159D01*
X173456066Y-104751066D01*
X173445159Y-104760952D01*
X173433336Y-104769720D01*
X173420710Y-104777288D01*
X173407403Y-104783582D01*
X173393543Y-104788541D01*
X173379264Y-104792118D01*
X173364703Y-104794278D01*
X173350000Y-104795000D01*
X171700000Y-104795000D01*
X171685297Y-104794278D01*
X171670736Y-104792118D01*
X171656457Y-104788541D01*
X171642597Y-104783582D01*
X171629290Y-104777288D01*
X171616664Y-104769720D01*
X171604841Y-104760952D01*
X171593934Y-104751066D01*
X171584048Y-104740159D01*
X171575280Y-104728336D01*
X171567712Y-104715710D01*
X171561418Y-104702403D01*
X171556459Y-104688543D01*
X171552882Y-104674264D01*
X171550722Y-104659703D01*
X171550000Y-104645000D01*
X171550000Y-104345000D01*
X171550722Y-104330297D01*
X171552882Y-104315736D01*
X171556459Y-104301457D01*
X171561418Y-104287597D01*
X171567712Y-104274290D01*
X171575280Y-104261664D01*
X171584048Y-104249841D01*
X171593934Y-104238934D01*
X171604841Y-104229048D01*
X171616664Y-104220280D01*
X171629290Y-104212712D01*
X171642597Y-104206418D01*
X171656457Y-104201459D01*
X171670736Y-104197882D01*
X171685297Y-104195722D01*
X171700000Y-104195000D01*
X173350000Y-104195000D01*
X173364703Y-104195722D01*
G37*
G36*
X173364703Y-105465722D02*
G01*
X173379264Y-105467882D01*
X173393543Y-105471459D01*
X173407403Y-105476418D01*
X173420710Y-105482712D01*
X173433336Y-105490280D01*
X173445159Y-105499048D01*
X173456066Y-105508934D01*
X173465952Y-105519841D01*
X173474720Y-105531664D01*
X173482288Y-105544290D01*
X173488582Y-105557597D01*
X173493541Y-105571457D01*
X173497118Y-105585736D01*
X173499278Y-105600297D01*
X173500000Y-105615000D01*
X173500000Y-105915000D01*
X173499278Y-105929703D01*
X173497118Y-105944264D01*
X173493541Y-105958543D01*
X173488582Y-105972403D01*
X173482288Y-105985710D01*
X173474720Y-105998336D01*
X173465952Y-106010159D01*
X173456066Y-106021066D01*
X173445159Y-106030952D01*
X173433336Y-106039720D01*
X173420710Y-106047288D01*
X173407403Y-106053582D01*
X173393543Y-106058541D01*
X173379264Y-106062118D01*
X173364703Y-106064278D01*
X173350000Y-106065000D01*
X171700000Y-106065000D01*
X171685297Y-106064278D01*
X171670736Y-106062118D01*
X171656457Y-106058541D01*
X171642597Y-106053582D01*
X171629290Y-106047288D01*
X171616664Y-106039720D01*
X171604841Y-106030952D01*
X171593934Y-106021066D01*
X171584048Y-106010159D01*
X171575280Y-105998336D01*
X171567712Y-105985710D01*
X171561418Y-105972403D01*
X171556459Y-105958543D01*
X171552882Y-105944264D01*
X171550722Y-105929703D01*
X171550000Y-105915000D01*
X171550000Y-105615000D01*
X171550722Y-105600297D01*
X171552882Y-105585736D01*
X171556459Y-105571457D01*
X171561418Y-105557597D01*
X171567712Y-105544290D01*
X171575280Y-105531664D01*
X171584048Y-105519841D01*
X171593934Y-105508934D01*
X171604841Y-105499048D01*
X171616664Y-105490280D01*
X171629290Y-105482712D01*
X171642597Y-105476418D01*
X171656457Y-105471459D01*
X171670736Y-105467882D01*
X171685297Y-105465722D01*
X171700000Y-105465000D01*
X173350000Y-105465000D01*
X173364703Y-105465722D01*
G37*
G36*
X173364703Y-106735722D02*
G01*
X173379264Y-106737882D01*
X173393543Y-106741459D01*
X173407403Y-106746418D01*
X173420710Y-106752712D01*
X173433336Y-106760280D01*
X173445159Y-106769048D01*
X173456066Y-106778934D01*
X173465952Y-106789841D01*
X173474720Y-106801664D01*
X173482288Y-106814290D01*
X173488582Y-106827597D01*
X173493541Y-106841457D01*
X173497118Y-106855736D01*
X173499278Y-106870297D01*
X173500000Y-106885000D01*
X173500000Y-107185000D01*
X173499278Y-107199703D01*
X173497118Y-107214264D01*
X173493541Y-107228543D01*
X173488582Y-107242403D01*
X173482288Y-107255710D01*
X173474720Y-107268336D01*
X173465952Y-107280159D01*
X173456066Y-107291066D01*
X173445159Y-107300952D01*
X173433336Y-107309720D01*
X173420710Y-107317288D01*
X173407403Y-107323582D01*
X173393543Y-107328541D01*
X173379264Y-107332118D01*
X173364703Y-107334278D01*
X173350000Y-107335000D01*
X171700000Y-107335000D01*
X171685297Y-107334278D01*
X171670736Y-107332118D01*
X171656457Y-107328541D01*
X171642597Y-107323582D01*
X171629290Y-107317288D01*
X171616664Y-107309720D01*
X171604841Y-107300952D01*
X171593934Y-107291066D01*
X171584048Y-107280159D01*
X171575280Y-107268336D01*
X171567712Y-107255710D01*
X171561418Y-107242403D01*
X171556459Y-107228543D01*
X171552882Y-107214264D01*
X171550722Y-107199703D01*
X171550000Y-107185000D01*
X171550000Y-106885000D01*
X171550722Y-106870297D01*
X171552882Y-106855736D01*
X171556459Y-106841457D01*
X171561418Y-106827597D01*
X171567712Y-106814290D01*
X171575280Y-106801664D01*
X171584048Y-106789841D01*
X171593934Y-106778934D01*
X171604841Y-106769048D01*
X171616664Y-106760280D01*
X171629290Y-106752712D01*
X171642597Y-106746418D01*
X171656457Y-106741459D01*
X171670736Y-106737882D01*
X171685297Y-106735722D01*
X171700000Y-106735000D01*
X173350000Y-106735000D01*
X173364703Y-106735722D01*
G37*
G36*
X173364703Y-108005722D02*
G01*
X173379264Y-108007882D01*
X173393543Y-108011459D01*
X173407403Y-108016418D01*
X173420710Y-108022712D01*
X173433336Y-108030280D01*
X173445159Y-108039048D01*
X173456066Y-108048934D01*
X173465952Y-108059841D01*
X173474720Y-108071664D01*
X173482288Y-108084290D01*
X173488582Y-108097597D01*
X173493541Y-108111457D01*
X173497118Y-108125736D01*
X173499278Y-108140297D01*
X173500000Y-108155000D01*
X173500000Y-108455000D01*
X173499278Y-108469703D01*
X173497118Y-108484264D01*
X173493541Y-108498543D01*
X173488582Y-108512403D01*
X173482288Y-108525710D01*
X173474720Y-108538336D01*
X173465952Y-108550159D01*
X173456066Y-108561066D01*
X173445159Y-108570952D01*
X173433336Y-108579720D01*
X173420710Y-108587288D01*
X173407403Y-108593582D01*
X173393543Y-108598541D01*
X173379264Y-108602118D01*
X173364703Y-108604278D01*
X173350000Y-108605000D01*
X171700000Y-108605000D01*
X171685297Y-108604278D01*
X171670736Y-108602118D01*
X171656457Y-108598541D01*
X171642597Y-108593582D01*
X171629290Y-108587288D01*
X171616664Y-108579720D01*
X171604841Y-108570952D01*
X171593934Y-108561066D01*
X171584048Y-108550159D01*
X171575280Y-108538336D01*
X171567712Y-108525710D01*
X171561418Y-108512403D01*
X171556459Y-108498543D01*
X171552882Y-108484264D01*
X171550722Y-108469703D01*
X171550000Y-108455000D01*
X171550000Y-108155000D01*
X171550722Y-108140297D01*
X171552882Y-108125736D01*
X171556459Y-108111457D01*
X171561418Y-108097597D01*
X171567712Y-108084290D01*
X171575280Y-108071664D01*
X171584048Y-108059841D01*
X171593934Y-108048934D01*
X171604841Y-108039048D01*
X171616664Y-108030280D01*
X171629290Y-108022712D01*
X171642597Y-108016418D01*
X171656457Y-108011459D01*
X171670736Y-108007882D01*
X171685297Y-108005722D01*
X171700000Y-108005000D01*
X173350000Y-108005000D01*
X173364703Y-108005722D01*
G37*
G36*
X178314703Y-108005722D02*
G01*
X178329264Y-108007882D01*
X178343543Y-108011459D01*
X178357403Y-108016418D01*
X178370710Y-108022712D01*
X178383336Y-108030280D01*
X178395159Y-108039048D01*
X178406066Y-108048934D01*
X178415952Y-108059841D01*
X178424720Y-108071664D01*
X178432288Y-108084290D01*
X178438582Y-108097597D01*
X178443541Y-108111457D01*
X178447118Y-108125736D01*
X178449278Y-108140297D01*
X178450000Y-108155000D01*
X178450000Y-108455000D01*
X178449278Y-108469703D01*
X178447118Y-108484264D01*
X178443541Y-108498543D01*
X178438582Y-108512403D01*
X178432288Y-108525710D01*
X178424720Y-108538336D01*
X178415952Y-108550159D01*
X178406066Y-108561066D01*
X178395159Y-108570952D01*
X178383336Y-108579720D01*
X178370710Y-108587288D01*
X178357403Y-108593582D01*
X178343543Y-108598541D01*
X178329264Y-108602118D01*
X178314703Y-108604278D01*
X178300000Y-108605000D01*
X176650000Y-108605000D01*
X176635297Y-108604278D01*
X176620736Y-108602118D01*
X176606457Y-108598541D01*
X176592597Y-108593582D01*
X176579290Y-108587288D01*
X176566664Y-108579720D01*
X176554841Y-108570952D01*
X176543934Y-108561066D01*
X176534048Y-108550159D01*
X176525280Y-108538336D01*
X176517712Y-108525710D01*
X176511418Y-108512403D01*
X176506459Y-108498543D01*
X176502882Y-108484264D01*
X176500722Y-108469703D01*
X176500000Y-108455000D01*
X176500000Y-108155000D01*
X176500722Y-108140297D01*
X176502882Y-108125736D01*
X176506459Y-108111457D01*
X176511418Y-108097597D01*
X176517712Y-108084290D01*
X176525280Y-108071664D01*
X176534048Y-108059841D01*
X176543934Y-108048934D01*
X176554841Y-108039048D01*
X176566664Y-108030280D01*
X176579290Y-108022712D01*
X176592597Y-108016418D01*
X176606457Y-108011459D01*
X176620736Y-108007882D01*
X176635297Y-108005722D01*
X176650000Y-108005000D01*
X178300000Y-108005000D01*
X178314703Y-108005722D01*
G37*
G36*
X178314703Y-106735722D02*
G01*
X178329264Y-106737882D01*
X178343543Y-106741459D01*
X178357403Y-106746418D01*
X178370710Y-106752712D01*
X178383336Y-106760280D01*
X178395159Y-106769048D01*
X178406066Y-106778934D01*
X178415952Y-106789841D01*
X178424720Y-106801664D01*
X178432288Y-106814290D01*
X178438582Y-106827597D01*
X178443541Y-106841457D01*
X178447118Y-106855736D01*
X178449278Y-106870297D01*
X178450000Y-106885000D01*
X178450000Y-107185000D01*
X178449278Y-107199703D01*
X178447118Y-107214264D01*
X178443541Y-107228543D01*
X178438582Y-107242403D01*
X178432288Y-107255710D01*
X178424720Y-107268336D01*
X178415952Y-107280159D01*
X178406066Y-107291066D01*
X178395159Y-107300952D01*
X178383336Y-107309720D01*
X178370710Y-107317288D01*
X178357403Y-107323582D01*
X178343543Y-107328541D01*
X178329264Y-107332118D01*
X178314703Y-107334278D01*
X178300000Y-107335000D01*
X176650000Y-107335000D01*
X176635297Y-107334278D01*
X176620736Y-107332118D01*
X176606457Y-107328541D01*
X176592597Y-107323582D01*
X176579290Y-107317288D01*
X176566664Y-107309720D01*
X176554841Y-107300952D01*
X176543934Y-107291066D01*
X176534048Y-107280159D01*
X176525280Y-107268336D01*
X176517712Y-107255710D01*
X176511418Y-107242403D01*
X176506459Y-107228543D01*
X176502882Y-107214264D01*
X176500722Y-107199703D01*
X176500000Y-107185000D01*
X176500000Y-106885000D01*
X176500722Y-106870297D01*
X176502882Y-106855736D01*
X176506459Y-106841457D01*
X176511418Y-106827597D01*
X176517712Y-106814290D01*
X176525280Y-106801664D01*
X176534048Y-106789841D01*
X176543934Y-106778934D01*
X176554841Y-106769048D01*
X176566664Y-106760280D01*
X176579290Y-106752712D01*
X176592597Y-106746418D01*
X176606457Y-106741459D01*
X176620736Y-106737882D01*
X176635297Y-106735722D01*
X176650000Y-106735000D01*
X178300000Y-106735000D01*
X178314703Y-106735722D01*
G37*
G36*
X178314703Y-105465722D02*
G01*
X178329264Y-105467882D01*
X178343543Y-105471459D01*
X178357403Y-105476418D01*
X178370710Y-105482712D01*
X178383336Y-105490280D01*
X178395159Y-105499048D01*
X178406066Y-105508934D01*
X178415952Y-105519841D01*
X178424720Y-105531664D01*
X178432288Y-105544290D01*
X178438582Y-105557597D01*
X178443541Y-105571457D01*
X178447118Y-105585736D01*
X178449278Y-105600297D01*
X178450000Y-105615000D01*
X178450000Y-105915000D01*
X178449278Y-105929703D01*
X178447118Y-105944264D01*
X178443541Y-105958543D01*
X178438582Y-105972403D01*
X178432288Y-105985710D01*
X178424720Y-105998336D01*
X178415952Y-106010159D01*
X178406066Y-106021066D01*
X178395159Y-106030952D01*
X178383336Y-106039720D01*
X178370710Y-106047288D01*
X178357403Y-106053582D01*
X178343543Y-106058541D01*
X178329264Y-106062118D01*
X178314703Y-106064278D01*
X178300000Y-106065000D01*
X176650000Y-106065000D01*
X176635297Y-106064278D01*
X176620736Y-106062118D01*
X176606457Y-106058541D01*
X176592597Y-106053582D01*
X176579290Y-106047288D01*
X176566664Y-106039720D01*
X176554841Y-106030952D01*
X176543934Y-106021066D01*
X176534048Y-106010159D01*
X176525280Y-105998336D01*
X176517712Y-105985710D01*
X176511418Y-105972403D01*
X176506459Y-105958543D01*
X176502882Y-105944264D01*
X176500722Y-105929703D01*
X176500000Y-105915000D01*
X176500000Y-105615000D01*
X176500722Y-105600297D01*
X176502882Y-105585736D01*
X176506459Y-105571457D01*
X176511418Y-105557597D01*
X176517712Y-105544290D01*
X176525280Y-105531664D01*
X176534048Y-105519841D01*
X176543934Y-105508934D01*
X176554841Y-105499048D01*
X176566664Y-105490280D01*
X176579290Y-105482712D01*
X176592597Y-105476418D01*
X176606457Y-105471459D01*
X176620736Y-105467882D01*
X176635297Y-105465722D01*
X176650000Y-105465000D01*
X178300000Y-105465000D01*
X178314703Y-105465722D01*
G37*
G36*
X178314703Y-104195722D02*
G01*
X178329264Y-104197882D01*
X178343543Y-104201459D01*
X178357403Y-104206418D01*
X178370710Y-104212712D01*
X178383336Y-104220280D01*
X178395159Y-104229048D01*
X178406066Y-104238934D01*
X178415952Y-104249841D01*
X178424720Y-104261664D01*
X178432288Y-104274290D01*
X178438582Y-104287597D01*
X178443541Y-104301457D01*
X178447118Y-104315736D01*
X178449278Y-104330297D01*
X178450000Y-104345000D01*
X178450000Y-104645000D01*
X178449278Y-104659703D01*
X178447118Y-104674264D01*
X178443541Y-104688543D01*
X178438582Y-104702403D01*
X178432288Y-104715710D01*
X178424720Y-104728336D01*
X178415952Y-104740159D01*
X178406066Y-104751066D01*
X178395159Y-104760952D01*
X178383336Y-104769720D01*
X178370710Y-104777288D01*
X178357403Y-104783582D01*
X178343543Y-104788541D01*
X178329264Y-104792118D01*
X178314703Y-104794278D01*
X178300000Y-104795000D01*
X176650000Y-104795000D01*
X176635297Y-104794278D01*
X176620736Y-104792118D01*
X176606457Y-104788541D01*
X176592597Y-104783582D01*
X176579290Y-104777288D01*
X176566664Y-104769720D01*
X176554841Y-104760952D01*
X176543934Y-104751066D01*
X176534048Y-104740159D01*
X176525280Y-104728336D01*
X176517712Y-104715710D01*
X176511418Y-104702403D01*
X176506459Y-104688543D01*
X176502882Y-104674264D01*
X176500722Y-104659703D01*
X176500000Y-104645000D01*
X176500000Y-104345000D01*
X176500722Y-104330297D01*
X176502882Y-104315736D01*
X176506459Y-104301457D01*
X176511418Y-104287597D01*
X176517712Y-104274290D01*
X176525280Y-104261664D01*
X176534048Y-104249841D01*
X176543934Y-104238934D01*
X176554841Y-104229048D01*
X176566664Y-104220280D01*
X176579290Y-104212712D01*
X176592597Y-104206418D01*
X176606457Y-104201459D01*
X176620736Y-104197882D01*
X176635297Y-104195722D01*
X176650000Y-104195000D01*
X178300000Y-104195000D01*
X178314703Y-104195722D01*
G37*
D23*
X158675000Y-121125000D03*
X158675000Y-121775000D03*
X158675000Y-122425000D03*
X158675000Y-123075000D03*
X160725000Y-123075000D03*
X160725000Y-122425000D03*
X160725000Y-121775000D03*
X160725000Y-121125000D03*
D12*
G36*
X159511283Y-102312127D02*
G01*
X157814227Y-104009183D01*
X156400013Y-102594969D01*
X158097069Y-100897913D01*
X159511283Y-102312127D01*
G37*
G36*
X156894987Y-99695831D02*
G01*
X155197931Y-101392887D01*
X153783717Y-99978673D01*
X155480773Y-98281617D01*
X156894987Y-99695831D01*
G37*
G36*
X141277691Y-108813553D02*
G01*
X141298926Y-108816703D01*
X141319750Y-108821919D01*
X141339962Y-108829151D01*
X141359368Y-108838330D01*
X141377781Y-108849366D01*
X141395024Y-108862154D01*
X141410930Y-108876570D01*
X141425346Y-108892476D01*
X141438134Y-108909719D01*
X141449170Y-108928132D01*
X141458349Y-108947538D01*
X141465581Y-108967750D01*
X141470797Y-108988574D01*
X141473947Y-109009809D01*
X141475000Y-109031250D01*
X141475000Y-109468750D01*
X141473947Y-109490191D01*
X141470797Y-109511426D01*
X141465581Y-109532250D01*
X141458349Y-109552462D01*
X141449170Y-109571868D01*
X141438134Y-109590281D01*
X141425346Y-109607524D01*
X141410930Y-109623430D01*
X141395024Y-109637846D01*
X141377781Y-109650634D01*
X141359368Y-109661670D01*
X141339962Y-109670849D01*
X141319750Y-109678081D01*
X141298926Y-109683297D01*
X141277691Y-109686447D01*
X141256250Y-109687500D01*
X140743750Y-109687500D01*
X140722309Y-109686447D01*
X140701074Y-109683297D01*
X140680250Y-109678081D01*
X140660038Y-109670849D01*
X140640632Y-109661670D01*
X140622219Y-109650634D01*
X140604976Y-109637846D01*
X140589070Y-109623430D01*
X140574654Y-109607524D01*
X140561866Y-109590281D01*
X140550830Y-109571868D01*
X140541651Y-109552462D01*
X140534419Y-109532250D01*
X140529203Y-109511426D01*
X140526053Y-109490191D01*
X140525000Y-109468750D01*
X140525000Y-109031250D01*
X140526053Y-109009809D01*
X140529203Y-108988574D01*
X140534419Y-108967750D01*
X140541651Y-108947538D01*
X140550830Y-108928132D01*
X140561866Y-108909719D01*
X140574654Y-108892476D01*
X140589070Y-108876570D01*
X140604976Y-108862154D01*
X140622219Y-108849366D01*
X140640632Y-108838330D01*
X140660038Y-108829151D01*
X140680250Y-108821919D01*
X140701074Y-108816703D01*
X140722309Y-108813553D01*
X140743750Y-108812500D01*
X141256250Y-108812500D01*
X141277691Y-108813553D01*
G37*
G36*
X141277691Y-110388553D02*
G01*
X141298926Y-110391703D01*
X141319750Y-110396919D01*
X141339962Y-110404151D01*
X141359368Y-110413330D01*
X141377781Y-110424366D01*
X141395024Y-110437154D01*
X141410930Y-110451570D01*
X141425346Y-110467476D01*
X141438134Y-110484719D01*
X141449170Y-110503132D01*
X141458349Y-110522538D01*
X141465581Y-110542750D01*
X141470797Y-110563574D01*
X141473947Y-110584809D01*
X141475000Y-110606250D01*
X141475000Y-111043750D01*
X141473947Y-111065191D01*
X141470797Y-111086426D01*
X141465581Y-111107250D01*
X141458349Y-111127462D01*
X141449170Y-111146868D01*
X141438134Y-111165281D01*
X141425346Y-111182524D01*
X141410930Y-111198430D01*
X141395024Y-111212846D01*
X141377781Y-111225634D01*
X141359368Y-111236670D01*
X141339962Y-111245849D01*
X141319750Y-111253081D01*
X141298926Y-111258297D01*
X141277691Y-111261447D01*
X141256250Y-111262500D01*
X140743750Y-111262500D01*
X140722309Y-111261447D01*
X140701074Y-111258297D01*
X140680250Y-111253081D01*
X140660038Y-111245849D01*
X140640632Y-111236670D01*
X140622219Y-111225634D01*
X140604976Y-111212846D01*
X140589070Y-111198430D01*
X140574654Y-111182524D01*
X140561866Y-111165281D01*
X140550830Y-111146868D01*
X140541651Y-111127462D01*
X140534419Y-111107250D01*
X140529203Y-111086426D01*
X140526053Y-111065191D01*
X140525000Y-111043750D01*
X140525000Y-110606250D01*
X140526053Y-110584809D01*
X140529203Y-110563574D01*
X140534419Y-110542750D01*
X140541651Y-110522538D01*
X140550830Y-110503132D01*
X140561866Y-110484719D01*
X140574654Y-110467476D01*
X140589070Y-110451570D01*
X140604976Y-110437154D01*
X140622219Y-110424366D01*
X140640632Y-110413330D01*
X140660038Y-110404151D01*
X140680250Y-110396919D01*
X140701074Y-110391703D01*
X140722309Y-110388553D01*
X140743750Y-110387500D01*
X141256250Y-110387500D01*
X141277691Y-110388553D01*
G37*
G36*
X162740191Y-99426053D02*
G01*
X162761426Y-99429203D01*
X162782250Y-99434419D01*
X162802462Y-99441651D01*
X162821868Y-99450830D01*
X162840281Y-99461866D01*
X162857524Y-99474654D01*
X162873430Y-99489070D01*
X162887846Y-99504976D01*
X162900634Y-99522219D01*
X162911670Y-99540632D01*
X162920849Y-99560038D01*
X162928081Y-99580250D01*
X162933297Y-99601074D01*
X162936447Y-99622309D01*
X162937500Y-99643750D01*
X162937500Y-100156250D01*
X162936447Y-100177691D01*
X162933297Y-100198926D01*
X162928081Y-100219750D01*
X162920849Y-100239962D01*
X162911670Y-100259368D01*
X162900634Y-100277781D01*
X162887846Y-100295024D01*
X162873430Y-100310930D01*
X162857524Y-100325346D01*
X162840281Y-100338134D01*
X162821868Y-100349170D01*
X162802462Y-100358349D01*
X162782250Y-100365581D01*
X162761426Y-100370797D01*
X162740191Y-100373947D01*
X162718750Y-100375000D01*
X162281250Y-100375000D01*
X162259809Y-100373947D01*
X162238574Y-100370797D01*
X162217750Y-100365581D01*
X162197538Y-100358349D01*
X162178132Y-100349170D01*
X162159719Y-100338134D01*
X162142476Y-100325346D01*
X162126570Y-100310930D01*
X162112154Y-100295024D01*
X162099366Y-100277781D01*
X162088330Y-100259368D01*
X162079151Y-100239962D01*
X162071919Y-100219750D01*
X162066703Y-100198926D01*
X162063553Y-100177691D01*
X162062500Y-100156250D01*
X162062500Y-99643750D01*
X162063553Y-99622309D01*
X162066703Y-99601074D01*
X162071919Y-99580250D01*
X162079151Y-99560038D01*
X162088330Y-99540632D01*
X162099366Y-99522219D01*
X162112154Y-99504976D01*
X162126570Y-99489070D01*
X162142476Y-99474654D01*
X162159719Y-99461866D01*
X162178132Y-99450830D01*
X162197538Y-99441651D01*
X162217750Y-99434419D01*
X162238574Y-99429203D01*
X162259809Y-99426053D01*
X162281250Y-99425000D01*
X162718750Y-99425000D01*
X162740191Y-99426053D01*
G37*
G36*
X161165191Y-99426053D02*
G01*
X161186426Y-99429203D01*
X161207250Y-99434419D01*
X161227462Y-99441651D01*
X161246868Y-99450830D01*
X161265281Y-99461866D01*
X161282524Y-99474654D01*
X161298430Y-99489070D01*
X161312846Y-99504976D01*
X161325634Y-99522219D01*
X161336670Y-99540632D01*
X161345849Y-99560038D01*
X161353081Y-99580250D01*
X161358297Y-99601074D01*
X161361447Y-99622309D01*
X161362500Y-99643750D01*
X161362500Y-100156250D01*
X161361447Y-100177691D01*
X161358297Y-100198926D01*
X161353081Y-100219750D01*
X161345849Y-100239962D01*
X161336670Y-100259368D01*
X161325634Y-100277781D01*
X161312846Y-100295024D01*
X161298430Y-100310930D01*
X161282524Y-100325346D01*
X161265281Y-100338134D01*
X161246868Y-100349170D01*
X161227462Y-100358349D01*
X161207250Y-100365581D01*
X161186426Y-100370797D01*
X161165191Y-100373947D01*
X161143750Y-100375000D01*
X160706250Y-100375000D01*
X160684809Y-100373947D01*
X160663574Y-100370797D01*
X160642750Y-100365581D01*
X160622538Y-100358349D01*
X160603132Y-100349170D01*
X160584719Y-100338134D01*
X160567476Y-100325346D01*
X160551570Y-100310930D01*
X160537154Y-100295024D01*
X160524366Y-100277781D01*
X160513330Y-100259368D01*
X160504151Y-100239962D01*
X160496919Y-100219750D01*
X160491703Y-100198926D01*
X160488553Y-100177691D01*
X160487500Y-100156250D01*
X160487500Y-99643750D01*
X160488553Y-99622309D01*
X160491703Y-99601074D01*
X160496919Y-99580250D01*
X160504151Y-99560038D01*
X160513330Y-99540632D01*
X160524366Y-99522219D01*
X160537154Y-99504976D01*
X160551570Y-99489070D01*
X160567476Y-99474654D01*
X160584719Y-99461866D01*
X160603132Y-99450830D01*
X160622538Y-99441651D01*
X160642750Y-99434419D01*
X160663574Y-99429203D01*
X160684809Y-99426053D01*
X160706250Y-99425000D01*
X161143750Y-99425000D01*
X161165191Y-99426053D01*
G37*
G36*
X158365191Y-97126053D02*
G01*
X158386426Y-97129203D01*
X158407250Y-97134419D01*
X158427462Y-97141651D01*
X158446868Y-97150830D01*
X158465281Y-97161866D01*
X158482524Y-97174654D01*
X158498430Y-97189070D01*
X158512846Y-97204976D01*
X158525634Y-97222219D01*
X158536670Y-97240632D01*
X158545849Y-97260038D01*
X158553081Y-97280250D01*
X158558297Y-97301074D01*
X158561447Y-97322309D01*
X158562500Y-97343750D01*
X158562500Y-97856250D01*
X158561447Y-97877691D01*
X158558297Y-97898926D01*
X158553081Y-97919750D01*
X158545849Y-97939962D01*
X158536670Y-97959368D01*
X158525634Y-97977781D01*
X158512846Y-97995024D01*
X158498430Y-98010930D01*
X158482524Y-98025346D01*
X158465281Y-98038134D01*
X158446868Y-98049170D01*
X158427462Y-98058349D01*
X158407250Y-98065581D01*
X158386426Y-98070797D01*
X158365191Y-98073947D01*
X158343750Y-98075000D01*
X157906250Y-98075000D01*
X157884809Y-98073947D01*
X157863574Y-98070797D01*
X157842750Y-98065581D01*
X157822538Y-98058349D01*
X157803132Y-98049170D01*
X157784719Y-98038134D01*
X157767476Y-98025346D01*
X157751570Y-98010930D01*
X157737154Y-97995024D01*
X157724366Y-97977781D01*
X157713330Y-97959368D01*
X157704151Y-97939962D01*
X157696919Y-97919750D01*
X157691703Y-97898926D01*
X157688553Y-97877691D01*
X157687500Y-97856250D01*
X157687500Y-97343750D01*
X157688553Y-97322309D01*
X157691703Y-97301074D01*
X157696919Y-97280250D01*
X157704151Y-97260038D01*
X157713330Y-97240632D01*
X157724366Y-97222219D01*
X157737154Y-97204976D01*
X157751570Y-97189070D01*
X157767476Y-97174654D01*
X157784719Y-97161866D01*
X157803132Y-97150830D01*
X157822538Y-97141651D01*
X157842750Y-97134419D01*
X157863574Y-97129203D01*
X157884809Y-97126053D01*
X157906250Y-97125000D01*
X158343750Y-97125000D01*
X158365191Y-97126053D01*
G37*
G36*
X159940191Y-97126053D02*
G01*
X159961426Y-97129203D01*
X159982250Y-97134419D01*
X160002462Y-97141651D01*
X160021868Y-97150830D01*
X160040281Y-97161866D01*
X160057524Y-97174654D01*
X160073430Y-97189070D01*
X160087846Y-97204976D01*
X160100634Y-97222219D01*
X160111670Y-97240632D01*
X160120849Y-97260038D01*
X160128081Y-97280250D01*
X160133297Y-97301074D01*
X160136447Y-97322309D01*
X160137500Y-97343750D01*
X160137500Y-97856250D01*
X160136447Y-97877691D01*
X160133297Y-97898926D01*
X160128081Y-97919750D01*
X160120849Y-97939962D01*
X160111670Y-97959368D01*
X160100634Y-97977781D01*
X160087846Y-97995024D01*
X160073430Y-98010930D01*
X160057524Y-98025346D01*
X160040281Y-98038134D01*
X160021868Y-98049170D01*
X160002462Y-98058349D01*
X159982250Y-98065581D01*
X159961426Y-98070797D01*
X159940191Y-98073947D01*
X159918750Y-98075000D01*
X159481250Y-98075000D01*
X159459809Y-98073947D01*
X159438574Y-98070797D01*
X159417750Y-98065581D01*
X159397538Y-98058349D01*
X159378132Y-98049170D01*
X159359719Y-98038134D01*
X159342476Y-98025346D01*
X159326570Y-98010930D01*
X159312154Y-97995024D01*
X159299366Y-97977781D01*
X159288330Y-97959368D01*
X159279151Y-97939962D01*
X159271919Y-97919750D01*
X159266703Y-97898926D01*
X159263553Y-97877691D01*
X159262500Y-97856250D01*
X159262500Y-97343750D01*
X159263553Y-97322309D01*
X159266703Y-97301074D01*
X159271919Y-97280250D01*
X159279151Y-97260038D01*
X159288330Y-97240632D01*
X159299366Y-97222219D01*
X159312154Y-97204976D01*
X159326570Y-97189070D01*
X159342476Y-97174654D01*
X159359719Y-97161866D01*
X159378132Y-97150830D01*
X159397538Y-97141651D01*
X159417750Y-97134419D01*
X159438574Y-97129203D01*
X159459809Y-97126053D01*
X159481250Y-97125000D01*
X159918750Y-97125000D01*
X159940191Y-97126053D01*
G37*
M02*
