G04 #@! TF.GenerationSoftware,KiCad,Pcbnew,(5.1.5)-3*
G04 #@! TF.CreationDate,2020-09-22T11:09:55+01:00*
G04 #@! TF.ProjectId,sensor_node_PCB,73656e73-6f72-45f6-9e6f-64655f504342,rev?*
G04 #@! TF.SameCoordinates,Original*
G04 #@! TF.FileFunction,Copper,L2,Bot*
G04 #@! TF.FilePolarity,Positive*
%FSLAX46Y46*%
G04 Gerber Fmt 4.6, Leading zero omitted, Abs format (unit mm)*
G04 Created by KiCad (PCBNEW (5.1.5)-3) date 2020-09-22 11:09:55*
%MOMM*%
%LPD*%
G04 APERTURE LIST*
%ADD10C,6.000000*%
%ADD11C,0.100000*%
%ADD12O,3.600000X2.080000*%
%ADD13R,2.200000X2.200000*%
%ADD14C,2.200000*%
%ADD15C,1.700000*%
%ADD16R,1.700000X1.700000*%
%ADD17O,1.700000X1.700000*%
%ADD18R,1.100000X1.100000*%
%ADD19C,1.100000*%
%ADD20O,1.100000X2.400000*%
%ADD21C,0.800000*%
%ADD22C,0.450000*%
%ADD23C,0.250000*%
%ADD24C,0.127000*%
%ADD25C,0.254000*%
G04 APERTURE END LIST*
D10*
X118110000Y-128270000D03*
X187960000Y-128270000D03*
X187960000Y-88900000D03*
X118110000Y-88900000D03*
G04 #@! TA.AperFunction,ComponentPad*
D11*
G36*
X196174505Y-114761204D02*
G01*
X196198773Y-114764804D01*
X196222572Y-114770765D01*
X196245671Y-114779030D01*
X196267850Y-114789520D01*
X196288893Y-114802132D01*
X196308599Y-114816747D01*
X196326777Y-114833223D01*
X196343253Y-114851401D01*
X196357868Y-114871107D01*
X196370480Y-114892150D01*
X196380970Y-114914329D01*
X196389235Y-114937428D01*
X196395196Y-114961227D01*
X196398796Y-114985495D01*
X196400000Y-115009999D01*
X196400000Y-116590001D01*
X196398796Y-116614505D01*
X196395196Y-116638773D01*
X196389235Y-116662572D01*
X196380970Y-116685671D01*
X196370480Y-116707850D01*
X196357868Y-116728893D01*
X196343253Y-116748599D01*
X196326777Y-116766777D01*
X196308599Y-116783253D01*
X196288893Y-116797868D01*
X196267850Y-116810480D01*
X196245671Y-116820970D01*
X196222572Y-116829235D01*
X196198773Y-116835196D01*
X196174505Y-116838796D01*
X196150001Y-116840000D01*
X193049999Y-116840000D01*
X193025495Y-116838796D01*
X193001227Y-116835196D01*
X192977428Y-116829235D01*
X192954329Y-116820970D01*
X192932150Y-116810480D01*
X192911107Y-116797868D01*
X192891401Y-116783253D01*
X192873223Y-116766777D01*
X192856747Y-116748599D01*
X192842132Y-116728893D01*
X192829520Y-116707850D01*
X192819030Y-116685671D01*
X192810765Y-116662572D01*
X192804804Y-116638773D01*
X192801204Y-116614505D01*
X192800000Y-116590001D01*
X192800000Y-115009999D01*
X192801204Y-114985495D01*
X192804804Y-114961227D01*
X192810765Y-114937428D01*
X192819030Y-114914329D01*
X192829520Y-114892150D01*
X192842132Y-114871107D01*
X192856747Y-114851401D01*
X192873223Y-114833223D01*
X192891401Y-114816747D01*
X192911107Y-114802132D01*
X192932150Y-114789520D01*
X192954329Y-114779030D01*
X192977428Y-114770765D01*
X193001227Y-114764804D01*
X193025495Y-114761204D01*
X193049999Y-114760000D01*
X196150001Y-114760000D01*
X196174505Y-114761204D01*
G37*
G04 #@! TD.AperFunction*
D12*
X194600000Y-110720000D03*
X194600000Y-105640000D03*
X194600000Y-100560000D03*
D13*
X145000000Y-91800000D03*
D14*
X147540000Y-91800000D03*
X150080000Y-91800000D03*
X152620000Y-91800000D03*
X155160000Y-91800000D03*
X157700000Y-91800000D03*
D15*
X122078175Y-104785786D03*
X117481981Y-109381981D03*
X118896194Y-101603806D03*
X114300000Y-106200000D03*
D16*
X183000000Y-94100000D03*
D17*
X180460000Y-94100000D03*
X177920000Y-94100000D03*
X175380000Y-94100000D03*
X172840000Y-94100000D03*
X180460000Y-123800000D03*
X172840000Y-123800000D03*
X177920000Y-123800000D03*
X175380000Y-123800000D03*
D18*
X113424000Y-121638000D03*
D19*
X114224000Y-119888000D03*
X115024000Y-121638000D03*
X115824000Y-119888000D03*
X116624000Y-121638000D03*
D20*
X111374000Y-120763000D03*
X118674000Y-120763000D03*
D21*
X162179000Y-91313000D03*
X175750000Y-109500000D03*
X170053000Y-105537000D03*
X162814000Y-102870000D03*
X154250000Y-105250000D03*
X129921000Y-100457000D03*
X135382000Y-116459000D03*
X133985000Y-119253000D03*
X126873000Y-114427000D03*
D22*
X128397000Y-118872000D03*
X163449000Y-121285000D03*
X163957000Y-123571000D03*
X145000000Y-104000000D03*
X141750000Y-108000000D03*
X138000000Y-108750000D03*
X137750000Y-109500000D03*
D21*
X109855000Y-102743000D03*
D22*
X167894000Y-115316000D03*
D21*
X119250000Y-98250000D03*
D22*
X147500000Y-104000000D03*
X154250000Y-98250000D03*
X145034000Y-119761000D03*
X145542000Y-114173000D03*
X147000000Y-106750000D03*
X158500000Y-117000000D03*
X156250000Y-119000000D03*
X147750000Y-106000000D03*
X139000000Y-116500000D03*
X148000000Y-105000000D03*
X137248700Y-115356700D03*
X153670000Y-114173000D03*
X157353000Y-114173000D03*
X127889000Y-120904000D03*
X129667000Y-119126000D03*
X161700000Y-93800000D03*
X163100000Y-92400000D03*
D21*
X153670000Y-112395000D03*
X157734000Y-112395000D03*
D22*
X122174000Y-108458000D03*
X127508000Y-108331000D03*
D23*
X162179000Y-91313000D02*
X159639000Y-93853000D01*
X159639000Y-93853000D02*
X146050000Y-93853000D01*
X146050000Y-93853000D02*
X144907000Y-92710000D01*
X144907000Y-92710000D02*
X144907000Y-91948000D01*
X109855000Y-102743000D02*
X109855000Y-116713000D01*
X109855000Y-116713000D02*
X110998000Y-117856000D01*
X110998000Y-117856000D02*
X141351000Y-117856000D01*
X141351000Y-117856000D02*
X145288000Y-121793000D01*
X145288000Y-121793000D02*
X152146000Y-121793000D01*
X152146000Y-121793000D02*
X160655000Y-113284000D01*
X160655000Y-113284000D02*
X165862000Y-113284000D01*
X165862000Y-113284000D02*
X167894000Y-115316000D01*
X119250000Y-98250000D02*
X120000000Y-97500000D01*
X120000000Y-97500000D02*
X192750000Y-97500000D01*
X192750000Y-97500000D02*
X194500000Y-99250000D01*
X194500000Y-99250000D02*
X194500000Y-100250000D01*
D24*
X147500000Y-104000000D02*
X153250000Y-98250000D01*
X153250000Y-98250000D02*
X154250000Y-98250000D01*
X145034000Y-119761000D02*
X145542000Y-119253000D01*
X145542000Y-119253000D02*
X145542000Y-114173000D01*
X145542000Y-108208000D02*
X145542000Y-114173000D01*
X147000000Y-106750000D02*
X145542000Y-108208000D01*
X158500000Y-117000000D02*
X156500000Y-119000000D01*
X156500000Y-119000000D02*
X156250000Y-119000000D01*
X147750000Y-106000000D02*
X147000000Y-106000000D01*
X147000000Y-106000000D02*
X144750000Y-108250000D01*
X144750000Y-108250000D02*
X139000000Y-114000000D01*
X139000000Y-114000000D02*
X139000000Y-116500000D01*
X148000000Y-105000000D02*
X147250000Y-105000000D01*
X147250000Y-105000000D02*
X143250000Y-109000000D01*
X143250000Y-109000000D02*
X142000000Y-109000000D01*
X142000000Y-109000000D02*
X137248700Y-113751300D01*
X137248700Y-113751300D02*
X137248700Y-115356700D01*
X153670000Y-114173000D02*
X157353000Y-114173000D01*
X127889000Y-120904000D02*
X128905000Y-119888000D01*
X128905000Y-119888000D02*
X129667000Y-119126000D01*
X161700000Y-93800000D02*
X163100000Y-92400000D01*
X153670000Y-112395000D02*
X157734000Y-112395000D01*
X122174000Y-108458000D02*
X127381000Y-108458000D01*
X127381000Y-108458000D02*
X127508000Y-108331000D01*
D25*
G36*
X199674000Y-89830059D02*
G01*
X199674000Y-89830060D01*
X199674001Y-126890050D01*
X199674000Y-126890060D01*
X199674001Y-132594000D01*
X107656000Y-132594000D01*
X107656000Y-127937001D01*
X114729000Y-127937001D01*
X114729000Y-128602999D01*
X114858930Y-129256201D01*
X115113797Y-129871504D01*
X115483806Y-130425262D01*
X115954738Y-130896194D01*
X116508496Y-131266203D01*
X117123799Y-131521070D01*
X117777001Y-131651000D01*
X118442999Y-131651000D01*
X119096201Y-131521070D01*
X119711504Y-131266203D01*
X120265262Y-130896194D01*
X120736194Y-130425262D01*
X121106203Y-129871504D01*
X121361070Y-129256201D01*
X121491000Y-128602999D01*
X121491000Y-127937001D01*
X184579000Y-127937001D01*
X184579000Y-128602999D01*
X184708930Y-129256201D01*
X184963797Y-129871504D01*
X185333806Y-130425262D01*
X185804738Y-130896194D01*
X186358496Y-131266203D01*
X186973799Y-131521070D01*
X187627001Y-131651000D01*
X188292999Y-131651000D01*
X188946201Y-131521070D01*
X189561504Y-131266203D01*
X190115262Y-130896194D01*
X190586194Y-130425262D01*
X190956203Y-129871504D01*
X191211070Y-129256201D01*
X191341000Y-128602999D01*
X191341000Y-127937001D01*
X191211070Y-127283799D01*
X190956203Y-126668496D01*
X190586194Y-126114738D01*
X190115262Y-125643806D01*
X189561504Y-125273797D01*
X188946201Y-125018930D01*
X188292999Y-124889000D01*
X187627001Y-124889000D01*
X186973799Y-125018930D01*
X186358496Y-125273797D01*
X185804738Y-125643806D01*
X185333806Y-126114738D01*
X184963797Y-126668496D01*
X184708930Y-127283799D01*
X184579000Y-127937001D01*
X121491000Y-127937001D01*
X121361070Y-127283799D01*
X121106203Y-126668496D01*
X120736194Y-126114738D01*
X120265262Y-125643806D01*
X119711504Y-125273797D01*
X119096201Y-125018930D01*
X118442999Y-124889000D01*
X117777001Y-124889000D01*
X117123799Y-125018930D01*
X116508496Y-125273797D01*
X115954738Y-125643806D01*
X115483806Y-126114738D01*
X115113797Y-126668496D01*
X114858930Y-127283799D01*
X114729000Y-127937001D01*
X107656000Y-127937001D01*
X107656000Y-123678757D01*
X171609000Y-123678757D01*
X171609000Y-123921243D01*
X171656307Y-124159069D01*
X171749102Y-124383097D01*
X171883820Y-124584717D01*
X172055283Y-124756180D01*
X172256903Y-124890898D01*
X172480931Y-124983693D01*
X172718757Y-125031000D01*
X172961243Y-125031000D01*
X173199069Y-124983693D01*
X173423097Y-124890898D01*
X173624717Y-124756180D01*
X173796180Y-124584717D01*
X173930898Y-124383097D01*
X173978228Y-124268832D01*
X174035843Y-124431252D01*
X174184822Y-124681355D01*
X174379731Y-124897588D01*
X174613080Y-125071641D01*
X174875901Y-125196825D01*
X175023110Y-125241476D01*
X175253000Y-125120155D01*
X175253000Y-123927000D01*
X175233000Y-123927000D01*
X175233000Y-123673000D01*
X175253000Y-123673000D01*
X175253000Y-122479845D01*
X175507000Y-122479845D01*
X175507000Y-123673000D01*
X175527000Y-123673000D01*
X175527000Y-123927000D01*
X175507000Y-123927000D01*
X175507000Y-125120155D01*
X175736890Y-125241476D01*
X175884099Y-125196825D01*
X176146920Y-125071641D01*
X176380269Y-124897588D01*
X176575178Y-124681355D01*
X176724157Y-124431252D01*
X176781772Y-124268832D01*
X176829102Y-124383097D01*
X176963820Y-124584717D01*
X177135283Y-124756180D01*
X177336903Y-124890898D01*
X177560931Y-124983693D01*
X177798757Y-125031000D01*
X178041243Y-125031000D01*
X178279069Y-124983693D01*
X178503097Y-124890898D01*
X178704717Y-124756180D01*
X178876180Y-124584717D01*
X179010898Y-124383097D01*
X179103693Y-124159069D01*
X179151000Y-123921243D01*
X179151000Y-123678757D01*
X179229000Y-123678757D01*
X179229000Y-123921243D01*
X179276307Y-124159069D01*
X179369102Y-124383097D01*
X179503820Y-124584717D01*
X179675283Y-124756180D01*
X179876903Y-124890898D01*
X180100931Y-124983693D01*
X180338757Y-125031000D01*
X180581243Y-125031000D01*
X180819069Y-124983693D01*
X181043097Y-124890898D01*
X181244717Y-124756180D01*
X181416180Y-124584717D01*
X181550898Y-124383097D01*
X181643693Y-124159069D01*
X181691000Y-123921243D01*
X181691000Y-123678757D01*
X181643693Y-123440931D01*
X181550898Y-123216903D01*
X181416180Y-123015283D01*
X181244717Y-122843820D01*
X181043097Y-122709102D01*
X180819069Y-122616307D01*
X180581243Y-122569000D01*
X180338757Y-122569000D01*
X180100931Y-122616307D01*
X179876903Y-122709102D01*
X179675283Y-122843820D01*
X179503820Y-123015283D01*
X179369102Y-123216903D01*
X179276307Y-123440931D01*
X179229000Y-123678757D01*
X179151000Y-123678757D01*
X179103693Y-123440931D01*
X179010898Y-123216903D01*
X178876180Y-123015283D01*
X178704717Y-122843820D01*
X178503097Y-122709102D01*
X178279069Y-122616307D01*
X178041243Y-122569000D01*
X177798757Y-122569000D01*
X177560931Y-122616307D01*
X177336903Y-122709102D01*
X177135283Y-122843820D01*
X176963820Y-123015283D01*
X176829102Y-123216903D01*
X176781772Y-123331168D01*
X176724157Y-123168748D01*
X176575178Y-122918645D01*
X176380269Y-122702412D01*
X176146920Y-122528359D01*
X175884099Y-122403175D01*
X175736890Y-122358524D01*
X175507000Y-122479845D01*
X175253000Y-122479845D01*
X175023110Y-122358524D01*
X174875901Y-122403175D01*
X174613080Y-122528359D01*
X174379731Y-122702412D01*
X174184822Y-122918645D01*
X174035843Y-123168748D01*
X173978228Y-123331168D01*
X173930898Y-123216903D01*
X173796180Y-123015283D01*
X173624717Y-122843820D01*
X173423097Y-122709102D01*
X173199069Y-122616307D01*
X172961243Y-122569000D01*
X172718757Y-122569000D01*
X172480931Y-122616307D01*
X172256903Y-122709102D01*
X172055283Y-122843820D01*
X171883820Y-123015283D01*
X171749102Y-123216903D01*
X171656307Y-123440931D01*
X171609000Y-123678757D01*
X107656000Y-123678757D01*
X107656000Y-120890000D01*
X110189000Y-120890000D01*
X110189000Y-121540000D01*
X110236546Y-121768742D01*
X110327804Y-121983813D01*
X110459266Y-122176948D01*
X110625881Y-122340725D01*
X110821246Y-122468850D01*
X111037853Y-122556399D01*
X111064256Y-122556803D01*
X111247000Y-122431361D01*
X111247000Y-120890000D01*
X111501000Y-120890000D01*
X111501000Y-122431361D01*
X111683744Y-122556803D01*
X111710147Y-122556399D01*
X111926754Y-122468850D01*
X112122119Y-122340725D01*
X112288734Y-122176948D01*
X112420196Y-121983813D01*
X112491157Y-121816577D01*
X112491157Y-122188000D01*
X112498513Y-122262689D01*
X112520299Y-122334508D01*
X112555678Y-122400696D01*
X112603289Y-122458711D01*
X112661304Y-122506322D01*
X112727492Y-122541701D01*
X112799311Y-122563487D01*
X112874000Y-122570843D01*
X113974000Y-122570843D01*
X114048689Y-122563487D01*
X114120508Y-122541701D01*
X114186696Y-122506322D01*
X114244711Y-122458711D01*
X114292322Y-122400696D01*
X114327701Y-122334508D01*
X114345430Y-122276063D01*
X114430522Y-122361155D01*
X114583006Y-122463042D01*
X114752437Y-122533222D01*
X114932304Y-122569000D01*
X115115696Y-122569000D01*
X115295563Y-122533222D01*
X115464994Y-122463042D01*
X115481550Y-122451979D01*
X115989626Y-122451979D01*
X116030841Y-122670478D01*
X116243665Y-122766359D01*
X116471105Y-122818878D01*
X116704421Y-122826016D01*
X116934646Y-122787500D01*
X117152934Y-122704808D01*
X117217159Y-122670478D01*
X117258374Y-122451979D01*
X116624000Y-121817605D01*
X115989626Y-122451979D01*
X115481550Y-122451979D01*
X115617478Y-122361155D01*
X115722725Y-122255908D01*
X115810021Y-122272374D01*
X116444395Y-121638000D01*
X116803605Y-121638000D01*
X117437979Y-122272374D01*
X117656478Y-122231159D01*
X117712111Y-122107672D01*
X117759266Y-122176948D01*
X117925881Y-122340725D01*
X118121246Y-122468850D01*
X118337853Y-122556399D01*
X118364256Y-122556803D01*
X118547000Y-122431361D01*
X118547000Y-120890000D01*
X118801000Y-120890000D01*
X118801000Y-122431361D01*
X118983744Y-122556803D01*
X119010147Y-122556399D01*
X119226754Y-122468850D01*
X119422119Y-122340725D01*
X119588734Y-122176948D01*
X119720196Y-121983813D01*
X119811454Y-121768742D01*
X119859000Y-121540000D01*
X119859000Y-120890000D01*
X118801000Y-120890000D01*
X118547000Y-120890000D01*
X117489000Y-120890000D01*
X117489000Y-121013250D01*
X117437979Y-121003626D01*
X116803605Y-121638000D01*
X116444395Y-121638000D01*
X116430253Y-121623858D01*
X116609858Y-121444253D01*
X116624000Y-121458395D01*
X117238081Y-120844314D01*
X127283000Y-120844314D01*
X127283000Y-120963686D01*
X127306288Y-121080764D01*
X127351970Y-121191049D01*
X127418289Y-121290302D01*
X127502698Y-121374711D01*
X127601951Y-121441030D01*
X127712236Y-121486712D01*
X127829314Y-121510000D01*
X127948686Y-121510000D01*
X128065764Y-121486712D01*
X128176049Y-121441030D01*
X128275302Y-121374711D01*
X128359711Y-121290302D01*
X128426030Y-121191049D01*
X128471712Y-121080764D01*
X128495000Y-120963686D01*
X128495000Y-120926617D01*
X129234745Y-120186873D01*
X129234749Y-120186868D01*
X129689618Y-119732000D01*
X129726686Y-119732000D01*
X129843764Y-119708712D01*
X129954049Y-119663030D01*
X130053302Y-119596711D01*
X130137711Y-119512302D01*
X130204030Y-119413049D01*
X130249712Y-119302764D01*
X130273000Y-119185686D01*
X130273000Y-119066314D01*
X130249712Y-118949236D01*
X130204030Y-118838951D01*
X130137711Y-118739698D01*
X130053302Y-118655289D01*
X129954049Y-118588970D01*
X129843764Y-118543288D01*
X129726686Y-118520000D01*
X129607314Y-118520000D01*
X129490236Y-118543288D01*
X129379951Y-118588970D01*
X129280698Y-118655289D01*
X129196289Y-118739698D01*
X129129970Y-118838951D01*
X129084288Y-118949236D01*
X129061000Y-119066314D01*
X129061000Y-119103382D01*
X128606132Y-119558251D01*
X128606127Y-119558255D01*
X127866383Y-120298000D01*
X127829314Y-120298000D01*
X127712236Y-120321288D01*
X127601951Y-120366970D01*
X127502698Y-120433289D01*
X127418289Y-120517698D01*
X127351970Y-120616951D01*
X127306288Y-120727236D01*
X127283000Y-120844314D01*
X117238081Y-120844314D01*
X117258374Y-120824021D01*
X117217159Y-120605522D01*
X117004335Y-120509641D01*
X116776895Y-120457122D01*
X116567706Y-120450722D01*
X116649042Y-120328994D01*
X116719222Y-120159563D01*
X116753746Y-119986000D01*
X117489000Y-119986000D01*
X117489000Y-120636000D01*
X118547000Y-120636000D01*
X118547000Y-119094639D01*
X118801000Y-119094639D01*
X118801000Y-120636000D01*
X119859000Y-120636000D01*
X119859000Y-119986000D01*
X119811454Y-119757258D01*
X119720196Y-119542187D01*
X119588734Y-119349052D01*
X119422119Y-119185275D01*
X119226754Y-119057150D01*
X119010147Y-118969601D01*
X118983744Y-118969197D01*
X118801000Y-119094639D01*
X118547000Y-119094639D01*
X118364256Y-118969197D01*
X118337853Y-118969601D01*
X118121246Y-119057150D01*
X117925881Y-119185275D01*
X117759266Y-119349052D01*
X117627804Y-119542187D01*
X117536546Y-119757258D01*
X117489000Y-119986000D01*
X116753746Y-119986000D01*
X116755000Y-119979696D01*
X116755000Y-119796304D01*
X116719222Y-119616437D01*
X116649042Y-119447006D01*
X116547155Y-119294522D01*
X116417478Y-119164845D01*
X116264994Y-119062958D01*
X116095563Y-118992778D01*
X115915696Y-118957000D01*
X115732304Y-118957000D01*
X115552437Y-118992778D01*
X115383006Y-119062958D01*
X115230522Y-119164845D01*
X115100845Y-119294522D01*
X115024000Y-119409528D01*
X114947155Y-119294522D01*
X114817478Y-119164845D01*
X114664994Y-119062958D01*
X114495563Y-118992778D01*
X114315696Y-118957000D01*
X114132304Y-118957000D01*
X113952437Y-118992778D01*
X113783006Y-119062958D01*
X113630522Y-119164845D01*
X113500845Y-119294522D01*
X113398958Y-119447006D01*
X113328778Y-119616437D01*
X113293000Y-119796304D01*
X113293000Y-119979696D01*
X113328778Y-120159563D01*
X113398958Y-120328994D01*
X113500845Y-120481478D01*
X113630522Y-120611155D01*
X113771205Y-120705157D01*
X112874000Y-120705157D01*
X112799311Y-120712513D01*
X112727492Y-120734299D01*
X112661304Y-120769678D01*
X112603289Y-120817289D01*
X112555678Y-120875304D01*
X112547823Y-120890000D01*
X111501000Y-120890000D01*
X111247000Y-120890000D01*
X110189000Y-120890000D01*
X107656000Y-120890000D01*
X107656000Y-119986000D01*
X110189000Y-119986000D01*
X110189000Y-120636000D01*
X111247000Y-120636000D01*
X111247000Y-119094639D01*
X111501000Y-119094639D01*
X111501000Y-120636000D01*
X112559000Y-120636000D01*
X112559000Y-119986000D01*
X112511454Y-119757258D01*
X112420196Y-119542187D01*
X112288734Y-119349052D01*
X112122119Y-119185275D01*
X111926754Y-119057150D01*
X111710147Y-118969601D01*
X111683744Y-118969197D01*
X111501000Y-119094639D01*
X111247000Y-119094639D01*
X111064256Y-118969197D01*
X111037853Y-118969601D01*
X110821246Y-119057150D01*
X110625881Y-119185275D01*
X110459266Y-119349052D01*
X110327804Y-119542187D01*
X110236546Y-119757258D01*
X110189000Y-119986000D01*
X107656000Y-119986000D01*
X107656000Y-102666078D01*
X109074000Y-102666078D01*
X109074000Y-102819922D01*
X109104013Y-102970809D01*
X109162887Y-103112942D01*
X109248358Y-103240859D01*
X109349000Y-103341501D01*
X109349001Y-116688144D01*
X109346553Y-116713000D01*
X109356322Y-116812192D01*
X109385255Y-116907574D01*
X109401555Y-116938068D01*
X109432242Y-116995479D01*
X109495474Y-117072527D01*
X109514780Y-117088371D01*
X110622628Y-118196220D01*
X110638473Y-118215527D01*
X110715521Y-118278759D01*
X110803425Y-118325745D01*
X110898806Y-118354678D01*
X110908694Y-118355652D01*
X110973146Y-118362000D01*
X110973153Y-118362000D01*
X110997999Y-118364447D01*
X111022845Y-118362000D01*
X141141409Y-118362000D01*
X144912628Y-122133220D01*
X144928473Y-122152527D01*
X145005521Y-122215759D01*
X145093320Y-122262689D01*
X145093425Y-122262745D01*
X145188807Y-122291678D01*
X145288000Y-122301448D01*
X145312854Y-122299000D01*
X152121154Y-122299000D01*
X152146000Y-122301447D01*
X152170846Y-122299000D01*
X152170854Y-122299000D01*
X152245193Y-122291678D01*
X152340575Y-122262745D01*
X152428479Y-122215759D01*
X152505527Y-122152527D01*
X152521376Y-122133215D01*
X155644000Y-119010591D01*
X155644000Y-119059686D01*
X155667288Y-119176764D01*
X155712970Y-119287049D01*
X155779289Y-119386302D01*
X155863698Y-119470711D01*
X155962951Y-119537030D01*
X156073236Y-119582712D01*
X156190314Y-119606000D01*
X156309686Y-119606000D01*
X156426764Y-119582712D01*
X156537049Y-119537030D01*
X156636302Y-119470711D01*
X156720711Y-119386302D01*
X156720983Y-119385894D01*
X156748145Y-119371376D01*
X156815829Y-119315829D01*
X156829747Y-119298870D01*
X158522618Y-117606000D01*
X158559686Y-117606000D01*
X158676764Y-117582712D01*
X158787049Y-117537030D01*
X158886302Y-117470711D01*
X158970711Y-117386302D01*
X159037030Y-117287049D01*
X159082712Y-117176764D01*
X159106000Y-117059686D01*
X159106000Y-116940314D01*
X159086047Y-116840000D01*
X192161928Y-116840000D01*
X192174188Y-116964482D01*
X192210498Y-117084180D01*
X192269463Y-117194494D01*
X192348815Y-117291185D01*
X192445506Y-117370537D01*
X192555820Y-117429502D01*
X192675518Y-117465812D01*
X192800000Y-117478072D01*
X194314250Y-117475000D01*
X194473000Y-117316250D01*
X194473000Y-115927000D01*
X194727000Y-115927000D01*
X194727000Y-117316250D01*
X194885750Y-117475000D01*
X196400000Y-117478072D01*
X196524482Y-117465812D01*
X196644180Y-117429502D01*
X196754494Y-117370537D01*
X196851185Y-117291185D01*
X196930537Y-117194494D01*
X196989502Y-117084180D01*
X197025812Y-116964482D01*
X197038072Y-116840000D01*
X197035000Y-116085750D01*
X196876250Y-115927000D01*
X194727000Y-115927000D01*
X194473000Y-115927000D01*
X192323750Y-115927000D01*
X192165000Y-116085750D01*
X192161928Y-116840000D01*
X159086047Y-116840000D01*
X159082712Y-116823236D01*
X159037030Y-116712951D01*
X158970711Y-116613698D01*
X158886302Y-116529289D01*
X158787049Y-116462970D01*
X158676764Y-116417288D01*
X158559686Y-116394000D01*
X158440314Y-116394000D01*
X158323236Y-116417288D01*
X158212951Y-116462970D01*
X158148671Y-116505921D01*
X160864592Y-113790000D01*
X165652409Y-113790000D01*
X167300392Y-115437983D01*
X167311288Y-115492764D01*
X167356970Y-115603049D01*
X167423289Y-115702302D01*
X167507698Y-115786711D01*
X167606951Y-115853030D01*
X167717236Y-115898712D01*
X167834314Y-115922000D01*
X167953686Y-115922000D01*
X168070764Y-115898712D01*
X168181049Y-115853030D01*
X168280302Y-115786711D01*
X168364711Y-115702302D01*
X168431030Y-115603049D01*
X168476712Y-115492764D01*
X168500000Y-115375686D01*
X168500000Y-115256314D01*
X168476712Y-115139236D01*
X168431030Y-115028951D01*
X168364711Y-114929698D01*
X168280302Y-114845289D01*
X168181049Y-114778970D01*
X168135252Y-114760000D01*
X192161928Y-114760000D01*
X192165000Y-115514250D01*
X192323750Y-115673000D01*
X194473000Y-115673000D01*
X194473000Y-114283750D01*
X194727000Y-114283750D01*
X194727000Y-115673000D01*
X196876250Y-115673000D01*
X197035000Y-115514250D01*
X197038072Y-114760000D01*
X197025812Y-114635518D01*
X196989502Y-114515820D01*
X196930537Y-114405506D01*
X196851185Y-114308815D01*
X196754494Y-114229463D01*
X196644180Y-114170498D01*
X196524482Y-114134188D01*
X196400000Y-114121928D01*
X194885750Y-114125000D01*
X194727000Y-114283750D01*
X194473000Y-114283750D01*
X194314250Y-114125000D01*
X192800000Y-114121928D01*
X192675518Y-114134188D01*
X192555820Y-114170498D01*
X192445506Y-114229463D01*
X192348815Y-114308815D01*
X192269463Y-114405506D01*
X192210498Y-114515820D01*
X192174188Y-114635518D01*
X192161928Y-114760000D01*
X168135252Y-114760000D01*
X168070764Y-114733288D01*
X168015983Y-114722392D01*
X166237376Y-112943785D01*
X166221527Y-112924473D01*
X166144479Y-112861241D01*
X166056575Y-112814255D01*
X165961193Y-112785322D01*
X165886854Y-112778000D01*
X165886846Y-112778000D01*
X165862000Y-112775553D01*
X165837154Y-112778000D01*
X160679845Y-112778000D01*
X160654999Y-112775553D01*
X160630153Y-112778000D01*
X160630146Y-112778000D01*
X160565694Y-112784348D01*
X160555806Y-112785322D01*
X160482196Y-112807651D01*
X160460425Y-112814255D01*
X160372521Y-112861241D01*
X160295473Y-112924473D01*
X160279628Y-112943780D01*
X151936409Y-121287000D01*
X145497592Y-121287000D01*
X141726376Y-117515785D01*
X141710527Y-117496473D01*
X141633479Y-117433241D01*
X141545575Y-117386255D01*
X141450193Y-117357322D01*
X141375854Y-117350000D01*
X141375846Y-117350000D01*
X141351000Y-117347553D01*
X141326154Y-117350000D01*
X111207592Y-117350000D01*
X110361000Y-116503409D01*
X110361000Y-109260738D01*
X116250981Y-109260738D01*
X116250981Y-109503224D01*
X116298288Y-109741050D01*
X116391083Y-109965078D01*
X116525801Y-110166698D01*
X116697264Y-110338161D01*
X116898884Y-110472879D01*
X117122912Y-110565674D01*
X117360738Y-110612981D01*
X117603224Y-110612981D01*
X117841050Y-110565674D01*
X118065078Y-110472879D01*
X118266698Y-110338161D01*
X118438161Y-110166698D01*
X118572879Y-109965078D01*
X118665674Y-109741050D01*
X118712981Y-109503224D01*
X118712981Y-109260738D01*
X118665674Y-109022912D01*
X118572879Y-108798884D01*
X118438161Y-108597264D01*
X118266698Y-108425801D01*
X118225561Y-108398314D01*
X121568000Y-108398314D01*
X121568000Y-108517686D01*
X121591288Y-108634764D01*
X121636970Y-108745049D01*
X121703289Y-108844302D01*
X121787698Y-108928711D01*
X121886951Y-108995030D01*
X121997236Y-109040712D01*
X122114314Y-109064000D01*
X122233686Y-109064000D01*
X122350764Y-109040712D01*
X122461049Y-108995030D01*
X122560302Y-108928711D01*
X122586513Y-108902500D01*
X127304168Y-108902500D01*
X127331236Y-108913712D01*
X127448314Y-108937000D01*
X127567686Y-108937000D01*
X127684764Y-108913712D01*
X127795049Y-108868030D01*
X127894302Y-108801711D01*
X127978711Y-108717302D01*
X128045030Y-108618049D01*
X128090712Y-108507764D01*
X128114000Y-108390686D01*
X128114000Y-108271314D01*
X128090712Y-108154236D01*
X128045030Y-108043951D01*
X127978711Y-107944698D01*
X127894302Y-107860289D01*
X127795049Y-107793970D01*
X127684764Y-107748288D01*
X127567686Y-107725000D01*
X127448314Y-107725000D01*
X127331236Y-107748288D01*
X127220951Y-107793970D01*
X127121698Y-107860289D01*
X127037289Y-107944698D01*
X126991317Y-108013500D01*
X122586513Y-108013500D01*
X122560302Y-107987289D01*
X122461049Y-107920970D01*
X122350764Y-107875288D01*
X122233686Y-107852000D01*
X122114314Y-107852000D01*
X121997236Y-107875288D01*
X121886951Y-107920970D01*
X121787698Y-107987289D01*
X121703289Y-108071698D01*
X121636970Y-108170951D01*
X121591288Y-108281236D01*
X121568000Y-108398314D01*
X118225561Y-108398314D01*
X118065078Y-108291083D01*
X117841050Y-108198288D01*
X117603224Y-108150981D01*
X117360738Y-108150981D01*
X117122912Y-108198288D01*
X116898884Y-108291083D01*
X116697264Y-108425801D01*
X116525801Y-108597264D01*
X116391083Y-108798884D01*
X116298288Y-109022912D01*
X116250981Y-109260738D01*
X110361000Y-109260738D01*
X110361000Y-106558019D01*
X112851401Y-106558019D01*
X112949081Y-106833747D01*
X113098676Y-107085121D01*
X113294438Y-107302480D01*
X113528843Y-107477472D01*
X113792883Y-107603371D01*
X113941981Y-107648599D01*
X114173000Y-107527373D01*
X114173000Y-106327000D01*
X114427000Y-106327000D01*
X114427000Y-107527373D01*
X114658019Y-107648599D01*
X114933747Y-107550919D01*
X115185121Y-107401324D01*
X115402480Y-107205562D01*
X115577472Y-106971157D01*
X115703371Y-106707117D01*
X115748599Y-106558019D01*
X115627373Y-106327000D01*
X114427000Y-106327000D01*
X114173000Y-106327000D01*
X112972627Y-106327000D01*
X112851401Y-106558019D01*
X110361000Y-106558019D01*
X110361000Y-105841981D01*
X112851401Y-105841981D01*
X112972627Y-106073000D01*
X114173000Y-106073000D01*
X114173000Y-104872627D01*
X114427000Y-104872627D01*
X114427000Y-106073000D01*
X115627373Y-106073000D01*
X115748599Y-105841981D01*
X115650919Y-105566253D01*
X115501324Y-105314879D01*
X115305562Y-105097520D01*
X115071157Y-104922528D01*
X114807117Y-104796629D01*
X114658019Y-104751401D01*
X114427000Y-104872627D01*
X114173000Y-104872627D01*
X113941981Y-104751401D01*
X113666253Y-104849081D01*
X113414879Y-104998676D01*
X113197520Y-105194438D01*
X113022528Y-105428843D01*
X112896629Y-105692883D01*
X112851401Y-105841981D01*
X110361000Y-105841981D01*
X110361000Y-104664543D01*
X120847175Y-104664543D01*
X120847175Y-104907029D01*
X120894482Y-105144855D01*
X120987277Y-105368883D01*
X121121995Y-105570503D01*
X121293458Y-105741966D01*
X121495078Y-105876684D01*
X121719106Y-105969479D01*
X121956932Y-106016786D01*
X122199418Y-106016786D01*
X122437244Y-105969479D01*
X122661272Y-105876684D01*
X122862892Y-105741966D01*
X123034355Y-105570503D01*
X123169073Y-105368883D01*
X123261868Y-105144855D01*
X123309175Y-104907029D01*
X123309175Y-104664543D01*
X123261868Y-104426717D01*
X123169073Y-104202689D01*
X123034355Y-104001069D01*
X122862892Y-103829606D01*
X122661272Y-103694888D01*
X122437244Y-103602093D01*
X122199418Y-103554786D01*
X121956932Y-103554786D01*
X121719106Y-103602093D01*
X121495078Y-103694888D01*
X121293458Y-103829606D01*
X121121995Y-104001069D01*
X120987277Y-104202689D01*
X120894482Y-104426717D01*
X120847175Y-104664543D01*
X110361000Y-104664543D01*
X110361000Y-103341501D01*
X110461642Y-103240859D01*
X110547113Y-103112942D01*
X110605987Y-102970809D01*
X110636000Y-102819922D01*
X110636000Y-102666078D01*
X110605987Y-102515191D01*
X110547113Y-102373058D01*
X110461642Y-102245141D01*
X110352859Y-102136358D01*
X110224942Y-102050887D01*
X110082809Y-101992013D01*
X109931922Y-101962000D01*
X109778078Y-101962000D01*
X109627191Y-101992013D01*
X109485058Y-102050887D01*
X109357141Y-102136358D01*
X109248358Y-102245141D01*
X109162887Y-102373058D01*
X109104013Y-102515191D01*
X109074000Y-102666078D01*
X107656000Y-102666078D01*
X107656000Y-101961825D01*
X117447595Y-101961825D01*
X117545275Y-102237553D01*
X117694870Y-102488927D01*
X117890632Y-102706286D01*
X118125037Y-102881278D01*
X118389077Y-103007177D01*
X118538175Y-103052405D01*
X118769194Y-102931179D01*
X118769194Y-101730806D01*
X119023194Y-101730806D01*
X119023194Y-102931179D01*
X119254213Y-103052405D01*
X119529941Y-102954725D01*
X119781315Y-102805130D01*
X119998674Y-102609368D01*
X120173666Y-102374963D01*
X120299565Y-102110923D01*
X120344793Y-101961825D01*
X120223567Y-101730806D01*
X119023194Y-101730806D01*
X118769194Y-101730806D01*
X117568821Y-101730806D01*
X117447595Y-101961825D01*
X107656000Y-101961825D01*
X107656000Y-101245787D01*
X117447595Y-101245787D01*
X117568821Y-101476806D01*
X118769194Y-101476806D01*
X118769194Y-100276433D01*
X119023194Y-100276433D01*
X119023194Y-101476806D01*
X120223567Y-101476806D01*
X120344793Y-101245787D01*
X120247113Y-100970059D01*
X120097518Y-100718685D01*
X119901756Y-100501326D01*
X119667351Y-100326334D01*
X119403311Y-100200435D01*
X119254213Y-100155207D01*
X119023194Y-100276433D01*
X118769194Y-100276433D01*
X118538175Y-100155207D01*
X118262447Y-100252887D01*
X118011073Y-100402482D01*
X117793714Y-100598244D01*
X117618722Y-100832649D01*
X117492823Y-101096689D01*
X117447595Y-101245787D01*
X107656000Y-101245787D01*
X107656000Y-98173078D01*
X118469000Y-98173078D01*
X118469000Y-98326922D01*
X118499013Y-98477809D01*
X118557887Y-98619942D01*
X118643358Y-98747859D01*
X118752141Y-98856642D01*
X118880058Y-98942113D01*
X119022191Y-99000987D01*
X119173078Y-99031000D01*
X119326922Y-99031000D01*
X119477809Y-99000987D01*
X119619942Y-98942113D01*
X119747859Y-98856642D01*
X119856642Y-98747859D01*
X119942113Y-98619942D01*
X120000987Y-98477809D01*
X120031000Y-98326922D01*
X120031000Y-98184592D01*
X120209592Y-98006000D01*
X152865382Y-98006000D01*
X147477383Y-103394000D01*
X147440314Y-103394000D01*
X147323236Y-103417288D01*
X147212951Y-103462970D01*
X147113698Y-103529289D01*
X147029289Y-103613698D01*
X146962970Y-103712951D01*
X146917288Y-103823236D01*
X146894000Y-103940314D01*
X146894000Y-104059686D01*
X146917288Y-104176764D01*
X146962970Y-104287049D01*
X147029289Y-104386302D01*
X147113698Y-104470711D01*
X147212951Y-104537030D01*
X147253087Y-104553655D01*
X147249999Y-104553351D01*
X147228179Y-104555500D01*
X147228170Y-104555500D01*
X147162863Y-104561932D01*
X147079074Y-104587349D01*
X147001855Y-104628624D01*
X146934171Y-104684171D01*
X146920253Y-104701130D01*
X143065883Y-108555500D01*
X142021820Y-108555500D01*
X142000000Y-108553351D01*
X141978180Y-108555500D01*
X141978170Y-108555500D01*
X141912863Y-108561932D01*
X141829074Y-108587349D01*
X141751854Y-108628624D01*
X141701127Y-108670255D01*
X141701124Y-108670258D01*
X141684171Y-108684171D01*
X141670258Y-108701124D01*
X136949830Y-113421553D01*
X136932871Y-113435471D01*
X136918955Y-113452428D01*
X136877324Y-113503155D01*
X136850494Y-113553350D01*
X136836049Y-113580375D01*
X136810632Y-113664164D01*
X136804200Y-113729471D01*
X136804200Y-113729480D01*
X136802051Y-113751300D01*
X136804200Y-113773120D01*
X136804201Y-114944186D01*
X136777989Y-114970398D01*
X136711670Y-115069651D01*
X136665988Y-115179936D01*
X136642700Y-115297014D01*
X136642700Y-115416386D01*
X136665988Y-115533464D01*
X136711670Y-115643749D01*
X136777989Y-115743002D01*
X136862398Y-115827411D01*
X136961651Y-115893730D01*
X137071936Y-115939412D01*
X137189014Y-115962700D01*
X137308386Y-115962700D01*
X137425464Y-115939412D01*
X137535749Y-115893730D01*
X137635002Y-115827411D01*
X137719411Y-115743002D01*
X137785730Y-115643749D01*
X137831412Y-115533464D01*
X137854700Y-115416386D01*
X137854700Y-115297014D01*
X137831412Y-115179936D01*
X137785730Y-115069651D01*
X137719411Y-114970398D01*
X137693200Y-114944187D01*
X137693200Y-113935417D01*
X142184118Y-109444500D01*
X142926882Y-109444500D01*
X138701130Y-113670253D01*
X138684171Y-113684171D01*
X138670255Y-113701128D01*
X138628624Y-113751855D01*
X138627614Y-113753745D01*
X138587349Y-113829075D01*
X138561932Y-113912864D01*
X138555500Y-113978171D01*
X138555500Y-113978180D01*
X138553351Y-114000000D01*
X138555500Y-114021820D01*
X138555501Y-116087486D01*
X138529289Y-116113698D01*
X138462970Y-116212951D01*
X138417288Y-116323236D01*
X138394000Y-116440314D01*
X138394000Y-116559686D01*
X138417288Y-116676764D01*
X138462970Y-116787049D01*
X138529289Y-116886302D01*
X138613698Y-116970711D01*
X138712951Y-117037030D01*
X138823236Y-117082712D01*
X138940314Y-117106000D01*
X139059686Y-117106000D01*
X139176764Y-117082712D01*
X139287049Y-117037030D01*
X139386302Y-116970711D01*
X139470711Y-116886302D01*
X139537030Y-116787049D01*
X139582712Y-116676764D01*
X139606000Y-116559686D01*
X139606000Y-116440314D01*
X139582712Y-116323236D01*
X139537030Y-116212951D01*
X139470711Y-116113698D01*
X139444500Y-116087487D01*
X139444500Y-114184117D01*
X145079745Y-108548873D01*
X145079750Y-108548867D01*
X145097500Y-108531117D01*
X145097501Y-113760486D01*
X145071289Y-113786698D01*
X145004970Y-113885951D01*
X144959288Y-113996236D01*
X144936000Y-114113314D01*
X144936000Y-114232686D01*
X144959288Y-114349764D01*
X145004970Y-114460049D01*
X145071289Y-114559302D01*
X145097501Y-114585514D01*
X145097500Y-119068882D01*
X145011382Y-119155000D01*
X144974314Y-119155000D01*
X144857236Y-119178288D01*
X144746951Y-119223970D01*
X144647698Y-119290289D01*
X144563289Y-119374698D01*
X144496970Y-119473951D01*
X144451288Y-119584236D01*
X144428000Y-119701314D01*
X144428000Y-119820686D01*
X144451288Y-119937764D01*
X144496970Y-120048049D01*
X144563289Y-120147302D01*
X144647698Y-120231711D01*
X144746951Y-120298030D01*
X144857236Y-120343712D01*
X144974314Y-120367000D01*
X145093686Y-120367000D01*
X145210764Y-120343712D01*
X145321049Y-120298030D01*
X145420302Y-120231711D01*
X145504711Y-120147302D01*
X145571030Y-120048049D01*
X145616712Y-119937764D01*
X145640000Y-119820686D01*
X145640000Y-119783618D01*
X145840877Y-119582741D01*
X145857829Y-119568829D01*
X145904220Y-119512302D01*
X145913375Y-119501147D01*
X145927164Y-119475349D01*
X145954651Y-119423926D01*
X145980068Y-119340137D01*
X145986500Y-119274830D01*
X145986500Y-119274821D01*
X145988649Y-119253001D01*
X145986500Y-119231181D01*
X145986500Y-114585513D01*
X146012711Y-114559302D01*
X146079030Y-114460049D01*
X146124712Y-114349764D01*
X146148000Y-114232686D01*
X146148000Y-114113314D01*
X153064000Y-114113314D01*
X153064000Y-114232686D01*
X153087288Y-114349764D01*
X153132970Y-114460049D01*
X153199289Y-114559302D01*
X153283698Y-114643711D01*
X153382951Y-114710030D01*
X153493236Y-114755712D01*
X153610314Y-114779000D01*
X153729686Y-114779000D01*
X153846764Y-114755712D01*
X153957049Y-114710030D01*
X154056302Y-114643711D01*
X154082513Y-114617500D01*
X156940487Y-114617500D01*
X156966698Y-114643711D01*
X157065951Y-114710030D01*
X157176236Y-114755712D01*
X157293314Y-114779000D01*
X157412686Y-114779000D01*
X157529764Y-114755712D01*
X157640049Y-114710030D01*
X157739302Y-114643711D01*
X157823711Y-114559302D01*
X157890030Y-114460049D01*
X157935712Y-114349764D01*
X157959000Y-114232686D01*
X157959000Y-114113314D01*
X157935712Y-113996236D01*
X157890030Y-113885951D01*
X157823711Y-113786698D01*
X157739302Y-113702289D01*
X157640049Y-113635970D01*
X157529764Y-113590288D01*
X157412686Y-113567000D01*
X157293314Y-113567000D01*
X157176236Y-113590288D01*
X157065951Y-113635970D01*
X156966698Y-113702289D01*
X156940487Y-113728500D01*
X154082513Y-113728500D01*
X154056302Y-113702289D01*
X153957049Y-113635970D01*
X153846764Y-113590288D01*
X153729686Y-113567000D01*
X153610314Y-113567000D01*
X153493236Y-113590288D01*
X153382951Y-113635970D01*
X153283698Y-113702289D01*
X153199289Y-113786698D01*
X153132970Y-113885951D01*
X153087288Y-113996236D01*
X153064000Y-114113314D01*
X146148000Y-114113314D01*
X146124712Y-113996236D01*
X146079030Y-113885951D01*
X146012711Y-113786698D01*
X145986500Y-113760487D01*
X145986500Y-112318078D01*
X152889000Y-112318078D01*
X152889000Y-112471922D01*
X152919013Y-112622809D01*
X152977887Y-112764942D01*
X153063358Y-112892859D01*
X153172141Y-113001642D01*
X153300058Y-113087113D01*
X153442191Y-113145987D01*
X153593078Y-113176000D01*
X153746922Y-113176000D01*
X153897809Y-113145987D01*
X154039942Y-113087113D01*
X154167859Y-113001642D01*
X154276642Y-112892859D01*
X154312295Y-112839500D01*
X157091705Y-112839500D01*
X157127358Y-112892859D01*
X157236141Y-113001642D01*
X157364058Y-113087113D01*
X157506191Y-113145987D01*
X157657078Y-113176000D01*
X157810922Y-113176000D01*
X157961809Y-113145987D01*
X158103942Y-113087113D01*
X158231859Y-113001642D01*
X158340642Y-112892859D01*
X158426113Y-112764942D01*
X158484987Y-112622809D01*
X158515000Y-112471922D01*
X158515000Y-112318078D01*
X158484987Y-112167191D01*
X158426113Y-112025058D01*
X158340642Y-111897141D01*
X158231859Y-111788358D01*
X158103942Y-111702887D01*
X157961809Y-111644013D01*
X157810922Y-111614000D01*
X157657078Y-111614000D01*
X157506191Y-111644013D01*
X157364058Y-111702887D01*
X157236141Y-111788358D01*
X157127358Y-111897141D01*
X157091705Y-111950500D01*
X154312295Y-111950500D01*
X154276642Y-111897141D01*
X154167859Y-111788358D01*
X154039942Y-111702887D01*
X153897809Y-111644013D01*
X153746922Y-111614000D01*
X153593078Y-111614000D01*
X153442191Y-111644013D01*
X153300058Y-111702887D01*
X153172141Y-111788358D01*
X153063358Y-111897141D01*
X152977887Y-112025058D01*
X152919013Y-112167191D01*
X152889000Y-112318078D01*
X145986500Y-112318078D01*
X145986500Y-110720000D01*
X192412125Y-110720000D01*
X192439561Y-110998565D01*
X192520816Y-111266424D01*
X192652765Y-111513285D01*
X192830340Y-111729660D01*
X193046715Y-111907235D01*
X193293576Y-112039184D01*
X193561435Y-112120439D01*
X193770196Y-112141000D01*
X195429804Y-112141000D01*
X195638565Y-112120439D01*
X195906424Y-112039184D01*
X196153285Y-111907235D01*
X196369660Y-111729660D01*
X196547235Y-111513285D01*
X196679184Y-111266424D01*
X196760439Y-110998565D01*
X196787875Y-110720000D01*
X196760439Y-110441435D01*
X196679184Y-110173576D01*
X196547235Y-109926715D01*
X196369660Y-109710340D01*
X196153285Y-109532765D01*
X195906424Y-109400816D01*
X195638565Y-109319561D01*
X195429804Y-109299000D01*
X193770196Y-109299000D01*
X193561435Y-109319561D01*
X193293576Y-109400816D01*
X193046715Y-109532765D01*
X192830340Y-109710340D01*
X192652765Y-109926715D01*
X192520816Y-110173576D01*
X192439561Y-110441435D01*
X192412125Y-110720000D01*
X145986500Y-110720000D01*
X145986500Y-108392117D01*
X147022618Y-107356000D01*
X147059686Y-107356000D01*
X147176764Y-107332712D01*
X147287049Y-107287030D01*
X147386302Y-107220711D01*
X147470711Y-107136302D01*
X147537030Y-107037049D01*
X147582712Y-106926764D01*
X147606000Y-106809686D01*
X147606000Y-106690314D01*
X147585065Y-106585065D01*
X147690314Y-106606000D01*
X147809686Y-106606000D01*
X147926764Y-106582712D01*
X148037049Y-106537030D01*
X148136302Y-106470711D01*
X148220711Y-106386302D01*
X148287030Y-106287049D01*
X148332712Y-106176764D01*
X148356000Y-106059686D01*
X148356000Y-105940314D01*
X148332712Y-105823236D01*
X148287030Y-105712951D01*
X148238286Y-105640000D01*
X192412125Y-105640000D01*
X192439561Y-105918565D01*
X192520816Y-106186424D01*
X192652765Y-106433285D01*
X192830340Y-106649660D01*
X193046715Y-106827235D01*
X193293576Y-106959184D01*
X193561435Y-107040439D01*
X193770196Y-107061000D01*
X195429804Y-107061000D01*
X195638565Y-107040439D01*
X195906424Y-106959184D01*
X196153285Y-106827235D01*
X196369660Y-106649660D01*
X196547235Y-106433285D01*
X196679184Y-106186424D01*
X196760439Y-105918565D01*
X196787875Y-105640000D01*
X196760439Y-105361435D01*
X196679184Y-105093576D01*
X196547235Y-104846715D01*
X196369660Y-104630340D01*
X196153285Y-104452765D01*
X195906424Y-104320816D01*
X195638565Y-104239561D01*
X195429804Y-104219000D01*
X193770196Y-104219000D01*
X193561435Y-104239561D01*
X193293576Y-104320816D01*
X193046715Y-104452765D01*
X192830340Y-104630340D01*
X192652765Y-104846715D01*
X192520816Y-105093576D01*
X192439561Y-105361435D01*
X192412125Y-105640000D01*
X148238286Y-105640000D01*
X148220711Y-105613698D01*
X148185929Y-105578916D01*
X148287049Y-105537030D01*
X148386302Y-105470711D01*
X148470711Y-105386302D01*
X148537030Y-105287049D01*
X148582712Y-105176764D01*
X148606000Y-105059686D01*
X148606000Y-104940314D01*
X148582712Y-104823236D01*
X148537030Y-104712951D01*
X148470711Y-104613698D01*
X148386302Y-104529289D01*
X148287049Y-104462970D01*
X148176764Y-104417288D01*
X148059686Y-104394000D01*
X147963013Y-104394000D01*
X147970711Y-104386302D01*
X148037030Y-104287049D01*
X148082712Y-104176764D01*
X148106000Y-104059686D01*
X148106000Y-104022617D01*
X153434118Y-98694500D01*
X153837487Y-98694500D01*
X153863698Y-98720711D01*
X153962951Y-98787030D01*
X154073236Y-98832712D01*
X154190314Y-98856000D01*
X154309686Y-98856000D01*
X154426764Y-98832712D01*
X154537049Y-98787030D01*
X154636302Y-98720711D01*
X154720711Y-98636302D01*
X154787030Y-98537049D01*
X154832712Y-98426764D01*
X154856000Y-98309686D01*
X154856000Y-98190314D01*
X154832712Y-98073236D01*
X154804862Y-98006000D01*
X192540409Y-98006000D01*
X193682086Y-99147678D01*
X193561435Y-99159561D01*
X193293576Y-99240816D01*
X193046715Y-99372765D01*
X192830340Y-99550340D01*
X192652765Y-99766715D01*
X192520816Y-100013576D01*
X192439561Y-100281435D01*
X192412125Y-100560000D01*
X192439561Y-100838565D01*
X192520816Y-101106424D01*
X192652765Y-101353285D01*
X192830340Y-101569660D01*
X193046715Y-101747235D01*
X193293576Y-101879184D01*
X193561435Y-101960439D01*
X193770196Y-101981000D01*
X195429804Y-101981000D01*
X195638565Y-101960439D01*
X195906424Y-101879184D01*
X196153285Y-101747235D01*
X196369660Y-101569660D01*
X196547235Y-101353285D01*
X196679184Y-101106424D01*
X196760439Y-100838565D01*
X196787875Y-100560000D01*
X196760439Y-100281435D01*
X196679184Y-100013576D01*
X196547235Y-99766715D01*
X196369660Y-99550340D01*
X196153285Y-99372765D01*
X195906424Y-99240816D01*
X195638565Y-99159561D01*
X195429804Y-99139000D01*
X194995096Y-99139000D01*
X194969745Y-99055425D01*
X194956689Y-99031000D01*
X194922759Y-98967521D01*
X194859527Y-98890473D01*
X194840220Y-98874628D01*
X193125376Y-97159785D01*
X193109527Y-97140473D01*
X193032479Y-97077241D01*
X192944575Y-97030255D01*
X192849193Y-97001322D01*
X192774854Y-96994000D01*
X192774846Y-96994000D01*
X192750000Y-96991553D01*
X192725154Y-96994000D01*
X120024845Y-96994000D01*
X119999999Y-96991553D01*
X119975153Y-96994000D01*
X119975146Y-96994000D01*
X119910694Y-97000348D01*
X119900806Y-97001322D01*
X119805425Y-97030255D01*
X119717521Y-97077241D01*
X119640473Y-97140473D01*
X119624628Y-97159780D01*
X119315408Y-97469000D01*
X119173078Y-97469000D01*
X119022191Y-97499013D01*
X118880058Y-97557887D01*
X118752141Y-97643358D01*
X118643358Y-97752141D01*
X118557887Y-97880058D01*
X118499013Y-98022191D01*
X118469000Y-98173078D01*
X107656000Y-98173078D01*
X107656000Y-88567001D01*
X114729000Y-88567001D01*
X114729000Y-89232999D01*
X114858930Y-89886201D01*
X115113797Y-90501504D01*
X115483806Y-91055262D01*
X115954738Y-91526194D01*
X116508496Y-91896203D01*
X117123799Y-92151070D01*
X117777001Y-92281000D01*
X118442999Y-92281000D01*
X119096201Y-92151070D01*
X119711504Y-91896203D01*
X120265262Y-91526194D01*
X120736194Y-91055262D01*
X120973572Y-90700000D01*
X143517157Y-90700000D01*
X143517157Y-92900000D01*
X143524513Y-92974689D01*
X143546299Y-93046508D01*
X143581678Y-93112696D01*
X143629289Y-93170711D01*
X143687304Y-93218322D01*
X143753492Y-93253701D01*
X143825311Y-93275487D01*
X143900000Y-93282843D01*
X144764252Y-93282843D01*
X145674628Y-94193220D01*
X145690473Y-94212527D01*
X145767521Y-94275759D01*
X145855425Y-94322745D01*
X145950806Y-94351678D01*
X145960694Y-94352652D01*
X146025146Y-94359000D01*
X146025153Y-94359000D01*
X146049999Y-94361447D01*
X146074845Y-94359000D01*
X159614154Y-94359000D01*
X159639000Y-94361447D01*
X159663846Y-94359000D01*
X159663854Y-94359000D01*
X159738193Y-94351678D01*
X159833575Y-94322745D01*
X159921479Y-94275759D01*
X159998527Y-94212527D01*
X160014376Y-94193215D01*
X160467277Y-93740314D01*
X161094000Y-93740314D01*
X161094000Y-93859686D01*
X161117288Y-93976764D01*
X161162970Y-94087049D01*
X161229289Y-94186302D01*
X161313698Y-94270711D01*
X161412951Y-94337030D01*
X161523236Y-94382712D01*
X161640314Y-94406000D01*
X161759686Y-94406000D01*
X161876764Y-94382712D01*
X161987049Y-94337030D01*
X162086302Y-94270711D01*
X162170711Y-94186302D01*
X162237030Y-94087049D01*
X162281886Y-93978757D01*
X171609000Y-93978757D01*
X171609000Y-94221243D01*
X171656307Y-94459069D01*
X171749102Y-94683097D01*
X171883820Y-94884717D01*
X172055283Y-95056180D01*
X172256903Y-95190898D01*
X172480931Y-95283693D01*
X172718757Y-95331000D01*
X172961243Y-95331000D01*
X173199069Y-95283693D01*
X173423097Y-95190898D01*
X173624717Y-95056180D01*
X173796180Y-94884717D01*
X173930898Y-94683097D01*
X174023693Y-94459069D01*
X174071000Y-94221243D01*
X174071000Y-93978757D01*
X174149000Y-93978757D01*
X174149000Y-94221243D01*
X174196307Y-94459069D01*
X174289102Y-94683097D01*
X174423820Y-94884717D01*
X174595283Y-95056180D01*
X174796903Y-95190898D01*
X175020931Y-95283693D01*
X175258757Y-95331000D01*
X175501243Y-95331000D01*
X175739069Y-95283693D01*
X175963097Y-95190898D01*
X176164717Y-95056180D01*
X176336180Y-94884717D01*
X176470898Y-94683097D01*
X176563693Y-94459069D01*
X176611000Y-94221243D01*
X176611000Y-93978757D01*
X176689000Y-93978757D01*
X176689000Y-94221243D01*
X176736307Y-94459069D01*
X176829102Y-94683097D01*
X176963820Y-94884717D01*
X177135283Y-95056180D01*
X177336903Y-95190898D01*
X177560931Y-95283693D01*
X177798757Y-95331000D01*
X178041243Y-95331000D01*
X178279069Y-95283693D01*
X178503097Y-95190898D01*
X178704717Y-95056180D01*
X178876180Y-94884717D01*
X179010898Y-94683097D01*
X179103693Y-94459069D01*
X179151000Y-94221243D01*
X179151000Y-93978757D01*
X179229000Y-93978757D01*
X179229000Y-94221243D01*
X179276307Y-94459069D01*
X179369102Y-94683097D01*
X179503820Y-94884717D01*
X179675283Y-95056180D01*
X179876903Y-95190898D01*
X180100931Y-95283693D01*
X180338757Y-95331000D01*
X180581243Y-95331000D01*
X180819069Y-95283693D01*
X181043097Y-95190898D01*
X181244717Y-95056180D01*
X181416180Y-94884717D01*
X181550898Y-94683097D01*
X181643693Y-94459069D01*
X181691000Y-94221243D01*
X181691000Y-93978757D01*
X181643693Y-93740931D01*
X181550898Y-93516903D01*
X181416180Y-93315283D01*
X181350897Y-93250000D01*
X181767157Y-93250000D01*
X181767157Y-94950000D01*
X181774513Y-95024689D01*
X181796299Y-95096508D01*
X181831678Y-95162696D01*
X181879289Y-95220711D01*
X181937304Y-95268322D01*
X182003492Y-95303701D01*
X182075311Y-95325487D01*
X182150000Y-95332843D01*
X183850000Y-95332843D01*
X183924689Y-95325487D01*
X183996508Y-95303701D01*
X184062696Y-95268322D01*
X184120711Y-95220711D01*
X184168322Y-95162696D01*
X184203701Y-95096508D01*
X184225487Y-95024689D01*
X184232843Y-94950000D01*
X184232843Y-93250000D01*
X184225487Y-93175311D01*
X184203701Y-93103492D01*
X184168322Y-93037304D01*
X184120711Y-92979289D01*
X184062696Y-92931678D01*
X183996508Y-92896299D01*
X183924689Y-92874513D01*
X183850000Y-92867157D01*
X182150000Y-92867157D01*
X182075311Y-92874513D01*
X182003492Y-92896299D01*
X181937304Y-92931678D01*
X181879289Y-92979289D01*
X181831678Y-93037304D01*
X181796299Y-93103492D01*
X181774513Y-93175311D01*
X181767157Y-93250000D01*
X181350897Y-93250000D01*
X181244717Y-93143820D01*
X181043097Y-93009102D01*
X180819069Y-92916307D01*
X180581243Y-92869000D01*
X180338757Y-92869000D01*
X180100931Y-92916307D01*
X179876903Y-93009102D01*
X179675283Y-93143820D01*
X179503820Y-93315283D01*
X179369102Y-93516903D01*
X179276307Y-93740931D01*
X179229000Y-93978757D01*
X179151000Y-93978757D01*
X179103693Y-93740931D01*
X179010898Y-93516903D01*
X178876180Y-93315283D01*
X178704717Y-93143820D01*
X178503097Y-93009102D01*
X178279069Y-92916307D01*
X178041243Y-92869000D01*
X177798757Y-92869000D01*
X177560931Y-92916307D01*
X177336903Y-93009102D01*
X177135283Y-93143820D01*
X176963820Y-93315283D01*
X176829102Y-93516903D01*
X176736307Y-93740931D01*
X176689000Y-93978757D01*
X176611000Y-93978757D01*
X176563693Y-93740931D01*
X176470898Y-93516903D01*
X176336180Y-93315283D01*
X176164717Y-93143820D01*
X175963097Y-93009102D01*
X175739069Y-92916307D01*
X175501243Y-92869000D01*
X175258757Y-92869000D01*
X175020931Y-92916307D01*
X174796903Y-93009102D01*
X174595283Y-93143820D01*
X174423820Y-93315283D01*
X174289102Y-93516903D01*
X174196307Y-93740931D01*
X174149000Y-93978757D01*
X174071000Y-93978757D01*
X174023693Y-93740931D01*
X173930898Y-93516903D01*
X173796180Y-93315283D01*
X173624717Y-93143820D01*
X173423097Y-93009102D01*
X173199069Y-92916307D01*
X172961243Y-92869000D01*
X172718757Y-92869000D01*
X172480931Y-92916307D01*
X172256903Y-93009102D01*
X172055283Y-93143820D01*
X171883820Y-93315283D01*
X171749102Y-93516903D01*
X171656307Y-93740931D01*
X171609000Y-93978757D01*
X162281886Y-93978757D01*
X162282712Y-93976764D01*
X162306000Y-93859686D01*
X162306000Y-93822617D01*
X163122618Y-93006000D01*
X163159686Y-93006000D01*
X163276764Y-92982712D01*
X163387049Y-92937030D01*
X163486302Y-92870711D01*
X163570711Y-92786302D01*
X163637030Y-92687049D01*
X163682712Y-92576764D01*
X163706000Y-92459686D01*
X163706000Y-92340314D01*
X163682712Y-92223236D01*
X163637030Y-92112951D01*
X163570711Y-92013698D01*
X163486302Y-91929289D01*
X163387049Y-91862970D01*
X163276764Y-91817288D01*
X163159686Y-91794000D01*
X163040314Y-91794000D01*
X162923236Y-91817288D01*
X162812951Y-91862970D01*
X162713698Y-91929289D01*
X162629289Y-92013698D01*
X162562970Y-92112951D01*
X162517288Y-92223236D01*
X162494000Y-92340314D01*
X162494000Y-92377382D01*
X161677383Y-93194000D01*
X161640314Y-93194000D01*
X161523236Y-93217288D01*
X161412951Y-93262970D01*
X161313698Y-93329289D01*
X161229289Y-93413698D01*
X161162970Y-93512951D01*
X161117288Y-93623236D01*
X161094000Y-93740314D01*
X160467277Y-93740314D01*
X162113592Y-92094000D01*
X162255922Y-92094000D01*
X162406809Y-92063987D01*
X162548942Y-92005113D01*
X162676859Y-91919642D01*
X162785642Y-91810859D01*
X162871113Y-91682942D01*
X162929987Y-91540809D01*
X162960000Y-91389922D01*
X162960000Y-91236078D01*
X162929987Y-91085191D01*
X162871113Y-90943058D01*
X162785642Y-90815141D01*
X162676859Y-90706358D01*
X162548942Y-90620887D01*
X162406809Y-90562013D01*
X162255922Y-90532000D01*
X162102078Y-90532000D01*
X161951191Y-90562013D01*
X161809058Y-90620887D01*
X161681141Y-90706358D01*
X161572358Y-90815141D01*
X161486887Y-90943058D01*
X161428013Y-91085191D01*
X161398000Y-91236078D01*
X161398000Y-91378408D01*
X159429409Y-93347000D01*
X148336429Y-93347000D01*
X148459274Y-93281338D01*
X148567107Y-93006712D01*
X147540000Y-91979605D01*
X147525858Y-91993748D01*
X147346253Y-91814143D01*
X147360395Y-91800000D01*
X147719605Y-91800000D01*
X148746712Y-92827107D01*
X148937674Y-92752125D01*
X149135917Y-92950368D01*
X149378483Y-93112445D01*
X149648008Y-93224086D01*
X149934134Y-93281000D01*
X150225866Y-93281000D01*
X150511992Y-93224086D01*
X150781517Y-93112445D01*
X151024083Y-92950368D01*
X151230368Y-92744083D01*
X151350000Y-92565041D01*
X151469632Y-92744083D01*
X151675917Y-92950368D01*
X151918483Y-93112445D01*
X152188008Y-93224086D01*
X152474134Y-93281000D01*
X152765866Y-93281000D01*
X153051992Y-93224086D01*
X153321517Y-93112445D01*
X153564083Y-92950368D01*
X153770368Y-92744083D01*
X153890000Y-92565041D01*
X154009632Y-92744083D01*
X154215917Y-92950368D01*
X154458483Y-93112445D01*
X154728008Y-93224086D01*
X155014134Y-93281000D01*
X155305866Y-93281000D01*
X155591992Y-93224086D01*
X155861517Y-93112445D01*
X156104083Y-92950368D01*
X156310368Y-92744083D01*
X156430000Y-92565041D01*
X156549632Y-92744083D01*
X156755917Y-92950368D01*
X156998483Y-93112445D01*
X157268008Y-93224086D01*
X157554134Y-93281000D01*
X157845866Y-93281000D01*
X158131992Y-93224086D01*
X158401517Y-93112445D01*
X158644083Y-92950368D01*
X158850368Y-92744083D01*
X159012445Y-92501517D01*
X159124086Y-92231992D01*
X159181000Y-91945866D01*
X159181000Y-91654134D01*
X159124086Y-91368008D01*
X159012445Y-91098483D01*
X158850368Y-90855917D01*
X158644083Y-90649632D01*
X158401517Y-90487555D01*
X158131992Y-90375914D01*
X157845866Y-90319000D01*
X157554134Y-90319000D01*
X157268008Y-90375914D01*
X156998483Y-90487555D01*
X156755917Y-90649632D01*
X156549632Y-90855917D01*
X156430000Y-91034959D01*
X156310368Y-90855917D01*
X156104083Y-90649632D01*
X155861517Y-90487555D01*
X155591992Y-90375914D01*
X155305866Y-90319000D01*
X155014134Y-90319000D01*
X154728008Y-90375914D01*
X154458483Y-90487555D01*
X154215917Y-90649632D01*
X154009632Y-90855917D01*
X153890000Y-91034959D01*
X153770368Y-90855917D01*
X153564083Y-90649632D01*
X153321517Y-90487555D01*
X153051992Y-90375914D01*
X152765866Y-90319000D01*
X152474134Y-90319000D01*
X152188008Y-90375914D01*
X151918483Y-90487555D01*
X151675917Y-90649632D01*
X151469632Y-90855917D01*
X151350000Y-91034959D01*
X151230368Y-90855917D01*
X151024083Y-90649632D01*
X150781517Y-90487555D01*
X150511992Y-90375914D01*
X150225866Y-90319000D01*
X149934134Y-90319000D01*
X149648008Y-90375914D01*
X149378483Y-90487555D01*
X149135917Y-90649632D01*
X148937674Y-90847875D01*
X148746712Y-90772893D01*
X147719605Y-91800000D01*
X147360395Y-91800000D01*
X147346253Y-91785858D01*
X147525858Y-91606253D01*
X147540000Y-91620395D01*
X148567107Y-90593288D01*
X148459274Y-90318662D01*
X148152616Y-90167784D01*
X147822415Y-90079631D01*
X147481361Y-90057591D01*
X147142561Y-90102511D01*
X146819034Y-90212664D01*
X146620726Y-90318662D01*
X146512894Y-90593286D01*
X146431424Y-90511816D01*
X146418322Y-90487304D01*
X146370711Y-90429289D01*
X146312696Y-90381678D01*
X146246508Y-90346299D01*
X146174689Y-90324513D01*
X146100000Y-90317157D01*
X143900000Y-90317157D01*
X143825311Y-90324513D01*
X143753492Y-90346299D01*
X143687304Y-90381678D01*
X143629289Y-90429289D01*
X143581678Y-90487304D01*
X143546299Y-90553492D01*
X143524513Y-90625311D01*
X143517157Y-90700000D01*
X120973572Y-90700000D01*
X121106203Y-90501504D01*
X121361070Y-89886201D01*
X121491000Y-89232999D01*
X121491000Y-88567001D01*
X184579000Y-88567001D01*
X184579000Y-89232999D01*
X184708930Y-89886201D01*
X184963797Y-90501504D01*
X185333806Y-91055262D01*
X185804738Y-91526194D01*
X186358496Y-91896203D01*
X186973799Y-92151070D01*
X187627001Y-92281000D01*
X188292999Y-92281000D01*
X188946201Y-92151070D01*
X189561504Y-91896203D01*
X190115262Y-91526194D01*
X190586194Y-91055262D01*
X190956203Y-90501504D01*
X191211070Y-89886201D01*
X191341000Y-89232999D01*
X191341000Y-88567001D01*
X191211070Y-87913799D01*
X190956203Y-87298496D01*
X190586194Y-86744738D01*
X190115262Y-86273806D01*
X189561504Y-85903797D01*
X188946201Y-85648930D01*
X188292999Y-85519000D01*
X187627001Y-85519000D01*
X186973799Y-85648930D01*
X186358496Y-85903797D01*
X185804738Y-86273806D01*
X185333806Y-86744738D01*
X184963797Y-87298496D01*
X184708930Y-87913799D01*
X184579000Y-88567001D01*
X121491000Y-88567001D01*
X121361070Y-87913799D01*
X121106203Y-87298496D01*
X120736194Y-86744738D01*
X120265262Y-86273806D01*
X119711504Y-85903797D01*
X119096201Y-85648930D01*
X118442999Y-85519000D01*
X117777001Y-85519000D01*
X117123799Y-85648930D01*
X116508496Y-85903797D01*
X115954738Y-86273806D01*
X115483806Y-86744738D01*
X115113797Y-87298496D01*
X114858930Y-87913799D01*
X114729000Y-88567001D01*
X107656000Y-88567001D01*
X107656000Y-84406000D01*
X199674001Y-84406000D01*
X199674000Y-89830059D01*
G37*
X199674000Y-89830059D02*
X199674000Y-89830060D01*
X199674001Y-126890050D01*
X199674000Y-126890060D01*
X199674001Y-132594000D01*
X107656000Y-132594000D01*
X107656000Y-127937001D01*
X114729000Y-127937001D01*
X114729000Y-128602999D01*
X114858930Y-129256201D01*
X115113797Y-129871504D01*
X115483806Y-130425262D01*
X115954738Y-130896194D01*
X116508496Y-131266203D01*
X117123799Y-131521070D01*
X117777001Y-131651000D01*
X118442999Y-131651000D01*
X119096201Y-131521070D01*
X119711504Y-131266203D01*
X120265262Y-130896194D01*
X120736194Y-130425262D01*
X121106203Y-129871504D01*
X121361070Y-129256201D01*
X121491000Y-128602999D01*
X121491000Y-127937001D01*
X184579000Y-127937001D01*
X184579000Y-128602999D01*
X184708930Y-129256201D01*
X184963797Y-129871504D01*
X185333806Y-130425262D01*
X185804738Y-130896194D01*
X186358496Y-131266203D01*
X186973799Y-131521070D01*
X187627001Y-131651000D01*
X188292999Y-131651000D01*
X188946201Y-131521070D01*
X189561504Y-131266203D01*
X190115262Y-130896194D01*
X190586194Y-130425262D01*
X190956203Y-129871504D01*
X191211070Y-129256201D01*
X191341000Y-128602999D01*
X191341000Y-127937001D01*
X191211070Y-127283799D01*
X190956203Y-126668496D01*
X190586194Y-126114738D01*
X190115262Y-125643806D01*
X189561504Y-125273797D01*
X188946201Y-125018930D01*
X188292999Y-124889000D01*
X187627001Y-124889000D01*
X186973799Y-125018930D01*
X186358496Y-125273797D01*
X185804738Y-125643806D01*
X185333806Y-126114738D01*
X184963797Y-126668496D01*
X184708930Y-127283799D01*
X184579000Y-127937001D01*
X121491000Y-127937001D01*
X121361070Y-127283799D01*
X121106203Y-126668496D01*
X120736194Y-126114738D01*
X120265262Y-125643806D01*
X119711504Y-125273797D01*
X119096201Y-125018930D01*
X118442999Y-124889000D01*
X117777001Y-124889000D01*
X117123799Y-125018930D01*
X116508496Y-125273797D01*
X115954738Y-125643806D01*
X115483806Y-126114738D01*
X115113797Y-126668496D01*
X114858930Y-127283799D01*
X114729000Y-127937001D01*
X107656000Y-127937001D01*
X107656000Y-123678757D01*
X171609000Y-123678757D01*
X171609000Y-123921243D01*
X171656307Y-124159069D01*
X171749102Y-124383097D01*
X171883820Y-124584717D01*
X172055283Y-124756180D01*
X172256903Y-124890898D01*
X172480931Y-124983693D01*
X172718757Y-125031000D01*
X172961243Y-125031000D01*
X173199069Y-124983693D01*
X173423097Y-124890898D01*
X173624717Y-124756180D01*
X173796180Y-124584717D01*
X173930898Y-124383097D01*
X173978228Y-124268832D01*
X174035843Y-124431252D01*
X174184822Y-124681355D01*
X174379731Y-124897588D01*
X174613080Y-125071641D01*
X174875901Y-125196825D01*
X175023110Y-125241476D01*
X175253000Y-125120155D01*
X175253000Y-123927000D01*
X175233000Y-123927000D01*
X175233000Y-123673000D01*
X175253000Y-123673000D01*
X175253000Y-122479845D01*
X175507000Y-122479845D01*
X175507000Y-123673000D01*
X175527000Y-123673000D01*
X175527000Y-123927000D01*
X175507000Y-123927000D01*
X175507000Y-125120155D01*
X175736890Y-125241476D01*
X175884099Y-125196825D01*
X176146920Y-125071641D01*
X176380269Y-124897588D01*
X176575178Y-124681355D01*
X176724157Y-124431252D01*
X176781772Y-124268832D01*
X176829102Y-124383097D01*
X176963820Y-124584717D01*
X177135283Y-124756180D01*
X177336903Y-124890898D01*
X177560931Y-124983693D01*
X177798757Y-125031000D01*
X178041243Y-125031000D01*
X178279069Y-124983693D01*
X178503097Y-124890898D01*
X178704717Y-124756180D01*
X178876180Y-124584717D01*
X179010898Y-124383097D01*
X179103693Y-124159069D01*
X179151000Y-123921243D01*
X179151000Y-123678757D01*
X179229000Y-123678757D01*
X179229000Y-123921243D01*
X179276307Y-124159069D01*
X179369102Y-124383097D01*
X179503820Y-124584717D01*
X179675283Y-124756180D01*
X179876903Y-124890898D01*
X180100931Y-124983693D01*
X180338757Y-125031000D01*
X180581243Y-125031000D01*
X180819069Y-124983693D01*
X181043097Y-124890898D01*
X181244717Y-124756180D01*
X181416180Y-124584717D01*
X181550898Y-124383097D01*
X181643693Y-124159069D01*
X181691000Y-123921243D01*
X181691000Y-123678757D01*
X181643693Y-123440931D01*
X181550898Y-123216903D01*
X181416180Y-123015283D01*
X181244717Y-122843820D01*
X181043097Y-122709102D01*
X180819069Y-122616307D01*
X180581243Y-122569000D01*
X180338757Y-122569000D01*
X180100931Y-122616307D01*
X179876903Y-122709102D01*
X179675283Y-122843820D01*
X179503820Y-123015283D01*
X179369102Y-123216903D01*
X179276307Y-123440931D01*
X179229000Y-123678757D01*
X179151000Y-123678757D01*
X179103693Y-123440931D01*
X179010898Y-123216903D01*
X178876180Y-123015283D01*
X178704717Y-122843820D01*
X178503097Y-122709102D01*
X178279069Y-122616307D01*
X178041243Y-122569000D01*
X177798757Y-122569000D01*
X177560931Y-122616307D01*
X177336903Y-122709102D01*
X177135283Y-122843820D01*
X176963820Y-123015283D01*
X176829102Y-123216903D01*
X176781772Y-123331168D01*
X176724157Y-123168748D01*
X176575178Y-122918645D01*
X176380269Y-122702412D01*
X176146920Y-122528359D01*
X175884099Y-122403175D01*
X175736890Y-122358524D01*
X175507000Y-122479845D01*
X175253000Y-122479845D01*
X175023110Y-122358524D01*
X174875901Y-122403175D01*
X174613080Y-122528359D01*
X174379731Y-122702412D01*
X174184822Y-122918645D01*
X174035843Y-123168748D01*
X173978228Y-123331168D01*
X173930898Y-123216903D01*
X173796180Y-123015283D01*
X173624717Y-122843820D01*
X173423097Y-122709102D01*
X173199069Y-122616307D01*
X172961243Y-122569000D01*
X172718757Y-122569000D01*
X172480931Y-122616307D01*
X172256903Y-122709102D01*
X172055283Y-122843820D01*
X171883820Y-123015283D01*
X171749102Y-123216903D01*
X171656307Y-123440931D01*
X171609000Y-123678757D01*
X107656000Y-123678757D01*
X107656000Y-120890000D01*
X110189000Y-120890000D01*
X110189000Y-121540000D01*
X110236546Y-121768742D01*
X110327804Y-121983813D01*
X110459266Y-122176948D01*
X110625881Y-122340725D01*
X110821246Y-122468850D01*
X111037853Y-122556399D01*
X111064256Y-122556803D01*
X111247000Y-122431361D01*
X111247000Y-120890000D01*
X111501000Y-120890000D01*
X111501000Y-122431361D01*
X111683744Y-122556803D01*
X111710147Y-122556399D01*
X111926754Y-122468850D01*
X112122119Y-122340725D01*
X112288734Y-122176948D01*
X112420196Y-121983813D01*
X112491157Y-121816577D01*
X112491157Y-122188000D01*
X112498513Y-122262689D01*
X112520299Y-122334508D01*
X112555678Y-122400696D01*
X112603289Y-122458711D01*
X112661304Y-122506322D01*
X112727492Y-122541701D01*
X112799311Y-122563487D01*
X112874000Y-122570843D01*
X113974000Y-122570843D01*
X114048689Y-122563487D01*
X114120508Y-122541701D01*
X114186696Y-122506322D01*
X114244711Y-122458711D01*
X114292322Y-122400696D01*
X114327701Y-122334508D01*
X114345430Y-122276063D01*
X114430522Y-122361155D01*
X114583006Y-122463042D01*
X114752437Y-122533222D01*
X114932304Y-122569000D01*
X115115696Y-122569000D01*
X115295563Y-122533222D01*
X115464994Y-122463042D01*
X115481550Y-122451979D01*
X115989626Y-122451979D01*
X116030841Y-122670478D01*
X116243665Y-122766359D01*
X116471105Y-122818878D01*
X116704421Y-122826016D01*
X116934646Y-122787500D01*
X117152934Y-122704808D01*
X117217159Y-122670478D01*
X117258374Y-122451979D01*
X116624000Y-121817605D01*
X115989626Y-122451979D01*
X115481550Y-122451979D01*
X115617478Y-122361155D01*
X115722725Y-122255908D01*
X115810021Y-122272374D01*
X116444395Y-121638000D01*
X116803605Y-121638000D01*
X117437979Y-122272374D01*
X117656478Y-122231159D01*
X117712111Y-122107672D01*
X117759266Y-122176948D01*
X117925881Y-122340725D01*
X118121246Y-122468850D01*
X118337853Y-122556399D01*
X118364256Y-122556803D01*
X118547000Y-122431361D01*
X118547000Y-120890000D01*
X118801000Y-120890000D01*
X118801000Y-122431361D01*
X118983744Y-122556803D01*
X119010147Y-122556399D01*
X119226754Y-122468850D01*
X119422119Y-122340725D01*
X119588734Y-122176948D01*
X119720196Y-121983813D01*
X119811454Y-121768742D01*
X119859000Y-121540000D01*
X119859000Y-120890000D01*
X118801000Y-120890000D01*
X118547000Y-120890000D01*
X117489000Y-120890000D01*
X117489000Y-121013250D01*
X117437979Y-121003626D01*
X116803605Y-121638000D01*
X116444395Y-121638000D01*
X116430253Y-121623858D01*
X116609858Y-121444253D01*
X116624000Y-121458395D01*
X117238081Y-120844314D01*
X127283000Y-120844314D01*
X127283000Y-120963686D01*
X127306288Y-121080764D01*
X127351970Y-121191049D01*
X127418289Y-121290302D01*
X127502698Y-121374711D01*
X127601951Y-121441030D01*
X127712236Y-121486712D01*
X127829314Y-121510000D01*
X127948686Y-121510000D01*
X128065764Y-121486712D01*
X128176049Y-121441030D01*
X128275302Y-121374711D01*
X128359711Y-121290302D01*
X128426030Y-121191049D01*
X128471712Y-121080764D01*
X128495000Y-120963686D01*
X128495000Y-120926617D01*
X129234745Y-120186873D01*
X129234749Y-120186868D01*
X129689618Y-119732000D01*
X129726686Y-119732000D01*
X129843764Y-119708712D01*
X129954049Y-119663030D01*
X130053302Y-119596711D01*
X130137711Y-119512302D01*
X130204030Y-119413049D01*
X130249712Y-119302764D01*
X130273000Y-119185686D01*
X130273000Y-119066314D01*
X130249712Y-118949236D01*
X130204030Y-118838951D01*
X130137711Y-118739698D01*
X130053302Y-118655289D01*
X129954049Y-118588970D01*
X129843764Y-118543288D01*
X129726686Y-118520000D01*
X129607314Y-118520000D01*
X129490236Y-118543288D01*
X129379951Y-118588970D01*
X129280698Y-118655289D01*
X129196289Y-118739698D01*
X129129970Y-118838951D01*
X129084288Y-118949236D01*
X129061000Y-119066314D01*
X129061000Y-119103382D01*
X128606132Y-119558251D01*
X128606127Y-119558255D01*
X127866383Y-120298000D01*
X127829314Y-120298000D01*
X127712236Y-120321288D01*
X127601951Y-120366970D01*
X127502698Y-120433289D01*
X127418289Y-120517698D01*
X127351970Y-120616951D01*
X127306288Y-120727236D01*
X127283000Y-120844314D01*
X117238081Y-120844314D01*
X117258374Y-120824021D01*
X117217159Y-120605522D01*
X117004335Y-120509641D01*
X116776895Y-120457122D01*
X116567706Y-120450722D01*
X116649042Y-120328994D01*
X116719222Y-120159563D01*
X116753746Y-119986000D01*
X117489000Y-119986000D01*
X117489000Y-120636000D01*
X118547000Y-120636000D01*
X118547000Y-119094639D01*
X118801000Y-119094639D01*
X118801000Y-120636000D01*
X119859000Y-120636000D01*
X119859000Y-119986000D01*
X119811454Y-119757258D01*
X119720196Y-119542187D01*
X119588734Y-119349052D01*
X119422119Y-119185275D01*
X119226754Y-119057150D01*
X119010147Y-118969601D01*
X118983744Y-118969197D01*
X118801000Y-119094639D01*
X118547000Y-119094639D01*
X118364256Y-118969197D01*
X118337853Y-118969601D01*
X118121246Y-119057150D01*
X117925881Y-119185275D01*
X117759266Y-119349052D01*
X117627804Y-119542187D01*
X117536546Y-119757258D01*
X117489000Y-119986000D01*
X116753746Y-119986000D01*
X116755000Y-119979696D01*
X116755000Y-119796304D01*
X116719222Y-119616437D01*
X116649042Y-119447006D01*
X116547155Y-119294522D01*
X116417478Y-119164845D01*
X116264994Y-119062958D01*
X116095563Y-118992778D01*
X115915696Y-118957000D01*
X115732304Y-118957000D01*
X115552437Y-118992778D01*
X115383006Y-119062958D01*
X115230522Y-119164845D01*
X115100845Y-119294522D01*
X115024000Y-119409528D01*
X114947155Y-119294522D01*
X114817478Y-119164845D01*
X114664994Y-119062958D01*
X114495563Y-118992778D01*
X114315696Y-118957000D01*
X114132304Y-118957000D01*
X113952437Y-118992778D01*
X113783006Y-119062958D01*
X113630522Y-119164845D01*
X113500845Y-119294522D01*
X113398958Y-119447006D01*
X113328778Y-119616437D01*
X113293000Y-119796304D01*
X113293000Y-119979696D01*
X113328778Y-120159563D01*
X113398958Y-120328994D01*
X113500845Y-120481478D01*
X113630522Y-120611155D01*
X113771205Y-120705157D01*
X112874000Y-120705157D01*
X112799311Y-120712513D01*
X112727492Y-120734299D01*
X112661304Y-120769678D01*
X112603289Y-120817289D01*
X112555678Y-120875304D01*
X112547823Y-120890000D01*
X111501000Y-120890000D01*
X111247000Y-120890000D01*
X110189000Y-120890000D01*
X107656000Y-120890000D01*
X107656000Y-119986000D01*
X110189000Y-119986000D01*
X110189000Y-120636000D01*
X111247000Y-120636000D01*
X111247000Y-119094639D01*
X111501000Y-119094639D01*
X111501000Y-120636000D01*
X112559000Y-120636000D01*
X112559000Y-119986000D01*
X112511454Y-119757258D01*
X112420196Y-119542187D01*
X112288734Y-119349052D01*
X112122119Y-119185275D01*
X111926754Y-119057150D01*
X111710147Y-118969601D01*
X111683744Y-118969197D01*
X111501000Y-119094639D01*
X111247000Y-119094639D01*
X111064256Y-118969197D01*
X111037853Y-118969601D01*
X110821246Y-119057150D01*
X110625881Y-119185275D01*
X110459266Y-119349052D01*
X110327804Y-119542187D01*
X110236546Y-119757258D01*
X110189000Y-119986000D01*
X107656000Y-119986000D01*
X107656000Y-102666078D01*
X109074000Y-102666078D01*
X109074000Y-102819922D01*
X109104013Y-102970809D01*
X109162887Y-103112942D01*
X109248358Y-103240859D01*
X109349000Y-103341501D01*
X109349001Y-116688144D01*
X109346553Y-116713000D01*
X109356322Y-116812192D01*
X109385255Y-116907574D01*
X109401555Y-116938068D01*
X109432242Y-116995479D01*
X109495474Y-117072527D01*
X109514780Y-117088371D01*
X110622628Y-118196220D01*
X110638473Y-118215527D01*
X110715521Y-118278759D01*
X110803425Y-118325745D01*
X110898806Y-118354678D01*
X110908694Y-118355652D01*
X110973146Y-118362000D01*
X110973153Y-118362000D01*
X110997999Y-118364447D01*
X111022845Y-118362000D01*
X141141409Y-118362000D01*
X144912628Y-122133220D01*
X144928473Y-122152527D01*
X145005521Y-122215759D01*
X145093320Y-122262689D01*
X145093425Y-122262745D01*
X145188807Y-122291678D01*
X145288000Y-122301448D01*
X145312854Y-122299000D01*
X152121154Y-122299000D01*
X152146000Y-122301447D01*
X152170846Y-122299000D01*
X152170854Y-122299000D01*
X152245193Y-122291678D01*
X152340575Y-122262745D01*
X152428479Y-122215759D01*
X152505527Y-122152527D01*
X152521376Y-122133215D01*
X155644000Y-119010591D01*
X155644000Y-119059686D01*
X155667288Y-119176764D01*
X155712970Y-119287049D01*
X155779289Y-119386302D01*
X155863698Y-119470711D01*
X155962951Y-119537030D01*
X156073236Y-119582712D01*
X156190314Y-119606000D01*
X156309686Y-119606000D01*
X156426764Y-119582712D01*
X156537049Y-119537030D01*
X156636302Y-119470711D01*
X156720711Y-119386302D01*
X156720983Y-119385894D01*
X156748145Y-119371376D01*
X156815829Y-119315829D01*
X156829747Y-119298870D01*
X158522618Y-117606000D01*
X158559686Y-117606000D01*
X158676764Y-117582712D01*
X158787049Y-117537030D01*
X158886302Y-117470711D01*
X158970711Y-117386302D01*
X159037030Y-117287049D01*
X159082712Y-117176764D01*
X159106000Y-117059686D01*
X159106000Y-116940314D01*
X159086047Y-116840000D01*
X192161928Y-116840000D01*
X192174188Y-116964482D01*
X192210498Y-117084180D01*
X192269463Y-117194494D01*
X192348815Y-117291185D01*
X192445506Y-117370537D01*
X192555820Y-117429502D01*
X192675518Y-117465812D01*
X192800000Y-117478072D01*
X194314250Y-117475000D01*
X194473000Y-117316250D01*
X194473000Y-115927000D01*
X194727000Y-115927000D01*
X194727000Y-117316250D01*
X194885750Y-117475000D01*
X196400000Y-117478072D01*
X196524482Y-117465812D01*
X196644180Y-117429502D01*
X196754494Y-117370537D01*
X196851185Y-117291185D01*
X196930537Y-117194494D01*
X196989502Y-117084180D01*
X197025812Y-116964482D01*
X197038072Y-116840000D01*
X197035000Y-116085750D01*
X196876250Y-115927000D01*
X194727000Y-115927000D01*
X194473000Y-115927000D01*
X192323750Y-115927000D01*
X192165000Y-116085750D01*
X192161928Y-116840000D01*
X159086047Y-116840000D01*
X159082712Y-116823236D01*
X159037030Y-116712951D01*
X158970711Y-116613698D01*
X158886302Y-116529289D01*
X158787049Y-116462970D01*
X158676764Y-116417288D01*
X158559686Y-116394000D01*
X158440314Y-116394000D01*
X158323236Y-116417288D01*
X158212951Y-116462970D01*
X158148671Y-116505921D01*
X160864592Y-113790000D01*
X165652409Y-113790000D01*
X167300392Y-115437983D01*
X167311288Y-115492764D01*
X167356970Y-115603049D01*
X167423289Y-115702302D01*
X167507698Y-115786711D01*
X167606951Y-115853030D01*
X167717236Y-115898712D01*
X167834314Y-115922000D01*
X167953686Y-115922000D01*
X168070764Y-115898712D01*
X168181049Y-115853030D01*
X168280302Y-115786711D01*
X168364711Y-115702302D01*
X168431030Y-115603049D01*
X168476712Y-115492764D01*
X168500000Y-115375686D01*
X168500000Y-115256314D01*
X168476712Y-115139236D01*
X168431030Y-115028951D01*
X168364711Y-114929698D01*
X168280302Y-114845289D01*
X168181049Y-114778970D01*
X168135252Y-114760000D01*
X192161928Y-114760000D01*
X192165000Y-115514250D01*
X192323750Y-115673000D01*
X194473000Y-115673000D01*
X194473000Y-114283750D01*
X194727000Y-114283750D01*
X194727000Y-115673000D01*
X196876250Y-115673000D01*
X197035000Y-115514250D01*
X197038072Y-114760000D01*
X197025812Y-114635518D01*
X196989502Y-114515820D01*
X196930537Y-114405506D01*
X196851185Y-114308815D01*
X196754494Y-114229463D01*
X196644180Y-114170498D01*
X196524482Y-114134188D01*
X196400000Y-114121928D01*
X194885750Y-114125000D01*
X194727000Y-114283750D01*
X194473000Y-114283750D01*
X194314250Y-114125000D01*
X192800000Y-114121928D01*
X192675518Y-114134188D01*
X192555820Y-114170498D01*
X192445506Y-114229463D01*
X192348815Y-114308815D01*
X192269463Y-114405506D01*
X192210498Y-114515820D01*
X192174188Y-114635518D01*
X192161928Y-114760000D01*
X168135252Y-114760000D01*
X168070764Y-114733288D01*
X168015983Y-114722392D01*
X166237376Y-112943785D01*
X166221527Y-112924473D01*
X166144479Y-112861241D01*
X166056575Y-112814255D01*
X165961193Y-112785322D01*
X165886854Y-112778000D01*
X165886846Y-112778000D01*
X165862000Y-112775553D01*
X165837154Y-112778000D01*
X160679845Y-112778000D01*
X160654999Y-112775553D01*
X160630153Y-112778000D01*
X160630146Y-112778000D01*
X160565694Y-112784348D01*
X160555806Y-112785322D01*
X160482196Y-112807651D01*
X160460425Y-112814255D01*
X160372521Y-112861241D01*
X160295473Y-112924473D01*
X160279628Y-112943780D01*
X151936409Y-121287000D01*
X145497592Y-121287000D01*
X141726376Y-117515785D01*
X141710527Y-117496473D01*
X141633479Y-117433241D01*
X141545575Y-117386255D01*
X141450193Y-117357322D01*
X141375854Y-117350000D01*
X141375846Y-117350000D01*
X141351000Y-117347553D01*
X141326154Y-117350000D01*
X111207592Y-117350000D01*
X110361000Y-116503409D01*
X110361000Y-109260738D01*
X116250981Y-109260738D01*
X116250981Y-109503224D01*
X116298288Y-109741050D01*
X116391083Y-109965078D01*
X116525801Y-110166698D01*
X116697264Y-110338161D01*
X116898884Y-110472879D01*
X117122912Y-110565674D01*
X117360738Y-110612981D01*
X117603224Y-110612981D01*
X117841050Y-110565674D01*
X118065078Y-110472879D01*
X118266698Y-110338161D01*
X118438161Y-110166698D01*
X118572879Y-109965078D01*
X118665674Y-109741050D01*
X118712981Y-109503224D01*
X118712981Y-109260738D01*
X118665674Y-109022912D01*
X118572879Y-108798884D01*
X118438161Y-108597264D01*
X118266698Y-108425801D01*
X118225561Y-108398314D01*
X121568000Y-108398314D01*
X121568000Y-108517686D01*
X121591288Y-108634764D01*
X121636970Y-108745049D01*
X121703289Y-108844302D01*
X121787698Y-108928711D01*
X121886951Y-108995030D01*
X121997236Y-109040712D01*
X122114314Y-109064000D01*
X122233686Y-109064000D01*
X122350764Y-109040712D01*
X122461049Y-108995030D01*
X122560302Y-108928711D01*
X122586513Y-108902500D01*
X127304168Y-108902500D01*
X127331236Y-108913712D01*
X127448314Y-108937000D01*
X127567686Y-108937000D01*
X127684764Y-108913712D01*
X127795049Y-108868030D01*
X127894302Y-108801711D01*
X127978711Y-108717302D01*
X128045030Y-108618049D01*
X128090712Y-108507764D01*
X128114000Y-108390686D01*
X128114000Y-108271314D01*
X128090712Y-108154236D01*
X128045030Y-108043951D01*
X127978711Y-107944698D01*
X127894302Y-107860289D01*
X127795049Y-107793970D01*
X127684764Y-107748288D01*
X127567686Y-107725000D01*
X127448314Y-107725000D01*
X127331236Y-107748288D01*
X127220951Y-107793970D01*
X127121698Y-107860289D01*
X127037289Y-107944698D01*
X126991317Y-108013500D01*
X122586513Y-108013500D01*
X122560302Y-107987289D01*
X122461049Y-107920970D01*
X122350764Y-107875288D01*
X122233686Y-107852000D01*
X122114314Y-107852000D01*
X121997236Y-107875288D01*
X121886951Y-107920970D01*
X121787698Y-107987289D01*
X121703289Y-108071698D01*
X121636970Y-108170951D01*
X121591288Y-108281236D01*
X121568000Y-108398314D01*
X118225561Y-108398314D01*
X118065078Y-108291083D01*
X117841050Y-108198288D01*
X117603224Y-108150981D01*
X117360738Y-108150981D01*
X117122912Y-108198288D01*
X116898884Y-108291083D01*
X116697264Y-108425801D01*
X116525801Y-108597264D01*
X116391083Y-108798884D01*
X116298288Y-109022912D01*
X116250981Y-109260738D01*
X110361000Y-109260738D01*
X110361000Y-106558019D01*
X112851401Y-106558019D01*
X112949081Y-106833747D01*
X113098676Y-107085121D01*
X113294438Y-107302480D01*
X113528843Y-107477472D01*
X113792883Y-107603371D01*
X113941981Y-107648599D01*
X114173000Y-107527373D01*
X114173000Y-106327000D01*
X114427000Y-106327000D01*
X114427000Y-107527373D01*
X114658019Y-107648599D01*
X114933747Y-107550919D01*
X115185121Y-107401324D01*
X115402480Y-107205562D01*
X115577472Y-106971157D01*
X115703371Y-106707117D01*
X115748599Y-106558019D01*
X115627373Y-106327000D01*
X114427000Y-106327000D01*
X114173000Y-106327000D01*
X112972627Y-106327000D01*
X112851401Y-106558019D01*
X110361000Y-106558019D01*
X110361000Y-105841981D01*
X112851401Y-105841981D01*
X112972627Y-106073000D01*
X114173000Y-106073000D01*
X114173000Y-104872627D01*
X114427000Y-104872627D01*
X114427000Y-106073000D01*
X115627373Y-106073000D01*
X115748599Y-105841981D01*
X115650919Y-105566253D01*
X115501324Y-105314879D01*
X115305562Y-105097520D01*
X115071157Y-104922528D01*
X114807117Y-104796629D01*
X114658019Y-104751401D01*
X114427000Y-104872627D01*
X114173000Y-104872627D01*
X113941981Y-104751401D01*
X113666253Y-104849081D01*
X113414879Y-104998676D01*
X113197520Y-105194438D01*
X113022528Y-105428843D01*
X112896629Y-105692883D01*
X112851401Y-105841981D01*
X110361000Y-105841981D01*
X110361000Y-104664543D01*
X120847175Y-104664543D01*
X120847175Y-104907029D01*
X120894482Y-105144855D01*
X120987277Y-105368883D01*
X121121995Y-105570503D01*
X121293458Y-105741966D01*
X121495078Y-105876684D01*
X121719106Y-105969479D01*
X121956932Y-106016786D01*
X122199418Y-106016786D01*
X122437244Y-105969479D01*
X122661272Y-105876684D01*
X122862892Y-105741966D01*
X123034355Y-105570503D01*
X123169073Y-105368883D01*
X123261868Y-105144855D01*
X123309175Y-104907029D01*
X123309175Y-104664543D01*
X123261868Y-104426717D01*
X123169073Y-104202689D01*
X123034355Y-104001069D01*
X122862892Y-103829606D01*
X122661272Y-103694888D01*
X122437244Y-103602093D01*
X122199418Y-103554786D01*
X121956932Y-103554786D01*
X121719106Y-103602093D01*
X121495078Y-103694888D01*
X121293458Y-103829606D01*
X121121995Y-104001069D01*
X120987277Y-104202689D01*
X120894482Y-104426717D01*
X120847175Y-104664543D01*
X110361000Y-104664543D01*
X110361000Y-103341501D01*
X110461642Y-103240859D01*
X110547113Y-103112942D01*
X110605987Y-102970809D01*
X110636000Y-102819922D01*
X110636000Y-102666078D01*
X110605987Y-102515191D01*
X110547113Y-102373058D01*
X110461642Y-102245141D01*
X110352859Y-102136358D01*
X110224942Y-102050887D01*
X110082809Y-101992013D01*
X109931922Y-101962000D01*
X109778078Y-101962000D01*
X109627191Y-101992013D01*
X109485058Y-102050887D01*
X109357141Y-102136358D01*
X109248358Y-102245141D01*
X109162887Y-102373058D01*
X109104013Y-102515191D01*
X109074000Y-102666078D01*
X107656000Y-102666078D01*
X107656000Y-101961825D01*
X117447595Y-101961825D01*
X117545275Y-102237553D01*
X117694870Y-102488927D01*
X117890632Y-102706286D01*
X118125037Y-102881278D01*
X118389077Y-103007177D01*
X118538175Y-103052405D01*
X118769194Y-102931179D01*
X118769194Y-101730806D01*
X119023194Y-101730806D01*
X119023194Y-102931179D01*
X119254213Y-103052405D01*
X119529941Y-102954725D01*
X119781315Y-102805130D01*
X119998674Y-102609368D01*
X120173666Y-102374963D01*
X120299565Y-102110923D01*
X120344793Y-101961825D01*
X120223567Y-101730806D01*
X119023194Y-101730806D01*
X118769194Y-101730806D01*
X117568821Y-101730806D01*
X117447595Y-101961825D01*
X107656000Y-101961825D01*
X107656000Y-101245787D01*
X117447595Y-101245787D01*
X117568821Y-101476806D01*
X118769194Y-101476806D01*
X118769194Y-100276433D01*
X119023194Y-100276433D01*
X119023194Y-101476806D01*
X120223567Y-101476806D01*
X120344793Y-101245787D01*
X120247113Y-100970059D01*
X120097518Y-100718685D01*
X119901756Y-100501326D01*
X119667351Y-100326334D01*
X119403311Y-100200435D01*
X119254213Y-100155207D01*
X119023194Y-100276433D01*
X118769194Y-100276433D01*
X118538175Y-100155207D01*
X118262447Y-100252887D01*
X118011073Y-100402482D01*
X117793714Y-100598244D01*
X117618722Y-100832649D01*
X117492823Y-101096689D01*
X117447595Y-101245787D01*
X107656000Y-101245787D01*
X107656000Y-98173078D01*
X118469000Y-98173078D01*
X118469000Y-98326922D01*
X118499013Y-98477809D01*
X118557887Y-98619942D01*
X118643358Y-98747859D01*
X118752141Y-98856642D01*
X118880058Y-98942113D01*
X119022191Y-99000987D01*
X119173078Y-99031000D01*
X119326922Y-99031000D01*
X119477809Y-99000987D01*
X119619942Y-98942113D01*
X119747859Y-98856642D01*
X119856642Y-98747859D01*
X119942113Y-98619942D01*
X120000987Y-98477809D01*
X120031000Y-98326922D01*
X120031000Y-98184592D01*
X120209592Y-98006000D01*
X152865382Y-98006000D01*
X147477383Y-103394000D01*
X147440314Y-103394000D01*
X147323236Y-103417288D01*
X147212951Y-103462970D01*
X147113698Y-103529289D01*
X147029289Y-103613698D01*
X146962970Y-103712951D01*
X146917288Y-103823236D01*
X146894000Y-103940314D01*
X146894000Y-104059686D01*
X146917288Y-104176764D01*
X146962970Y-104287049D01*
X147029289Y-104386302D01*
X147113698Y-104470711D01*
X147212951Y-104537030D01*
X147253087Y-104553655D01*
X147249999Y-104553351D01*
X147228179Y-104555500D01*
X147228170Y-104555500D01*
X147162863Y-104561932D01*
X147079074Y-104587349D01*
X147001855Y-104628624D01*
X146934171Y-104684171D01*
X146920253Y-104701130D01*
X143065883Y-108555500D01*
X142021820Y-108555500D01*
X142000000Y-108553351D01*
X141978180Y-108555500D01*
X141978170Y-108555500D01*
X141912863Y-108561932D01*
X141829074Y-108587349D01*
X141751854Y-108628624D01*
X141701127Y-108670255D01*
X141701124Y-108670258D01*
X141684171Y-108684171D01*
X141670258Y-108701124D01*
X136949830Y-113421553D01*
X136932871Y-113435471D01*
X136918955Y-113452428D01*
X136877324Y-113503155D01*
X136850494Y-113553350D01*
X136836049Y-113580375D01*
X136810632Y-113664164D01*
X136804200Y-113729471D01*
X136804200Y-113729480D01*
X136802051Y-113751300D01*
X136804200Y-113773120D01*
X136804201Y-114944186D01*
X136777989Y-114970398D01*
X136711670Y-115069651D01*
X136665988Y-115179936D01*
X136642700Y-115297014D01*
X136642700Y-115416386D01*
X136665988Y-115533464D01*
X136711670Y-115643749D01*
X136777989Y-115743002D01*
X136862398Y-115827411D01*
X136961651Y-115893730D01*
X137071936Y-115939412D01*
X137189014Y-115962700D01*
X137308386Y-115962700D01*
X137425464Y-115939412D01*
X137535749Y-115893730D01*
X137635002Y-115827411D01*
X137719411Y-115743002D01*
X137785730Y-115643749D01*
X137831412Y-115533464D01*
X137854700Y-115416386D01*
X137854700Y-115297014D01*
X137831412Y-115179936D01*
X137785730Y-115069651D01*
X137719411Y-114970398D01*
X137693200Y-114944187D01*
X137693200Y-113935417D01*
X142184118Y-109444500D01*
X142926882Y-109444500D01*
X138701130Y-113670253D01*
X138684171Y-113684171D01*
X138670255Y-113701128D01*
X138628624Y-113751855D01*
X138627614Y-113753745D01*
X138587349Y-113829075D01*
X138561932Y-113912864D01*
X138555500Y-113978171D01*
X138555500Y-113978180D01*
X138553351Y-114000000D01*
X138555500Y-114021820D01*
X138555501Y-116087486D01*
X138529289Y-116113698D01*
X138462970Y-116212951D01*
X138417288Y-116323236D01*
X138394000Y-116440314D01*
X138394000Y-116559686D01*
X138417288Y-116676764D01*
X138462970Y-116787049D01*
X138529289Y-116886302D01*
X138613698Y-116970711D01*
X138712951Y-117037030D01*
X138823236Y-117082712D01*
X138940314Y-117106000D01*
X139059686Y-117106000D01*
X139176764Y-117082712D01*
X139287049Y-117037030D01*
X139386302Y-116970711D01*
X139470711Y-116886302D01*
X139537030Y-116787049D01*
X139582712Y-116676764D01*
X139606000Y-116559686D01*
X139606000Y-116440314D01*
X139582712Y-116323236D01*
X139537030Y-116212951D01*
X139470711Y-116113698D01*
X139444500Y-116087487D01*
X139444500Y-114184117D01*
X145079745Y-108548873D01*
X145079750Y-108548867D01*
X145097500Y-108531117D01*
X145097501Y-113760486D01*
X145071289Y-113786698D01*
X145004970Y-113885951D01*
X144959288Y-113996236D01*
X144936000Y-114113314D01*
X144936000Y-114232686D01*
X144959288Y-114349764D01*
X145004970Y-114460049D01*
X145071289Y-114559302D01*
X145097501Y-114585514D01*
X145097500Y-119068882D01*
X145011382Y-119155000D01*
X144974314Y-119155000D01*
X144857236Y-119178288D01*
X144746951Y-119223970D01*
X144647698Y-119290289D01*
X144563289Y-119374698D01*
X144496970Y-119473951D01*
X144451288Y-119584236D01*
X144428000Y-119701314D01*
X144428000Y-119820686D01*
X144451288Y-119937764D01*
X144496970Y-120048049D01*
X144563289Y-120147302D01*
X144647698Y-120231711D01*
X144746951Y-120298030D01*
X144857236Y-120343712D01*
X144974314Y-120367000D01*
X145093686Y-120367000D01*
X145210764Y-120343712D01*
X145321049Y-120298030D01*
X145420302Y-120231711D01*
X145504711Y-120147302D01*
X145571030Y-120048049D01*
X145616712Y-119937764D01*
X145640000Y-119820686D01*
X145640000Y-119783618D01*
X145840877Y-119582741D01*
X145857829Y-119568829D01*
X145904220Y-119512302D01*
X145913375Y-119501147D01*
X145927164Y-119475349D01*
X145954651Y-119423926D01*
X145980068Y-119340137D01*
X145986500Y-119274830D01*
X145986500Y-119274821D01*
X145988649Y-119253001D01*
X145986500Y-119231181D01*
X145986500Y-114585513D01*
X146012711Y-114559302D01*
X146079030Y-114460049D01*
X146124712Y-114349764D01*
X146148000Y-114232686D01*
X146148000Y-114113314D01*
X153064000Y-114113314D01*
X153064000Y-114232686D01*
X153087288Y-114349764D01*
X153132970Y-114460049D01*
X153199289Y-114559302D01*
X153283698Y-114643711D01*
X153382951Y-114710030D01*
X153493236Y-114755712D01*
X153610314Y-114779000D01*
X153729686Y-114779000D01*
X153846764Y-114755712D01*
X153957049Y-114710030D01*
X154056302Y-114643711D01*
X154082513Y-114617500D01*
X156940487Y-114617500D01*
X156966698Y-114643711D01*
X157065951Y-114710030D01*
X157176236Y-114755712D01*
X157293314Y-114779000D01*
X157412686Y-114779000D01*
X157529764Y-114755712D01*
X157640049Y-114710030D01*
X157739302Y-114643711D01*
X157823711Y-114559302D01*
X157890030Y-114460049D01*
X157935712Y-114349764D01*
X157959000Y-114232686D01*
X157959000Y-114113314D01*
X157935712Y-113996236D01*
X157890030Y-113885951D01*
X157823711Y-113786698D01*
X157739302Y-113702289D01*
X157640049Y-113635970D01*
X157529764Y-113590288D01*
X157412686Y-113567000D01*
X157293314Y-113567000D01*
X157176236Y-113590288D01*
X157065951Y-113635970D01*
X156966698Y-113702289D01*
X156940487Y-113728500D01*
X154082513Y-113728500D01*
X154056302Y-113702289D01*
X153957049Y-113635970D01*
X153846764Y-113590288D01*
X153729686Y-113567000D01*
X153610314Y-113567000D01*
X153493236Y-113590288D01*
X153382951Y-113635970D01*
X153283698Y-113702289D01*
X153199289Y-113786698D01*
X153132970Y-113885951D01*
X153087288Y-113996236D01*
X153064000Y-114113314D01*
X146148000Y-114113314D01*
X146124712Y-113996236D01*
X146079030Y-113885951D01*
X146012711Y-113786698D01*
X145986500Y-113760487D01*
X145986500Y-112318078D01*
X152889000Y-112318078D01*
X152889000Y-112471922D01*
X152919013Y-112622809D01*
X152977887Y-112764942D01*
X153063358Y-112892859D01*
X153172141Y-113001642D01*
X153300058Y-113087113D01*
X153442191Y-113145987D01*
X153593078Y-113176000D01*
X153746922Y-113176000D01*
X153897809Y-113145987D01*
X154039942Y-113087113D01*
X154167859Y-113001642D01*
X154276642Y-112892859D01*
X154312295Y-112839500D01*
X157091705Y-112839500D01*
X157127358Y-112892859D01*
X157236141Y-113001642D01*
X157364058Y-113087113D01*
X157506191Y-113145987D01*
X157657078Y-113176000D01*
X157810922Y-113176000D01*
X157961809Y-113145987D01*
X158103942Y-113087113D01*
X158231859Y-113001642D01*
X158340642Y-112892859D01*
X158426113Y-112764942D01*
X158484987Y-112622809D01*
X158515000Y-112471922D01*
X158515000Y-112318078D01*
X158484987Y-112167191D01*
X158426113Y-112025058D01*
X158340642Y-111897141D01*
X158231859Y-111788358D01*
X158103942Y-111702887D01*
X157961809Y-111644013D01*
X157810922Y-111614000D01*
X157657078Y-111614000D01*
X157506191Y-111644013D01*
X157364058Y-111702887D01*
X157236141Y-111788358D01*
X157127358Y-111897141D01*
X157091705Y-111950500D01*
X154312295Y-111950500D01*
X154276642Y-111897141D01*
X154167859Y-111788358D01*
X154039942Y-111702887D01*
X153897809Y-111644013D01*
X153746922Y-111614000D01*
X153593078Y-111614000D01*
X153442191Y-111644013D01*
X153300058Y-111702887D01*
X153172141Y-111788358D01*
X153063358Y-111897141D01*
X152977887Y-112025058D01*
X152919013Y-112167191D01*
X152889000Y-112318078D01*
X145986500Y-112318078D01*
X145986500Y-110720000D01*
X192412125Y-110720000D01*
X192439561Y-110998565D01*
X192520816Y-111266424D01*
X192652765Y-111513285D01*
X192830340Y-111729660D01*
X193046715Y-111907235D01*
X193293576Y-112039184D01*
X193561435Y-112120439D01*
X193770196Y-112141000D01*
X195429804Y-112141000D01*
X195638565Y-112120439D01*
X195906424Y-112039184D01*
X196153285Y-111907235D01*
X196369660Y-111729660D01*
X196547235Y-111513285D01*
X196679184Y-111266424D01*
X196760439Y-110998565D01*
X196787875Y-110720000D01*
X196760439Y-110441435D01*
X196679184Y-110173576D01*
X196547235Y-109926715D01*
X196369660Y-109710340D01*
X196153285Y-109532765D01*
X195906424Y-109400816D01*
X195638565Y-109319561D01*
X195429804Y-109299000D01*
X193770196Y-109299000D01*
X193561435Y-109319561D01*
X193293576Y-109400816D01*
X193046715Y-109532765D01*
X192830340Y-109710340D01*
X192652765Y-109926715D01*
X192520816Y-110173576D01*
X192439561Y-110441435D01*
X192412125Y-110720000D01*
X145986500Y-110720000D01*
X145986500Y-108392117D01*
X147022618Y-107356000D01*
X147059686Y-107356000D01*
X147176764Y-107332712D01*
X147287049Y-107287030D01*
X147386302Y-107220711D01*
X147470711Y-107136302D01*
X147537030Y-107037049D01*
X147582712Y-106926764D01*
X147606000Y-106809686D01*
X147606000Y-106690314D01*
X147585065Y-106585065D01*
X147690314Y-106606000D01*
X147809686Y-106606000D01*
X147926764Y-106582712D01*
X148037049Y-106537030D01*
X148136302Y-106470711D01*
X148220711Y-106386302D01*
X148287030Y-106287049D01*
X148332712Y-106176764D01*
X148356000Y-106059686D01*
X148356000Y-105940314D01*
X148332712Y-105823236D01*
X148287030Y-105712951D01*
X148238286Y-105640000D01*
X192412125Y-105640000D01*
X192439561Y-105918565D01*
X192520816Y-106186424D01*
X192652765Y-106433285D01*
X192830340Y-106649660D01*
X193046715Y-106827235D01*
X193293576Y-106959184D01*
X193561435Y-107040439D01*
X193770196Y-107061000D01*
X195429804Y-107061000D01*
X195638565Y-107040439D01*
X195906424Y-106959184D01*
X196153285Y-106827235D01*
X196369660Y-106649660D01*
X196547235Y-106433285D01*
X196679184Y-106186424D01*
X196760439Y-105918565D01*
X196787875Y-105640000D01*
X196760439Y-105361435D01*
X196679184Y-105093576D01*
X196547235Y-104846715D01*
X196369660Y-104630340D01*
X196153285Y-104452765D01*
X195906424Y-104320816D01*
X195638565Y-104239561D01*
X195429804Y-104219000D01*
X193770196Y-104219000D01*
X193561435Y-104239561D01*
X193293576Y-104320816D01*
X193046715Y-104452765D01*
X192830340Y-104630340D01*
X192652765Y-104846715D01*
X192520816Y-105093576D01*
X192439561Y-105361435D01*
X192412125Y-105640000D01*
X148238286Y-105640000D01*
X148220711Y-105613698D01*
X148185929Y-105578916D01*
X148287049Y-105537030D01*
X148386302Y-105470711D01*
X148470711Y-105386302D01*
X148537030Y-105287049D01*
X148582712Y-105176764D01*
X148606000Y-105059686D01*
X148606000Y-104940314D01*
X148582712Y-104823236D01*
X148537030Y-104712951D01*
X148470711Y-104613698D01*
X148386302Y-104529289D01*
X148287049Y-104462970D01*
X148176764Y-104417288D01*
X148059686Y-104394000D01*
X147963013Y-104394000D01*
X147970711Y-104386302D01*
X148037030Y-104287049D01*
X148082712Y-104176764D01*
X148106000Y-104059686D01*
X148106000Y-104022617D01*
X153434118Y-98694500D01*
X153837487Y-98694500D01*
X153863698Y-98720711D01*
X153962951Y-98787030D01*
X154073236Y-98832712D01*
X154190314Y-98856000D01*
X154309686Y-98856000D01*
X154426764Y-98832712D01*
X154537049Y-98787030D01*
X154636302Y-98720711D01*
X154720711Y-98636302D01*
X154787030Y-98537049D01*
X154832712Y-98426764D01*
X154856000Y-98309686D01*
X154856000Y-98190314D01*
X154832712Y-98073236D01*
X154804862Y-98006000D01*
X192540409Y-98006000D01*
X193682086Y-99147678D01*
X193561435Y-99159561D01*
X193293576Y-99240816D01*
X193046715Y-99372765D01*
X192830340Y-99550340D01*
X192652765Y-99766715D01*
X192520816Y-100013576D01*
X192439561Y-100281435D01*
X192412125Y-100560000D01*
X192439561Y-100838565D01*
X192520816Y-101106424D01*
X192652765Y-101353285D01*
X192830340Y-101569660D01*
X193046715Y-101747235D01*
X193293576Y-101879184D01*
X193561435Y-101960439D01*
X193770196Y-101981000D01*
X195429804Y-101981000D01*
X195638565Y-101960439D01*
X195906424Y-101879184D01*
X196153285Y-101747235D01*
X196369660Y-101569660D01*
X196547235Y-101353285D01*
X196679184Y-101106424D01*
X196760439Y-100838565D01*
X196787875Y-100560000D01*
X196760439Y-100281435D01*
X196679184Y-100013576D01*
X196547235Y-99766715D01*
X196369660Y-99550340D01*
X196153285Y-99372765D01*
X195906424Y-99240816D01*
X195638565Y-99159561D01*
X195429804Y-99139000D01*
X194995096Y-99139000D01*
X194969745Y-99055425D01*
X194956689Y-99031000D01*
X194922759Y-98967521D01*
X194859527Y-98890473D01*
X194840220Y-98874628D01*
X193125376Y-97159785D01*
X193109527Y-97140473D01*
X193032479Y-97077241D01*
X192944575Y-97030255D01*
X192849193Y-97001322D01*
X192774854Y-96994000D01*
X192774846Y-96994000D01*
X192750000Y-96991553D01*
X192725154Y-96994000D01*
X120024845Y-96994000D01*
X119999999Y-96991553D01*
X119975153Y-96994000D01*
X119975146Y-96994000D01*
X119910694Y-97000348D01*
X119900806Y-97001322D01*
X119805425Y-97030255D01*
X119717521Y-97077241D01*
X119640473Y-97140473D01*
X119624628Y-97159780D01*
X119315408Y-97469000D01*
X119173078Y-97469000D01*
X119022191Y-97499013D01*
X118880058Y-97557887D01*
X118752141Y-97643358D01*
X118643358Y-97752141D01*
X118557887Y-97880058D01*
X118499013Y-98022191D01*
X118469000Y-98173078D01*
X107656000Y-98173078D01*
X107656000Y-88567001D01*
X114729000Y-88567001D01*
X114729000Y-89232999D01*
X114858930Y-89886201D01*
X115113797Y-90501504D01*
X115483806Y-91055262D01*
X115954738Y-91526194D01*
X116508496Y-91896203D01*
X117123799Y-92151070D01*
X117777001Y-92281000D01*
X118442999Y-92281000D01*
X119096201Y-92151070D01*
X119711504Y-91896203D01*
X120265262Y-91526194D01*
X120736194Y-91055262D01*
X120973572Y-90700000D01*
X143517157Y-90700000D01*
X143517157Y-92900000D01*
X143524513Y-92974689D01*
X143546299Y-93046508D01*
X143581678Y-93112696D01*
X143629289Y-93170711D01*
X143687304Y-93218322D01*
X143753492Y-93253701D01*
X143825311Y-93275487D01*
X143900000Y-93282843D01*
X144764252Y-93282843D01*
X145674628Y-94193220D01*
X145690473Y-94212527D01*
X145767521Y-94275759D01*
X145855425Y-94322745D01*
X145950806Y-94351678D01*
X145960694Y-94352652D01*
X146025146Y-94359000D01*
X146025153Y-94359000D01*
X146049999Y-94361447D01*
X146074845Y-94359000D01*
X159614154Y-94359000D01*
X159639000Y-94361447D01*
X159663846Y-94359000D01*
X159663854Y-94359000D01*
X159738193Y-94351678D01*
X159833575Y-94322745D01*
X159921479Y-94275759D01*
X159998527Y-94212527D01*
X160014376Y-94193215D01*
X160467277Y-93740314D01*
X161094000Y-93740314D01*
X161094000Y-93859686D01*
X161117288Y-93976764D01*
X161162970Y-94087049D01*
X161229289Y-94186302D01*
X161313698Y-94270711D01*
X161412951Y-94337030D01*
X161523236Y-94382712D01*
X161640314Y-94406000D01*
X161759686Y-94406000D01*
X161876764Y-94382712D01*
X161987049Y-94337030D01*
X162086302Y-94270711D01*
X162170711Y-94186302D01*
X162237030Y-94087049D01*
X162281886Y-93978757D01*
X171609000Y-93978757D01*
X171609000Y-94221243D01*
X171656307Y-94459069D01*
X171749102Y-94683097D01*
X171883820Y-94884717D01*
X172055283Y-95056180D01*
X172256903Y-95190898D01*
X172480931Y-95283693D01*
X172718757Y-95331000D01*
X172961243Y-95331000D01*
X173199069Y-95283693D01*
X173423097Y-95190898D01*
X173624717Y-95056180D01*
X173796180Y-94884717D01*
X173930898Y-94683097D01*
X174023693Y-94459069D01*
X174071000Y-94221243D01*
X174071000Y-93978757D01*
X174149000Y-93978757D01*
X174149000Y-94221243D01*
X174196307Y-94459069D01*
X174289102Y-94683097D01*
X174423820Y-94884717D01*
X174595283Y-95056180D01*
X174796903Y-95190898D01*
X175020931Y-95283693D01*
X175258757Y-95331000D01*
X175501243Y-95331000D01*
X175739069Y-95283693D01*
X175963097Y-95190898D01*
X176164717Y-95056180D01*
X176336180Y-94884717D01*
X176470898Y-94683097D01*
X176563693Y-94459069D01*
X176611000Y-94221243D01*
X176611000Y-93978757D01*
X176689000Y-93978757D01*
X176689000Y-94221243D01*
X176736307Y-94459069D01*
X176829102Y-94683097D01*
X176963820Y-94884717D01*
X177135283Y-95056180D01*
X177336903Y-95190898D01*
X177560931Y-95283693D01*
X177798757Y-95331000D01*
X178041243Y-95331000D01*
X178279069Y-95283693D01*
X178503097Y-95190898D01*
X178704717Y-95056180D01*
X178876180Y-94884717D01*
X179010898Y-94683097D01*
X179103693Y-94459069D01*
X179151000Y-94221243D01*
X179151000Y-93978757D01*
X179229000Y-93978757D01*
X179229000Y-94221243D01*
X179276307Y-94459069D01*
X179369102Y-94683097D01*
X179503820Y-94884717D01*
X179675283Y-95056180D01*
X179876903Y-95190898D01*
X180100931Y-95283693D01*
X180338757Y-95331000D01*
X180581243Y-95331000D01*
X180819069Y-95283693D01*
X181043097Y-95190898D01*
X181244717Y-95056180D01*
X181416180Y-94884717D01*
X181550898Y-94683097D01*
X181643693Y-94459069D01*
X181691000Y-94221243D01*
X181691000Y-93978757D01*
X181643693Y-93740931D01*
X181550898Y-93516903D01*
X181416180Y-93315283D01*
X181350897Y-93250000D01*
X181767157Y-93250000D01*
X181767157Y-94950000D01*
X181774513Y-95024689D01*
X181796299Y-95096508D01*
X181831678Y-95162696D01*
X181879289Y-95220711D01*
X181937304Y-95268322D01*
X182003492Y-95303701D01*
X182075311Y-95325487D01*
X182150000Y-95332843D01*
X183850000Y-95332843D01*
X183924689Y-95325487D01*
X183996508Y-95303701D01*
X184062696Y-95268322D01*
X184120711Y-95220711D01*
X184168322Y-95162696D01*
X184203701Y-95096508D01*
X184225487Y-95024689D01*
X184232843Y-94950000D01*
X184232843Y-93250000D01*
X184225487Y-93175311D01*
X184203701Y-93103492D01*
X184168322Y-93037304D01*
X184120711Y-92979289D01*
X184062696Y-92931678D01*
X183996508Y-92896299D01*
X183924689Y-92874513D01*
X183850000Y-92867157D01*
X182150000Y-92867157D01*
X182075311Y-92874513D01*
X182003492Y-92896299D01*
X181937304Y-92931678D01*
X181879289Y-92979289D01*
X181831678Y-93037304D01*
X181796299Y-93103492D01*
X181774513Y-93175311D01*
X181767157Y-93250000D01*
X181350897Y-93250000D01*
X181244717Y-93143820D01*
X181043097Y-93009102D01*
X180819069Y-92916307D01*
X180581243Y-92869000D01*
X180338757Y-92869000D01*
X180100931Y-92916307D01*
X179876903Y-93009102D01*
X179675283Y-93143820D01*
X179503820Y-93315283D01*
X179369102Y-93516903D01*
X179276307Y-93740931D01*
X179229000Y-93978757D01*
X179151000Y-93978757D01*
X179103693Y-93740931D01*
X179010898Y-93516903D01*
X178876180Y-93315283D01*
X178704717Y-93143820D01*
X178503097Y-93009102D01*
X178279069Y-92916307D01*
X178041243Y-92869000D01*
X177798757Y-92869000D01*
X177560931Y-92916307D01*
X177336903Y-93009102D01*
X177135283Y-93143820D01*
X176963820Y-93315283D01*
X176829102Y-93516903D01*
X176736307Y-93740931D01*
X176689000Y-93978757D01*
X176611000Y-93978757D01*
X176563693Y-93740931D01*
X176470898Y-93516903D01*
X176336180Y-93315283D01*
X176164717Y-93143820D01*
X175963097Y-93009102D01*
X175739069Y-92916307D01*
X175501243Y-92869000D01*
X175258757Y-92869000D01*
X175020931Y-92916307D01*
X174796903Y-93009102D01*
X174595283Y-93143820D01*
X174423820Y-93315283D01*
X174289102Y-93516903D01*
X174196307Y-93740931D01*
X174149000Y-93978757D01*
X174071000Y-93978757D01*
X174023693Y-93740931D01*
X173930898Y-93516903D01*
X173796180Y-93315283D01*
X173624717Y-93143820D01*
X173423097Y-93009102D01*
X173199069Y-92916307D01*
X172961243Y-92869000D01*
X172718757Y-92869000D01*
X172480931Y-92916307D01*
X172256903Y-93009102D01*
X172055283Y-93143820D01*
X171883820Y-93315283D01*
X171749102Y-93516903D01*
X171656307Y-93740931D01*
X171609000Y-93978757D01*
X162281886Y-93978757D01*
X162282712Y-93976764D01*
X162306000Y-93859686D01*
X162306000Y-93822617D01*
X163122618Y-93006000D01*
X163159686Y-93006000D01*
X163276764Y-92982712D01*
X163387049Y-92937030D01*
X163486302Y-92870711D01*
X163570711Y-92786302D01*
X163637030Y-92687049D01*
X163682712Y-92576764D01*
X163706000Y-92459686D01*
X163706000Y-92340314D01*
X163682712Y-92223236D01*
X163637030Y-92112951D01*
X163570711Y-92013698D01*
X163486302Y-91929289D01*
X163387049Y-91862970D01*
X163276764Y-91817288D01*
X163159686Y-91794000D01*
X163040314Y-91794000D01*
X162923236Y-91817288D01*
X162812951Y-91862970D01*
X162713698Y-91929289D01*
X162629289Y-92013698D01*
X162562970Y-92112951D01*
X162517288Y-92223236D01*
X162494000Y-92340314D01*
X162494000Y-92377382D01*
X161677383Y-93194000D01*
X161640314Y-93194000D01*
X161523236Y-93217288D01*
X161412951Y-93262970D01*
X161313698Y-93329289D01*
X161229289Y-93413698D01*
X161162970Y-93512951D01*
X161117288Y-93623236D01*
X161094000Y-93740314D01*
X160467277Y-93740314D01*
X162113592Y-92094000D01*
X162255922Y-92094000D01*
X162406809Y-92063987D01*
X162548942Y-92005113D01*
X162676859Y-91919642D01*
X162785642Y-91810859D01*
X162871113Y-91682942D01*
X162929987Y-91540809D01*
X162960000Y-91389922D01*
X162960000Y-91236078D01*
X162929987Y-91085191D01*
X162871113Y-90943058D01*
X162785642Y-90815141D01*
X162676859Y-90706358D01*
X162548942Y-90620887D01*
X162406809Y-90562013D01*
X162255922Y-90532000D01*
X162102078Y-90532000D01*
X161951191Y-90562013D01*
X161809058Y-90620887D01*
X161681141Y-90706358D01*
X161572358Y-90815141D01*
X161486887Y-90943058D01*
X161428013Y-91085191D01*
X161398000Y-91236078D01*
X161398000Y-91378408D01*
X159429409Y-93347000D01*
X148336429Y-93347000D01*
X148459274Y-93281338D01*
X148567107Y-93006712D01*
X147540000Y-91979605D01*
X147525858Y-91993748D01*
X147346253Y-91814143D01*
X147360395Y-91800000D01*
X147719605Y-91800000D01*
X148746712Y-92827107D01*
X148937674Y-92752125D01*
X149135917Y-92950368D01*
X149378483Y-93112445D01*
X149648008Y-93224086D01*
X149934134Y-93281000D01*
X150225866Y-93281000D01*
X150511992Y-93224086D01*
X150781517Y-93112445D01*
X151024083Y-92950368D01*
X151230368Y-92744083D01*
X151350000Y-92565041D01*
X151469632Y-92744083D01*
X151675917Y-92950368D01*
X151918483Y-93112445D01*
X152188008Y-93224086D01*
X152474134Y-93281000D01*
X152765866Y-93281000D01*
X153051992Y-93224086D01*
X153321517Y-93112445D01*
X153564083Y-92950368D01*
X153770368Y-92744083D01*
X153890000Y-92565041D01*
X154009632Y-92744083D01*
X154215917Y-92950368D01*
X154458483Y-93112445D01*
X154728008Y-93224086D01*
X155014134Y-93281000D01*
X155305866Y-93281000D01*
X155591992Y-93224086D01*
X155861517Y-93112445D01*
X156104083Y-92950368D01*
X156310368Y-92744083D01*
X156430000Y-92565041D01*
X156549632Y-92744083D01*
X156755917Y-92950368D01*
X156998483Y-93112445D01*
X157268008Y-93224086D01*
X157554134Y-93281000D01*
X157845866Y-93281000D01*
X158131992Y-93224086D01*
X158401517Y-93112445D01*
X158644083Y-92950368D01*
X158850368Y-92744083D01*
X159012445Y-92501517D01*
X159124086Y-92231992D01*
X159181000Y-91945866D01*
X159181000Y-91654134D01*
X159124086Y-91368008D01*
X159012445Y-91098483D01*
X158850368Y-90855917D01*
X158644083Y-90649632D01*
X158401517Y-90487555D01*
X158131992Y-90375914D01*
X157845866Y-90319000D01*
X157554134Y-90319000D01*
X157268008Y-90375914D01*
X156998483Y-90487555D01*
X156755917Y-90649632D01*
X156549632Y-90855917D01*
X156430000Y-91034959D01*
X156310368Y-90855917D01*
X156104083Y-90649632D01*
X155861517Y-90487555D01*
X155591992Y-90375914D01*
X155305866Y-90319000D01*
X155014134Y-90319000D01*
X154728008Y-90375914D01*
X154458483Y-90487555D01*
X154215917Y-90649632D01*
X154009632Y-90855917D01*
X153890000Y-91034959D01*
X153770368Y-90855917D01*
X153564083Y-90649632D01*
X153321517Y-90487555D01*
X153051992Y-90375914D01*
X152765866Y-90319000D01*
X152474134Y-90319000D01*
X152188008Y-90375914D01*
X151918483Y-90487555D01*
X151675917Y-90649632D01*
X151469632Y-90855917D01*
X151350000Y-91034959D01*
X151230368Y-90855917D01*
X151024083Y-90649632D01*
X150781517Y-90487555D01*
X150511992Y-90375914D01*
X150225866Y-90319000D01*
X149934134Y-90319000D01*
X149648008Y-90375914D01*
X149378483Y-90487555D01*
X149135917Y-90649632D01*
X148937674Y-90847875D01*
X148746712Y-90772893D01*
X147719605Y-91800000D01*
X147360395Y-91800000D01*
X147346253Y-91785858D01*
X147525858Y-91606253D01*
X147540000Y-91620395D01*
X148567107Y-90593288D01*
X148459274Y-90318662D01*
X148152616Y-90167784D01*
X147822415Y-90079631D01*
X147481361Y-90057591D01*
X147142561Y-90102511D01*
X146819034Y-90212664D01*
X146620726Y-90318662D01*
X146512894Y-90593286D01*
X146431424Y-90511816D01*
X146418322Y-90487304D01*
X146370711Y-90429289D01*
X146312696Y-90381678D01*
X146246508Y-90346299D01*
X146174689Y-90324513D01*
X146100000Y-90317157D01*
X143900000Y-90317157D01*
X143825311Y-90324513D01*
X143753492Y-90346299D01*
X143687304Y-90381678D01*
X143629289Y-90429289D01*
X143581678Y-90487304D01*
X143546299Y-90553492D01*
X143524513Y-90625311D01*
X143517157Y-90700000D01*
X120973572Y-90700000D01*
X121106203Y-90501504D01*
X121361070Y-89886201D01*
X121491000Y-89232999D01*
X121491000Y-88567001D01*
X184579000Y-88567001D01*
X184579000Y-89232999D01*
X184708930Y-89886201D01*
X184963797Y-90501504D01*
X185333806Y-91055262D01*
X185804738Y-91526194D01*
X186358496Y-91896203D01*
X186973799Y-92151070D01*
X187627001Y-92281000D01*
X188292999Y-92281000D01*
X188946201Y-92151070D01*
X189561504Y-91896203D01*
X190115262Y-91526194D01*
X190586194Y-91055262D01*
X190956203Y-90501504D01*
X191211070Y-89886201D01*
X191341000Y-89232999D01*
X191341000Y-88567001D01*
X191211070Y-87913799D01*
X190956203Y-87298496D01*
X190586194Y-86744738D01*
X190115262Y-86273806D01*
X189561504Y-85903797D01*
X188946201Y-85648930D01*
X188292999Y-85519000D01*
X187627001Y-85519000D01*
X186973799Y-85648930D01*
X186358496Y-85903797D01*
X185804738Y-86273806D01*
X185333806Y-86744738D01*
X184963797Y-87298496D01*
X184708930Y-87913799D01*
X184579000Y-88567001D01*
X121491000Y-88567001D01*
X121361070Y-87913799D01*
X121106203Y-87298496D01*
X120736194Y-86744738D01*
X120265262Y-86273806D01*
X119711504Y-85903797D01*
X119096201Y-85648930D01*
X118442999Y-85519000D01*
X117777001Y-85519000D01*
X117123799Y-85648930D01*
X116508496Y-85903797D01*
X115954738Y-86273806D01*
X115483806Y-86744738D01*
X115113797Y-87298496D01*
X114858930Y-87913799D01*
X114729000Y-88567001D01*
X107656000Y-88567001D01*
X107656000Y-84406000D01*
X199674001Y-84406000D01*
X199674000Y-89830059D01*
M02*
