G04 #@! TF.GenerationSoftware,KiCad,Pcbnew,(5.1.5)-3*
G04 #@! TF.CreationDate,2020-09-22T11:09:55+01:00*
G04 #@! TF.ProjectId,sensor_node_PCB,73656e73-6f72-45f6-9e6f-64655f504342,rev?*
G04 #@! TF.SameCoordinates,Original*
G04 #@! TF.FileFunction,Soldermask,Top*
G04 #@! TF.FilePolarity,Negative*
%FSLAX46Y46*%
G04 Gerber Fmt 4.6, Leading zero omitted, Abs format (unit mm)*
G04 Created by KiCad (PCBNEW (5.1.5)-3) date 2020-09-22 11:09:55*
%MOMM*%
%LPD*%
G04 APERTURE LIST*
%ADD10C,0.100000*%
G04 APERTURE END LIST*
D10*
G36*
X188849943Y-125336248D02*
G01*
X189405189Y-125566238D01*
X189405190Y-125566239D01*
X189904899Y-125900134D01*
X190329866Y-126325101D01*
X190329867Y-126325103D01*
X190663762Y-126824811D01*
X190893752Y-127380057D01*
X191011000Y-127969501D01*
X191011000Y-128570499D01*
X190893752Y-129159943D01*
X190663762Y-129715189D01*
X190663761Y-129715190D01*
X190329866Y-130214899D01*
X189904899Y-130639866D01*
X189653347Y-130807948D01*
X189405189Y-130973762D01*
X188849943Y-131203752D01*
X188260499Y-131321000D01*
X187659501Y-131321000D01*
X187070057Y-131203752D01*
X186514811Y-130973762D01*
X186266653Y-130807948D01*
X186015101Y-130639866D01*
X185590134Y-130214899D01*
X185256239Y-129715190D01*
X185256238Y-129715189D01*
X185026248Y-129159943D01*
X184909000Y-128570499D01*
X184909000Y-127969501D01*
X185026248Y-127380057D01*
X185256238Y-126824811D01*
X185590133Y-126325103D01*
X185590134Y-126325101D01*
X186015101Y-125900134D01*
X186514810Y-125566239D01*
X186514811Y-125566238D01*
X187070057Y-125336248D01*
X187659501Y-125219000D01*
X188260499Y-125219000D01*
X188849943Y-125336248D01*
G37*
G36*
X118999943Y-125336248D02*
G01*
X119555189Y-125566238D01*
X119555190Y-125566239D01*
X120054899Y-125900134D01*
X120479866Y-126325101D01*
X120479867Y-126325103D01*
X120813762Y-126824811D01*
X121043752Y-127380057D01*
X121161000Y-127969501D01*
X121161000Y-128570499D01*
X121043752Y-129159943D01*
X120813762Y-129715189D01*
X120813761Y-129715190D01*
X120479866Y-130214899D01*
X120054899Y-130639866D01*
X119803347Y-130807948D01*
X119555189Y-130973762D01*
X118999943Y-131203752D01*
X118410499Y-131321000D01*
X117809501Y-131321000D01*
X117220057Y-131203752D01*
X116664811Y-130973762D01*
X116416653Y-130807948D01*
X116165101Y-130639866D01*
X115740134Y-130214899D01*
X115406239Y-129715190D01*
X115406238Y-129715189D01*
X115176248Y-129159943D01*
X115059000Y-128570499D01*
X115059000Y-127969501D01*
X115176248Y-127380057D01*
X115406238Y-126824811D01*
X115740133Y-126325103D01*
X115740134Y-126325101D01*
X116165101Y-125900134D01*
X116664810Y-125566239D01*
X116664811Y-125566238D01*
X117220057Y-125336248D01*
X117809501Y-125219000D01*
X118410499Y-125219000D01*
X118999943Y-125336248D01*
G37*
G36*
X172953512Y-122903927D02*
G01*
X173102812Y-122933624D01*
X173266784Y-123001544D01*
X173414354Y-123100147D01*
X173539853Y-123225646D01*
X173638456Y-123373216D01*
X173706376Y-123537188D01*
X173741000Y-123711259D01*
X173741000Y-123888741D01*
X173706376Y-124062812D01*
X173638456Y-124226784D01*
X173539853Y-124374354D01*
X173414354Y-124499853D01*
X173266784Y-124598456D01*
X173102812Y-124666376D01*
X172953512Y-124696073D01*
X172928742Y-124701000D01*
X172751258Y-124701000D01*
X172726488Y-124696073D01*
X172577188Y-124666376D01*
X172413216Y-124598456D01*
X172265646Y-124499853D01*
X172140147Y-124374354D01*
X172041544Y-124226784D01*
X171973624Y-124062812D01*
X171939000Y-123888741D01*
X171939000Y-123711259D01*
X171973624Y-123537188D01*
X172041544Y-123373216D01*
X172140147Y-123225646D01*
X172265646Y-123100147D01*
X172413216Y-123001544D01*
X172577188Y-122933624D01*
X172726488Y-122903927D01*
X172751258Y-122899000D01*
X172928742Y-122899000D01*
X172953512Y-122903927D01*
G37*
G36*
X175493512Y-122903927D02*
G01*
X175642812Y-122933624D01*
X175806784Y-123001544D01*
X175954354Y-123100147D01*
X176079853Y-123225646D01*
X176178456Y-123373216D01*
X176246376Y-123537188D01*
X176281000Y-123711259D01*
X176281000Y-123888741D01*
X176246376Y-124062812D01*
X176178456Y-124226784D01*
X176079853Y-124374354D01*
X175954354Y-124499853D01*
X175806784Y-124598456D01*
X175642812Y-124666376D01*
X175493512Y-124696073D01*
X175468742Y-124701000D01*
X175291258Y-124701000D01*
X175266488Y-124696073D01*
X175117188Y-124666376D01*
X174953216Y-124598456D01*
X174805646Y-124499853D01*
X174680147Y-124374354D01*
X174581544Y-124226784D01*
X174513624Y-124062812D01*
X174479000Y-123888741D01*
X174479000Y-123711259D01*
X174513624Y-123537188D01*
X174581544Y-123373216D01*
X174680147Y-123225646D01*
X174805646Y-123100147D01*
X174953216Y-123001544D01*
X175117188Y-122933624D01*
X175266488Y-122903927D01*
X175291258Y-122899000D01*
X175468742Y-122899000D01*
X175493512Y-122903927D01*
G37*
G36*
X180573512Y-122903927D02*
G01*
X180722812Y-122933624D01*
X180886784Y-123001544D01*
X181034354Y-123100147D01*
X181159853Y-123225646D01*
X181258456Y-123373216D01*
X181326376Y-123537188D01*
X181361000Y-123711259D01*
X181361000Y-123888741D01*
X181326376Y-124062812D01*
X181258456Y-124226784D01*
X181159853Y-124374354D01*
X181034354Y-124499853D01*
X180886784Y-124598456D01*
X180722812Y-124666376D01*
X180573512Y-124696073D01*
X180548742Y-124701000D01*
X180371258Y-124701000D01*
X180346488Y-124696073D01*
X180197188Y-124666376D01*
X180033216Y-124598456D01*
X179885646Y-124499853D01*
X179760147Y-124374354D01*
X179661544Y-124226784D01*
X179593624Y-124062812D01*
X179559000Y-123888741D01*
X179559000Y-123711259D01*
X179593624Y-123537188D01*
X179661544Y-123373216D01*
X179760147Y-123225646D01*
X179885646Y-123100147D01*
X180033216Y-123001544D01*
X180197188Y-122933624D01*
X180346488Y-122903927D01*
X180371258Y-122899000D01*
X180548742Y-122899000D01*
X180573512Y-122903927D01*
G37*
G36*
X178033512Y-122903927D02*
G01*
X178182812Y-122933624D01*
X178346784Y-123001544D01*
X178494354Y-123100147D01*
X178619853Y-123225646D01*
X178718456Y-123373216D01*
X178786376Y-123537188D01*
X178821000Y-123711259D01*
X178821000Y-123888741D01*
X178786376Y-124062812D01*
X178718456Y-124226784D01*
X178619853Y-124374354D01*
X178494354Y-124499853D01*
X178346784Y-124598456D01*
X178182812Y-124666376D01*
X178033512Y-124696073D01*
X178008742Y-124701000D01*
X177831258Y-124701000D01*
X177806488Y-124696073D01*
X177657188Y-124666376D01*
X177493216Y-124598456D01*
X177345646Y-124499853D01*
X177220147Y-124374354D01*
X177121544Y-124226784D01*
X177053624Y-124062812D01*
X177019000Y-123888741D01*
X177019000Y-123711259D01*
X177053624Y-123537188D01*
X177121544Y-123373216D01*
X177220147Y-123225646D01*
X177345646Y-123100147D01*
X177493216Y-123001544D01*
X177657188Y-122933624D01*
X177806488Y-122903927D01*
X177831258Y-122899000D01*
X178008742Y-122899000D01*
X178033512Y-122903927D01*
G37*
G36*
X155379591Y-122403085D02*
G01*
X155413569Y-122413393D01*
X155444890Y-122430134D01*
X155472339Y-122452661D01*
X155494866Y-122480110D01*
X155511607Y-122511431D01*
X155521915Y-122545409D01*
X155526000Y-122586890D01*
X155526000Y-123188110D01*
X155521915Y-123229591D01*
X155511607Y-123263569D01*
X155494866Y-123294890D01*
X155472339Y-123322339D01*
X155444890Y-123344866D01*
X155413569Y-123361607D01*
X155379591Y-123371915D01*
X155338110Y-123376000D01*
X154661890Y-123376000D01*
X154620409Y-123371915D01*
X154586431Y-123361607D01*
X154555110Y-123344866D01*
X154527661Y-123322339D01*
X154505134Y-123294890D01*
X154488393Y-123263569D01*
X154478085Y-123229591D01*
X154474000Y-123188110D01*
X154474000Y-122586890D01*
X154478085Y-122545409D01*
X154488393Y-122511431D01*
X154505134Y-122480110D01*
X154527661Y-122452661D01*
X154555110Y-122430134D01*
X154586431Y-122413393D01*
X154620409Y-122403085D01*
X154661890Y-122399000D01*
X155338110Y-122399000D01*
X155379591Y-122403085D01*
G37*
G36*
X146251000Y-123301000D02*
G01*
X145349000Y-123301000D01*
X145349000Y-122299000D01*
X146251000Y-122299000D01*
X146251000Y-123301000D01*
G37*
G36*
X144351000Y-123301000D02*
G01*
X143449000Y-123301000D01*
X143449000Y-122299000D01*
X144351000Y-122299000D01*
X144351000Y-123301000D01*
G37*
G36*
X158976000Y-123301000D02*
G01*
X158374000Y-123301000D01*
X158374000Y-120899000D01*
X158976000Y-120899000D01*
X158976000Y-123301000D01*
G37*
G36*
X161026000Y-123301000D02*
G01*
X160424000Y-123301000D01*
X160424000Y-120899000D01*
X161026000Y-120899000D01*
X161026000Y-123301000D01*
G37*
G36*
X151901000Y-123201000D02*
G01*
X150999000Y-123201000D01*
X150999000Y-122199000D01*
X151901000Y-122199000D01*
X151901000Y-123201000D01*
G37*
G36*
X150001000Y-123201000D02*
G01*
X149099000Y-123201000D01*
X149099000Y-122199000D01*
X150001000Y-122199000D01*
X150001000Y-123201000D01*
G37*
G36*
X140679591Y-121990585D02*
G01*
X140713569Y-122000893D01*
X140744890Y-122017634D01*
X140772339Y-122040161D01*
X140794866Y-122067610D01*
X140811607Y-122098931D01*
X140821915Y-122132909D01*
X140826000Y-122174390D01*
X140826000Y-122775610D01*
X140821915Y-122817091D01*
X140811607Y-122851069D01*
X140794866Y-122882390D01*
X140772339Y-122909839D01*
X140744890Y-122932366D01*
X140713569Y-122949107D01*
X140679591Y-122959415D01*
X140638110Y-122963500D01*
X139961890Y-122963500D01*
X139920409Y-122959415D01*
X139886431Y-122949107D01*
X139855110Y-122932366D01*
X139827661Y-122909839D01*
X139805134Y-122882390D01*
X139788393Y-122851069D01*
X139778085Y-122817091D01*
X139774000Y-122775610D01*
X139774000Y-122174390D01*
X139778085Y-122132909D01*
X139788393Y-122098931D01*
X139805134Y-122067610D01*
X139827661Y-122040161D01*
X139855110Y-122017634D01*
X139886431Y-122000893D01*
X139920409Y-121990585D01*
X139961890Y-121986500D01*
X140638110Y-121986500D01*
X140679591Y-121990585D01*
G37*
G36*
X132514500Y-122659000D02*
G01*
X126297500Y-122659000D01*
X126297500Y-121357000D01*
X132514500Y-121357000D01*
X132514500Y-122659000D01*
G37*
G36*
X116760601Y-121052397D02*
G01*
X116799305Y-121060096D01*
X116818990Y-121068250D01*
X116908680Y-121105400D01*
X117007115Y-121171173D01*
X117090827Y-121254885D01*
X117156600Y-121353320D01*
X117178996Y-121407390D01*
X117199697Y-121457366D01*
X117201904Y-121462696D01*
X117225000Y-121578805D01*
X117225000Y-121697195D01*
X117214792Y-121748512D01*
X117204352Y-121801000D01*
X117201904Y-121813304D01*
X117156600Y-121922680D01*
X117090827Y-122021115D01*
X117007115Y-122104827D01*
X116908680Y-122170600D01*
X116840115Y-122199000D01*
X116799305Y-122215904D01*
X116760601Y-122223603D01*
X116683195Y-122239000D01*
X116564805Y-122239000D01*
X116487399Y-122223603D01*
X116448695Y-122215904D01*
X116407885Y-122199000D01*
X116339320Y-122170600D01*
X116240885Y-122104827D01*
X116157173Y-122021115D01*
X116091400Y-121922680D01*
X116046096Y-121813304D01*
X116043649Y-121801000D01*
X116033208Y-121748512D01*
X116023000Y-121697195D01*
X116023000Y-121578805D01*
X116046096Y-121462696D01*
X116048304Y-121457366D01*
X116069004Y-121407390D01*
X116091400Y-121353320D01*
X116157173Y-121254885D01*
X116240885Y-121171173D01*
X116339320Y-121105400D01*
X116429010Y-121068250D01*
X116448695Y-121060096D01*
X116487399Y-121052397D01*
X116564805Y-121037000D01*
X116683195Y-121037000D01*
X116760601Y-121052397D01*
G37*
G36*
X115160601Y-121052397D02*
G01*
X115199305Y-121060096D01*
X115218990Y-121068250D01*
X115308680Y-121105400D01*
X115407115Y-121171173D01*
X115490827Y-121254885D01*
X115556600Y-121353320D01*
X115578996Y-121407390D01*
X115599697Y-121457366D01*
X115601904Y-121462696D01*
X115625000Y-121578805D01*
X115625000Y-121697195D01*
X115614792Y-121748512D01*
X115604352Y-121801000D01*
X115601904Y-121813304D01*
X115556600Y-121922680D01*
X115490827Y-122021115D01*
X115407115Y-122104827D01*
X115308680Y-122170600D01*
X115240115Y-122199000D01*
X115199305Y-122215904D01*
X115160601Y-122223603D01*
X115083195Y-122239000D01*
X114964805Y-122239000D01*
X114887399Y-122223603D01*
X114848695Y-122215904D01*
X114807885Y-122199000D01*
X114739320Y-122170600D01*
X114640885Y-122104827D01*
X114557173Y-122021115D01*
X114491400Y-121922680D01*
X114446096Y-121813304D01*
X114443649Y-121801000D01*
X114433208Y-121748512D01*
X114423000Y-121697195D01*
X114423000Y-121578805D01*
X114446096Y-121462696D01*
X114448304Y-121457366D01*
X114469004Y-121407390D01*
X114491400Y-121353320D01*
X114557173Y-121254885D01*
X114640885Y-121171173D01*
X114739320Y-121105400D01*
X114829010Y-121068250D01*
X114848695Y-121060096D01*
X114887399Y-121052397D01*
X114964805Y-121037000D01*
X115083195Y-121037000D01*
X115160601Y-121052397D01*
G37*
G36*
X114025000Y-122239000D02*
G01*
X112823000Y-122239000D01*
X112823000Y-121037000D01*
X114025000Y-121037000D01*
X114025000Y-122239000D01*
G37*
G36*
X111491817Y-119520696D02*
G01*
X111605104Y-119555062D01*
X111709511Y-119610869D01*
X111709513Y-119610870D01*
X111709512Y-119610870D01*
X111801027Y-119685973D01*
X111857856Y-119755220D01*
X111876131Y-119777488D01*
X111931938Y-119881895D01*
X111966304Y-119995182D01*
X111975000Y-120083481D01*
X111975000Y-121442519D01*
X111966304Y-121530818D01*
X111931938Y-121644105D01*
X111876131Y-121748512D01*
X111801027Y-121840027D01*
X111709512Y-121915131D01*
X111605105Y-121970938D01*
X111491818Y-122005304D01*
X111374000Y-122016907D01*
X111256183Y-122005304D01*
X111142896Y-121970938D01*
X111038489Y-121915131D01*
X110946974Y-121840027D01*
X110871870Y-121748512D01*
X110816063Y-121644105D01*
X110781697Y-121530818D01*
X110773001Y-121442519D01*
X110773000Y-120083482D01*
X110781696Y-119995183D01*
X110816062Y-119881896D01*
X110871869Y-119777489D01*
X110890145Y-119755220D01*
X110946973Y-119685973D01*
X111038487Y-119610870D01*
X111038486Y-119610870D01*
X111038488Y-119610869D01*
X111142895Y-119555062D01*
X111256182Y-119520696D01*
X111374000Y-119509093D01*
X111491817Y-119520696D01*
G37*
G36*
X118791817Y-119520696D02*
G01*
X118905104Y-119555062D01*
X119009511Y-119610869D01*
X119009513Y-119610870D01*
X119009512Y-119610870D01*
X119101027Y-119685973D01*
X119157856Y-119755220D01*
X119176131Y-119777488D01*
X119231938Y-119881895D01*
X119266304Y-119995182D01*
X119275000Y-120083481D01*
X119275000Y-121442519D01*
X119266304Y-121530818D01*
X119231938Y-121644105D01*
X119176131Y-121748512D01*
X119101027Y-121840027D01*
X119009512Y-121915131D01*
X118905105Y-121970938D01*
X118791818Y-122005304D01*
X118674000Y-122016907D01*
X118556183Y-122005304D01*
X118442896Y-121970938D01*
X118338489Y-121915131D01*
X118246974Y-121840027D01*
X118171870Y-121748512D01*
X118116063Y-121644105D01*
X118081697Y-121530818D01*
X118073001Y-121442519D01*
X118073000Y-120083482D01*
X118081696Y-119995183D01*
X118116062Y-119881896D01*
X118171869Y-119777489D01*
X118190145Y-119755220D01*
X118246973Y-119685973D01*
X118338487Y-119610870D01*
X118338486Y-119610870D01*
X118338488Y-119610869D01*
X118442895Y-119555062D01*
X118556182Y-119520696D01*
X118674000Y-119509093D01*
X118791817Y-119520696D01*
G37*
G36*
X155379591Y-120828085D02*
G01*
X155413569Y-120838393D01*
X155444890Y-120855134D01*
X155472339Y-120877661D01*
X155494866Y-120905110D01*
X155511607Y-120936431D01*
X155521915Y-120970409D01*
X155526000Y-121011890D01*
X155526000Y-121613110D01*
X155521915Y-121654591D01*
X155511607Y-121688569D01*
X155494866Y-121719890D01*
X155472339Y-121747339D01*
X155444890Y-121769866D01*
X155413569Y-121786607D01*
X155379591Y-121796915D01*
X155338110Y-121801000D01*
X154661890Y-121801000D01*
X154620409Y-121796915D01*
X154586431Y-121786607D01*
X154555110Y-121769866D01*
X154527661Y-121747339D01*
X154505134Y-121719890D01*
X154488393Y-121688569D01*
X154478085Y-121654591D01*
X154474000Y-121613110D01*
X154474000Y-121011890D01*
X154478085Y-120970409D01*
X154488393Y-120936431D01*
X154505134Y-120905110D01*
X154527661Y-120877661D01*
X154555110Y-120855134D01*
X154586431Y-120838393D01*
X154620409Y-120828085D01*
X154661890Y-120824000D01*
X155338110Y-120824000D01*
X155379591Y-120828085D01*
G37*
G36*
X166779591Y-120515585D02*
G01*
X166813569Y-120525893D01*
X166844890Y-120542634D01*
X166872339Y-120565161D01*
X166894866Y-120592610D01*
X166911607Y-120623931D01*
X166921915Y-120657909D01*
X166926000Y-120699390D01*
X166926000Y-121300610D01*
X166921915Y-121342091D01*
X166911607Y-121376069D01*
X166894866Y-121407390D01*
X166872339Y-121434839D01*
X166844890Y-121457366D01*
X166813569Y-121474107D01*
X166779591Y-121484415D01*
X166738110Y-121488500D01*
X166061890Y-121488500D01*
X166020409Y-121484415D01*
X165986431Y-121474107D01*
X165955110Y-121457366D01*
X165927661Y-121434839D01*
X165905134Y-121407390D01*
X165888393Y-121376069D01*
X165878085Y-121342091D01*
X165874000Y-121300610D01*
X165874000Y-120699390D01*
X165878085Y-120657909D01*
X165888393Y-120623931D01*
X165905134Y-120592610D01*
X165927661Y-120565161D01*
X165955110Y-120542634D01*
X165986431Y-120525893D01*
X166020409Y-120515585D01*
X166061890Y-120511500D01*
X166738110Y-120511500D01*
X166779591Y-120515585D01*
G37*
G36*
X140679591Y-120415585D02*
G01*
X140713569Y-120425893D01*
X140744890Y-120442634D01*
X140772339Y-120465161D01*
X140794866Y-120492610D01*
X140811607Y-120523931D01*
X140821915Y-120557909D01*
X140826000Y-120599390D01*
X140826000Y-121200610D01*
X140821915Y-121242091D01*
X140811607Y-121276069D01*
X140794866Y-121307390D01*
X140772339Y-121334839D01*
X140744890Y-121357366D01*
X140713569Y-121374107D01*
X140679591Y-121384415D01*
X140638110Y-121388500D01*
X139961890Y-121388500D01*
X139920409Y-121384415D01*
X139886431Y-121374107D01*
X139855110Y-121357366D01*
X139827661Y-121334839D01*
X139805134Y-121307390D01*
X139788393Y-121276069D01*
X139778085Y-121242091D01*
X139774000Y-121200610D01*
X139774000Y-120599390D01*
X139778085Y-120557909D01*
X139788393Y-120523931D01*
X139805134Y-120492610D01*
X139827661Y-120465161D01*
X139855110Y-120442634D01*
X139886431Y-120425893D01*
X139920409Y-120415585D01*
X139961890Y-120411500D01*
X140638110Y-120411500D01*
X140679591Y-120415585D01*
G37*
G36*
X145301000Y-121301000D02*
G01*
X144399000Y-121301000D01*
X144399000Y-120299000D01*
X145301000Y-120299000D01*
X145301000Y-121301000D01*
G37*
G36*
X150951000Y-121201000D02*
G01*
X150049000Y-121201000D01*
X150049000Y-120199000D01*
X150951000Y-120199000D01*
X150951000Y-121201000D01*
G37*
G36*
X115960601Y-119302397D02*
G01*
X115999305Y-119310096D01*
X116031340Y-119323365D01*
X116108680Y-119355400D01*
X116207115Y-119421173D01*
X116290827Y-119504885D01*
X116356600Y-119603320D01*
X116380802Y-119661750D01*
X116401904Y-119712695D01*
X116402981Y-119718110D01*
X116425000Y-119828805D01*
X116425000Y-119947195D01*
X116401904Y-120063304D01*
X116356600Y-120172680D01*
X116290827Y-120271115D01*
X116207115Y-120354827D01*
X116108680Y-120420600D01*
X116031340Y-120452635D01*
X115999305Y-120465904D01*
X115960601Y-120473603D01*
X115883195Y-120489000D01*
X115764805Y-120489000D01*
X115687399Y-120473603D01*
X115648695Y-120465904D01*
X115616660Y-120452635D01*
X115539320Y-120420600D01*
X115440885Y-120354827D01*
X115357173Y-120271115D01*
X115291400Y-120172680D01*
X115246096Y-120063304D01*
X115223000Y-119947195D01*
X115223000Y-119828805D01*
X115245019Y-119718110D01*
X115246096Y-119712695D01*
X115267198Y-119661750D01*
X115291400Y-119603320D01*
X115357173Y-119504885D01*
X115440885Y-119421173D01*
X115539320Y-119355400D01*
X115616660Y-119323365D01*
X115648695Y-119310096D01*
X115687399Y-119302397D01*
X115764805Y-119287000D01*
X115883195Y-119287000D01*
X115960601Y-119302397D01*
G37*
G36*
X114360601Y-119302397D02*
G01*
X114399305Y-119310096D01*
X114431340Y-119323365D01*
X114508680Y-119355400D01*
X114607115Y-119421173D01*
X114690827Y-119504885D01*
X114756600Y-119603320D01*
X114780802Y-119661750D01*
X114801904Y-119712695D01*
X114802981Y-119718110D01*
X114825000Y-119828805D01*
X114825000Y-119947195D01*
X114801904Y-120063304D01*
X114756600Y-120172680D01*
X114690827Y-120271115D01*
X114607115Y-120354827D01*
X114508680Y-120420600D01*
X114431340Y-120452635D01*
X114399305Y-120465904D01*
X114360601Y-120473603D01*
X114283195Y-120489000D01*
X114164805Y-120489000D01*
X114087399Y-120473603D01*
X114048695Y-120465904D01*
X114016660Y-120452635D01*
X113939320Y-120420600D01*
X113840885Y-120354827D01*
X113757173Y-120271115D01*
X113691400Y-120172680D01*
X113646096Y-120063304D01*
X113623000Y-119947195D01*
X113623000Y-119828805D01*
X113645019Y-119718110D01*
X113646096Y-119712695D01*
X113667198Y-119661750D01*
X113691400Y-119603320D01*
X113757173Y-119504885D01*
X113840885Y-119421173D01*
X113939320Y-119355400D01*
X114016660Y-119323365D01*
X114048695Y-119310096D01*
X114087399Y-119302397D01*
X114164805Y-119287000D01*
X114283195Y-119287000D01*
X114360601Y-119302397D01*
G37*
G36*
X166779591Y-118940585D02*
G01*
X166813569Y-118950893D01*
X166844890Y-118967634D01*
X166872339Y-118990161D01*
X166894866Y-119017610D01*
X166911607Y-119048931D01*
X166921915Y-119082909D01*
X166926000Y-119124390D01*
X166926000Y-119725610D01*
X166921915Y-119767091D01*
X166911607Y-119801069D01*
X166894866Y-119832390D01*
X166872339Y-119859839D01*
X166844890Y-119882366D01*
X166813569Y-119899107D01*
X166779591Y-119909415D01*
X166738110Y-119913500D01*
X166061890Y-119913500D01*
X166020409Y-119909415D01*
X165986431Y-119899107D01*
X165955110Y-119882366D01*
X165927661Y-119859839D01*
X165905134Y-119832390D01*
X165888393Y-119801069D01*
X165878085Y-119767091D01*
X165874000Y-119725610D01*
X165874000Y-119124390D01*
X165878085Y-119082909D01*
X165888393Y-119048931D01*
X165905134Y-119017610D01*
X165927661Y-118990161D01*
X165955110Y-118967634D01*
X165986431Y-118950893D01*
X166020409Y-118940585D01*
X166061890Y-118936500D01*
X166738110Y-118936500D01*
X166779591Y-118940585D01*
G37*
G36*
X158025091Y-118858085D02*
G01*
X158059069Y-118868393D01*
X158090390Y-118885134D01*
X158117839Y-118907661D01*
X158140366Y-118935110D01*
X158157107Y-118966431D01*
X158167415Y-119000409D01*
X158171500Y-119041890D01*
X158171500Y-119718110D01*
X158167415Y-119759591D01*
X158157107Y-119793569D01*
X158140366Y-119824890D01*
X158117839Y-119852339D01*
X158090390Y-119874866D01*
X158059069Y-119891607D01*
X158025091Y-119901915D01*
X157983610Y-119906000D01*
X157382390Y-119906000D01*
X157340909Y-119901915D01*
X157306931Y-119891607D01*
X157275610Y-119874866D01*
X157248161Y-119852339D01*
X157225634Y-119824890D01*
X157208893Y-119793569D01*
X157198585Y-119759591D01*
X157194500Y-119718110D01*
X157194500Y-119041890D01*
X157198585Y-119000409D01*
X157208893Y-118966431D01*
X157225634Y-118935110D01*
X157248161Y-118907661D01*
X157275610Y-118885134D01*
X157306931Y-118868393D01*
X157340909Y-118858085D01*
X157382390Y-118854000D01*
X157983610Y-118854000D01*
X158025091Y-118858085D01*
G37*
G36*
X159600091Y-118858085D02*
G01*
X159634069Y-118868393D01*
X159665390Y-118885134D01*
X159692839Y-118907661D01*
X159715366Y-118935110D01*
X159732107Y-118966431D01*
X159742415Y-119000409D01*
X159746500Y-119041890D01*
X159746500Y-119718110D01*
X159742415Y-119759591D01*
X159732107Y-119793569D01*
X159715366Y-119824890D01*
X159692839Y-119852339D01*
X159665390Y-119874866D01*
X159634069Y-119891607D01*
X159600091Y-119901915D01*
X159558610Y-119906000D01*
X158957390Y-119906000D01*
X158915909Y-119901915D01*
X158881931Y-119891607D01*
X158850610Y-119874866D01*
X158823161Y-119852339D01*
X158800634Y-119824890D01*
X158783893Y-119793569D01*
X158773585Y-119759591D01*
X158769500Y-119718110D01*
X158769500Y-119041890D01*
X158773585Y-119000409D01*
X158783893Y-118966431D01*
X158800634Y-118935110D01*
X158823161Y-118907661D01*
X158850610Y-118885134D01*
X158881931Y-118868393D01*
X158915909Y-118858085D01*
X158957390Y-118854000D01*
X159558610Y-118854000D01*
X159600091Y-118858085D01*
G37*
G36*
X172501000Y-118701000D02*
G01*
X170399000Y-118701000D01*
X170399000Y-117099000D01*
X172501000Y-117099000D01*
X172501000Y-118701000D01*
G37*
G36*
X178801000Y-117551000D02*
G01*
X176699000Y-117551000D01*
X176699000Y-113649000D01*
X178801000Y-113649000D01*
X178801000Y-117551000D01*
G37*
G36*
X132514500Y-117459000D02*
G01*
X126297500Y-117459000D01*
X126297500Y-116157000D01*
X132514500Y-116157000D01*
X132514500Y-117459000D01*
G37*
G36*
X183942091Y-116278085D02*
G01*
X183976069Y-116288393D01*
X184007390Y-116305134D01*
X184034839Y-116327661D01*
X184057366Y-116355110D01*
X184074107Y-116386431D01*
X184084415Y-116420409D01*
X184088500Y-116461890D01*
X184088500Y-117138110D01*
X184084415Y-117179591D01*
X184074107Y-117213569D01*
X184057366Y-117244890D01*
X184034839Y-117272339D01*
X184007390Y-117294866D01*
X183976069Y-117311607D01*
X183942091Y-117321915D01*
X183900610Y-117326000D01*
X183299390Y-117326000D01*
X183257909Y-117321915D01*
X183223931Y-117311607D01*
X183192610Y-117294866D01*
X183165161Y-117272339D01*
X183142634Y-117244890D01*
X183125893Y-117213569D01*
X183115585Y-117179591D01*
X183111500Y-117138110D01*
X183111500Y-116461890D01*
X183115585Y-116420409D01*
X183125893Y-116386431D01*
X183142634Y-116355110D01*
X183165161Y-116327661D01*
X183192610Y-116305134D01*
X183223931Y-116288393D01*
X183257909Y-116278085D01*
X183299390Y-116274000D01*
X183900610Y-116274000D01*
X183942091Y-116278085D01*
G37*
G36*
X182367091Y-116278085D02*
G01*
X182401069Y-116288393D01*
X182432390Y-116305134D01*
X182459839Y-116327661D01*
X182482366Y-116355110D01*
X182499107Y-116386431D01*
X182509415Y-116420409D01*
X182513500Y-116461890D01*
X182513500Y-117138110D01*
X182509415Y-117179591D01*
X182499107Y-117213569D01*
X182482366Y-117244890D01*
X182459839Y-117272339D01*
X182432390Y-117294866D01*
X182401069Y-117311607D01*
X182367091Y-117321915D01*
X182325610Y-117326000D01*
X181724390Y-117326000D01*
X181682909Y-117321915D01*
X181648931Y-117311607D01*
X181617610Y-117294866D01*
X181590161Y-117272339D01*
X181567634Y-117244890D01*
X181550893Y-117213569D01*
X181540585Y-117179591D01*
X181536500Y-117138110D01*
X181536500Y-116461890D01*
X181540585Y-116420409D01*
X181550893Y-116386431D01*
X181567634Y-116355110D01*
X181590161Y-116327661D01*
X181617610Y-116305134D01*
X181648931Y-116288393D01*
X181682909Y-116278085D01*
X181724390Y-116274000D01*
X182325610Y-116274000D01*
X182367091Y-116278085D01*
G37*
G36*
X161301000Y-117251000D02*
G01*
X159699000Y-117251000D01*
X159699000Y-115149000D01*
X161301000Y-115149000D01*
X161301000Y-117251000D01*
G37*
G36*
X163601000Y-117251000D02*
G01*
X161999000Y-117251000D01*
X161999000Y-115149000D01*
X163601000Y-115149000D01*
X163601000Y-117251000D01*
G37*
G36*
X165901000Y-117251000D02*
G01*
X164299000Y-117251000D01*
X164299000Y-115149000D01*
X165901000Y-115149000D01*
X165901000Y-117251000D01*
G37*
G36*
X119900091Y-116092085D02*
G01*
X119934069Y-116102393D01*
X119965390Y-116119134D01*
X119992839Y-116141661D01*
X120015366Y-116169110D01*
X120032107Y-116200431D01*
X120042415Y-116234409D01*
X120046500Y-116275890D01*
X120046500Y-116952110D01*
X120042415Y-116993591D01*
X120032107Y-117027569D01*
X120015366Y-117058890D01*
X119992839Y-117086339D01*
X119965390Y-117108866D01*
X119934069Y-117125607D01*
X119900091Y-117135915D01*
X119858610Y-117140000D01*
X119257390Y-117140000D01*
X119215909Y-117135915D01*
X119181931Y-117125607D01*
X119150610Y-117108866D01*
X119123161Y-117086339D01*
X119100634Y-117058890D01*
X119083893Y-117027569D01*
X119073585Y-116993591D01*
X119069500Y-116952110D01*
X119069500Y-116275890D01*
X119073585Y-116234409D01*
X119083893Y-116200431D01*
X119100634Y-116169110D01*
X119123161Y-116141661D01*
X119150610Y-116119134D01*
X119181931Y-116102393D01*
X119215909Y-116092085D01*
X119257390Y-116088000D01*
X119858610Y-116088000D01*
X119900091Y-116092085D01*
G37*
G36*
X118325091Y-116092085D02*
G01*
X118359069Y-116102393D01*
X118390390Y-116119134D01*
X118417839Y-116141661D01*
X118440366Y-116169110D01*
X118457107Y-116200431D01*
X118467415Y-116234409D01*
X118471500Y-116275890D01*
X118471500Y-116952110D01*
X118467415Y-116993591D01*
X118457107Y-117027569D01*
X118440366Y-117058890D01*
X118417839Y-117086339D01*
X118390390Y-117108866D01*
X118359069Y-117125607D01*
X118325091Y-117135915D01*
X118283610Y-117140000D01*
X117682390Y-117140000D01*
X117640909Y-117135915D01*
X117606931Y-117125607D01*
X117575610Y-117108866D01*
X117548161Y-117086339D01*
X117525634Y-117058890D01*
X117508893Y-117027569D01*
X117498585Y-116993591D01*
X117494500Y-116952110D01*
X117494500Y-116275890D01*
X117498585Y-116234409D01*
X117508893Y-116200431D01*
X117525634Y-116169110D01*
X117548161Y-116141661D01*
X117575610Y-116119134D01*
X117606931Y-116102393D01*
X117640909Y-116092085D01*
X117682390Y-116088000D01*
X118283610Y-116088000D01*
X118325091Y-116092085D01*
G37*
G36*
X196316217Y-114712808D02*
G01*
X196347489Y-114722294D01*
X196376308Y-114737698D01*
X196401570Y-114758430D01*
X196422302Y-114783692D01*
X196437706Y-114812511D01*
X196447192Y-114843783D01*
X196451000Y-114882448D01*
X196451000Y-116717552D01*
X196447192Y-116756217D01*
X196437706Y-116787489D01*
X196422302Y-116816308D01*
X196401570Y-116841570D01*
X196376308Y-116862302D01*
X196347489Y-116877706D01*
X196316217Y-116887192D01*
X196277552Y-116891000D01*
X192922448Y-116891000D01*
X192883783Y-116887192D01*
X192852511Y-116877706D01*
X192823692Y-116862302D01*
X192798430Y-116841570D01*
X192777698Y-116816308D01*
X192762294Y-116787489D01*
X192752808Y-116756217D01*
X192749000Y-116717552D01*
X192749000Y-114882448D01*
X192752808Y-114843783D01*
X192762294Y-114812511D01*
X192777698Y-114783692D01*
X192798430Y-114758430D01*
X192823692Y-114737698D01*
X192852511Y-114722294D01*
X192883783Y-114712808D01*
X192922448Y-114709000D01*
X196277552Y-114709000D01*
X196316217Y-114712808D01*
G37*
G36*
X172501000Y-116401000D02*
G01*
X170399000Y-116401000D01*
X170399000Y-114799000D01*
X172501000Y-114799000D01*
X172501000Y-116401000D01*
G37*
G36*
X150767091Y-114678085D02*
G01*
X150801069Y-114688393D01*
X150832390Y-114705134D01*
X150859839Y-114727661D01*
X150882366Y-114755110D01*
X150899107Y-114786431D01*
X150909415Y-114820409D01*
X150913500Y-114861890D01*
X150913500Y-115538110D01*
X150909415Y-115579591D01*
X150899107Y-115613569D01*
X150882366Y-115644890D01*
X150859839Y-115672339D01*
X150832390Y-115694866D01*
X150801069Y-115711607D01*
X150767091Y-115721915D01*
X150725610Y-115726000D01*
X150124390Y-115726000D01*
X150082909Y-115721915D01*
X150048931Y-115711607D01*
X150017610Y-115694866D01*
X149990161Y-115672339D01*
X149967634Y-115644890D01*
X149950893Y-115613569D01*
X149940585Y-115579591D01*
X149936500Y-115538110D01*
X149936500Y-114861890D01*
X149940585Y-114820409D01*
X149950893Y-114786431D01*
X149967634Y-114755110D01*
X149990161Y-114727661D01*
X150017610Y-114705134D01*
X150048931Y-114688393D01*
X150082909Y-114678085D01*
X150124390Y-114674000D01*
X150725610Y-114674000D01*
X150767091Y-114678085D01*
G37*
G36*
X152342091Y-114678085D02*
G01*
X152376069Y-114688393D01*
X152407390Y-114705134D01*
X152434839Y-114727661D01*
X152457366Y-114755110D01*
X152474107Y-114786431D01*
X152484415Y-114820409D01*
X152488500Y-114861890D01*
X152488500Y-115538110D01*
X152484415Y-115579591D01*
X152474107Y-115613569D01*
X152457366Y-115644890D01*
X152434839Y-115672339D01*
X152407390Y-115694866D01*
X152376069Y-115711607D01*
X152342091Y-115721915D01*
X152300610Y-115726000D01*
X151699390Y-115726000D01*
X151657909Y-115721915D01*
X151623931Y-115711607D01*
X151592610Y-115694866D01*
X151565161Y-115672339D01*
X151542634Y-115644890D01*
X151525893Y-115613569D01*
X151515585Y-115579591D01*
X151511500Y-115538110D01*
X151511500Y-114861890D01*
X151515585Y-114820409D01*
X151525893Y-114786431D01*
X151542634Y-114755110D01*
X151565161Y-114727661D01*
X151592610Y-114705134D01*
X151623931Y-114688393D01*
X151657909Y-114678085D01*
X151699390Y-114674000D01*
X152300610Y-114674000D01*
X152342091Y-114678085D01*
G37*
G36*
X119773091Y-114667085D02*
G01*
X119807069Y-114677393D01*
X119838390Y-114694134D01*
X119865839Y-114716661D01*
X119888366Y-114744110D01*
X119905107Y-114775431D01*
X119915415Y-114809409D01*
X119919500Y-114850890D01*
X119919500Y-115527110D01*
X119915415Y-115568591D01*
X119905107Y-115602569D01*
X119888366Y-115633890D01*
X119865839Y-115661339D01*
X119838390Y-115683866D01*
X119807069Y-115700607D01*
X119773091Y-115710915D01*
X119731610Y-115715000D01*
X119130390Y-115715000D01*
X119088909Y-115710915D01*
X119054931Y-115700607D01*
X119023610Y-115683866D01*
X118996161Y-115661339D01*
X118973634Y-115633890D01*
X118956893Y-115602569D01*
X118946585Y-115568591D01*
X118942500Y-115527110D01*
X118942500Y-114850890D01*
X118946585Y-114809409D01*
X118956893Y-114775431D01*
X118973634Y-114744110D01*
X118996161Y-114716661D01*
X119023610Y-114694134D01*
X119054931Y-114677393D01*
X119088909Y-114667085D01*
X119130390Y-114663000D01*
X119731610Y-114663000D01*
X119773091Y-114667085D01*
G37*
G36*
X118198091Y-114667085D02*
G01*
X118232069Y-114677393D01*
X118263390Y-114694134D01*
X118290839Y-114716661D01*
X118313366Y-114744110D01*
X118330107Y-114775431D01*
X118340415Y-114809409D01*
X118344500Y-114850890D01*
X118344500Y-115527110D01*
X118340415Y-115568591D01*
X118330107Y-115602569D01*
X118313366Y-115633890D01*
X118290839Y-115661339D01*
X118263390Y-115683866D01*
X118232069Y-115700607D01*
X118198091Y-115710915D01*
X118156610Y-115715000D01*
X117555390Y-115715000D01*
X117513909Y-115710915D01*
X117479931Y-115700607D01*
X117448610Y-115683866D01*
X117421161Y-115661339D01*
X117398634Y-115633890D01*
X117381893Y-115602569D01*
X117371585Y-115568591D01*
X117367500Y-115527110D01*
X117367500Y-114850890D01*
X117371585Y-114809409D01*
X117381893Y-114775431D01*
X117398634Y-114744110D01*
X117421161Y-114716661D01*
X117448610Y-114694134D01*
X117479931Y-114677393D01*
X117513909Y-114667085D01*
X117555390Y-114663000D01*
X118156610Y-114663000D01*
X118198091Y-114667085D01*
G37*
G36*
X143167091Y-114178085D02*
G01*
X143201069Y-114188393D01*
X143232390Y-114205134D01*
X143259839Y-114227661D01*
X143282366Y-114255110D01*
X143299107Y-114286431D01*
X143309415Y-114320409D01*
X143313500Y-114361890D01*
X143313500Y-115038110D01*
X143309415Y-115079591D01*
X143299107Y-115113569D01*
X143282366Y-115144890D01*
X143259839Y-115172339D01*
X143232390Y-115194866D01*
X143201069Y-115211607D01*
X143167091Y-115221915D01*
X143125610Y-115226000D01*
X142524390Y-115226000D01*
X142482909Y-115221915D01*
X142448931Y-115211607D01*
X142417610Y-115194866D01*
X142390161Y-115172339D01*
X142367634Y-115144890D01*
X142350893Y-115113569D01*
X142340585Y-115079591D01*
X142336500Y-115038110D01*
X142336500Y-114361890D01*
X142340585Y-114320409D01*
X142350893Y-114286431D01*
X142367634Y-114255110D01*
X142390161Y-114227661D01*
X142417610Y-114205134D01*
X142448931Y-114188393D01*
X142482909Y-114178085D01*
X142524390Y-114174000D01*
X143125610Y-114174000D01*
X143167091Y-114178085D01*
G37*
G36*
X144742091Y-114178085D02*
G01*
X144776069Y-114188393D01*
X144807390Y-114205134D01*
X144834839Y-114227661D01*
X144857366Y-114255110D01*
X144874107Y-114286431D01*
X144884415Y-114320409D01*
X144888500Y-114361890D01*
X144888500Y-115038110D01*
X144884415Y-115079591D01*
X144874107Y-115113569D01*
X144857366Y-115144890D01*
X144834839Y-115172339D01*
X144807390Y-115194866D01*
X144776069Y-115211607D01*
X144742091Y-115221915D01*
X144700610Y-115226000D01*
X144099390Y-115226000D01*
X144057909Y-115221915D01*
X144023931Y-115211607D01*
X143992610Y-115194866D01*
X143965161Y-115172339D01*
X143942634Y-115144890D01*
X143925893Y-115113569D01*
X143915585Y-115079591D01*
X143911500Y-115038110D01*
X143911500Y-114361890D01*
X143915585Y-114320409D01*
X143925893Y-114286431D01*
X143942634Y-114255110D01*
X143965161Y-114227661D01*
X143992610Y-114205134D01*
X144023931Y-114188393D01*
X144057909Y-114178085D01*
X144099390Y-114174000D01*
X144700610Y-114174000D01*
X144742091Y-114178085D01*
G37*
G36*
X113168604Y-113228347D02*
G01*
X113205144Y-113239432D01*
X113238821Y-113257433D01*
X113268341Y-113281659D01*
X113292567Y-113311179D01*
X113310568Y-113344856D01*
X113321653Y-113381396D01*
X113326000Y-113425538D01*
X113326000Y-114374462D01*
X113321653Y-114418604D01*
X113310568Y-114455144D01*
X113292567Y-114488821D01*
X113268341Y-114518341D01*
X113238821Y-114542567D01*
X113205144Y-114560568D01*
X113168604Y-114571653D01*
X113124462Y-114576000D01*
X111675538Y-114576000D01*
X111631396Y-114571653D01*
X111594856Y-114560568D01*
X111561179Y-114542567D01*
X111531659Y-114518341D01*
X111507433Y-114488821D01*
X111489432Y-114455144D01*
X111478347Y-114418604D01*
X111474000Y-114374462D01*
X111474000Y-113425538D01*
X111478347Y-113381396D01*
X111489432Y-113344856D01*
X111507433Y-113311179D01*
X111531659Y-113281659D01*
X111561179Y-113257433D01*
X111594856Y-113239432D01*
X111631396Y-113228347D01*
X111675538Y-113224000D01*
X113124462Y-113224000D01*
X113168604Y-113228347D01*
G37*
G36*
X172501000Y-114101000D02*
G01*
X170399000Y-114101000D01*
X170399000Y-112499000D01*
X172501000Y-112499000D01*
X172501000Y-114101000D01*
G37*
G36*
X184042091Y-112978085D02*
G01*
X184076069Y-112988393D01*
X184107390Y-113005134D01*
X184134839Y-113027661D01*
X184157366Y-113055110D01*
X184174107Y-113086431D01*
X184184415Y-113120409D01*
X184188500Y-113161890D01*
X184188500Y-113838110D01*
X184184415Y-113879591D01*
X184174107Y-113913569D01*
X184157366Y-113944890D01*
X184134839Y-113972339D01*
X184107390Y-113994866D01*
X184076069Y-114011607D01*
X184042091Y-114021915D01*
X184000610Y-114026000D01*
X183399390Y-114026000D01*
X183357909Y-114021915D01*
X183323931Y-114011607D01*
X183292610Y-113994866D01*
X183265161Y-113972339D01*
X183242634Y-113944890D01*
X183225893Y-113913569D01*
X183215585Y-113879591D01*
X183211500Y-113838110D01*
X183211500Y-113161890D01*
X183215585Y-113120409D01*
X183225893Y-113086431D01*
X183242634Y-113055110D01*
X183265161Y-113027661D01*
X183292610Y-113005134D01*
X183323931Y-112988393D01*
X183357909Y-112978085D01*
X183399390Y-112974000D01*
X184000610Y-112974000D01*
X184042091Y-112978085D01*
G37*
G36*
X182467091Y-112978085D02*
G01*
X182501069Y-112988393D01*
X182532390Y-113005134D01*
X182559839Y-113027661D01*
X182582366Y-113055110D01*
X182599107Y-113086431D01*
X182609415Y-113120409D01*
X182613500Y-113161890D01*
X182613500Y-113838110D01*
X182609415Y-113879591D01*
X182599107Y-113913569D01*
X182582366Y-113944890D01*
X182559839Y-113972339D01*
X182532390Y-113994866D01*
X182501069Y-114011607D01*
X182467091Y-114021915D01*
X182425610Y-114026000D01*
X181824390Y-114026000D01*
X181782909Y-114021915D01*
X181748931Y-114011607D01*
X181717610Y-113994866D01*
X181690161Y-113972339D01*
X181667634Y-113944890D01*
X181650893Y-113913569D01*
X181640585Y-113879591D01*
X181636500Y-113838110D01*
X181636500Y-113161890D01*
X181640585Y-113120409D01*
X181650893Y-113086431D01*
X181667634Y-113055110D01*
X181690161Y-113027661D01*
X181717610Y-113005134D01*
X181748931Y-112988393D01*
X181782909Y-112978085D01*
X181824390Y-112974000D01*
X182425610Y-112974000D01*
X182467091Y-112978085D01*
G37*
G36*
X117742091Y-112278085D02*
G01*
X117776069Y-112288393D01*
X117807390Y-112305134D01*
X117834839Y-112327661D01*
X117857366Y-112355110D01*
X117874107Y-112386431D01*
X117884415Y-112420409D01*
X117888500Y-112461890D01*
X117888500Y-113138110D01*
X117884415Y-113179591D01*
X117874107Y-113213569D01*
X117857366Y-113244890D01*
X117834839Y-113272339D01*
X117807390Y-113294866D01*
X117776069Y-113311607D01*
X117742091Y-113321915D01*
X117700610Y-113326000D01*
X117099390Y-113326000D01*
X117057909Y-113321915D01*
X117023931Y-113311607D01*
X116992610Y-113294866D01*
X116965161Y-113272339D01*
X116942634Y-113244890D01*
X116925893Y-113213569D01*
X116915585Y-113179591D01*
X116911500Y-113138110D01*
X116911500Y-112461890D01*
X116915585Y-112420409D01*
X116925893Y-112386431D01*
X116942634Y-112355110D01*
X116965161Y-112327661D01*
X116992610Y-112305134D01*
X117023931Y-112288393D01*
X117057909Y-112278085D01*
X117099390Y-112274000D01*
X117700610Y-112274000D01*
X117742091Y-112278085D01*
G37*
G36*
X119317091Y-112278085D02*
G01*
X119351069Y-112288393D01*
X119382390Y-112305134D01*
X119409839Y-112327661D01*
X119432366Y-112355110D01*
X119449107Y-112386431D01*
X119459415Y-112420409D01*
X119463500Y-112461890D01*
X119463500Y-113138110D01*
X119459415Y-113179591D01*
X119449107Y-113213569D01*
X119432366Y-113244890D01*
X119409839Y-113272339D01*
X119382390Y-113294866D01*
X119351069Y-113311607D01*
X119317091Y-113321915D01*
X119275610Y-113326000D01*
X118674390Y-113326000D01*
X118632909Y-113321915D01*
X118598931Y-113311607D01*
X118567610Y-113294866D01*
X118540161Y-113272339D01*
X118517634Y-113244890D01*
X118500893Y-113213569D01*
X118490585Y-113179591D01*
X118486500Y-113138110D01*
X118486500Y-112461890D01*
X118490585Y-112420409D01*
X118500893Y-112386431D01*
X118517634Y-112355110D01*
X118540161Y-112327661D01*
X118567610Y-112305134D01*
X118598931Y-112288393D01*
X118632909Y-112278085D01*
X118674390Y-112274000D01*
X119275610Y-112274000D01*
X119317091Y-112278085D01*
G37*
G36*
X184017091Y-111111085D02*
G01*
X184051069Y-111121393D01*
X184082390Y-111138134D01*
X184109839Y-111160661D01*
X184132366Y-111188110D01*
X184149107Y-111219431D01*
X184159415Y-111253409D01*
X184163500Y-111294890D01*
X184163500Y-111971110D01*
X184159415Y-112012591D01*
X184149107Y-112046569D01*
X184132366Y-112077890D01*
X184109839Y-112105339D01*
X184082390Y-112127866D01*
X184051069Y-112144607D01*
X184017091Y-112154915D01*
X183975610Y-112159000D01*
X183374390Y-112159000D01*
X183332909Y-112154915D01*
X183298931Y-112144607D01*
X183267610Y-112127866D01*
X183240161Y-112105339D01*
X183217634Y-112077890D01*
X183200893Y-112046569D01*
X183190585Y-112012591D01*
X183186500Y-111971110D01*
X183186500Y-111294890D01*
X183190585Y-111253409D01*
X183200893Y-111219431D01*
X183217634Y-111188110D01*
X183240161Y-111160661D01*
X183267610Y-111138134D01*
X183298931Y-111121393D01*
X183332909Y-111111085D01*
X183374390Y-111107000D01*
X183975610Y-111107000D01*
X184017091Y-111111085D01*
G37*
G36*
X182442091Y-111111085D02*
G01*
X182476069Y-111121393D01*
X182507390Y-111138134D01*
X182534839Y-111160661D01*
X182557366Y-111188110D01*
X182574107Y-111219431D01*
X182584415Y-111253409D01*
X182588500Y-111294890D01*
X182588500Y-111971110D01*
X182584415Y-112012591D01*
X182574107Y-112046569D01*
X182557366Y-112077890D01*
X182534839Y-112105339D01*
X182507390Y-112127866D01*
X182476069Y-112144607D01*
X182442091Y-112154915D01*
X182400610Y-112159000D01*
X181799390Y-112159000D01*
X181757909Y-112154915D01*
X181723931Y-112144607D01*
X181692610Y-112127866D01*
X181665161Y-112105339D01*
X181642634Y-112077890D01*
X181625893Y-112046569D01*
X181615585Y-112012591D01*
X181611500Y-111971110D01*
X181611500Y-111294890D01*
X181615585Y-111253409D01*
X181625893Y-111219431D01*
X181642634Y-111188110D01*
X181665161Y-111160661D01*
X181692610Y-111138134D01*
X181723931Y-111121393D01*
X181757909Y-111111085D01*
X181799390Y-111107000D01*
X182400610Y-111107000D01*
X182442091Y-111111085D01*
G37*
G36*
X195573871Y-109644786D02*
G01*
X195779530Y-109707172D01*
X195969055Y-109808475D01*
X195969058Y-109808477D01*
X195969059Y-109808478D01*
X196135186Y-109944814D01*
X196271522Y-110110941D01*
X196271525Y-110110945D01*
X196372828Y-110300470D01*
X196435214Y-110506129D01*
X196456278Y-110720000D01*
X196435214Y-110933871D01*
X196435213Y-110933873D01*
X196373252Y-111138134D01*
X196372828Y-111139530D01*
X196271525Y-111329055D01*
X196271523Y-111329058D01*
X196271522Y-111329059D01*
X196135186Y-111495186D01*
X195969059Y-111631522D01*
X195969055Y-111631525D01*
X195779530Y-111732828D01*
X195573871Y-111795214D01*
X195413591Y-111811000D01*
X193786409Y-111811000D01*
X193626129Y-111795214D01*
X193420470Y-111732828D01*
X193230945Y-111631525D01*
X193230941Y-111631522D01*
X193064814Y-111495186D01*
X192928478Y-111329059D01*
X192928477Y-111329058D01*
X192928475Y-111329055D01*
X192827172Y-111139530D01*
X192826749Y-111138134D01*
X192764787Y-110933873D01*
X192764786Y-110933871D01*
X192743722Y-110720000D01*
X192764786Y-110506129D01*
X192827172Y-110300470D01*
X192928475Y-110110945D01*
X192928478Y-110110941D01*
X193064814Y-109944814D01*
X193230941Y-109808478D01*
X193230942Y-109808477D01*
X193230945Y-109808475D01*
X193420470Y-109707172D01*
X193626129Y-109644786D01*
X193786409Y-109629000D01*
X195413591Y-109629000D01*
X195573871Y-109644786D01*
G37*
G36*
X113168604Y-110428347D02*
G01*
X113205144Y-110439432D01*
X113238821Y-110457433D01*
X113268341Y-110481659D01*
X113292567Y-110511179D01*
X113310568Y-110544856D01*
X113321653Y-110581396D01*
X113326000Y-110625538D01*
X113326000Y-111574462D01*
X113321653Y-111618604D01*
X113310568Y-111655144D01*
X113292567Y-111688821D01*
X113268341Y-111718341D01*
X113238821Y-111742567D01*
X113205144Y-111760568D01*
X113168604Y-111771653D01*
X113124462Y-111776000D01*
X111675538Y-111776000D01*
X111631396Y-111771653D01*
X111594856Y-111760568D01*
X111561179Y-111742567D01*
X111531659Y-111718341D01*
X111507433Y-111688821D01*
X111489432Y-111655144D01*
X111478347Y-111618604D01*
X111474000Y-111574462D01*
X111474000Y-110625538D01*
X111478347Y-110581396D01*
X111489432Y-110544856D01*
X111507433Y-110511179D01*
X111531659Y-110481659D01*
X111561179Y-110457433D01*
X111594856Y-110439432D01*
X111631396Y-110428347D01*
X111675538Y-110424000D01*
X113124462Y-110424000D01*
X113168604Y-110428347D01*
G37*
G36*
X141379591Y-110340585D02*
G01*
X141413569Y-110350893D01*
X141444890Y-110367634D01*
X141472339Y-110390161D01*
X141494866Y-110417610D01*
X141511607Y-110448931D01*
X141521915Y-110482909D01*
X141526000Y-110524390D01*
X141526000Y-111125610D01*
X141521915Y-111167091D01*
X141511607Y-111201069D01*
X141494866Y-111232390D01*
X141472339Y-111259839D01*
X141444890Y-111282366D01*
X141413569Y-111299107D01*
X141379591Y-111309415D01*
X141338110Y-111313500D01*
X140661890Y-111313500D01*
X140620409Y-111309415D01*
X140586431Y-111299107D01*
X140555110Y-111282366D01*
X140527661Y-111259839D01*
X140505134Y-111232390D01*
X140488393Y-111201069D01*
X140478085Y-111167091D01*
X140474000Y-111125610D01*
X140474000Y-110524390D01*
X140478085Y-110482909D01*
X140488393Y-110448931D01*
X140505134Y-110417610D01*
X140527661Y-110390161D01*
X140555110Y-110367634D01*
X140586431Y-110350893D01*
X140620409Y-110340585D01*
X140661890Y-110336500D01*
X141338110Y-110336500D01*
X141379591Y-110340585D01*
G37*
G36*
X164751000Y-110951000D02*
G01*
X160849000Y-110951000D01*
X160849000Y-108849000D01*
X164751000Y-108849000D01*
X164751000Y-110951000D01*
G37*
G36*
X182409091Y-109333085D02*
G01*
X182443069Y-109343393D01*
X182474390Y-109360134D01*
X182501839Y-109382661D01*
X182524366Y-109410110D01*
X182541107Y-109441431D01*
X182551415Y-109475409D01*
X182555500Y-109516890D01*
X182555500Y-110193110D01*
X182551415Y-110234591D01*
X182541107Y-110268569D01*
X182524366Y-110299890D01*
X182501839Y-110327339D01*
X182474390Y-110349866D01*
X182443069Y-110366607D01*
X182409091Y-110376915D01*
X182367610Y-110381000D01*
X181766390Y-110381000D01*
X181724909Y-110376915D01*
X181690931Y-110366607D01*
X181659610Y-110349866D01*
X181632161Y-110327339D01*
X181609634Y-110299890D01*
X181592893Y-110268569D01*
X181582585Y-110234591D01*
X181578500Y-110193110D01*
X181578500Y-109516890D01*
X181582585Y-109475409D01*
X181592893Y-109441431D01*
X181609634Y-109410110D01*
X181632161Y-109382661D01*
X181659610Y-109360134D01*
X181690931Y-109343393D01*
X181724909Y-109333085D01*
X181766390Y-109329000D01*
X182367610Y-109329000D01*
X182409091Y-109333085D01*
G37*
G36*
X183984091Y-109333085D02*
G01*
X184018069Y-109343393D01*
X184049390Y-109360134D01*
X184076839Y-109382661D01*
X184099366Y-109410110D01*
X184116107Y-109441431D01*
X184126415Y-109475409D01*
X184130500Y-109516890D01*
X184130500Y-110193110D01*
X184126415Y-110234591D01*
X184116107Y-110268569D01*
X184099366Y-110299890D01*
X184076839Y-110327339D01*
X184049390Y-110349866D01*
X184018069Y-110366607D01*
X183984091Y-110376915D01*
X183942610Y-110381000D01*
X183341390Y-110381000D01*
X183299909Y-110376915D01*
X183265931Y-110366607D01*
X183234610Y-110349866D01*
X183207161Y-110327339D01*
X183184634Y-110299890D01*
X183167893Y-110268569D01*
X183157585Y-110234591D01*
X183153500Y-110193110D01*
X183153500Y-109516890D01*
X183157585Y-109475409D01*
X183167893Y-109441431D01*
X183184634Y-109410110D01*
X183207161Y-109382661D01*
X183234610Y-109360134D01*
X183265931Y-109343393D01*
X183299909Y-109333085D01*
X183341390Y-109329000D01*
X183942610Y-109329000D01*
X183984091Y-109333085D01*
G37*
G36*
X117595493Y-108485908D02*
G01*
X117744793Y-108515605D01*
X117908765Y-108583525D01*
X118056335Y-108682128D01*
X118181834Y-108807627D01*
X118280437Y-108955197D01*
X118348357Y-109119169D01*
X118382981Y-109293240D01*
X118382981Y-109470722D01*
X118348357Y-109644793D01*
X118280437Y-109808765D01*
X118181834Y-109956335D01*
X118056335Y-110081834D01*
X117908765Y-110180437D01*
X117744793Y-110248357D01*
X117595493Y-110278054D01*
X117570723Y-110282981D01*
X117393239Y-110282981D01*
X117368469Y-110278054D01*
X117219169Y-110248357D01*
X117055197Y-110180437D01*
X116907627Y-110081834D01*
X116782128Y-109956335D01*
X116683525Y-109808765D01*
X116615605Y-109644793D01*
X116580981Y-109470722D01*
X116580981Y-109293240D01*
X116615605Y-109119169D01*
X116683525Y-108955197D01*
X116782128Y-108807627D01*
X116907627Y-108682128D01*
X117055197Y-108583525D01*
X117219169Y-108515605D01*
X117368469Y-108485908D01*
X117393239Y-108480981D01*
X117570723Y-108480981D01*
X117595493Y-108485908D01*
G37*
G36*
X131809000Y-110053000D02*
G01*
X128557000Y-110053000D01*
X128557000Y-108951000D01*
X131809000Y-108951000D01*
X131809000Y-110053000D01*
G37*
G36*
X136859000Y-110053000D02*
G01*
X133607000Y-110053000D01*
X133607000Y-108951000D01*
X136859000Y-108951000D01*
X136859000Y-110053000D01*
G37*
G36*
X141379591Y-108765585D02*
G01*
X141413569Y-108775893D01*
X141444890Y-108792634D01*
X141472339Y-108815161D01*
X141494866Y-108842610D01*
X141511607Y-108873931D01*
X141521915Y-108907909D01*
X141526000Y-108949390D01*
X141526000Y-109550610D01*
X141521915Y-109592091D01*
X141511607Y-109626069D01*
X141494866Y-109657390D01*
X141472339Y-109684839D01*
X141444890Y-109707366D01*
X141413569Y-109724107D01*
X141379591Y-109734415D01*
X141338110Y-109738500D01*
X140661890Y-109738500D01*
X140620409Y-109734415D01*
X140586431Y-109724107D01*
X140555110Y-109707366D01*
X140527661Y-109684839D01*
X140505134Y-109657390D01*
X140488393Y-109626069D01*
X140478085Y-109592091D01*
X140474000Y-109550610D01*
X140474000Y-108949390D01*
X140478085Y-108907909D01*
X140488393Y-108873931D01*
X140505134Y-108842610D01*
X140527661Y-108815161D01*
X140555110Y-108792634D01*
X140586431Y-108775893D01*
X140620409Y-108765585D01*
X140661890Y-108761500D01*
X141338110Y-108761500D01*
X141379591Y-108765585D01*
G37*
G36*
X150326000Y-109401000D02*
G01*
X144074000Y-109401000D01*
X144074000Y-107699000D01*
X150326000Y-107699000D01*
X150326000Y-109401000D01*
G37*
G36*
X178409928Y-107956764D02*
G01*
X178431009Y-107963160D01*
X178450445Y-107973548D01*
X178467476Y-107987524D01*
X178481452Y-108004555D01*
X178491840Y-108023991D01*
X178498236Y-108045072D01*
X178501000Y-108073140D01*
X178501000Y-108536860D01*
X178498236Y-108564928D01*
X178491840Y-108586009D01*
X178481452Y-108605445D01*
X178467476Y-108622476D01*
X178450445Y-108636452D01*
X178431009Y-108646840D01*
X178409928Y-108653236D01*
X178381860Y-108656000D01*
X176568140Y-108656000D01*
X176540072Y-108653236D01*
X176518991Y-108646840D01*
X176499555Y-108636452D01*
X176482524Y-108622476D01*
X176468548Y-108605445D01*
X176458160Y-108586009D01*
X176451764Y-108564928D01*
X176449000Y-108536860D01*
X176449000Y-108073140D01*
X176451764Y-108045072D01*
X176458160Y-108023991D01*
X176468548Y-108004555D01*
X176482524Y-107987524D01*
X176499555Y-107973548D01*
X176518991Y-107963160D01*
X176540072Y-107956764D01*
X176568140Y-107954000D01*
X178381860Y-107954000D01*
X178409928Y-107956764D01*
G37*
G36*
X173459928Y-107956764D02*
G01*
X173481009Y-107963160D01*
X173500445Y-107973548D01*
X173517476Y-107987524D01*
X173531452Y-108004555D01*
X173541840Y-108023991D01*
X173548236Y-108045072D01*
X173551000Y-108073140D01*
X173551000Y-108536860D01*
X173548236Y-108564928D01*
X173541840Y-108586009D01*
X173531452Y-108605445D01*
X173517476Y-108622476D01*
X173500445Y-108636452D01*
X173481009Y-108646840D01*
X173459928Y-108653236D01*
X173431860Y-108656000D01*
X171618140Y-108656000D01*
X171590072Y-108653236D01*
X171568991Y-108646840D01*
X171549555Y-108636452D01*
X171532524Y-108622476D01*
X171518548Y-108605445D01*
X171508160Y-108586009D01*
X171501764Y-108564928D01*
X171499000Y-108536860D01*
X171499000Y-108073140D01*
X171501764Y-108045072D01*
X171508160Y-108023991D01*
X171518548Y-108004555D01*
X171532524Y-107987524D01*
X171549555Y-107973548D01*
X171568991Y-107963160D01*
X171590072Y-107956764D01*
X171618140Y-107954000D01*
X173431860Y-107954000D01*
X173459928Y-107956764D01*
G37*
G36*
X136859000Y-107513000D02*
G01*
X133607000Y-107513000D01*
X133607000Y-106411000D01*
X136859000Y-106411000D01*
X136859000Y-107513000D01*
G37*
G36*
X131809000Y-107513000D02*
G01*
X128557000Y-107513000D01*
X128557000Y-106411000D01*
X131809000Y-106411000D01*
X131809000Y-107513000D01*
G37*
G36*
X143801000Y-107426000D02*
G01*
X142099000Y-107426000D01*
X142099000Y-101174000D01*
X143801000Y-101174000D01*
X143801000Y-107426000D01*
G37*
G36*
X152301000Y-107426000D02*
G01*
X150599000Y-107426000D01*
X150599000Y-101174000D01*
X152301000Y-101174000D01*
X152301000Y-107426000D01*
G37*
G36*
X173459928Y-106686764D02*
G01*
X173481009Y-106693160D01*
X173500445Y-106703548D01*
X173517476Y-106717524D01*
X173531452Y-106734555D01*
X173541840Y-106753991D01*
X173548236Y-106775072D01*
X173551000Y-106803140D01*
X173551000Y-107266860D01*
X173548236Y-107294928D01*
X173541840Y-107316009D01*
X173531452Y-107335445D01*
X173517476Y-107352476D01*
X173500445Y-107366452D01*
X173481009Y-107376840D01*
X173459928Y-107383236D01*
X173431860Y-107386000D01*
X171618140Y-107386000D01*
X171590072Y-107383236D01*
X171568991Y-107376840D01*
X171549555Y-107366452D01*
X171532524Y-107352476D01*
X171518548Y-107335445D01*
X171508160Y-107316009D01*
X171501764Y-107294928D01*
X171499000Y-107266860D01*
X171499000Y-106803140D01*
X171501764Y-106775072D01*
X171508160Y-106753991D01*
X171518548Y-106734555D01*
X171532524Y-106717524D01*
X171549555Y-106703548D01*
X171568991Y-106693160D01*
X171590072Y-106686764D01*
X171618140Y-106684000D01*
X173431860Y-106684000D01*
X173459928Y-106686764D01*
G37*
G36*
X178409928Y-106686764D02*
G01*
X178431009Y-106693160D01*
X178450445Y-106703548D01*
X178467476Y-106717524D01*
X178481452Y-106734555D01*
X178491840Y-106753991D01*
X178498236Y-106775072D01*
X178501000Y-106803140D01*
X178501000Y-107266860D01*
X178498236Y-107294928D01*
X178491840Y-107316009D01*
X178481452Y-107335445D01*
X178467476Y-107352476D01*
X178450445Y-107366452D01*
X178431009Y-107376840D01*
X178409928Y-107383236D01*
X178381860Y-107386000D01*
X176568140Y-107386000D01*
X176540072Y-107383236D01*
X176518991Y-107376840D01*
X176499555Y-107366452D01*
X176482524Y-107352476D01*
X176468548Y-107335445D01*
X176458160Y-107316009D01*
X176451764Y-107294928D01*
X176449000Y-107266860D01*
X176449000Y-106803140D01*
X176451764Y-106775072D01*
X176458160Y-106753991D01*
X176468548Y-106734555D01*
X176482524Y-106717524D01*
X176499555Y-106703548D01*
X176518991Y-106693160D01*
X176540072Y-106686764D01*
X176568140Y-106684000D01*
X178381860Y-106684000D01*
X178409928Y-106686764D01*
G37*
G36*
X111479591Y-106390585D02*
G01*
X111513569Y-106400893D01*
X111544890Y-106417634D01*
X111572339Y-106440161D01*
X111594866Y-106467610D01*
X111611607Y-106498931D01*
X111621915Y-106532909D01*
X111626000Y-106574390D01*
X111626000Y-107175610D01*
X111621915Y-107217091D01*
X111611607Y-107251069D01*
X111594866Y-107282390D01*
X111572339Y-107309839D01*
X111544890Y-107332366D01*
X111513569Y-107349107D01*
X111479591Y-107359415D01*
X111438110Y-107363500D01*
X110761890Y-107363500D01*
X110720409Y-107359415D01*
X110686431Y-107349107D01*
X110655110Y-107332366D01*
X110627661Y-107309839D01*
X110605134Y-107282390D01*
X110588393Y-107251069D01*
X110578085Y-107217091D01*
X110574000Y-107175610D01*
X110574000Y-106574390D01*
X110578085Y-106532909D01*
X110588393Y-106498931D01*
X110605134Y-106467610D01*
X110627661Y-106440161D01*
X110655110Y-106417634D01*
X110686431Y-106400893D01*
X110720409Y-106390585D01*
X110761890Y-106386500D01*
X111438110Y-106386500D01*
X111479591Y-106390585D01*
G37*
G36*
X114413512Y-105303927D02*
G01*
X114562812Y-105333624D01*
X114726784Y-105401544D01*
X114874354Y-105500147D01*
X114999853Y-105625646D01*
X115098456Y-105773216D01*
X115166376Y-105937188D01*
X115201000Y-106111259D01*
X115201000Y-106288741D01*
X115166376Y-106462812D01*
X115098456Y-106626784D01*
X114999853Y-106774354D01*
X114874354Y-106899853D01*
X114726784Y-106998456D01*
X114562812Y-107066376D01*
X114413512Y-107096073D01*
X114388742Y-107101000D01*
X114211258Y-107101000D01*
X114186488Y-107096073D01*
X114037188Y-107066376D01*
X113873216Y-106998456D01*
X113725646Y-106899853D01*
X113600147Y-106774354D01*
X113501544Y-106626784D01*
X113433624Y-106462812D01*
X113399000Y-106288741D01*
X113399000Y-106111259D01*
X113433624Y-105937188D01*
X113501544Y-105773216D01*
X113600147Y-105625646D01*
X113725646Y-105500147D01*
X113873216Y-105401544D01*
X114037188Y-105333624D01*
X114186488Y-105303927D01*
X114211258Y-105299000D01*
X114388742Y-105299000D01*
X114413512Y-105303927D01*
G37*
G36*
X184701000Y-107051000D02*
G01*
X183699000Y-107051000D01*
X183699000Y-105749000D01*
X184701000Y-105749000D01*
X184701000Y-107051000D01*
G37*
G36*
X181401000Y-107051000D02*
G01*
X180399000Y-107051000D01*
X180399000Y-105749000D01*
X181401000Y-105749000D01*
X181401000Y-107051000D01*
G37*
G36*
X195573871Y-104564786D02*
G01*
X195779530Y-104627172D01*
X195969055Y-104728475D01*
X195969058Y-104728477D01*
X195969059Y-104728478D01*
X196135186Y-104864814D01*
X196252776Y-105008099D01*
X196271525Y-105030945D01*
X196372828Y-105220470D01*
X196435214Y-105426129D01*
X196456278Y-105640000D01*
X196435214Y-105853871D01*
X196372828Y-106059530D01*
X196271525Y-106249055D01*
X196271523Y-106249058D01*
X196271522Y-106249059D01*
X196135186Y-106415186D01*
X195991739Y-106532909D01*
X195969055Y-106551525D01*
X195779530Y-106652828D01*
X195573871Y-106715214D01*
X195413591Y-106731000D01*
X193786409Y-106731000D01*
X193626129Y-106715214D01*
X193420470Y-106652828D01*
X193230945Y-106551525D01*
X193208261Y-106532909D01*
X193064814Y-106415186D01*
X192928478Y-106249059D01*
X192928477Y-106249058D01*
X192928475Y-106249055D01*
X192827172Y-106059530D01*
X192764786Y-105853871D01*
X192743722Y-105640000D01*
X192764786Y-105426129D01*
X192827172Y-105220470D01*
X192928475Y-105030945D01*
X192947224Y-105008099D01*
X193064814Y-104864814D01*
X193230941Y-104728478D01*
X193230942Y-104728477D01*
X193230945Y-104728475D01*
X193420470Y-104627172D01*
X193626129Y-104564786D01*
X193786409Y-104549000D01*
X195413591Y-104549000D01*
X195573871Y-104564786D01*
G37*
G36*
X178409928Y-105416764D02*
G01*
X178431009Y-105423160D01*
X178450445Y-105433548D01*
X178467476Y-105447524D01*
X178481452Y-105464555D01*
X178491840Y-105483991D01*
X178498236Y-105505072D01*
X178501000Y-105533140D01*
X178501000Y-105996860D01*
X178498236Y-106024928D01*
X178491840Y-106046009D01*
X178481452Y-106065445D01*
X178467476Y-106082476D01*
X178450445Y-106096452D01*
X178431009Y-106106840D01*
X178409928Y-106113236D01*
X178381860Y-106116000D01*
X176568140Y-106116000D01*
X176540072Y-106113236D01*
X176518991Y-106106840D01*
X176499555Y-106096452D01*
X176482524Y-106082476D01*
X176468548Y-106065445D01*
X176458160Y-106046009D01*
X176451764Y-106024928D01*
X176449000Y-105996860D01*
X176449000Y-105533140D01*
X176451764Y-105505072D01*
X176458160Y-105483991D01*
X176468548Y-105464555D01*
X176482524Y-105447524D01*
X176499555Y-105433548D01*
X176518991Y-105423160D01*
X176540072Y-105416764D01*
X176568140Y-105414000D01*
X178381860Y-105414000D01*
X178409928Y-105416764D01*
G37*
G36*
X173459928Y-105416764D02*
G01*
X173481009Y-105423160D01*
X173500445Y-105433548D01*
X173517476Y-105447524D01*
X173531452Y-105464555D01*
X173541840Y-105483991D01*
X173548236Y-105505072D01*
X173551000Y-105533140D01*
X173551000Y-105996860D01*
X173548236Y-106024928D01*
X173541840Y-106046009D01*
X173531452Y-106065445D01*
X173517476Y-106082476D01*
X173500445Y-106096452D01*
X173481009Y-106106840D01*
X173459928Y-106113236D01*
X173431860Y-106116000D01*
X171618140Y-106116000D01*
X171590072Y-106113236D01*
X171568991Y-106106840D01*
X171549555Y-106096452D01*
X171532524Y-106082476D01*
X171518548Y-106065445D01*
X171508160Y-106046009D01*
X171501764Y-106024928D01*
X171499000Y-105996860D01*
X171499000Y-105533140D01*
X171501764Y-105505072D01*
X171508160Y-105483991D01*
X171518548Y-105464555D01*
X171532524Y-105447524D01*
X171549555Y-105433548D01*
X171568991Y-105423160D01*
X171590072Y-105416764D01*
X171618140Y-105414000D01*
X173431860Y-105414000D01*
X173459928Y-105416764D01*
G37*
G36*
X111479591Y-104815585D02*
G01*
X111513569Y-104825893D01*
X111544890Y-104842634D01*
X111572339Y-104865161D01*
X111594866Y-104892610D01*
X111611607Y-104923931D01*
X111621915Y-104957909D01*
X111626000Y-104999390D01*
X111626000Y-105600610D01*
X111621915Y-105642091D01*
X111611607Y-105676069D01*
X111594866Y-105707390D01*
X111572339Y-105734839D01*
X111544890Y-105757366D01*
X111513569Y-105774107D01*
X111479591Y-105784415D01*
X111438110Y-105788500D01*
X110761890Y-105788500D01*
X110720409Y-105784415D01*
X110686431Y-105774107D01*
X110655110Y-105757366D01*
X110627661Y-105734839D01*
X110605134Y-105707390D01*
X110588393Y-105676069D01*
X110578085Y-105642091D01*
X110574000Y-105600610D01*
X110574000Y-104999390D01*
X110578085Y-104957909D01*
X110588393Y-104923931D01*
X110605134Y-104892610D01*
X110627661Y-104865161D01*
X110655110Y-104842634D01*
X110686431Y-104825893D01*
X110720409Y-104815585D01*
X110761890Y-104811500D01*
X111438110Y-104811500D01*
X111479591Y-104815585D01*
G37*
G36*
X122191687Y-103889713D02*
G01*
X122340987Y-103919410D01*
X122504959Y-103987330D01*
X122652529Y-104085933D01*
X122778028Y-104211432D01*
X122876631Y-104359002D01*
X122944551Y-104522974D01*
X122979175Y-104697045D01*
X122979175Y-104874527D01*
X122944551Y-105048598D01*
X122876631Y-105212570D01*
X122778028Y-105360140D01*
X122652529Y-105485639D01*
X122504959Y-105584242D01*
X122340987Y-105652162D01*
X122191687Y-105681859D01*
X122166917Y-105686786D01*
X121989433Y-105686786D01*
X121964663Y-105681859D01*
X121815363Y-105652162D01*
X121651391Y-105584242D01*
X121503821Y-105485639D01*
X121378322Y-105360140D01*
X121279719Y-105212570D01*
X121211799Y-105048598D01*
X121177175Y-104874527D01*
X121177175Y-104697045D01*
X121211799Y-104522974D01*
X121279719Y-104359002D01*
X121378322Y-104211432D01*
X121503821Y-104085933D01*
X121651391Y-103987330D01*
X121815363Y-103919410D01*
X121964663Y-103889713D01*
X121989433Y-103884786D01*
X122166917Y-103884786D01*
X122191687Y-103889713D01*
G37*
G36*
X136859000Y-104973000D02*
G01*
X133607000Y-104973000D01*
X133607000Y-103871000D01*
X136859000Y-103871000D01*
X136859000Y-104973000D01*
G37*
G36*
X131809000Y-104973000D02*
G01*
X128557000Y-104973000D01*
X128557000Y-103871000D01*
X131809000Y-103871000D01*
X131809000Y-104973000D01*
G37*
G36*
X173459928Y-104146764D02*
G01*
X173481009Y-104153160D01*
X173500445Y-104163548D01*
X173517476Y-104177524D01*
X173531452Y-104194555D01*
X173541840Y-104213991D01*
X173548236Y-104235072D01*
X173551000Y-104263140D01*
X173551000Y-104726860D01*
X173548236Y-104754928D01*
X173541840Y-104776009D01*
X173531452Y-104795445D01*
X173517476Y-104812476D01*
X173500445Y-104826452D01*
X173481009Y-104836840D01*
X173459928Y-104843236D01*
X173431860Y-104846000D01*
X171618140Y-104846000D01*
X171590072Y-104843236D01*
X171568991Y-104836840D01*
X171549555Y-104826452D01*
X171532524Y-104812476D01*
X171518548Y-104795445D01*
X171508160Y-104776009D01*
X171501764Y-104754928D01*
X171499000Y-104726860D01*
X171499000Y-104263140D01*
X171501764Y-104235072D01*
X171508160Y-104213991D01*
X171518548Y-104194555D01*
X171532524Y-104177524D01*
X171549555Y-104163548D01*
X171568991Y-104153160D01*
X171590072Y-104146764D01*
X171618140Y-104144000D01*
X173431860Y-104144000D01*
X173459928Y-104146764D01*
G37*
G36*
X178409928Y-104146764D02*
G01*
X178431009Y-104153160D01*
X178450445Y-104163548D01*
X178467476Y-104177524D01*
X178481452Y-104194555D01*
X178491840Y-104213991D01*
X178498236Y-104235072D01*
X178501000Y-104263140D01*
X178501000Y-104726860D01*
X178498236Y-104754928D01*
X178491840Y-104776009D01*
X178481452Y-104795445D01*
X178467476Y-104812476D01*
X178450445Y-104826452D01*
X178431009Y-104836840D01*
X178409928Y-104843236D01*
X178381860Y-104846000D01*
X176568140Y-104846000D01*
X176540072Y-104843236D01*
X176518991Y-104836840D01*
X176499555Y-104826452D01*
X176482524Y-104812476D01*
X176468548Y-104795445D01*
X176458160Y-104776009D01*
X176451764Y-104754928D01*
X176449000Y-104726860D01*
X176449000Y-104263140D01*
X176451764Y-104235072D01*
X176458160Y-104213991D01*
X176468548Y-104194555D01*
X176482524Y-104177524D01*
X176499555Y-104163548D01*
X176518991Y-104153160D01*
X176540072Y-104146764D01*
X176568140Y-104144000D01*
X178381860Y-104144000D01*
X178409928Y-104146764D01*
G37*
G36*
X159583408Y-102312127D02*
G01*
X157814227Y-104081308D01*
X156327888Y-102594969D01*
X158097069Y-100825788D01*
X159583408Y-102312127D01*
G37*
G36*
X119009706Y-100707733D02*
G01*
X119159006Y-100737430D01*
X119322978Y-100805350D01*
X119470548Y-100903953D01*
X119596047Y-101029452D01*
X119694650Y-101177022D01*
X119762570Y-101340994D01*
X119797194Y-101515065D01*
X119797194Y-101692547D01*
X119762570Y-101866618D01*
X119694650Y-102030590D01*
X119596047Y-102178160D01*
X119470548Y-102303659D01*
X119322978Y-102402262D01*
X119159006Y-102470182D01*
X119009706Y-102499879D01*
X118984936Y-102504806D01*
X118807452Y-102504806D01*
X118782682Y-102499879D01*
X118633382Y-102470182D01*
X118469410Y-102402262D01*
X118321840Y-102303659D01*
X118196341Y-102178160D01*
X118097738Y-102030590D01*
X118029818Y-101866618D01*
X117995194Y-101692547D01*
X117995194Y-101515065D01*
X118029818Y-101340994D01*
X118097738Y-101177022D01*
X118196341Y-101029452D01*
X118321840Y-100903953D01*
X118469410Y-100805350D01*
X118633382Y-100737430D01*
X118782682Y-100707733D01*
X118807452Y-100702806D01*
X118984936Y-100702806D01*
X119009706Y-100707733D01*
G37*
G36*
X113451000Y-102451000D02*
G01*
X112149000Y-102451000D01*
X112149000Y-101449000D01*
X113451000Y-101449000D01*
X113451000Y-102451000D01*
G37*
G36*
X195573871Y-99484786D02*
G01*
X195779530Y-99547172D01*
X195969055Y-99648475D01*
X195969058Y-99648477D01*
X195969059Y-99648478D01*
X196135186Y-99784814D01*
X196271522Y-99950941D01*
X196271525Y-99950945D01*
X196372828Y-100140470D01*
X196435214Y-100346129D01*
X196456278Y-100560000D01*
X196435214Y-100773871D01*
X196372828Y-100979530D01*
X196271525Y-101169055D01*
X196271523Y-101169058D01*
X196271522Y-101169059D01*
X196135186Y-101335186D01*
X195969059Y-101471522D01*
X195969055Y-101471525D01*
X195779530Y-101572828D01*
X195573871Y-101635214D01*
X195413591Y-101651000D01*
X193786409Y-101651000D01*
X193626129Y-101635214D01*
X193420470Y-101572828D01*
X193230945Y-101471525D01*
X193230941Y-101471522D01*
X193064814Y-101335186D01*
X192928478Y-101169059D01*
X192928477Y-101169058D01*
X192928475Y-101169055D01*
X192827172Y-100979530D01*
X192764786Y-100773871D01*
X192743722Y-100560000D01*
X192764786Y-100346129D01*
X192827172Y-100140470D01*
X192928475Y-99950945D01*
X192928478Y-99950941D01*
X193064814Y-99784814D01*
X193230941Y-99648478D01*
X193230942Y-99648477D01*
X193230945Y-99648475D01*
X193420470Y-99547172D01*
X193626129Y-99484786D01*
X193786409Y-99469000D01*
X195413591Y-99469000D01*
X195573871Y-99484786D01*
G37*
G36*
X156967112Y-99695831D02*
G01*
X155197931Y-101465012D01*
X153711592Y-99978673D01*
X155480773Y-98209492D01*
X156967112Y-99695831D01*
G37*
G36*
X133842091Y-99978085D02*
G01*
X133876069Y-99988393D01*
X133907390Y-100005134D01*
X133934839Y-100027661D01*
X133957366Y-100055110D01*
X133974107Y-100086431D01*
X133984415Y-100120409D01*
X133988500Y-100161890D01*
X133988500Y-100838110D01*
X133984415Y-100879591D01*
X133974107Y-100913569D01*
X133957366Y-100944890D01*
X133934839Y-100972339D01*
X133907390Y-100994866D01*
X133876069Y-101011607D01*
X133842091Y-101021915D01*
X133800610Y-101026000D01*
X133199390Y-101026000D01*
X133157909Y-101021915D01*
X133123931Y-101011607D01*
X133092610Y-100994866D01*
X133065161Y-100972339D01*
X133042634Y-100944890D01*
X133025893Y-100913569D01*
X133015585Y-100879591D01*
X133011500Y-100838110D01*
X133011500Y-100161890D01*
X133015585Y-100120409D01*
X133025893Y-100086431D01*
X133042634Y-100055110D01*
X133065161Y-100027661D01*
X133092610Y-100005134D01*
X133123931Y-99988393D01*
X133157909Y-99978085D01*
X133199390Y-99974000D01*
X133800610Y-99974000D01*
X133842091Y-99978085D01*
G37*
G36*
X132267091Y-99978085D02*
G01*
X132301069Y-99988393D01*
X132332390Y-100005134D01*
X132359839Y-100027661D01*
X132382366Y-100055110D01*
X132399107Y-100086431D01*
X132409415Y-100120409D01*
X132413500Y-100161890D01*
X132413500Y-100838110D01*
X132409415Y-100879591D01*
X132399107Y-100913569D01*
X132382366Y-100944890D01*
X132359839Y-100972339D01*
X132332390Y-100994866D01*
X132301069Y-101011607D01*
X132267091Y-101021915D01*
X132225610Y-101026000D01*
X131624390Y-101026000D01*
X131582909Y-101021915D01*
X131548931Y-101011607D01*
X131517610Y-100994866D01*
X131490161Y-100972339D01*
X131467634Y-100944890D01*
X131450893Y-100913569D01*
X131440585Y-100879591D01*
X131436500Y-100838110D01*
X131436500Y-100161890D01*
X131440585Y-100120409D01*
X131450893Y-100086431D01*
X131467634Y-100055110D01*
X131490161Y-100027661D01*
X131517610Y-100005134D01*
X131548931Y-99988393D01*
X131582909Y-99978085D01*
X131624390Y-99974000D01*
X132225610Y-99974000D01*
X132267091Y-99978085D01*
G37*
G36*
X150326000Y-100901000D02*
G01*
X144074000Y-100901000D01*
X144074000Y-99199000D01*
X150326000Y-99199000D01*
X150326000Y-100901000D01*
G37*
G36*
X127942091Y-99578085D02*
G01*
X127976069Y-99588393D01*
X128007390Y-99605134D01*
X128034839Y-99627661D01*
X128057366Y-99655110D01*
X128074107Y-99686431D01*
X128084415Y-99720409D01*
X128088500Y-99761890D01*
X128088500Y-100438110D01*
X128084415Y-100479591D01*
X128074107Y-100513569D01*
X128057366Y-100544890D01*
X128034839Y-100572339D01*
X128007390Y-100594866D01*
X127976069Y-100611607D01*
X127942091Y-100621915D01*
X127900610Y-100626000D01*
X127299390Y-100626000D01*
X127257909Y-100621915D01*
X127223931Y-100611607D01*
X127192610Y-100594866D01*
X127165161Y-100572339D01*
X127142634Y-100544890D01*
X127125893Y-100513569D01*
X127115585Y-100479591D01*
X127111500Y-100438110D01*
X127111500Y-99761890D01*
X127115585Y-99720409D01*
X127125893Y-99686431D01*
X127142634Y-99655110D01*
X127165161Y-99627661D01*
X127192610Y-99605134D01*
X127223931Y-99588393D01*
X127257909Y-99578085D01*
X127299390Y-99574000D01*
X127900610Y-99574000D01*
X127942091Y-99578085D01*
G37*
G36*
X126367091Y-99578085D02*
G01*
X126401069Y-99588393D01*
X126432390Y-99605134D01*
X126459839Y-99627661D01*
X126482366Y-99655110D01*
X126499107Y-99686431D01*
X126509415Y-99720409D01*
X126513500Y-99761890D01*
X126513500Y-100438110D01*
X126509415Y-100479591D01*
X126499107Y-100513569D01*
X126482366Y-100544890D01*
X126459839Y-100572339D01*
X126432390Y-100594866D01*
X126401069Y-100611607D01*
X126367091Y-100621915D01*
X126325610Y-100626000D01*
X125724390Y-100626000D01*
X125682909Y-100621915D01*
X125648931Y-100611607D01*
X125617610Y-100594866D01*
X125590161Y-100572339D01*
X125567634Y-100544890D01*
X125550893Y-100513569D01*
X125540585Y-100479591D01*
X125536500Y-100438110D01*
X125536500Y-99761890D01*
X125540585Y-99720409D01*
X125550893Y-99686431D01*
X125567634Y-99655110D01*
X125590161Y-99627661D01*
X125617610Y-99605134D01*
X125648931Y-99588393D01*
X125682909Y-99578085D01*
X125724390Y-99574000D01*
X126325610Y-99574000D01*
X126367091Y-99578085D01*
G37*
G36*
X162842091Y-99378085D02*
G01*
X162876069Y-99388393D01*
X162907390Y-99405134D01*
X162934839Y-99427661D01*
X162957366Y-99455110D01*
X162974107Y-99486431D01*
X162984415Y-99520409D01*
X162988500Y-99561890D01*
X162988500Y-100238110D01*
X162984415Y-100279591D01*
X162974107Y-100313569D01*
X162957366Y-100344890D01*
X162934839Y-100372339D01*
X162907390Y-100394866D01*
X162876069Y-100411607D01*
X162842091Y-100421915D01*
X162800610Y-100426000D01*
X162199390Y-100426000D01*
X162157909Y-100421915D01*
X162123931Y-100411607D01*
X162092610Y-100394866D01*
X162065161Y-100372339D01*
X162042634Y-100344890D01*
X162025893Y-100313569D01*
X162015585Y-100279591D01*
X162011500Y-100238110D01*
X162011500Y-99561890D01*
X162015585Y-99520409D01*
X162025893Y-99486431D01*
X162042634Y-99455110D01*
X162065161Y-99427661D01*
X162092610Y-99405134D01*
X162123931Y-99388393D01*
X162157909Y-99378085D01*
X162199390Y-99374000D01*
X162800610Y-99374000D01*
X162842091Y-99378085D01*
G37*
G36*
X161267091Y-99378085D02*
G01*
X161301069Y-99388393D01*
X161332390Y-99405134D01*
X161359839Y-99427661D01*
X161382366Y-99455110D01*
X161399107Y-99486431D01*
X161409415Y-99520409D01*
X161413500Y-99561890D01*
X161413500Y-100238110D01*
X161409415Y-100279591D01*
X161399107Y-100313569D01*
X161382366Y-100344890D01*
X161359839Y-100372339D01*
X161332390Y-100394866D01*
X161301069Y-100411607D01*
X161267091Y-100421915D01*
X161225610Y-100426000D01*
X160624390Y-100426000D01*
X160582909Y-100421915D01*
X160548931Y-100411607D01*
X160517610Y-100394866D01*
X160490161Y-100372339D01*
X160467634Y-100344890D01*
X160450893Y-100313569D01*
X160440585Y-100279591D01*
X160436500Y-100238110D01*
X160436500Y-99561890D01*
X160440585Y-99520409D01*
X160450893Y-99486431D01*
X160467634Y-99455110D01*
X160490161Y-99427661D01*
X160517610Y-99405134D01*
X160548931Y-99388393D01*
X160582909Y-99378085D01*
X160624390Y-99374000D01*
X161225610Y-99374000D01*
X161267091Y-99378085D01*
G37*
G36*
X113451000Y-99151000D02*
G01*
X112149000Y-99151000D01*
X112149000Y-98149000D01*
X113451000Y-98149000D01*
X113451000Y-99151000D01*
G37*
G36*
X131294928Y-97977764D02*
G01*
X131316009Y-97984160D01*
X131335445Y-97994548D01*
X131352476Y-98008524D01*
X131366452Y-98025555D01*
X131376840Y-98044991D01*
X131383236Y-98066072D01*
X131386000Y-98094140D01*
X131386000Y-98557860D01*
X131383236Y-98585928D01*
X131376840Y-98607009D01*
X131366452Y-98626445D01*
X131352476Y-98643476D01*
X131335445Y-98657452D01*
X131316009Y-98667840D01*
X131294928Y-98674236D01*
X131266860Y-98677000D01*
X129453140Y-98677000D01*
X129425072Y-98674236D01*
X129403991Y-98667840D01*
X129384555Y-98657452D01*
X129367524Y-98643476D01*
X129353548Y-98626445D01*
X129343160Y-98607009D01*
X129336764Y-98585928D01*
X129334000Y-98557860D01*
X129334000Y-98094140D01*
X129336764Y-98066072D01*
X129343160Y-98044991D01*
X129353548Y-98025555D01*
X129367524Y-98008524D01*
X129384555Y-97994548D01*
X129403991Y-97984160D01*
X129425072Y-97977764D01*
X129453140Y-97975000D01*
X131266860Y-97975000D01*
X131294928Y-97977764D01*
G37*
G36*
X136244928Y-97977764D02*
G01*
X136266009Y-97984160D01*
X136285445Y-97994548D01*
X136302476Y-98008524D01*
X136316452Y-98025555D01*
X136326840Y-98044991D01*
X136333236Y-98066072D01*
X136336000Y-98094140D01*
X136336000Y-98557860D01*
X136333236Y-98585928D01*
X136326840Y-98607009D01*
X136316452Y-98626445D01*
X136302476Y-98643476D01*
X136285445Y-98657452D01*
X136266009Y-98667840D01*
X136244928Y-98674236D01*
X136216860Y-98677000D01*
X134403140Y-98677000D01*
X134375072Y-98674236D01*
X134353991Y-98667840D01*
X134334555Y-98657452D01*
X134317524Y-98643476D01*
X134303548Y-98626445D01*
X134293160Y-98607009D01*
X134286764Y-98585928D01*
X134284000Y-98557860D01*
X134284000Y-98094140D01*
X134286764Y-98066072D01*
X134293160Y-98044991D01*
X134303548Y-98025555D01*
X134317524Y-98008524D01*
X134334555Y-97994548D01*
X134353991Y-97984160D01*
X134375072Y-97977764D01*
X134403140Y-97975000D01*
X136216860Y-97975000D01*
X136244928Y-97977764D01*
G37*
G36*
X124623000Y-98272000D02*
G01*
X123521000Y-98272000D01*
X123521000Y-96770000D01*
X124623000Y-96770000D01*
X124623000Y-98272000D01*
G37*
G36*
X158467091Y-97078085D02*
G01*
X158501069Y-97088393D01*
X158532390Y-97105134D01*
X158559839Y-97127661D01*
X158582366Y-97155110D01*
X158599107Y-97186431D01*
X158609415Y-97220409D01*
X158613500Y-97261890D01*
X158613500Y-97938110D01*
X158609415Y-97979591D01*
X158599107Y-98013569D01*
X158582366Y-98044890D01*
X158559839Y-98072339D01*
X158532390Y-98094866D01*
X158501069Y-98111607D01*
X158467091Y-98121915D01*
X158425610Y-98126000D01*
X157824390Y-98126000D01*
X157782909Y-98121915D01*
X157748931Y-98111607D01*
X157717610Y-98094866D01*
X157690161Y-98072339D01*
X157667634Y-98044890D01*
X157650893Y-98013569D01*
X157640585Y-97979591D01*
X157636500Y-97938110D01*
X157636500Y-97261890D01*
X157640585Y-97220409D01*
X157650893Y-97186431D01*
X157667634Y-97155110D01*
X157690161Y-97127661D01*
X157717610Y-97105134D01*
X157748931Y-97088393D01*
X157782909Y-97078085D01*
X157824390Y-97074000D01*
X158425610Y-97074000D01*
X158467091Y-97078085D01*
G37*
G36*
X160042091Y-97078085D02*
G01*
X160076069Y-97088393D01*
X160107390Y-97105134D01*
X160134839Y-97127661D01*
X160157366Y-97155110D01*
X160174107Y-97186431D01*
X160184415Y-97220409D01*
X160188500Y-97261890D01*
X160188500Y-97938110D01*
X160184415Y-97979591D01*
X160174107Y-98013569D01*
X160157366Y-98044890D01*
X160134839Y-98072339D01*
X160107390Y-98094866D01*
X160076069Y-98111607D01*
X160042091Y-98121915D01*
X160000610Y-98126000D01*
X159399390Y-98126000D01*
X159357909Y-98121915D01*
X159323931Y-98111607D01*
X159292610Y-98094866D01*
X159265161Y-98072339D01*
X159242634Y-98044890D01*
X159225893Y-98013569D01*
X159215585Y-97979591D01*
X159211500Y-97938110D01*
X159211500Y-97261890D01*
X159215585Y-97220409D01*
X159225893Y-97186431D01*
X159242634Y-97155110D01*
X159265161Y-97127661D01*
X159292610Y-97105134D01*
X159323931Y-97088393D01*
X159357909Y-97078085D01*
X159399390Y-97074000D01*
X160000610Y-97074000D01*
X160042091Y-97078085D01*
G37*
G36*
X140009591Y-96788085D02*
G01*
X140043569Y-96798393D01*
X140074890Y-96815134D01*
X140102339Y-96837661D01*
X140124866Y-96865110D01*
X140141607Y-96896431D01*
X140151915Y-96930409D01*
X140156000Y-96971890D01*
X140156000Y-97648110D01*
X140151915Y-97689591D01*
X140141607Y-97723569D01*
X140124866Y-97754890D01*
X140102339Y-97782339D01*
X140074890Y-97804866D01*
X140043569Y-97821607D01*
X140009591Y-97831915D01*
X139968110Y-97836000D01*
X139366890Y-97836000D01*
X139325409Y-97831915D01*
X139291431Y-97821607D01*
X139260110Y-97804866D01*
X139232661Y-97782339D01*
X139210134Y-97754890D01*
X139193393Y-97723569D01*
X139183085Y-97689591D01*
X139179000Y-97648110D01*
X139179000Y-96971890D01*
X139183085Y-96930409D01*
X139193393Y-96896431D01*
X139210134Y-96865110D01*
X139232661Y-96837661D01*
X139260110Y-96815134D01*
X139291431Y-96798393D01*
X139325409Y-96788085D01*
X139366890Y-96784000D01*
X139968110Y-96784000D01*
X140009591Y-96788085D01*
G37*
G36*
X141584591Y-96788085D02*
G01*
X141618569Y-96798393D01*
X141649890Y-96815134D01*
X141677339Y-96837661D01*
X141699866Y-96865110D01*
X141716607Y-96896431D01*
X141726915Y-96930409D01*
X141731000Y-96971890D01*
X141731000Y-97648110D01*
X141726915Y-97689591D01*
X141716607Y-97723569D01*
X141699866Y-97754890D01*
X141677339Y-97782339D01*
X141649890Y-97804866D01*
X141618569Y-97821607D01*
X141584591Y-97831915D01*
X141543110Y-97836000D01*
X140941890Y-97836000D01*
X140900409Y-97831915D01*
X140866431Y-97821607D01*
X140835110Y-97804866D01*
X140807661Y-97782339D01*
X140785134Y-97754890D01*
X140768393Y-97723569D01*
X140758085Y-97689591D01*
X140754000Y-97648110D01*
X140754000Y-96971890D01*
X140758085Y-96930409D01*
X140768393Y-96896431D01*
X140785134Y-96865110D01*
X140807661Y-96837661D01*
X140835110Y-96815134D01*
X140866431Y-96798393D01*
X140900409Y-96788085D01*
X140941890Y-96784000D01*
X141543110Y-96784000D01*
X141584591Y-96788085D01*
G37*
G36*
X131294928Y-96707764D02*
G01*
X131316009Y-96714160D01*
X131335445Y-96724548D01*
X131352476Y-96738524D01*
X131366452Y-96755555D01*
X131376840Y-96774991D01*
X131383236Y-96796072D01*
X131386000Y-96824140D01*
X131386000Y-97287860D01*
X131383236Y-97315928D01*
X131376840Y-97337009D01*
X131366452Y-97356445D01*
X131352476Y-97373476D01*
X131335445Y-97387452D01*
X131316009Y-97397840D01*
X131294928Y-97404236D01*
X131266860Y-97407000D01*
X129453140Y-97407000D01*
X129425072Y-97404236D01*
X129403991Y-97397840D01*
X129384555Y-97387452D01*
X129367524Y-97373476D01*
X129353548Y-97356445D01*
X129343160Y-97337009D01*
X129336764Y-97315928D01*
X129334000Y-97287860D01*
X129334000Y-96824140D01*
X129336764Y-96796072D01*
X129343160Y-96774991D01*
X129353548Y-96755555D01*
X129367524Y-96738524D01*
X129384555Y-96724548D01*
X129403991Y-96714160D01*
X129425072Y-96707764D01*
X129453140Y-96705000D01*
X131266860Y-96705000D01*
X131294928Y-96707764D01*
G37*
G36*
X136244928Y-96707764D02*
G01*
X136266009Y-96714160D01*
X136285445Y-96724548D01*
X136302476Y-96738524D01*
X136316452Y-96755555D01*
X136326840Y-96774991D01*
X136333236Y-96796072D01*
X136336000Y-96824140D01*
X136336000Y-97287860D01*
X136333236Y-97315928D01*
X136326840Y-97337009D01*
X136316452Y-97356445D01*
X136302476Y-97373476D01*
X136285445Y-97387452D01*
X136266009Y-97397840D01*
X136244928Y-97404236D01*
X136216860Y-97407000D01*
X134403140Y-97407000D01*
X134375072Y-97404236D01*
X134353991Y-97397840D01*
X134334555Y-97387452D01*
X134317524Y-97373476D01*
X134303548Y-97356445D01*
X134293160Y-97337009D01*
X134286764Y-97315928D01*
X134284000Y-97287860D01*
X134284000Y-96824140D01*
X134286764Y-96796072D01*
X134293160Y-96774991D01*
X134303548Y-96755555D01*
X134317524Y-96738524D01*
X134334555Y-96724548D01*
X134353991Y-96714160D01*
X134375072Y-96707764D01*
X134403140Y-96705000D01*
X136216860Y-96705000D01*
X136244928Y-96707764D01*
G37*
G36*
X131294928Y-95437764D02*
G01*
X131316009Y-95444160D01*
X131335445Y-95454548D01*
X131352476Y-95468524D01*
X131366452Y-95485555D01*
X131376840Y-95504991D01*
X131383236Y-95526072D01*
X131386000Y-95554140D01*
X131386000Y-96017860D01*
X131383236Y-96045928D01*
X131376840Y-96067009D01*
X131366452Y-96086445D01*
X131352476Y-96103476D01*
X131335445Y-96117452D01*
X131316009Y-96127840D01*
X131294928Y-96134236D01*
X131266860Y-96137000D01*
X129453140Y-96137000D01*
X129425072Y-96134236D01*
X129403991Y-96127840D01*
X129384555Y-96117452D01*
X129367524Y-96103476D01*
X129353548Y-96086445D01*
X129343160Y-96067009D01*
X129336764Y-96045928D01*
X129334000Y-96017860D01*
X129334000Y-95554140D01*
X129336764Y-95526072D01*
X129343160Y-95504991D01*
X129353548Y-95485555D01*
X129367524Y-95468524D01*
X129384555Y-95454548D01*
X129403991Y-95444160D01*
X129425072Y-95437764D01*
X129453140Y-95435000D01*
X131266860Y-95435000D01*
X131294928Y-95437764D01*
G37*
G36*
X136244928Y-95437764D02*
G01*
X136266009Y-95444160D01*
X136285445Y-95454548D01*
X136302476Y-95468524D01*
X136316452Y-95485555D01*
X136326840Y-95504991D01*
X136333236Y-95526072D01*
X136336000Y-95554140D01*
X136336000Y-96017860D01*
X136333236Y-96045928D01*
X136326840Y-96067009D01*
X136316452Y-96086445D01*
X136302476Y-96103476D01*
X136285445Y-96117452D01*
X136266009Y-96127840D01*
X136244928Y-96134236D01*
X136216860Y-96137000D01*
X134403140Y-96137000D01*
X134375072Y-96134236D01*
X134353991Y-96127840D01*
X134334555Y-96117452D01*
X134317524Y-96103476D01*
X134303548Y-96086445D01*
X134293160Y-96067009D01*
X134286764Y-96045928D01*
X134284000Y-96017860D01*
X134284000Y-95554140D01*
X134286764Y-95526072D01*
X134293160Y-95504991D01*
X134303548Y-95485555D01*
X134317524Y-95468524D01*
X134334555Y-95454548D01*
X134353991Y-95444160D01*
X134375072Y-95437764D01*
X134403140Y-95435000D01*
X136216860Y-95435000D01*
X136244928Y-95437764D01*
G37*
G36*
X123673000Y-96072000D02*
G01*
X122571000Y-96072000D01*
X122571000Y-94570000D01*
X123673000Y-94570000D01*
X123673000Y-96072000D01*
G37*
G36*
X125573000Y-96072000D02*
G01*
X124471000Y-96072000D01*
X124471000Y-94570000D01*
X125573000Y-94570000D01*
X125573000Y-96072000D01*
G37*
G36*
X140009591Y-94629085D02*
G01*
X140043569Y-94639393D01*
X140074890Y-94656134D01*
X140102339Y-94678661D01*
X140124866Y-94706110D01*
X140141607Y-94737431D01*
X140151915Y-94771409D01*
X140156000Y-94812890D01*
X140156000Y-95489110D01*
X140151915Y-95530591D01*
X140141607Y-95564569D01*
X140124866Y-95595890D01*
X140102339Y-95623339D01*
X140074890Y-95645866D01*
X140043569Y-95662607D01*
X140009591Y-95672915D01*
X139968110Y-95677000D01*
X139366890Y-95677000D01*
X139325409Y-95672915D01*
X139291431Y-95662607D01*
X139260110Y-95645866D01*
X139232661Y-95623339D01*
X139210134Y-95595890D01*
X139193393Y-95564569D01*
X139183085Y-95530591D01*
X139179000Y-95489110D01*
X139179000Y-94812890D01*
X139183085Y-94771409D01*
X139193393Y-94737431D01*
X139210134Y-94706110D01*
X139232661Y-94678661D01*
X139260110Y-94656134D01*
X139291431Y-94639393D01*
X139325409Y-94629085D01*
X139366890Y-94625000D01*
X139968110Y-94625000D01*
X140009591Y-94629085D01*
G37*
G36*
X141584591Y-94629085D02*
G01*
X141618569Y-94639393D01*
X141649890Y-94656134D01*
X141677339Y-94678661D01*
X141699866Y-94706110D01*
X141716607Y-94737431D01*
X141726915Y-94771409D01*
X141731000Y-94812890D01*
X141731000Y-95489110D01*
X141726915Y-95530591D01*
X141716607Y-95564569D01*
X141699866Y-95595890D01*
X141677339Y-95623339D01*
X141649890Y-95645866D01*
X141618569Y-95662607D01*
X141584591Y-95672915D01*
X141543110Y-95677000D01*
X140941890Y-95677000D01*
X140900409Y-95672915D01*
X140866431Y-95662607D01*
X140835110Y-95645866D01*
X140807661Y-95623339D01*
X140785134Y-95595890D01*
X140768393Y-95564569D01*
X140758085Y-95530591D01*
X140754000Y-95489110D01*
X140754000Y-94812890D01*
X140758085Y-94771409D01*
X140768393Y-94737431D01*
X140785134Y-94706110D01*
X140807661Y-94678661D01*
X140835110Y-94656134D01*
X140866431Y-94639393D01*
X140900409Y-94629085D01*
X140941890Y-94625000D01*
X141543110Y-94625000D01*
X141584591Y-94629085D01*
G37*
G36*
X111967091Y-94078085D02*
G01*
X112001069Y-94088393D01*
X112032390Y-94105134D01*
X112059839Y-94127661D01*
X112082366Y-94155110D01*
X112099107Y-94186431D01*
X112109415Y-94220409D01*
X112113500Y-94261890D01*
X112113500Y-94938110D01*
X112109415Y-94979591D01*
X112099107Y-95013569D01*
X112082366Y-95044890D01*
X112059839Y-95072339D01*
X112032390Y-95094866D01*
X112001069Y-95111607D01*
X111967091Y-95121915D01*
X111925610Y-95126000D01*
X111324390Y-95126000D01*
X111282909Y-95121915D01*
X111248931Y-95111607D01*
X111217610Y-95094866D01*
X111190161Y-95072339D01*
X111167634Y-95044890D01*
X111150893Y-95013569D01*
X111140585Y-94979591D01*
X111136500Y-94938110D01*
X111136500Y-94261890D01*
X111140585Y-94220409D01*
X111150893Y-94186431D01*
X111167634Y-94155110D01*
X111190161Y-94127661D01*
X111217610Y-94105134D01*
X111248931Y-94088393D01*
X111282909Y-94078085D01*
X111324390Y-94074000D01*
X111925610Y-94074000D01*
X111967091Y-94078085D01*
G37*
G36*
X113542091Y-94078085D02*
G01*
X113576069Y-94088393D01*
X113607390Y-94105134D01*
X113634839Y-94127661D01*
X113657366Y-94155110D01*
X113674107Y-94186431D01*
X113684415Y-94220409D01*
X113688500Y-94261890D01*
X113688500Y-94938110D01*
X113684415Y-94979591D01*
X113674107Y-95013569D01*
X113657366Y-95044890D01*
X113634839Y-95072339D01*
X113607390Y-95094866D01*
X113576069Y-95111607D01*
X113542091Y-95121915D01*
X113500610Y-95126000D01*
X112899390Y-95126000D01*
X112857909Y-95121915D01*
X112823931Y-95111607D01*
X112792610Y-95094866D01*
X112765161Y-95072339D01*
X112742634Y-95044890D01*
X112725893Y-95013569D01*
X112715585Y-94979591D01*
X112711500Y-94938110D01*
X112711500Y-94261890D01*
X112715585Y-94220409D01*
X112725893Y-94186431D01*
X112742634Y-94155110D01*
X112765161Y-94127661D01*
X112792610Y-94105134D01*
X112823931Y-94088393D01*
X112857909Y-94078085D01*
X112899390Y-94074000D01*
X113500610Y-94074000D01*
X113542091Y-94078085D01*
G37*
G36*
X117567091Y-94078085D02*
G01*
X117601069Y-94088393D01*
X117632390Y-94105134D01*
X117659839Y-94127661D01*
X117682366Y-94155110D01*
X117699107Y-94186431D01*
X117709415Y-94220409D01*
X117713500Y-94261890D01*
X117713500Y-94938110D01*
X117709415Y-94979591D01*
X117699107Y-95013569D01*
X117682366Y-95044890D01*
X117659839Y-95072339D01*
X117632390Y-95094866D01*
X117601069Y-95111607D01*
X117567091Y-95121915D01*
X117525610Y-95126000D01*
X116924390Y-95126000D01*
X116882909Y-95121915D01*
X116848931Y-95111607D01*
X116817610Y-95094866D01*
X116790161Y-95072339D01*
X116767634Y-95044890D01*
X116750893Y-95013569D01*
X116740585Y-94979591D01*
X116736500Y-94938110D01*
X116736500Y-94261890D01*
X116740585Y-94220409D01*
X116750893Y-94186431D01*
X116767634Y-94155110D01*
X116790161Y-94127661D01*
X116817610Y-94105134D01*
X116848931Y-94088393D01*
X116882909Y-94078085D01*
X116924390Y-94074000D01*
X117525610Y-94074000D01*
X117567091Y-94078085D01*
G37*
G36*
X119142091Y-94078085D02*
G01*
X119176069Y-94088393D01*
X119207390Y-94105134D01*
X119234839Y-94127661D01*
X119257366Y-94155110D01*
X119274107Y-94186431D01*
X119284415Y-94220409D01*
X119288500Y-94261890D01*
X119288500Y-94938110D01*
X119284415Y-94979591D01*
X119274107Y-95013569D01*
X119257366Y-95044890D01*
X119234839Y-95072339D01*
X119207390Y-95094866D01*
X119176069Y-95111607D01*
X119142091Y-95121915D01*
X119100610Y-95126000D01*
X118499390Y-95126000D01*
X118457909Y-95121915D01*
X118423931Y-95111607D01*
X118392610Y-95094866D01*
X118365161Y-95072339D01*
X118342634Y-95044890D01*
X118325893Y-95013569D01*
X118315585Y-94979591D01*
X118311500Y-94938110D01*
X118311500Y-94261890D01*
X118315585Y-94220409D01*
X118325893Y-94186431D01*
X118342634Y-94155110D01*
X118365161Y-94127661D01*
X118392610Y-94105134D01*
X118423931Y-94088393D01*
X118457909Y-94078085D01*
X118499390Y-94074000D01*
X119100610Y-94074000D01*
X119142091Y-94078085D01*
G37*
G36*
X183901000Y-95001000D02*
G01*
X182099000Y-95001000D01*
X182099000Y-93199000D01*
X183901000Y-93199000D01*
X183901000Y-95001000D01*
G37*
G36*
X180573512Y-93203927D02*
G01*
X180722812Y-93233624D01*
X180886784Y-93301544D01*
X181034354Y-93400147D01*
X181159853Y-93525646D01*
X181258456Y-93673216D01*
X181326376Y-93837188D01*
X181361000Y-94011259D01*
X181361000Y-94188741D01*
X181326376Y-94362812D01*
X181258456Y-94526784D01*
X181159853Y-94674354D01*
X181034354Y-94799853D01*
X180886784Y-94898456D01*
X180722812Y-94966376D01*
X180573512Y-94996073D01*
X180548742Y-95001000D01*
X180371258Y-95001000D01*
X180346488Y-94996073D01*
X180197188Y-94966376D01*
X180033216Y-94898456D01*
X179885646Y-94799853D01*
X179760147Y-94674354D01*
X179661544Y-94526784D01*
X179593624Y-94362812D01*
X179559000Y-94188741D01*
X179559000Y-94011259D01*
X179593624Y-93837188D01*
X179661544Y-93673216D01*
X179760147Y-93525646D01*
X179885646Y-93400147D01*
X180033216Y-93301544D01*
X180197188Y-93233624D01*
X180346488Y-93203927D01*
X180371258Y-93199000D01*
X180548742Y-93199000D01*
X180573512Y-93203927D01*
G37*
G36*
X178033512Y-93203927D02*
G01*
X178182812Y-93233624D01*
X178346784Y-93301544D01*
X178494354Y-93400147D01*
X178619853Y-93525646D01*
X178718456Y-93673216D01*
X178786376Y-93837188D01*
X178821000Y-94011259D01*
X178821000Y-94188741D01*
X178786376Y-94362812D01*
X178718456Y-94526784D01*
X178619853Y-94674354D01*
X178494354Y-94799853D01*
X178346784Y-94898456D01*
X178182812Y-94966376D01*
X178033512Y-94996073D01*
X178008742Y-95001000D01*
X177831258Y-95001000D01*
X177806488Y-94996073D01*
X177657188Y-94966376D01*
X177493216Y-94898456D01*
X177345646Y-94799853D01*
X177220147Y-94674354D01*
X177121544Y-94526784D01*
X177053624Y-94362812D01*
X177019000Y-94188741D01*
X177019000Y-94011259D01*
X177053624Y-93837188D01*
X177121544Y-93673216D01*
X177220147Y-93525646D01*
X177345646Y-93400147D01*
X177493216Y-93301544D01*
X177657188Y-93233624D01*
X177806488Y-93203927D01*
X177831258Y-93199000D01*
X178008742Y-93199000D01*
X178033512Y-93203927D01*
G37*
G36*
X175493512Y-93203927D02*
G01*
X175642812Y-93233624D01*
X175806784Y-93301544D01*
X175954354Y-93400147D01*
X176079853Y-93525646D01*
X176178456Y-93673216D01*
X176246376Y-93837188D01*
X176281000Y-94011259D01*
X176281000Y-94188741D01*
X176246376Y-94362812D01*
X176178456Y-94526784D01*
X176079853Y-94674354D01*
X175954354Y-94799853D01*
X175806784Y-94898456D01*
X175642812Y-94966376D01*
X175493512Y-94996073D01*
X175468742Y-95001000D01*
X175291258Y-95001000D01*
X175266488Y-94996073D01*
X175117188Y-94966376D01*
X174953216Y-94898456D01*
X174805646Y-94799853D01*
X174680147Y-94674354D01*
X174581544Y-94526784D01*
X174513624Y-94362812D01*
X174479000Y-94188741D01*
X174479000Y-94011259D01*
X174513624Y-93837188D01*
X174581544Y-93673216D01*
X174680147Y-93525646D01*
X174805646Y-93400147D01*
X174953216Y-93301544D01*
X175117188Y-93233624D01*
X175266488Y-93203927D01*
X175291258Y-93199000D01*
X175468742Y-93199000D01*
X175493512Y-93203927D01*
G37*
G36*
X172953512Y-93203927D02*
G01*
X173102812Y-93233624D01*
X173266784Y-93301544D01*
X173414354Y-93400147D01*
X173539853Y-93525646D01*
X173638456Y-93673216D01*
X173706376Y-93837188D01*
X173741000Y-94011259D01*
X173741000Y-94188741D01*
X173706376Y-94362812D01*
X173638456Y-94526784D01*
X173539853Y-94674354D01*
X173414354Y-94799853D01*
X173266784Y-94898456D01*
X173102812Y-94966376D01*
X172953512Y-94996073D01*
X172928742Y-95001000D01*
X172751258Y-95001000D01*
X172726488Y-94996073D01*
X172577188Y-94966376D01*
X172413216Y-94898456D01*
X172265646Y-94799853D01*
X172140147Y-94674354D01*
X172041544Y-94526784D01*
X171973624Y-94362812D01*
X171939000Y-94188741D01*
X171939000Y-94011259D01*
X171973624Y-93837188D01*
X172041544Y-93673216D01*
X172140147Y-93525646D01*
X172265646Y-93400147D01*
X172413216Y-93301544D01*
X172577188Y-93233624D01*
X172726488Y-93203927D01*
X172751258Y-93199000D01*
X172928742Y-93199000D01*
X172953512Y-93203927D01*
G37*
G36*
X131294928Y-94167764D02*
G01*
X131316009Y-94174160D01*
X131335445Y-94184548D01*
X131352476Y-94198524D01*
X131366452Y-94215555D01*
X131376840Y-94234991D01*
X131383236Y-94256072D01*
X131386000Y-94284140D01*
X131386000Y-94747860D01*
X131383236Y-94775928D01*
X131376840Y-94797009D01*
X131366452Y-94816445D01*
X131352476Y-94833476D01*
X131335445Y-94847452D01*
X131316009Y-94857840D01*
X131294928Y-94864236D01*
X131266860Y-94867000D01*
X129453140Y-94867000D01*
X129425072Y-94864236D01*
X129403991Y-94857840D01*
X129384555Y-94847452D01*
X129367524Y-94833476D01*
X129353548Y-94816445D01*
X129343160Y-94797009D01*
X129336764Y-94775928D01*
X129334000Y-94747860D01*
X129334000Y-94284140D01*
X129336764Y-94256072D01*
X129343160Y-94234991D01*
X129353548Y-94215555D01*
X129367524Y-94198524D01*
X129384555Y-94184548D01*
X129403991Y-94174160D01*
X129425072Y-94167764D01*
X129453140Y-94165000D01*
X131266860Y-94165000D01*
X131294928Y-94167764D01*
G37*
G36*
X136244928Y-94167764D02*
G01*
X136266009Y-94174160D01*
X136285445Y-94184548D01*
X136302476Y-94198524D01*
X136316452Y-94215555D01*
X136326840Y-94234991D01*
X136333236Y-94256072D01*
X136336000Y-94284140D01*
X136336000Y-94747860D01*
X136333236Y-94775928D01*
X136326840Y-94797009D01*
X136316452Y-94816445D01*
X136302476Y-94833476D01*
X136285445Y-94847452D01*
X136266009Y-94857840D01*
X136244928Y-94864236D01*
X136216860Y-94867000D01*
X134403140Y-94867000D01*
X134375072Y-94864236D01*
X134353991Y-94857840D01*
X134334555Y-94847452D01*
X134317524Y-94833476D01*
X134303548Y-94816445D01*
X134293160Y-94797009D01*
X134286764Y-94775928D01*
X134284000Y-94747860D01*
X134284000Y-94284140D01*
X134286764Y-94256072D01*
X134293160Y-94234991D01*
X134303548Y-94215555D01*
X134317524Y-94198524D01*
X134334555Y-94184548D01*
X134353991Y-94174160D01*
X134375072Y-94167764D01*
X134403140Y-94165000D01*
X136216860Y-94165000D01*
X136244928Y-94167764D01*
G37*
G36*
X146151000Y-91614007D02*
G01*
X146153402Y-91638393D01*
X146160515Y-91661842D01*
X146172066Y-91683453D01*
X146187611Y-91702395D01*
X146206553Y-91717940D01*
X146228164Y-91729491D01*
X146251613Y-91736604D01*
X146275999Y-91739006D01*
X146300385Y-91736604D01*
X146323834Y-91729491D01*
X146345445Y-91717940D01*
X146364387Y-91702395D01*
X146379932Y-91683453D01*
X146391483Y-91661842D01*
X146398596Y-91638393D01*
X146433232Y-91464267D01*
X146519996Y-91254799D01*
X146519997Y-91254797D01*
X146645960Y-91066280D01*
X146806280Y-90905960D01*
X146994797Y-90779997D01*
X147204266Y-90693232D01*
X147315451Y-90671116D01*
X147426635Y-90649000D01*
X147653365Y-90649000D01*
X147764549Y-90671116D01*
X147875734Y-90693232D01*
X148085203Y-90779997D01*
X148273720Y-90905960D01*
X148434040Y-91066280D01*
X148560003Y-91254797D01*
X148560004Y-91254799D01*
X148646768Y-91464267D01*
X148687403Y-91668552D01*
X148694516Y-91692001D01*
X148706067Y-91713612D01*
X148721612Y-91732554D01*
X148740554Y-91748099D01*
X148762165Y-91759650D01*
X148785614Y-91766763D01*
X148810000Y-91769165D01*
X148834386Y-91766763D01*
X148857835Y-91759650D01*
X148879446Y-91748099D01*
X148898388Y-91732554D01*
X148913933Y-91713612D01*
X148925484Y-91692001D01*
X148932597Y-91668552D01*
X148973232Y-91464267D01*
X149059996Y-91254799D01*
X149059997Y-91254797D01*
X149185960Y-91066280D01*
X149346280Y-90905960D01*
X149534797Y-90779997D01*
X149744266Y-90693232D01*
X149855451Y-90671116D01*
X149966635Y-90649000D01*
X150193365Y-90649000D01*
X150304549Y-90671116D01*
X150415734Y-90693232D01*
X150625203Y-90779997D01*
X150813720Y-90905960D01*
X150974040Y-91066280D01*
X151100003Y-91254797D01*
X151100004Y-91254799D01*
X151186768Y-91464267D01*
X151227403Y-91668552D01*
X151234516Y-91692001D01*
X151246067Y-91713612D01*
X151261612Y-91732554D01*
X151280554Y-91748099D01*
X151302165Y-91759650D01*
X151325614Y-91766763D01*
X151350000Y-91769165D01*
X151374386Y-91766763D01*
X151397835Y-91759650D01*
X151419446Y-91748099D01*
X151438388Y-91732554D01*
X151453933Y-91713612D01*
X151465484Y-91692001D01*
X151472597Y-91668552D01*
X151513232Y-91464267D01*
X151599996Y-91254799D01*
X151599997Y-91254797D01*
X151725960Y-91066280D01*
X151886280Y-90905960D01*
X152074797Y-90779997D01*
X152284266Y-90693232D01*
X152395451Y-90671116D01*
X152506635Y-90649000D01*
X152733365Y-90649000D01*
X152844549Y-90671116D01*
X152955734Y-90693232D01*
X153165203Y-90779997D01*
X153353720Y-90905960D01*
X153514040Y-91066280D01*
X153640003Y-91254797D01*
X153640004Y-91254799D01*
X153726768Y-91464267D01*
X153767403Y-91668552D01*
X153774516Y-91692001D01*
X153786067Y-91713612D01*
X153801612Y-91732554D01*
X153820554Y-91748099D01*
X153842165Y-91759650D01*
X153865614Y-91766763D01*
X153890000Y-91769165D01*
X153914386Y-91766763D01*
X153937835Y-91759650D01*
X153959446Y-91748099D01*
X153978388Y-91732554D01*
X153993933Y-91713612D01*
X154005484Y-91692001D01*
X154012597Y-91668552D01*
X154053232Y-91464267D01*
X154139996Y-91254799D01*
X154139997Y-91254797D01*
X154265960Y-91066280D01*
X154426280Y-90905960D01*
X154614797Y-90779997D01*
X154824266Y-90693232D01*
X154935451Y-90671116D01*
X155046635Y-90649000D01*
X155273365Y-90649000D01*
X155384549Y-90671116D01*
X155495734Y-90693232D01*
X155705203Y-90779997D01*
X155893720Y-90905960D01*
X156054040Y-91066280D01*
X156180003Y-91254797D01*
X156180004Y-91254799D01*
X156266768Y-91464267D01*
X156307403Y-91668552D01*
X156314516Y-91692001D01*
X156326067Y-91713612D01*
X156341612Y-91732554D01*
X156360554Y-91748099D01*
X156382165Y-91759650D01*
X156405614Y-91766763D01*
X156430000Y-91769165D01*
X156454386Y-91766763D01*
X156477835Y-91759650D01*
X156499446Y-91748099D01*
X156518388Y-91732554D01*
X156533933Y-91713612D01*
X156545484Y-91692001D01*
X156552597Y-91668552D01*
X156593232Y-91464267D01*
X156679996Y-91254799D01*
X156679997Y-91254797D01*
X156805960Y-91066280D01*
X156966280Y-90905960D01*
X157154797Y-90779997D01*
X157364266Y-90693232D01*
X157475451Y-90671116D01*
X157586635Y-90649000D01*
X157813365Y-90649000D01*
X157924549Y-90671116D01*
X158035734Y-90693232D01*
X158245203Y-90779997D01*
X158433720Y-90905960D01*
X158594040Y-91066280D01*
X158720003Y-91254797D01*
X158806768Y-91464266D01*
X158851000Y-91686636D01*
X158851000Y-91913364D01*
X158806768Y-92135734D01*
X158720003Y-92345203D01*
X158594040Y-92533720D01*
X158433720Y-92694040D01*
X158245203Y-92820003D01*
X158035734Y-92906768D01*
X157924549Y-92928884D01*
X157813365Y-92951000D01*
X157586635Y-92951000D01*
X157475451Y-92928884D01*
X157364266Y-92906768D01*
X157154797Y-92820003D01*
X156966280Y-92694040D01*
X156805960Y-92533720D01*
X156679997Y-92345203D01*
X156593232Y-92135734D01*
X156552597Y-91931448D01*
X156545484Y-91907999D01*
X156533933Y-91886388D01*
X156518388Y-91867446D01*
X156499446Y-91851901D01*
X156477835Y-91840350D01*
X156454386Y-91833237D01*
X156430000Y-91830835D01*
X156405614Y-91833237D01*
X156382165Y-91840350D01*
X156360554Y-91851901D01*
X156341612Y-91867446D01*
X156326067Y-91886388D01*
X156314516Y-91907999D01*
X156307403Y-91931448D01*
X156266768Y-92135734D01*
X156180003Y-92345203D01*
X156054040Y-92533720D01*
X155893720Y-92694040D01*
X155705203Y-92820003D01*
X155495734Y-92906768D01*
X155384549Y-92928884D01*
X155273365Y-92951000D01*
X155046635Y-92951000D01*
X154935451Y-92928884D01*
X154824266Y-92906768D01*
X154614797Y-92820003D01*
X154426280Y-92694040D01*
X154265960Y-92533720D01*
X154139997Y-92345203D01*
X154053232Y-92135734D01*
X154012597Y-91931448D01*
X154005484Y-91907999D01*
X153993933Y-91886388D01*
X153978388Y-91867446D01*
X153959446Y-91851901D01*
X153937835Y-91840350D01*
X153914386Y-91833237D01*
X153890000Y-91830835D01*
X153865614Y-91833237D01*
X153842165Y-91840350D01*
X153820554Y-91851901D01*
X153801612Y-91867446D01*
X153786067Y-91886388D01*
X153774516Y-91907999D01*
X153767403Y-91931448D01*
X153726768Y-92135734D01*
X153640003Y-92345203D01*
X153514040Y-92533720D01*
X153353720Y-92694040D01*
X153165203Y-92820003D01*
X152955734Y-92906768D01*
X152844549Y-92928884D01*
X152733365Y-92951000D01*
X152506635Y-92951000D01*
X152395451Y-92928884D01*
X152284266Y-92906768D01*
X152074797Y-92820003D01*
X151886280Y-92694040D01*
X151725960Y-92533720D01*
X151599997Y-92345203D01*
X151513232Y-92135734D01*
X151472597Y-91931448D01*
X151465484Y-91907999D01*
X151453933Y-91886388D01*
X151438388Y-91867446D01*
X151419446Y-91851901D01*
X151397835Y-91840350D01*
X151374386Y-91833237D01*
X151350000Y-91830835D01*
X151325614Y-91833237D01*
X151302165Y-91840350D01*
X151280554Y-91851901D01*
X151261612Y-91867446D01*
X151246067Y-91886388D01*
X151234516Y-91907999D01*
X151227403Y-91931448D01*
X151186768Y-92135734D01*
X151100003Y-92345203D01*
X150974040Y-92533720D01*
X150813720Y-92694040D01*
X150625203Y-92820003D01*
X150415734Y-92906768D01*
X150304549Y-92928884D01*
X150193365Y-92951000D01*
X149966635Y-92951000D01*
X149855451Y-92928884D01*
X149744266Y-92906768D01*
X149534797Y-92820003D01*
X149346280Y-92694040D01*
X149185960Y-92533720D01*
X149059997Y-92345203D01*
X148973232Y-92135734D01*
X148932597Y-91931448D01*
X148925484Y-91907999D01*
X148913933Y-91886388D01*
X148898388Y-91867446D01*
X148879446Y-91851901D01*
X148857835Y-91840350D01*
X148834386Y-91833237D01*
X148810000Y-91830835D01*
X148785614Y-91833237D01*
X148762165Y-91840350D01*
X148740554Y-91851901D01*
X148721612Y-91867446D01*
X148706067Y-91886388D01*
X148694516Y-91907999D01*
X148687403Y-91931448D01*
X148646768Y-92135734D01*
X148560003Y-92345203D01*
X148434040Y-92533720D01*
X148273720Y-92694040D01*
X148085203Y-92820003D01*
X147875734Y-92906768D01*
X147764549Y-92928884D01*
X147653365Y-92951000D01*
X147426635Y-92951000D01*
X147315451Y-92928884D01*
X147204266Y-92906768D01*
X146994797Y-92820003D01*
X146806280Y-92694040D01*
X146645960Y-92533720D01*
X146519997Y-92345203D01*
X146433232Y-92135734D01*
X146398596Y-91961607D01*
X146391483Y-91938158D01*
X146379932Y-91916547D01*
X146364387Y-91897605D01*
X146345445Y-91882060D01*
X146323834Y-91870509D01*
X146300385Y-91863396D01*
X146275999Y-91860994D01*
X146251613Y-91863396D01*
X146228164Y-91870509D01*
X146206553Y-91882060D01*
X146187611Y-91897605D01*
X146172066Y-91916547D01*
X146160515Y-91938158D01*
X146153402Y-91961607D01*
X146151000Y-91985993D01*
X146151000Y-92951000D01*
X143849000Y-92951000D01*
X143849000Y-90649000D01*
X146151000Y-90649000D01*
X146151000Y-91614007D01*
G37*
G36*
X188849943Y-85966248D02*
G01*
X189405189Y-86196238D01*
X189405190Y-86196239D01*
X189904899Y-86530134D01*
X190329866Y-86955101D01*
X190329867Y-86955103D01*
X190663762Y-87454811D01*
X190893752Y-88010057D01*
X191011000Y-88599501D01*
X191011000Y-89200499D01*
X190893752Y-89789943D01*
X190663762Y-90345189D01*
X190663761Y-90345190D01*
X190329866Y-90844899D01*
X189904899Y-91269866D01*
X189653347Y-91437948D01*
X189405189Y-91603762D01*
X188849943Y-91833752D01*
X188260499Y-91951000D01*
X187659501Y-91951000D01*
X187070057Y-91833752D01*
X186514811Y-91603762D01*
X186266653Y-91437948D01*
X186015101Y-91269866D01*
X185590134Y-90844899D01*
X185256239Y-90345190D01*
X185256238Y-90345189D01*
X185026248Y-89789943D01*
X184909000Y-89200499D01*
X184909000Y-88599501D01*
X185026248Y-88010057D01*
X185256238Y-87454811D01*
X185590133Y-86955103D01*
X185590134Y-86955101D01*
X186015101Y-86530134D01*
X186514810Y-86196239D01*
X186514811Y-86196238D01*
X187070057Y-85966248D01*
X187659501Y-85849000D01*
X188260499Y-85849000D01*
X188849943Y-85966248D01*
G37*
G36*
X118999943Y-85966248D02*
G01*
X119555189Y-86196238D01*
X119555190Y-86196239D01*
X120054899Y-86530134D01*
X120479866Y-86955101D01*
X120479867Y-86955103D01*
X120813762Y-87454811D01*
X121043752Y-88010057D01*
X121161000Y-88599501D01*
X121161000Y-89200499D01*
X121043752Y-89789943D01*
X120813762Y-90345189D01*
X120813761Y-90345190D01*
X120479866Y-90844899D01*
X120054899Y-91269866D01*
X119803347Y-91437948D01*
X119555189Y-91603762D01*
X118999943Y-91833752D01*
X118410499Y-91951000D01*
X117809501Y-91951000D01*
X117220057Y-91833752D01*
X116664811Y-91603762D01*
X116416653Y-91437948D01*
X116165101Y-91269866D01*
X115740134Y-90844899D01*
X115406239Y-90345190D01*
X115406238Y-90345189D01*
X115176248Y-89789943D01*
X115059000Y-89200499D01*
X115059000Y-88599501D01*
X115176248Y-88010057D01*
X115406238Y-87454811D01*
X115740133Y-86955103D01*
X115740134Y-86955101D01*
X116165101Y-86530134D01*
X116664810Y-86196239D01*
X116664811Y-86196238D01*
X117220057Y-85966248D01*
X117809501Y-85849000D01*
X118410499Y-85849000D01*
X118999943Y-85966248D01*
G37*
M02*
